<svg class="rich-terminal" viewBox="0 0 702 952.8" xmlns="http://www.w3.org/2000/svg">
    <!-- Generated with Rich https://www.textualize.io -->
    <style>

    @font-face {
        font-family: "Fira Code";
        src: local("FiraCode-Regular"),
                url("https://cdnjs.cloudflare.com/ajax/libs/firacode/6.2.0/woff2/FiraCode-Regular.woff2") format("woff2"),
                url("https://cdnjs.cloudflare.com/ajax/libs/firacode/6.2.0/woff/FiraCode-Regular.woff") format("woff");
        font-style: normal;
        font-weight: 400;
    }
    @font-face {
        font-family: "Fira Code";
        src: local("FiraCode-Bold"),
                url("https://cdnjs.cloudflare.com/ajax/libs/firacode/6.2.0/woff2/FiraCode-Bold.woff2") format("woff2"),
                url("https://cdnjs.cloudflare.com/ajax/libs/firacode/6.2.0/woff/FiraCode-Bold.woff") format("woff");
        font-style: bold;
        font-weight: 700;
    }

    .terminal-2816354495-matrix {
        font-family: Fira Code, monospace;
        font-size: 20px;
        line-height: 24.4px;
        font-variant-east-asian: full-width;
    }

    .terminal-2816354495-title {
        font-size: 18px;
        font-weight: bold;
        font-family: arial;
    }

    .terminal-2816354495-r1 { fill: #c5c8c6 }
.terminal-2816354495-r2 { fill: #ffffff;font-weight: bold }
.terminal-2816354495-r3 { fill: #7f7f7f }
.terminal-2816354495-r4 { fill: #fffacd }
.terminal-2816354495-r5 { fill: #8c8e8c }
.terminal-2816354495-r6 { fill: #556b2f }
.terminal-2816354495-r7 { fill: #7cfc00 }
.terminal-2816354495-r8 { fill: #32cd32 }
.terminal-2816354495-r9 { fill: #ffd700 }
.terminal-2816354495-r10 { fill: #ff4500 }
.terminal-2816354495-r11 { fill: #d98737 }
.terminal-2816354495-r12 { fill: #d29543 }
.terminal-2816354495-r13 { fill: #c4ae58 }
.terminal-2816354495-r14 { fill: #beb75f }
.terminal-2816354495-r15 { fill: #aed478 }
.terminal-2816354495-r16 { fill: #abd97c }
.terminal-2816354495-r17 { fill: #bed264 }
.terminal-2816354495-r18 { fill: #b6cd70 }
.terminal-2816354495-r19 { fill: #adc77d }
.terminal-2816354495-r20 { fill: #9dbc96 }
.terminal-2816354495-r21 { fill: #8db1af }
.terminal-2816354495-r22 { fill: #85abbb }
.terminal-2816354495-r23 { fill: #6495ed }
.terminal-2816354495-r24 { fill: #ffff00;font-weight: bold }
    </style>

    <defs>
    <clipPath id="terminal-2816354495-clip-terminal">
      <rect x="0" y="0" width="682.1999999999999" height="901.8" />
    </clipPath>
    <clipPath id="terminal-2816354495-line-0">
    <rect x="0" y="1.5" width="683.2" height="24.65"/>
            </clipPath>
<clipPath id="terminal-2816354495-line-1">
    <rect x="0" y="25.9" width="683.2" height="24.65"/>
            </clipPath>
<clipPath id="terminal-2816354495-line-2">
    <rect x="0" y="50.3" width="683.2" height="24.65"/>
            </clipPath>
<clipPath id="terminal-2816354495-line-3">
    <rect x="0" y="74.7" width="683.2" height="24.65"/>
            </clipPath>
<clipPath id="terminal-2816354495-line-4">
    <rect x="0" y="99.1" width="683.2" height="24.65"/>
            </clipPath>
<clipPath id="terminal-2816354495-line-5">
    <rect x="0" y="123.5" width="683.2" height="24.65"/>
            </clipPath>
<clipPath id="terminal-2816354495-line-6">
    <rect x="0" y="147.9" width="683.2" height="24.65"/>
            </clipPath>
<clipPath id="terminal-2816354495-line-7">
    <rect x="0" y="172.3" width="683.2" height="24.65"/>
            </clipPath>
<clipPath id="terminal-2816354495-line-8">
    <rect x="0" y="196.7" width="683.2" height="24.65"/>
            </clipPath>
<clipPath id="terminal-2816354495-line-9">
    <rect x="0" y="221.1" width="683.2" height="24.65"/>
            </clipPath>
<clipPath id="terminal-2816354495-line-10">
    <rect x="0" y="245.5" width="683.2" height="24.65"/>
            </clipPath>
<clipPath id="terminal-2816354495-line-11">
    <rect x="0" y="269.9" width="683.2" height="24.65"/>
            </clipPath>
<clipPath id="terminal-2816354495-line-12">
    <rect x="0" y="294.3" width="683.2" height="24.65"/>
            </clipPath>
<clipPath id="terminal-2816354495-line-13">
    <rect x="0" y="318.7" width="683.2" height="24.65"/>
            </clipPath>
<clipPath id="terminal-2816354495-line-14">
    <rect x="0" y="343.1" width="683.2" height="24.65"/>
            </clipPath>
<clipPath id="terminal-2816354495-line-15">
    <rect x="0" y="367.5" width="683.2" height="24.65"/>
            </clipPath>
<clipPath id="terminal-2816354495-line-16">
    <rect x="0" y="391.9" width="683.2" height="24.65"/>
            </clipPath>
<clipPath id="terminal-2816354495-line-17">
    <rect x="0" y="416.3" width="683.2" height="24.65"/>
            </clipPath>
<clipPath id="terminal-2816354495-line-18">
    <rect x="0" y="440.7" width="683.2" height="24.65"/>
            </clipPath>
<clipPath id="terminal-2816354495-line-19">
    <rect x="0" y="465.1" width="683.2" height="24.65"/>
            </clipPath>
<clipPath id="terminal-2816354495-line-20">
    <rect x="0" y="489.5" width="683.2" height="24.65"/>
            </clipPath>
<clipPath id="terminal-2816354495-line-21">
    <rect x="0" y="513.9" width="683.2" height="24.65"/>
            </clipPath>
<clipPath id="terminal-2816354495-line-22">
    <rect x="0" y="538.3" width="683.2" height="24.65"/>
            </clipPath>
<clipPath id="terminal-2816354495-line-23">
    <rect x="0" y="562.7" width="683.2" height="24.65"/>
            </clipPath>
<clipPath id="terminal-2816354495-line-24">
    <rect x="0" y="587.1" width="683.2" height="24.65"/>
            </clipPath>
<clipPath id="terminal-2816354495-line-25">
    <rect x="0" y="611.5" width="683.2" height="24.65"/>
            </clipPath>
<clipPath id="terminal-2816354495-line-26">
    <rect x="0" y="635.9" width="683.2" height="24.65"/>
            </clipPath>
<clipPath id="terminal-2816354495-line-27">
    <rect x="0" y="660.3" width="683.2" height="24.65"/>
            </clipPath>
<clipPath id="terminal-2816354495-line-28">
    <rect x="0" y="684.7" width="683.2" height="24.65"/>
            </clipPath>
<clipPath id="terminal-2816354495-line-29">
    <rect x="0" y="709.1" width="683.2" height="24.65"/>
            </clipPath>
<clipPath id="terminal-2816354495-line-30">
    <rect x="0" y="733.5" width="683.2" height="24.65"/>
            </clipPath>
<clipPath id="terminal-2816354495-line-31">
    <rect x="0" y="757.9" width="683.2" height="24.65"/>
            </clipPath>
<clipPath id="terminal-2816354495-line-32">
    <rect x="0" y="782.3" width="683.2" height="24.65"/>
            </clipPath>
<clipPath id="terminal-2816354495-line-33">
    <rect x="0" y="806.7" width="683.2" height="24.65"/>
            </clipPath>
<clipPath id="terminal-2816354495-line-34">
    <rect x="0" y="831.1" width="683.2" height="24.65"/>
            </clipPath>
<clipPath id="terminal-2816354495-line-35">
    <rect x="0" y="855.5" width="683.2" height="24.65"/>
            </clipPath>
    </defs>

    <rect fill="#292929" stroke="rgba(255,255,255,0.35)" stroke-width="1" x="1" y="1" width="700" height="950.8" rx="8"/>
            <g transform="translate(26,22)">
            <circle cx="0" cy="0" r="7" fill="#ff5f57"/>
            <circle cx="22" cy="0" r="7" fill="#febc2e"/>
            <circle cx="44" cy="0" r="7" fill="#28c840"/>
            </g>

    <g transform="translate(9, 41)" clip-path="url(#terminal-2816354495-clip-terminal)">
    <rect fill="#373737" x="0" y="1.5" width="683.2" height="24.65" shape-rendering="crispEdges"/><rect fill="#373737" x="0" y="25.9" width="12.2" height="24.65" shape-rendering="crispEdges"/><rect fill="#373737" x="12.2" y="25.9" width="292.8" height="24.65" shape-rendering="crispEdges"/><rect fill="#373737" x="305" y="25.9" width="73.2" height="24.65" shape-rendering="crispEdges"/><rect fill="#373737" x="378.2" y="25.9" width="292.8" height="24.65" shape-rendering="crispEdges"/><rect fill="#373737" x="671" y="25.9" width="12.2" height="24.65" shape-rendering="crispEdges"/><rect fill="#373737" x="0" y="50.3" width="683.2" height="24.65" shape-rendering="crispEdges"/><rect fill="#373737" x="0" y="74.7" width="122" height="24.65" shape-rendering="crispEdges"/><rect fill="#373737" x="122" y="74.7" width="561.2" height="24.65" shape-rendering="crispEdges"/><rect fill="#373737" x="0" y="99.1" width="12.2" height="24.65" shape-rendering="crispEdges"/><rect fill="#373737" x="12.2" y="99.1" width="12.2" height="24.65" shape-rendering="crispEdges"/><rect fill="#373737" x="24.4" y="99.1" width="24.4" height="24.65" shape-rendering="crispEdges"/><rect fill="#373737" x="48.8" y="99.1" width="256.2" height="24.65" shape-rendering="crispEdges"/><rect fill="#373737" x="305" y="99.1" width="378.2" height="24.65" shape-rendering="crispEdges"/><rect fill="#373737" x="0" y="123.5" width="12.2" height="24.65" shape-rendering="crispEdges"/><rect fill="#373737" x="12.2" y="123.5" width="12.2" height="24.65" shape-rendering="crispEdges"/><rect fill="#373737" x="24.4" y="123.5" width="24.4" height="24.65" shape-rendering="crispEdges"/><rect fill="#373737" x="48.8" y="123.5" width="512.4" height="24.65" shape-rendering="crispEdges"/><rect fill="#373737" x="561.2" y="123.5" width="122" height="24.65" shape-rendering="crispEdges"/><rect fill="#373737" x="0" y="147.9" width="12.2" height="24.65" shape-rendering="crispEdges"/><rect fill="#373737" x="12.2" y="147.9" width="12.2" height="24.65" shape-rendering="crispEdges"/><rect fill="#373737" x="24.4" y="147.9" width="24.4" height="24.65" shape-rendering="crispEdges"/><rect fill="#373737" x="48.8" y="147.9" width="488" height="24.65" shape-rendering="crispEdges"/><rect fill="#373737" x="536.8" y="147.9" width="146.4" height="24.65" shape-rendering="crispEdges"/><rect fill="#373737" x="0" y="172.3" width="12.2" height="24.65" shape-rendering="crispEdges"/><rect fill="#373737" x="12.2" y="172.3" width="12.2" height="24.65" shape-rendering="crispEdges"/><rect fill="#373737" x="24.4" y="172.3" width="24.4" height="24.65" shape-rendering="crispEdges"/><rect fill="#373737" x="48.8" y="172.3" width="280.6" height="24.65" shape-rendering="crispEdges"/><rect fill="#373737" x="329.4" y="172.3" width="353.8" height="24.65" shape-rendering="crispEdges"/><rect fill="#373737" x="0" y="196.7" width="12.2" height="24.65" shape-rendering="crispEdges"/><rect fill="#373737" x="12.2" y="196.7" width="12.2" height="24.65" shape-rendering="crispEdges"/><rect fill="#373737" x="24.4" y="196.7" width="24.4" height="24.65" shape-rendering="crispEdges"/><rect fill="#373737" x="48.8" y="196.7" width="341.6" height="24.65" shape-rendering="crispEdges"/><rect fill="#373737" x="390.4" y="196.7" width="292.8" height="24.65" shape-rendering="crispEdges"/><rect fill="#373737" x="0" y="221.1" width="122" height="24.65" shape-rendering="crispEdges"/><rect fill="#373737" x="122" y="221.1" width="561.2" height="24.65" shape-rendering="crispEdges"/><rect fill="#373737" x="0" y="245.5" width="12.2" height="24.65" shape-rendering="crispEdges"/><rect fill="#373737" x="12.2" y="245.5" width="12.2" height="24.65" shape-rendering="crispEdges"/><rect fill="#373737" x="24.4" y="245.5" width="24.4" height="24.65" shape-rendering="crispEdges"/><rect fill="#373737" x="48.8" y="245.5" width="427" height="24.65" shape-rendering="crispEdges"/><rect fill="#373737" x="475.8" y="245.5" width="207.4" height="24.65" shape-rendering="crispEdges"/><rect fill="#373737" x="0" y="269.9" width="122" height="24.65" shape-rendering="crispEdges"/><rect fill="#373737" x="122" y="269.9" width="561.2" height="24.65" shape-rendering="crispEdges"/><rect fill="#373737" x="0" y="294.3" width="12.2" height="24.65" shape-rendering="crispEdges"/><rect fill="#373737" x="12.2" y="294.3" width="12.2" height="24.65" shape-rendering="crispEdges"/><rect fill="#373737" x="24.4" y="294.3" width="24.4" height="24.65" shape-rendering="crispEdges"/><rect fill="#373737" x="48.8" y="294.3" width="573.4" height="24.65" shape-rendering="crispEdges"/><rect fill="#373737" x="622.2" y="294.3" width="61" height="24.65" shape-rendering="crispEdges"/><rect fill="#373737" x="0" y="318.7" width="36.6" height="24.65" shape-rendering="crispEdges"/><rect fill="#373737" x="36.6" y="318.7" width="646.6" height="24.65" shape-rendering="crispEdges"/><rect fill="#373737" x="0" y="343.1" width="109.8" height="24.65" shape-rendering="crispEdges"/><rect fill="#373737" x="109.8" y="343.1" width="573.4" height="24.65" shape-rendering="crispEdges"/><rect fill="#373737" x="0" y="367.5" width="12.2" height="24.65" shape-rendering="crispEdges"/><rect fill="#373737" x="12.2" y="367.5" width="12.2" height="24.65" shape-rendering="crispEdges"/><rect fill="#373737" x="24.4" y="367.5" width="24.4" height="24.65" shape-rendering="crispEdges"/><rect fill="#373737" x="48.8" y="367.5" width="488" height="24.65" shape-rendering="crispEdges"/><rect fill="#373737" x="536.8" y="367.5" width="146.4" height="24.65" shape-rendering="crispEdges"/><rect fill="#373737" x="0" y="391.9" width="12.2" height="24.65" shape-rendering="crispEdges"/><rect fill="#373737" x="12.2" y="391.9" width="12.2" height="24.65" shape-rendering="crispEdges"/><rect fill="#373737" x="24.4" y="391.9" width="24.4" height="24.65" shape-rendering="crispEdges"/><rect fill="#373737" x="48.8" y="391.9" width="475.8" height="24.65" shape-rendering="crispEdges"/><rect fill="#373737" x="524.6" y="391.9" width="158.6" height="24.65" shape-rendering="crispEdges"/><rect fill="#373737" x="0" y="416.3" width="12.2" height="24.65" shape-rendering="crispEdges"/><rect fill="#373737" x="12.2" y="416.3" width="12.2" height="24.65" shape-rendering="crispEdges"/><rect fill="#373737" x="24.4" y="416.3" width="24.4" height="24.65" shape-rendering="crispEdges"/><rect fill="#373737" x="48.8" y="416.3" width="536.8" height="24.65" shape-rendering="crispEdges"/><rect fill="#373737" x="585.6" y="416.3" width="97.6" height="24.65" shape-rendering="crispEdges"/><rect fill="#373737" x="0" y="440.7" width="12.2" height="24.65" shape-rendering="crispEdges"/><rect fill="#373737" x="12.2" y="440.7" width="12.2" height="24.65" shape-rendering="crispEdges"/><rect fill="#373737" x="24.4" y="440.7" width="24.4" height="24.65" shape-rendering="crispEdges"/><rect fill="#373737" x="48.8" y="440.7" width="475.8" height="24.65" shape-rendering="crispEdges"/><rect fill="#373737" x="524.6" y="440.7" width="158.6" height="24.65" shape-rendering="crispEdges"/><rect fill="#373737" x="0" y="465.1" width="12.2" height="24.65" shape-rendering="crispEdges"/><rect fill="#373737" x="12.2" y="465.1" width="12.2" height="24.65" shape-rendering="crispEdges"/><rect fill="#373737" x="24.4" y="465.1" width="24.4" height="24.65" shape-rendering="crispEdges"/><rect fill="#373737" x="48.8" y="465.1" width="536.8" height="24.65" shape-rendering="crispEdges"/><rect fill="#373737" x="585.6" y="465.1" width="97.6" height="24.65" shape-rendering="crispEdges"/><rect fill="#373737" x="0" y="489.5" width="12.2" height="24.65" shape-rendering="crispEdges"/><rect fill="#373737" x="12.2" y="489.5" width="12.2" height="24.65" shape-rendering="crispEdges"/><rect fill="#373737" x="24.4" y="489.5" width="24.4" height="24.65" shape-rendering="crispEdges"/><rect fill="#373737" x="48.8" y="489.5" width="536.8" height="24.65" shape-rendering="crispEdges"/><rect fill="#373737" x="585.6" y="489.5" width="97.6" height="24.65" shape-rendering="crispEdges"/><rect fill="#373737" x="0" y="513.9" width="36.6" height="24.65" shape-rendering="crispEdges"/><rect fill="#373737" x="36.6" y="513.9" width="646.6" height="24.65" shape-rendering="crispEdges"/><rect fill="#373737" x="0" y="538.3" width="122" height="24.65" shape-rendering="crispEdges"/><rect fill="#373737" x="122" y="538.3" width="561.2" height="24.65" shape-rendering="crispEdges"/><rect fill="#373737" x="0" y="562.7" width="12.2" height="24.65" shape-rendering="crispEdges"/><rect fill="#373737" x="12.2" y="562.7" width="12.2" height="24.65" shape-rendering="crispEdges"/><rect fill="#373737" x="24.4" y="562.7" width="24.4" height="24.65" shape-rendering="crispEdges"/><rect fill="#373737" x="48.8" y="562.7" width="280.6" height="24.65" shape-rendering="crispEdges"/><rect fill="#373737" x="329.4" y="562.7" width="353.8" height="24.65" shape-rendering="crispEdges"/><rect fill="#373737" x="0" y="587.1" width="12.2" height="24.65" shape-rendering="crispEdges"/><rect fill="#373737" x="12.2" y="587.1" width="12.2" height="24.65" shape-rendering="crispEdges"/><rect fill="#373737" x="24.4" y="587.1" width="24.4" height="24.65" shape-rendering="crispEdges"/><rect fill="#373737" x="48.8" y="587.1" width="329.4" height="24.65" shape-rendering="crispEdges"/><rect fill="#373737" x="378.2" y="587.1" width="305" height="24.65" shape-rendering="crispEdges"/><rect fill="#373737" x="0" y="611.5" width="12.2" height="24.65" shape-rendering="crispEdges"/><rect fill="#373737" x="12.2" y="611.5" width="12.2" height="24.65" shape-rendering="crispEdges"/><rect fill="#373737" x="24.4" y="611.5" width="24.4" height="24.65" shape-rendering="crispEdges"/><rect fill="#373737" x="48.8" y="611.5" width="341.6" height="24.65" shape-rendering="crispEdges"/><rect fill="#373737" x="390.4" y="611.5" width="292.8" height="24.65" shape-rendering="crispEdges"/><rect fill="#373737" x="0" y="635.9" width="12.2" height="24.65" shape-rendering="crispEdges"/><rect fill="#373737" x="12.2" y="635.9" width="12.2" height="24.65" shape-rendering="crispEdges"/><rect fill="#373737" x="24.4" y="635.9" width="24.4" height="24.65" shape-rendering="crispEdges"/><rect fill="#373737" x="48.8" y="635.9" width="463.6" height="24.65" shape-rendering="crispEdges"/><rect fill="#373737" x="512.4" y="635.9" width="170.8" height="24.65" shape-rendering="crispEdges"/><rect fill="#373737" x="0" y="660.3" width="12.2" height="24.65" shape-rendering="crispEdges"/><rect fill="#373737" x="12.2" y="660.3" width="12.2" height="24.65" shape-rendering="crispEdges"/><rect fill="#373737" x="24.4" y="660.3" width="24.4" height="24.65" shape-rendering="crispEdges"/><rect fill="#373737" x="48.8" y="660.3" width="500.2" height="24.65" shape-rendering="crispEdges"/><rect fill="#373737" x="549" y="660.3" width="134.2" height="24.65" shape-rendering="crispEdges"/><rect fill="#373737" x="0" y="684.7" width="12.2" height="24.65" shape-rendering="crispEdges"/><rect fill="#373737" x="12.2" y="684.7" width="12.2" height="24.65" shape-rendering="crispEdges"/><rect fill="#373737" x="24.4" y="684.7" width="24.4" height="24.65" shape-rendering="crispEdges"/><rect fill="#373737" x="48.8" y="684.7" width="292.8" height="24.65" shape-rendering="crispEdges"/><rect fill="#373737" x="341.6" y="684.7" width="341.6" height="24.65" shape-rendering="crispEdges"/><rect fill="#373737" x="0" y="709.1" width="12.2" height="24.65" shape-rendering="crispEdges"/><rect fill="#373737" x="12.2" y="709.1" width="12.2" height="24.65" shape-rendering="crispEdges"/><rect fill="#373737" x="24.4" y="709.1" width="24.4" height="24.65" shape-rendering="crispEdges"/><rect fill="#373737" x="48.8" y="709.1" width="427" height="24.65" shape-rendering="crispEdges"/><rect fill="#373737" x="475.8" y="709.1" width="207.4" height="24.65" shape-rendering="crispEdges"/><rect fill="#373737" x="0" y="733.5" width="12.2" height="24.65" shape-rendering="crispEdges"/><rect fill="#373737" x="12.2" y="733.5" width="12.2" height="24.65" shape-rendering="crispEdges"/><rect fill="#373737" x="24.4" y="733.5" width="24.4" height="24.65" shape-rendering="crispEdges"/><rect fill="#373737" x="48.8" y="733.5" width="366" height="24.65" shape-rendering="crispEdges"/><rect fill="#373737" x="414.8" y="733.5" width="268.4" height="24.65" shape-rendering="crispEdges"/><rect fill="#373737" x="0" y="757.9" width="12.2" height="24.65" shape-rendering="crispEdges"/><rect fill="#373737" x="12.2" y="757.9" width="12.2" height="24.65" shape-rendering="crispEdges"/><rect fill="#373737" x="24.4" y="757.9" width="24.4" height="24.65" shape-rendering="crispEdges"/><rect fill="#373737" x="48.8" y="757.9" width="500.2" height="24.65" shape-rendering="crispEdges"/><rect fill="#373737" x="549" y="757.9" width="134.2" height="24.65" shape-rendering="crispEdges"/><rect fill="#373737" x="0" y="782.3" width="12.2" height="24.65" shape-rendering="crispEdges"/><rect fill="#373737" x="12.2" y="782.3" width="12.2" height="24.65" shape-rendering="crispEdges"/><rect fill="#373737" x="24.4" y="782.3" width="24.4" height="24.65" shape-rendering="crispEdges"/><rect fill="#373737" x="48.8" y="782.3" width="414.8" height="24.65" shape-rendering="crispEdges"/><rect fill="#373737" x="463.6" y="782.3" width="219.6" height="24.65" shape-rendering="crispEdges"/><rect fill="#373737" x="0" y="806.7" width="12.2" height="24.65" shape-rendering="crispEdges"/><rect fill="#373737" x="12.2" y="806.7" width="12.2" height="24.65" shape-rendering="crispEdges"/><rect fill="#373737" x="24.4" y="806.7" width="24.4" height="24.65" shape-rendering="crispEdges"/><rect fill="#373737" x="48.8" y="806.7" width="353.8" height="24.65" shape-rendering="crispEdges"/><rect fill="#373737" x="402.6" y="806.7" width="280.6" height="24.65" shape-rendering="crispEdges"/><rect fill="#373737" x="0" y="831.1" width="683.2" height="24.65" shape-rendering="crispEdges"/><rect fill="#373737" x="0" y="855.5" width="12.2" height="24.65" shape-rendering="crispEdges"/><rect fill="#373737" x="12.2" y="855.5" width="12.2" height="24.65" shape-rendering="crispEdges"/><rect fill="#373737" x="24.4" y="855.5" width="85.4" height="24.65" shape-rendering="crispEdges"/><rect fill="#373737" x="109.8" y="855.5" width="12.2" height="24.65" shape-rendering="crispEdges"/><rect fill="#373737" x="122" y="855.5" width="85.4" height="24.65" shape-rendering="crispEdges"/><rect fill="#373737" x="207.4" y="855.5" width="463.6" height="24.65" shape-rendering="crispEdges"/><rect fill="#373737" x="671" y="855.5" width="12.2" height="24.65" shape-rendering="crispEdges"/><rect fill="#373737" x="0" y="879.9" width="683.2" height="24.65" shape-rendering="crispEdges"/>
    <g class="terminal-2816354495-matrix">
    <text class="terminal-2816354495-r1" x="683.2" y="20" textLength="12.2" clip-path="url(#terminal-2816354495-line-0)">
</text><text class="terminal-2816354495-r2" x="305" y="44.4" textLength="73.2" clip-path="url(#terminal-2816354495-line-1)">Agenda</text><text class="terminal-2816354495-r1" x="683.2" y="44.4" textLength="12.2" clip-path="url(#terminal-2816354495-line-1)">
</text><text class="terminal-2816354495-r3" x="0" y="68.8" textLength="683.2" clip-path="url(#terminal-2816354495-line-2)">â”€â”€â”€â”€â”€â”€â”€â”€â”€â”€â”€â”€â”€â”€â”€â”€â”€â”€â”€â”€â”€â”€â”€â”€â”€â”€â”€â”€â”€â”€â”€â”€â”€â”€â”€â”€â”€â”€â”€â”€â”€â”€â”€â”€â”€â”€â”€â”€â”€â”€â”€â”€â”€â”€â”€â”€</text><text class="terminal-2816354495-r1" x="683.2" y="68.8" textLength="12.2" clip-path="url(#terminal-2816354495-line-2)">
</text><text class="terminal-2816354495-r4" x="0" y="93.2" textLength="122" clip-path="url(#terminal-2816354495-line-3)">Tue&#160;Jan&#160;13</text><text class="terminal-2816354495-r1" x="683.2" y="93.2" textLength="12.2" clip-path="url(#terminal-2816354495-line-3)">
</text><text class="terminal-2816354495-r5" x="12.2" y="117.6" textLength="12.2" clip-path="url(#terminal-2816354495-line-4)">a</text><text class="terminal-2816354495-r6" x="48.8" y="117.6" textLength="256.2" clip-path="url(#terminal-2816354495-line-4)">Ipsum&#160;quaerat&#160;labore&#160;</text><text class="terminal-2816354495-r1" x="683.2" y="117.6" textLength="12.2" clip-path="url(#terminal-2816354495-line-4)">
</text><text class="terminal-2816354495-r5" x="12.2" y="142" textLength="12.2" clip-path="url(#terminal-2816354495-line-5)">b</text><text class="terminal-2816354495-r7" x="48.8" y="142" textLength="512.4" clip-path="url(#terminal-2816354495-line-5)">11:30-12:15&#160;Porro&#160;velit&#160;porro&#160;eius&#160;dolor&#160;ğ•’</text><text class="terminal-2816354495-r1" x="683.2" y="142" textLength="12.2" clip-path="url(#terminal-2816354495-line-5)">
</text><text class="terminal-2816354495-r5" x="12.2" y="166.4" textLength="12.2" clip-path="url(#terminal-2816354495-line-6)">c</text><text class="terminal-2816354495-r8" x="48.8" y="166.4" textLength="488" clip-path="url(#terminal-2816354495-line-6)">14-15:00&#160;Quiquia&#160;quisquam&#160;non&#160;ipsum&#160;sed&#160;</text><text class="terminal-2816354495-r1" x="683.2" y="166.4" textLength="12.2" clip-path="url(#terminal-2816354495-line-6)">
</text><text class="terminal-2816354495-r5" x="12.2" y="190.8" textLength="12.2" clip-path="url(#terminal-2816354495-line-7)">d</text><text class="terminal-2816354495-r9" x="48.8" y="190.8" textLength="280.6" clip-path="url(#terminal-2816354495-line-7)">+5d&#160;Amet&#160;porro&#160;sit&#160;est&#160;</text><text class="terminal-2816354495-r1" x="683.2" y="190.8" textLength="12.2" clip-path="url(#terminal-2816354495-line-7)">
</text><text class="terminal-2816354495-r5" x="12.2" y="215.2" textLength="12.2" clip-path="url(#terminal-2816354495-line-8)">e</text><text class="terminal-2816354495-r10" x="48.8" y="215.2" textLength="341.6" clip-path="url(#terminal-2816354495-line-8)">&#160;?&#160;Quaerat&#160;amet&#160;labore&#160;dolor</text><text class="terminal-2816354495-r1" x="683.2" y="215.2" textLength="12.2" clip-path="url(#terminal-2816354495-line-8)">
</text><text class="terminal-2816354495-r4" x="0" y="239.6" textLength="122" clip-path="url(#terminal-2816354495-line-9)">Thu&#160;Jan&#160;15</text><text class="terminal-2816354495-r1" x="683.2" y="239.6" textLength="12.2" clip-path="url(#terminal-2816354495-line-9)">
</text><text class="terminal-2816354495-r5" x="12.2" y="264" textLength="12.2" clip-path="url(#terminal-2816354495-line-10)">f</text><text class="terminal-2816354495-r8" x="48.8" y="264" textLength="427" clip-path="url(#terminal-2816354495-line-10)">18:30-19:45&#160;Velit&#160;quiquia&#160;ut&#160;dolor&#160;</text><text class="terminal-2816354495-r1" x="683.2" y="264" textLength="12.2" clip-path="url(#terminal-2816354495-line-10)">
</text><text class="terminal-2816354495-r4" x="0" y="288.4" textLength="122" clip-path="url(#terminal-2816354495-line-11)">Fri&#160;Jan&#160;16</text><text class="terminal-2816354495-r1" x="683.2" y="288.4" textLength="12.2" clip-path="url(#terminal-2816354495-line-11)">
</text><text class="terminal-2816354495-r5" x="12.2" y="312.8" textLength="12.2" clip-path="url(#terminal-2816354495-line-12)">g</text><text class="terminal-2816354495-r8" x="48.8" y="312.8" textLength="573.4" clip-path="url(#terminal-2816354495-line-12)">17-17:15&#160;Ipsum&#160;quiquia&#160;dolor&#160;consectetur&#160;dolor&#160;</text><text class="terminal-2816354495-r1" x="683.2" y="312.8" textLength="12.2" clip-path="url(#terminal-2816354495-line-12)">
</text><text class="terminal-2816354495-r1" x="683.2" y="337.2" textLength="12.2" clip-path="url(#terminal-2816354495-line-13)">
</text><text class="terminal-2816354495-r1" x="0" y="361.6" textLength="109.8" clip-path="url(#terminal-2816354495-line-14)">Goals&#160;(6)</text><text class="terminal-2816354495-r1" x="683.2" y="361.6" textLength="12.2" clip-path="url(#terminal-2816354495-line-14)">
</text><text class="terminal-2816354495-r5" x="12.2" y="386" textLength="12.2" clip-path="url(#terminal-2816354495-line-15)">h</text><text class="terminal-2816354495-r11" x="48.8" y="386" textLength="488" clip-path="url(#terminal-2816354495-line-15)">127&#160;&#160;3/3&#160;5d12h&#160;&#160;Amet&#160;tempora&#160;dolore&#160;non&#160;</text><text class="terminal-2816354495-r1" x="683.2" y="386" textLength="12.2" clip-path="url(#terminal-2816354495-line-15)">
</text><text class="terminal-2816354495-r5" x="12.2" y="410.4" textLength="12.2" clip-path="url(#terminal-2816354495-line-16)">i</text><text class="terminal-2816354495-r12" x="48.8" y="410.4" textLength="475.8" clip-path="url(#terminal-2816354495-line-16)">112&#160;&#160;3/3&#160;&#160;1w5d&#160;&#160;Est&#160;dolore&#160;numquam&#160;sed&#160;</text><text class="terminal-2816354495-r1" x="683.2" y="410.4" textLength="12.2" clip-path="url(#terminal-2816354495-line-16)">
</text><text class="terminal-2816354495-r5" x="12.2" y="434.8" textLength="12.2" clip-path="url(#terminal-2816354495-line-17)">j</text><text class="terminal-2816354495-r13" x="48.8" y="434.8" textLength="536.8" clip-path="url(#terminal-2816354495-line-17)">&#160;85&#160;&#160;2/3&#160;5d12h&#160;&#160;Tempora&#160;dolorem&#160;est&#160;tempora&#160;</text><text class="terminal-2816354495-r1" x="683.2" y="434.8" textLength="12.2" clip-path="url(#terminal-2816354495-line-17)">
</text><text class="terminal-2816354495-r5" x="12.2" y="459.2" textLength="12.2" clip-path="url(#terminal-2816354495-line-18)">k</text><text class="terminal-2816354495-r14" x="48.8" y="459.2" textLength="475.8" clip-path="url(#terminal-2816354495-line-18)">&#160;75&#160;&#160;2/3&#160;&#160;1w5d&#160;&#160;Velit&#160;velit&#160;etincidunt&#160;</text><text class="terminal-2816354495-r1" x="683.2" y="459.2" textLength="12.2" clip-path="url(#terminal-2816354495-line-18)">
</text><text class="terminal-2816354495-r5" x="12.2" y="483.6" textLength="12.2" clip-path="url(#terminal-2816354495-line-19)">l</text><text class="terminal-2816354495-r15" x="48.8" y="483.6" textLength="536.8" clip-path="url(#terminal-2816354495-line-19)">&#160;42&#160;&#160;1/3&#160;5d12h&#160;&#160;Sed&#160;numquam&#160;dolore&#160;adipisci&#160;</text><text class="terminal-2816354495-r1" x="683.2" y="483.6" textLength="12.2" clip-path="url(#terminal-2816354495-line-19)">
</text><text class="terminal-2816354495-r5" x="12.2" y="508" textLength="12.2" clip-path="url(#terminal-2816354495-line-20)">m</text><text class="terminal-2816354495-r16" x="48.8" y="508" textLength="536.8" clip-path="url(#terminal-2816354495-line-20)">&#160;37&#160;&#160;1/3&#160;&#160;1w5d&#160;&#160;Labore&#160;ipsum&#160;dolore&#160;quiquia&#160;</text><text class="terminal-2816354495-r1" x="683.2" y="508" textLength="12.2" clip-path="url(#terminal-2816354495-line-20)">
</text><text class="terminal-2816354495-r1" x="683.2" y="532.4" textLength="12.2" clip-path="url(#terminal-2816354495-line-21)">
</text><text class="terminal-2816354495-r1" x="0" y="556.8" textLength="122" clip-path="url(#terminal-2816354495-line-22)">Tasks&#160;(11)</text><text class="terminal-2816354495-r1" x="683.2" y="556.8" textLength="12.2" clip-path="url(#terminal-2816354495-line-22)">
</text><text class="terminal-2816354495-r5" x="12.2" y="581.2" textLength="12.2" clip-path="url(#terminal-2816354495-line-23)">n</text><text class="terminal-2816354495-r17" x="48.8" y="581.2" textLength="280.6" clip-path="url(#terminal-2816354495-line-23)">&#160;57&#160;&#160;Labore&#160;eius&#160;ipsum&#160;</text><text class="terminal-2816354495-r1" x="683.2" y="581.2" textLength="12.2" clip-path="url(#terminal-2816354495-line-23)">
</text><text class="terminal-2816354495-r5" x="12.2" y="605.6" textLength="12.2" clip-path="url(#terminal-2816354495-line-24)">o</text><text class="terminal-2816354495-r18" x="48.8" y="605.6" textLength="329.4" clip-path="url(#terminal-2816354495-line-24)">&#160;52&#160;&#160;Sed&#160;sed&#160;est&#160;neque&#160;non&#160;</text><text class="terminal-2816354495-r1" x="683.2" y="605.6" textLength="12.2" clip-path="url(#terminal-2816354495-line-24)">
</text><text class="terminal-2816354495-r5" x="12.2" y="630" textLength="12.2" clip-path="url(#terminal-2816354495-line-25)">p</text><text class="terminal-2816354495-r18" x="48.8" y="630" textLength="341.6" clip-path="url(#terminal-2816354495-line-25)">&#160;52&#160;&#160;Consectetur&#160;dolor&#160;modi&#160;</text><text class="terminal-2816354495-r1" x="683.2" y="630" textLength="12.2" clip-path="url(#terminal-2816354495-line-25)">
</text><text class="terminal-2816354495-r5" x="12.2" y="654.4" textLength="12.2" clip-path="url(#terminal-2816354495-line-26)">q</text><text class="terminal-2816354495-r19" x="48.8" y="654.4" textLength="463.6" clip-path="url(#terminal-2816354495-line-26)">&#160;48&#160;&#160;Quiquia&#160;dolor&#160;quaerat&#160;porro&#160;eius&#160;</text><text class="terminal-2816354495-r1" x="683.2" y="654.4" textLength="12.2" clip-path="url(#terminal-2816354495-line-26)">
</text><text class="terminal-2816354495-r5" x="12.2" y="678.8" textLength="12.2" clip-path="url(#terminal-2816354495-line-27)">r</text><text class="terminal-2816354495-r19" x="48.8" y="678.8" textLength="500.2" clip-path="url(#terminal-2816354495-line-27)">&#160;45&#160;&#160;Velit&#160;consectetur&#160;quaerat&#160;ut&#160;dolore&#160;</text><text class="terminal-2816354495-r1" x="683.2" y="678.8" textLength="12.2" clip-path="url(#terminal-2816354495-line-27)">
</text><text class="terminal-2816354495-r5" x="12.2" y="703.2" textLength="12.2" clip-path="url(#terminal-2816354495-line-28)">s</text><text class="terminal-2816354495-r20" x="48.8" y="703.2" textLength="292.8" clip-path="url(#terminal-2816354495-line-28)">&#160;38&#160;&#160;Numquam&#160;eius&#160;ipsum&#160;</text><text class="terminal-2816354495-r1" x="683.2" y="703.2" textLength="12.2" clip-path="url(#terminal-2816354495-line-28)">
</text><text class="terminal-2816354495-r5" x="12.2" y="727.6" textLength="12.2" clip-path="url(#terminal-2816354495-line-29)">t</text><text class="terminal-2816354495-r20" x="48.8" y="727.6" textLength="427" clip-path="url(#terminal-2816354495-line-29)">&#160;38&#160;&#160;Magnam&#160;ipsum&#160;sit&#160;amet&#160;numquam&#160;</text><text class="terminal-2816354495-r1" x="683.2" y="727.6" textLength="12.2" clip-path="url(#terminal-2816354495-line-29)">
</text><text class="terminal-2816354495-r5" x="12.2" y="752" textLength="12.2" clip-path="url(#terminal-2816354495-line-30)">u</text><text class="terminal-2816354495-r21" x="48.8" y="752" textLength="366" clip-path="url(#terminal-2816354495-line-30)">&#160;26&#160;&#160;Sed&#160;non&#160;porro&#160;sed&#160;labore&#160;</text><text class="terminal-2816354495-r1" x="683.2" y="752" textLength="12.2" clip-path="url(#terminal-2816354495-line-30)">
</text><text class="terminal-2816354495-r5" x="12.2" y="776.4" textLength="12.2" clip-path="url(#terminal-2816354495-line-31)">v</text><text class="terminal-2816354495-r22" x="48.8" y="776.4" textLength="500.2" clip-path="url(#terminal-2816354495-line-31)">&#160;24&#160;&#160;Etincidunt&#160;dolore&#160;magnam&#160;etincidunt&#160;</text><text class="terminal-2816354495-r1" x="683.2" y="776.4" textLength="12.2" clip-path="url(#terminal-2816354495-line-31)">
</text><text class="terminal-2816354495-r5" x="12.2" y="800.8" textLength="12.2" clip-path="url(#terminal-2816354495-line-32)">w</text><text class="terminal-2816354495-r22" x="48.8" y="800.8" textLength="414.8" clip-path="url(#terminal-2816354495-line-32)">&#160;21&#160;&#160;Modi&#160;voluptatem&#160;quaerat&#160;amet&#160;</text><text class="terminal-2816354495-r1" x="683.2" y="800.8" textLength="12.2" clip-path="url(#terminal-2816354495-line-32)">
</text><text class="terminal-2816354495-r5" x="12.2" y="825.2" textLength="12.2" clip-path="url(#terminal-2816354495-line-33)">x</text><text class="terminal-2816354495-r23" x="48.8" y="825.2" textLength="353.8" clip-path="url(#terminal-2816354495-line-33)">&#160;&#160;2&#160;&#160;Quisquam&#160;quiquia&#160;dolore&#160;</text><text class="terminal-2816354495-r1" x="683.2" y="825.2" textLength="12.2" clip-path="url(#terminal-2816354495-line-33)">
</text><text class="terminal-2816354495-r3" x="0" y="849.6" textLength="683.2" clip-path="url(#terminal-2816354495-line-34)">â”€â”€â”€â”€â”€â”€â”€â”€â”€â”€â”€â”€â”€â”€â”€â”€â”€â”€â”€â”€â”€â”€â”€â”€â”€â”€â”€â”€â”€â”€â”€â”€â”€â”€â”€â”€â”€â”€â”€â”€â”€â”€â”€â”€â”€â”€â”€â”€â”€â”€â”€â”€â”€â”€â”€â”€</text><text class="terminal-2816354495-r1" x="683.2" y="849.6" textLength="12.2" clip-path="url(#terminal-2816354495-line-34)">
</text><text class="terminal-2816354495-r24" x="12.2" y="874" textLength="12.2" clip-path="url(#terminal-2816354495-line-35)">?</text><text class="terminal-2816354495-r2" x="24.4" y="874" textLength="85.4" clip-path="url(#terminal-2816354495-line-35)">&#160;Help&#160;&#160;</text><text class="terminal-2816354495-r24" x="109.8" y="874" textLength="12.2" clip-path="url(#terminal-2816354495-line-35)">/</text><text class="terminal-2816354495-r2" x="122" y="874" textLength="85.4" clip-path="url(#terminal-2816354495-line-35)">&#160;Search</text><text class="terminal-2816354495-r1" x="683.2" y="874" textLength="12.2" clip-path="url(#terminal-2816354495-line-35)">
</text>
    </g>
    </g>
</svg>
