<svg class="rich-terminal" viewBox="0 0 775 1343.1999999999998" xmlns="http://www.w3.org/2000/svg">
    <!-- Generated with Rich https://www.textualize.io -->
    <style>

    @font-face {
        font-family: "Fira Code";
        src: local("FiraCode-Regular"),
                url("https://cdnjs.cloudflare.com/ajax/libs/firacode/6.2.0/woff2/FiraCode-Regular.woff2") format("woff2"),
                url("https://cdnjs.cloudflare.com/ajax/libs/firacode/6.2.0/woff/FiraCode-Regular.woff") format("woff");
        font-style: normal;
        font-weight: 400;
    }
    @font-face {
        font-family: "Fira Code";
        src: local("FiraCode-Bold"),
                url("https://cdnjs.cloudflare.com/ajax/libs/firacode/6.2.0/woff2/FiraCode-Bold.woff2") format("woff2"),
                url("https://cdnjs.cloudflare.com/ajax/libs/firacode/6.2.0/woff/FiraCode-Bold.woff") format("woff");
        font-style: bold;
        font-weight: 700;
    }

    .terminal-177041083-matrix {
        font-family: Fira Code, monospace;
        font-size: 20px;
        line-height: 24.4px;
        font-variant-east-asian: full-width;
    }

    .terminal-177041083-title {
        font-size: 18px;
        font-weight: bold;
        font-family: arial;
    }

    .terminal-177041083-r1 { fill: #c5c8c6 }
.terminal-177041083-r2 { fill: #ffffff;font-weight: bold }
.terminal-177041083-r3 { fill: #7f7f7f }
.terminal-177041083-r4 { fill: #ffd700;font-weight: bold }
.terminal-177041083-r5 { fill: #8c8e8c }
.terminal-177041083-r6 { fill: #daa520 }
.terminal-177041083-r7 { fill: #ffff00;font-weight: bold }
    </style>

    <defs>
    <clipPath id="terminal-177041083-clip-terminal">
      <rect x="0" y="0" width="755.4" height="1292.1999999999998" />
    </clipPath>
    <clipPath id="terminal-177041083-line-0">
    <rect x="0" y="1.5" width="756.4" height="24.65"/>
            </clipPath>
<clipPath id="terminal-177041083-line-1">
    <rect x="0" y="25.9" width="756.4" height="24.65"/>
            </clipPath>
<clipPath id="terminal-177041083-line-2">
    <rect x="0" y="50.3" width="756.4" height="24.65"/>
            </clipPath>
<clipPath id="terminal-177041083-line-3">
    <rect x="0" y="74.7" width="756.4" height="24.65"/>
            </clipPath>
<clipPath id="terminal-177041083-line-4">
    <rect x="0" y="99.1" width="756.4" height="24.65"/>
            </clipPath>
<clipPath id="terminal-177041083-line-5">
    <rect x="0" y="123.5" width="756.4" height="24.65"/>
            </clipPath>
<clipPath id="terminal-177041083-line-6">
    <rect x="0" y="147.9" width="756.4" height="24.65"/>
            </clipPath>
<clipPath id="terminal-177041083-line-7">
    <rect x="0" y="172.3" width="756.4" height="24.65"/>
            </clipPath>
<clipPath id="terminal-177041083-line-8">
    <rect x="0" y="196.7" width="756.4" height="24.65"/>
            </clipPath>
<clipPath id="terminal-177041083-line-9">
    <rect x="0" y="221.1" width="756.4" height="24.65"/>
            </clipPath>
<clipPath id="terminal-177041083-line-10">
    <rect x="0" y="245.5" width="756.4" height="24.65"/>
            </clipPath>
<clipPath id="terminal-177041083-line-11">
    <rect x="0" y="269.9" width="756.4" height="24.65"/>
            </clipPath>
<clipPath id="terminal-177041083-line-12">
    <rect x="0" y="294.3" width="756.4" height="24.65"/>
            </clipPath>
<clipPath id="terminal-177041083-line-13">
    <rect x="0" y="318.7" width="756.4" height="24.65"/>
            </clipPath>
<clipPath id="terminal-177041083-line-14">
    <rect x="0" y="343.1" width="756.4" height="24.65"/>
            </clipPath>
<clipPath id="terminal-177041083-line-15">
    <rect x="0" y="367.5" width="756.4" height="24.65"/>
            </clipPath>
<clipPath id="terminal-177041083-line-16">
    <rect x="0" y="391.9" width="756.4" height="24.65"/>
            </clipPath>
<clipPath id="terminal-177041083-line-17">
    <rect x="0" y="416.3" width="756.4" height="24.65"/>
            </clipPath>
<clipPath id="terminal-177041083-line-18">
    <rect x="0" y="440.7" width="756.4" height="24.65"/>
            </clipPath>
<clipPath id="terminal-177041083-line-19">
    <rect x="0" y="465.1" width="756.4" height="24.65"/>
            </clipPath>
<clipPath id="terminal-177041083-line-20">
    <rect x="0" y="489.5" width="756.4" height="24.65"/>
            </clipPath>
<clipPath id="terminal-177041083-line-21">
    <rect x="0" y="513.9" width="756.4" height="24.65"/>
            </clipPath>
<clipPath id="terminal-177041083-line-22">
    <rect x="0" y="538.3" width="756.4" height="24.65"/>
            </clipPath>
<clipPath id="terminal-177041083-line-23">
    <rect x="0" y="562.7" width="756.4" height="24.65"/>
            </clipPath>
<clipPath id="terminal-177041083-line-24">
    <rect x="0" y="587.1" width="756.4" height="24.65"/>
            </clipPath>
<clipPath id="terminal-177041083-line-25">
    <rect x="0" y="611.5" width="756.4" height="24.65"/>
            </clipPath>
<clipPath id="terminal-177041083-line-26">
    <rect x="0" y="635.9" width="756.4" height="24.65"/>
            </clipPath>
<clipPath id="terminal-177041083-line-27">
    <rect x="0" y="660.3" width="756.4" height="24.65"/>
            </clipPath>
<clipPath id="terminal-177041083-line-28">
    <rect x="0" y="684.7" width="756.4" height="24.65"/>
            </clipPath>
<clipPath id="terminal-177041083-line-29">
    <rect x="0" y="709.1" width="756.4" height="24.65"/>
            </clipPath>
<clipPath id="terminal-177041083-line-30">
    <rect x="0" y="733.5" width="756.4" height="24.65"/>
            </clipPath>
<clipPath id="terminal-177041083-line-31">
    <rect x="0" y="757.9" width="756.4" height="24.65"/>
            </clipPath>
<clipPath id="terminal-177041083-line-32">
    <rect x="0" y="782.3" width="756.4" height="24.65"/>
            </clipPath>
<clipPath id="terminal-177041083-line-33">
    <rect x="0" y="806.7" width="756.4" height="24.65"/>
            </clipPath>
<clipPath id="terminal-177041083-line-34">
    <rect x="0" y="831.1" width="756.4" height="24.65"/>
            </clipPath>
<clipPath id="terminal-177041083-line-35">
    <rect x="0" y="855.5" width="756.4" height="24.65"/>
            </clipPath>
<clipPath id="terminal-177041083-line-36">
    <rect x="0" y="879.9" width="756.4" height="24.65"/>
            </clipPath>
<clipPath id="terminal-177041083-line-37">
    <rect x="0" y="904.3" width="756.4" height="24.65"/>
            </clipPath>
<clipPath id="terminal-177041083-line-38">
    <rect x="0" y="928.7" width="756.4" height="24.65"/>
            </clipPath>
<clipPath id="terminal-177041083-line-39">
    <rect x="0" y="953.1" width="756.4" height="24.65"/>
            </clipPath>
<clipPath id="terminal-177041083-line-40">
    <rect x="0" y="977.5" width="756.4" height="24.65"/>
            </clipPath>
<clipPath id="terminal-177041083-line-41">
    <rect x="0" y="1001.9" width="756.4" height="24.65"/>
            </clipPath>
<clipPath id="terminal-177041083-line-42">
    <rect x="0" y="1026.3" width="756.4" height="24.65"/>
            </clipPath>
<clipPath id="terminal-177041083-line-43">
    <rect x="0" y="1050.7" width="756.4" height="24.65"/>
            </clipPath>
<clipPath id="terminal-177041083-line-44">
    <rect x="0" y="1075.1" width="756.4" height="24.65"/>
            </clipPath>
<clipPath id="terminal-177041083-line-45">
    <rect x="0" y="1099.5" width="756.4" height="24.65"/>
            </clipPath>
<clipPath id="terminal-177041083-line-46">
    <rect x="0" y="1123.9" width="756.4" height="24.65"/>
            </clipPath>
<clipPath id="terminal-177041083-line-47">
    <rect x="0" y="1148.3" width="756.4" height="24.65"/>
            </clipPath>
<clipPath id="terminal-177041083-line-48">
    <rect x="0" y="1172.7" width="756.4" height="24.65"/>
            </clipPath>
<clipPath id="terminal-177041083-line-49">
    <rect x="0" y="1197.1" width="756.4" height="24.65"/>
            </clipPath>
<clipPath id="terminal-177041083-line-50">
    <rect x="0" y="1221.5" width="756.4" height="24.65"/>
            </clipPath>
<clipPath id="terminal-177041083-line-51">
    <rect x="0" y="1245.9" width="756.4" height="24.65"/>
            </clipPath>
    </defs>

    <rect fill="#292929" stroke="rgba(255,255,255,0.35)" stroke-width="1" x="1" y="1" width="773" height="1341.2" rx="8"/>
            <g transform="translate(26,22)">
            <circle cx="0" cy="0" r="7" fill="#ff5f57"/>
            <circle cx="22" cy="0" r="7" fill="#febc2e"/>
            <circle cx="44" cy="0" r="7" fill="#28c840"/>
            </g>
        
    <g transform="translate(9, 41)" clip-path="url(#terminal-177041083-clip-terminal)">
    <rect fill="#373737" x="0" y="1.5" width="756.4" height="24.65" shape-rendering="crispEdges"/><rect fill="#373737" x="0" y="25.9" width="12.2" height="24.65" shape-rendering="crispEdges"/><rect fill="#373737" x="12.2" y="25.9" width="341.6" height="24.65" shape-rendering="crispEdges"/><rect fill="#373737" x="353.8" y="25.9" width="48.8" height="24.65" shape-rendering="crispEdges"/><rect fill="#373737" x="402.6" y="25.9" width="341.6" height="24.65" shape-rendering="crispEdges"/><rect fill="#373737" x="744.2" y="25.9" width="12.2" height="24.65" shape-rendering="crispEdges"/><rect fill="#373737" x="0" y="50.3" width="756.4" height="24.65" shape-rendering="crispEdges"/><rect fill="#373737" x="0" y="74.7" width="48.8" height="24.65" shape-rendering="crispEdges"/><rect fill="#373737" x="48.8" y="74.7" width="707.6" height="24.65" shape-rendering="crispEdges"/><rect fill="#373737" x="0" y="99.1" width="48.8" height="24.65" shape-rendering="crispEdges"/><rect fill="#373737" x="48.8" y="99.1" width="12.2" height="24.65" shape-rendering="crispEdges"/><rect fill="#373737" x="61" y="99.1" width="12.2" height="24.65" shape-rendering="crispEdges"/><rect fill="#373737" x="73.2" y="99.1" width="122" height="24.65" shape-rendering="crispEdges"/><rect fill="#373737" x="195.2" y="99.1" width="561.2" height="24.65" shape-rendering="crispEdges"/><rect fill="#373737" x="0" y="123.5" width="48.8" height="24.65" shape-rendering="crispEdges"/><rect fill="#373737" x="48.8" y="123.5" width="12.2" height="24.65" shape-rendering="crispEdges"/><rect fill="#373737" x="61" y="123.5" width="12.2" height="24.65" shape-rendering="crispEdges"/><rect fill="#373737" x="73.2" y="123.5" width="85.4" height="24.65" shape-rendering="crispEdges"/><rect fill="#373737" x="158.6" y="123.5" width="597.8" height="24.65" shape-rendering="crispEdges"/><rect fill="#373737" x="0" y="147.9" width="97.6" height="24.65" shape-rendering="crispEdges"/><rect fill="#373737" x="97.6" y="147.9" width="48.8" height="24.65" shape-rendering="crispEdges"/><rect fill="#373737" x="146.4" y="147.9" width="610" height="24.65" shape-rendering="crispEdges"/><rect fill="#373737" x="0" y="172.3" width="146.4" height="24.65" shape-rendering="crispEdges"/><rect fill="#373737" x="146.4" y="172.3" width="24.4" height="24.65" shape-rendering="crispEdges"/><rect fill="#373737" x="170.8" y="172.3" width="585.6" height="24.65" shape-rendering="crispEdges"/><rect fill="#373737" x="0" y="196.7" width="146.4" height="24.65" shape-rendering="crispEdges"/><rect fill="#373737" x="146.4" y="196.7" width="24.4" height="24.65" shape-rendering="crispEdges"/><rect fill="#373737" x="170.8" y="196.7" width="585.6" height="24.65" shape-rendering="crispEdges"/><rect fill="#373737" x="0" y="221.1" width="97.6" height="24.65" shape-rendering="crispEdges"/><rect fill="#373737" x="97.6" y="221.1" width="48.8" height="24.65" shape-rendering="crispEdges"/><rect fill="#373737" x="146.4" y="221.1" width="610" height="24.65" shape-rendering="crispEdges"/><rect fill="#373737" x="0" y="245.5" width="146.4" height="24.65" shape-rendering="crispEdges"/><rect fill="#373737" x="146.4" y="245.5" width="24.4" height="24.65" shape-rendering="crispEdges"/><rect fill="#373737" x="170.8" y="245.5" width="585.6" height="24.65" shape-rendering="crispEdges"/><rect fill="#373737" x="0" y="269.9" width="48.8" height="24.65" shape-rendering="crispEdges"/><rect fill="#373737" x="48.8" y="269.9" width="12.2" height="24.65" shape-rendering="crispEdges"/><rect fill="#373737" x="61" y="269.9" width="12.2" height="24.65" shape-rendering="crispEdges"/><rect fill="#373737" x="73.2" y="269.9" width="85.4" height="24.65" shape-rendering="crispEdges"/><rect fill="#373737" x="158.6" y="269.9" width="597.8" height="24.65" shape-rendering="crispEdges"/><rect fill="#373737" x="0" y="294.3" width="97.6" height="24.65" shape-rendering="crispEdges"/><rect fill="#373737" x="97.6" y="294.3" width="61" height="24.65" shape-rendering="crispEdges"/><rect fill="#373737" x="158.6" y="294.3" width="597.8" height="24.65" shape-rendering="crispEdges"/><rect fill="#373737" x="0" y="318.7" width="97.6" height="24.65" shape-rendering="crispEdges"/><rect fill="#373737" x="97.6" y="318.7" width="73.2" height="24.65" shape-rendering="crispEdges"/><rect fill="#373737" x="170.8" y="318.7" width="585.6" height="24.65" shape-rendering="crispEdges"/><rect fill="#373737" x="0" y="343.1" width="97.6" height="24.65" shape-rendering="crispEdges"/><rect fill="#373737" x="97.6" y="343.1" width="73.2" height="24.65" shape-rendering="crispEdges"/><rect fill="#373737" x="170.8" y="343.1" width="585.6" height="24.65" shape-rendering="crispEdges"/><rect fill="#373737" x="0" y="367.5" width="97.6" height="24.65" shape-rendering="crispEdges"/><rect fill="#373737" x="97.6" y="367.5" width="122" height="24.65" shape-rendering="crispEdges"/><rect fill="#373737" x="219.6" y="367.5" width="536.8" height="24.65" shape-rendering="crispEdges"/><rect fill="#373737" x="0" y="391.9" width="97.6" height="24.65" shape-rendering="crispEdges"/><rect fill="#373737" x="97.6" y="391.9" width="73.2" height="24.65" shape-rendering="crispEdges"/><rect fill="#373737" x="170.8" y="391.9" width="585.6" height="24.65" shape-rendering="crispEdges"/><rect fill="#373737" x="0" y="416.3" width="48.8" height="24.65" shape-rendering="crispEdges"/><rect fill="#373737" x="48.8" y="416.3" width="12.2" height="24.65" shape-rendering="crispEdges"/><rect fill="#373737" x="61" y="416.3" width="12.2" height="24.65" shape-rendering="crispEdges"/><rect fill="#373737" x="73.2" y="416.3" width="73.2" height="24.65" shape-rendering="crispEdges"/><rect fill="#373737" x="146.4" y="416.3" width="610" height="24.65" shape-rendering="crispEdges"/><rect fill="#373737" x="0" y="440.7" width="97.6" height="24.65" shape-rendering="crispEdges"/><rect fill="#373737" x="97.6" y="440.7" width="12.2" height="24.65" shape-rendering="crispEdges"/><rect fill="#373737" x="109.8" y="440.7" width="646.6" height="24.65" shape-rendering="crispEdges"/><rect fill="#373737" x="0" y="465.1" width="97.6" height="24.65" shape-rendering="crispEdges"/><rect fill="#373737" x="97.6" y="465.1" width="12.2" height="24.65" shape-rendering="crispEdges"/><rect fill="#373737" x="109.8" y="465.1" width="646.6" height="24.65" shape-rendering="crispEdges"/><rect fill="#373737" x="0" y="489.5" width="48.8" height="24.65" shape-rendering="crispEdges"/><rect fill="#373737" x="48.8" y="489.5" width="12.2" height="24.65" shape-rendering="crispEdges"/><rect fill="#373737" x="61" y="489.5" width="12.2" height="24.65" shape-rendering="crispEdges"/><rect fill="#373737" x="73.2" y="489.5" width="73.2" height="24.65" shape-rendering="crispEdges"/><rect fill="#373737" x="146.4" y="489.5" width="610" height="24.65" shape-rendering="crispEdges"/><rect fill="#373737" x="0" y="513.9" width="48.8" height="24.65" shape-rendering="crispEdges"/><rect fill="#373737" x="48.8" y="513.9" width="12.2" height="24.65" shape-rendering="crispEdges"/><rect fill="#373737" x="61" y="513.9" width="12.2" height="24.65" shape-rendering="crispEdges"/><rect fill="#373737" x="73.2" y="513.9" width="97.6" height="24.65" shape-rendering="crispEdges"/><rect fill="#373737" x="170.8" y="513.9" width="585.6" height="24.65" shape-rendering="crispEdges"/><rect fill="#373737" x="0" y="538.3" width="48.8" height="24.65" shape-rendering="crispEdges"/><rect fill="#373737" x="48.8" y="538.3" width="12.2" height="24.65" shape-rendering="crispEdges"/><rect fill="#373737" x="61" y="538.3" width="12.2" height="24.65" shape-rendering="crispEdges"/><rect fill="#373737" x="73.2" y="538.3" width="85.4" height="24.65" shape-rendering="crispEdges"/><rect fill="#373737" x="158.6" y="538.3" width="597.8" height="24.65" shape-rendering="crispEdges"/><rect fill="#373737" x="0" y="562.7" width="97.6" height="24.65" shape-rendering="crispEdges"/><rect fill="#373737" x="97.6" y="562.7" width="48.8" height="24.65" shape-rendering="crispEdges"/><rect fill="#373737" x="146.4" y="562.7" width="610" height="24.65" shape-rendering="crispEdges"/><rect fill="#373737" x="0" y="587.1" width="97.6" height="24.65" shape-rendering="crispEdges"/><rect fill="#373737" x="97.6" y="587.1" width="134.2" height="24.65" shape-rendering="crispEdges"/><rect fill="#373737" x="231.8" y="587.1" width="524.6" height="24.65" shape-rendering="crispEdges"/><rect fill="#373737" x="0" y="611.5" width="97.6" height="24.65" shape-rendering="crispEdges"/><rect fill="#373737" x="97.6" y="611.5" width="97.6" height="24.65" shape-rendering="crispEdges"/><rect fill="#373737" x="195.2" y="611.5" width="561.2" height="24.65" shape-rendering="crispEdges"/><rect fill="#373737" x="0" y="635.9" width="97.6" height="24.65" shape-rendering="crispEdges"/><rect fill="#373737" x="97.6" y="635.9" width="85.4" height="24.65" shape-rendering="crispEdges"/><rect fill="#373737" x="183" y="635.9" width="573.4" height="24.65" shape-rendering="crispEdges"/><rect fill="#373737" x="0" y="660.3" width="97.6" height="24.65" shape-rendering="crispEdges"/><rect fill="#373737" x="97.6" y="660.3" width="109.8" height="24.65" shape-rendering="crispEdges"/><rect fill="#373737" x="207.4" y="660.3" width="549" height="24.65" shape-rendering="crispEdges"/><rect fill="#373737" x="0" y="684.7" width="97.6" height="24.65" shape-rendering="crispEdges"/><rect fill="#373737" x="97.6" y="684.7" width="73.2" height="24.65" shape-rendering="crispEdges"/><rect fill="#373737" x="170.8" y="684.7" width="585.6" height="24.65" shape-rendering="crispEdges"/><rect fill="#373737" x="0" y="709.1" width="48.8" height="24.65" shape-rendering="crispEdges"/><rect fill="#373737" x="48.8" y="709.1" width="12.2" height="24.65" shape-rendering="crispEdges"/><rect fill="#373737" x="61" y="709.1" width="12.2" height="24.65" shape-rendering="crispEdges"/><rect fill="#373737" x="73.2" y="709.1" width="48.8" height="24.65" shape-rendering="crispEdges"/><rect fill="#373737" x="122" y="709.1" width="634.4" height="24.65" shape-rendering="crispEdges"/><rect fill="#373737" x="0" y="733.5" width="48.8" height="24.65" shape-rendering="crispEdges"/><rect fill="#373737" x="48.8" y="733.5" width="12.2" height="24.65" shape-rendering="crispEdges"/><rect fill="#373737" x="61" y="733.5" width="12.2" height="24.65" shape-rendering="crispEdges"/><rect fill="#373737" x="73.2" y="733.5" width="97.6" height="24.65" shape-rendering="crispEdges"/><rect fill="#373737" x="170.8" y="733.5" width="585.6" height="24.65" shape-rendering="crispEdges"/><rect fill="#373737" x="0" y="757.9" width="756.4" height="24.65" shape-rendering="crispEdges"/><rect fill="#373737" x="0" y="782.3" width="756.4" height="24.65" shape-rendering="crispEdges"/><rect fill="#373737" x="0" y="806.7" width="756.4" height="24.65" shape-rendering="crispEdges"/><rect fill="#373737" x="0" y="831.1" width="756.4" height="24.65" shape-rendering="crispEdges"/><rect fill="#373737" x="0" y="855.5" width="756.4" height="24.65" shape-rendering="crispEdges"/><rect fill="#373737" x="0" y="879.9" width="756.4" height="24.65" shape-rendering="crispEdges"/><rect fill="#373737" x="0" y="904.3" width="756.4" height="24.65" shape-rendering="crispEdges"/><rect fill="#373737" x="0" y="928.7" width="756.4" height="24.65" shape-rendering="crispEdges"/><rect fill="#373737" x="0" y="953.1" width="756.4" height="24.65" shape-rendering="crispEdges"/><rect fill="#373737" x="0" y="977.5" width="756.4" height="24.65" shape-rendering="crispEdges"/><rect fill="#373737" x="0" y="1001.9" width="756.4" height="24.65" shape-rendering="crispEdges"/><rect fill="#373737" x="0" y="1026.3" width="756.4" height="24.65" shape-rendering="crispEdges"/><rect fill="#373737" x="0" y="1050.7" width="756.4" height="24.65" shape-rendering="crispEdges"/><rect fill="#373737" x="0" y="1075.1" width="756.4" height="24.65" shape-rendering="crispEdges"/><rect fill="#373737" x="0" y="1099.5" width="756.4" height="24.65" shape-rendering="crispEdges"/><rect fill="#373737" x="0" y="1123.9" width="756.4" height="24.65" shape-rendering="crispEdges"/><rect fill="#373737" x="0" y="1148.3" width="756.4" height="24.65" shape-rendering="crispEdges"/><rect fill="#373737" x="0" y="1172.7" width="756.4" height="24.65" shape-rendering="crispEdges"/><rect fill="#373737" x="0" y="1197.1" width="756.4" height="24.65" shape-rendering="crispEdges"/><rect fill="#373737" x="0" y="1221.5" width="756.4" height="24.65" shape-rendering="crispEdges"/><rect fill="#373737" x="0" y="1245.9" width="12.2" height="24.65" shape-rendering="crispEdges"/><rect fill="#373737" x="12.2" y="1245.9" width="12.2" height="24.65" shape-rendering="crispEdges"/><rect fill="#373737" x="24.4" y="1245.9" width="85.4" height="24.65" shape-rendering="crispEdges"/><rect fill="#373737" x="109.8" y="1245.9" width="12.2" height="24.65" shape-rendering="crispEdges"/><rect fill="#373737" x="122" y="1245.9" width="97.6" height="24.65" shape-rendering="crispEdges"/><rect fill="#373737" x="219.6" y="1245.9" width="524.6" height="24.65" shape-rendering="crispEdges"/><rect fill="#373737" x="744.2" y="1245.9" width="12.2" height="24.65" shape-rendering="crispEdges"/><rect fill="#373737" x="0" y="1270.3" width="756.4" height="24.65" shape-rendering="crispEdges"/>
    <g class="terminal-177041083-matrix">
    <text class="terminal-177041083-r1" x="756.4" y="20" textLength="12.2" clip-path="url(#terminal-177041083-line-0)">
</text><text class="terminal-177041083-r2" x="353.8" y="44.4" textLength="48.8" clip-path="url(#terminal-177041083-line-1)">Bins</text><text class="terminal-177041083-r1" x="756.4" y="44.4" textLength="12.2" clip-path="url(#terminal-177041083-line-1)">
</text><text class="terminal-177041083-r3" x="0" y="68.8" textLength="756.4" clip-path="url(#terminal-177041083-line-2)">──────────────────────────────────────────────────────────────</text><text class="terminal-177041083-r1" x="756.4" y="68.8" textLength="12.2" clip-path="url(#terminal-177041083-line-2)">
</text><text class="terminal-177041083-r4" x="0" y="93.2" textLength="48.8" clip-path="url(#terminal-177041083-line-3)">root</text><text class="terminal-177041083-r1" x="756.4" y="93.2" textLength="12.2" clip-path="url(#terminal-177041083-line-3)">
</text><text class="terminal-177041083-r5" x="48.8" y="117.6" textLength="12.2" clip-path="url(#terminal-177041083-line-4)">a</text><text class="terminal-177041083-r6" x="73.2" y="117.6" textLength="122" clip-path="url(#terminal-177041083-line-4)">activities</text><text class="terminal-177041083-r1" x="756.4" y="117.6" textLength="12.2" clip-path="url(#terminal-177041083-line-4)">
</text><text class="terminal-177041083-r5" x="48.8" y="142" textLength="12.2" clip-path="url(#terminal-177041083-line-5)">b</text><text class="terminal-177041083-r6" x="73.2" y="142" textLength="85.4" clip-path="url(#terminal-177041083-line-5)">journal</text><text class="terminal-177041083-r1" x="756.4" y="142" textLength="12.2" clip-path="url(#terminal-177041083-line-5)">
</text><text class="terminal-177041083-r6" x="97.6" y="166.4" textLength="48.8" clip-path="url(#terminal-177041083-line-6)">2025</text><text class="terminal-177041083-r1" x="756.4" y="166.4" textLength="12.2" clip-path="url(#terminal-177041083-line-6)">
</text><text class="terminal-177041083-r6" x="146.4" y="190.8" textLength="24.4" clip-path="url(#terminal-177041083-line-7)">11</text><text class="terminal-177041083-r1" x="756.4" y="190.8" textLength="12.2" clip-path="url(#terminal-177041083-line-7)">
</text><text class="terminal-177041083-r6" x="146.4" y="215.2" textLength="24.4" clip-path="url(#terminal-177041083-line-8)">12</text><text class="terminal-177041083-r1" x="756.4" y="215.2" textLength="12.2" clip-path="url(#terminal-177041083-line-8)">
</text><text class="terminal-177041083-r6" x="97.6" y="239.6" textLength="48.8" clip-path="url(#terminal-177041083-line-9)">2026</text><text class="terminal-177041083-r1" x="756.4" y="239.6" textLength="12.2" clip-path="url(#terminal-177041083-line-9)">
</text><text class="terminal-177041083-r6" x="146.4" y="264" textLength="24.4" clip-path="url(#terminal-177041083-line-10)">01</text><text class="terminal-177041083-r1" x="756.4" y="264" textLength="12.2" clip-path="url(#terminal-177041083-line-10)">
</text><text class="terminal-177041083-r5" x="48.8" y="288.4" textLength="12.2" clip-path="url(#terminal-177041083-line-11)">c</text><text class="terminal-177041083-r6" x="73.2" y="288.4" textLength="85.4" clip-path="url(#terminal-177041083-line-11)">library</text><text class="terminal-177041083-r1" x="756.4" y="288.4" textLength="12.2" clip-path="url(#terminal-177041083-line-11)">
</text><text class="terminal-177041083-r6" x="97.6" y="312.8" textLength="61" clip-path="url(#terminal-177041083-line-12)">books</text><text class="terminal-177041083-r1" x="756.4" y="312.8" textLength="12.2" clip-path="url(#terminal-177041083-line-12)">
</text><text class="terminal-177041083-r6" x="97.6" y="337.2" textLength="73.2" clip-path="url(#terminal-177041083-line-13)">movies</text><text class="terminal-177041083-r1" x="756.4" y="337.2" textLength="12.2" clip-path="url(#terminal-177041083-line-13)">
</text><text class="terminal-177041083-r6" x="97.6" y="361.6" textLength="73.2" clip-path="url(#terminal-177041083-line-14)">poetry</text><text class="terminal-177041083-r1" x="756.4" y="361.6" textLength="12.2" clip-path="url(#terminal-177041083-line-14)">
</text><text class="terminal-177041083-r6" x="97.6" y="386" textLength="122" clip-path="url(#terminal-177041083-line-15)">quotations</text><text class="terminal-177041083-r1" x="756.4" y="386" textLength="12.2" clip-path="url(#terminal-177041083-line-15)">
</text><text class="terminal-177041083-r6" x="97.6" y="410.4" textLength="73.2" clip-path="url(#terminal-177041083-line-16)">series</text><text class="terminal-177041083-r1" x="756.4" y="410.4" textLength="12.2" clip-path="url(#terminal-177041083-line-16)">
</text><text class="terminal-177041083-r5" x="48.8" y="434.8" textLength="12.2" clip-path="url(#terminal-177041083-line-17)">d</text><text class="terminal-177041083-r6" x="73.2" y="434.8" textLength="73.2" clip-path="url(#terminal-177041083-line-17)">people</text><text class="terminal-177041083-r1" x="756.4" y="434.8" textLength="12.2" clip-path="url(#terminal-177041083-line-17)">
</text><text class="terminal-177041083-r6" x="97.6" y="459.2" textLength="12.2" clip-path="url(#terminal-177041083-line-18)">A</text><text class="terminal-177041083-r1" x="756.4" y="459.2" textLength="12.2" clip-path="url(#terminal-177041083-line-18)">
</text><text class="terminal-177041083-r6" x="97.6" y="483.6" textLength="12.2" clip-path="url(#terminal-177041083-line-19)">B</text><text class="terminal-177041083-r1" x="756.4" y="483.6" textLength="12.2" clip-path="url(#terminal-177041083-line-19)">
</text><text class="terminal-177041083-r5" x="48.8" y="508" textLength="12.2" clip-path="url(#terminal-177041083-line-20)">e</text><text class="terminal-177041083-r6" x="73.2" y="508" textLength="73.2" clip-path="url(#terminal-177041083-line-20)">places</text><text class="terminal-177041083-r1" x="756.4" y="508" textLength="12.2" clip-path="url(#terminal-177041083-line-20)">
</text><text class="terminal-177041083-r5" x="48.8" y="532.4" textLength="12.2" clip-path="url(#terminal-177041083-line-21)">f</text><text class="terminal-177041083-r6" x="73.2" y="532.4" textLength="97.6" clip-path="url(#terminal-177041083-line-21)">projects</text><text class="terminal-177041083-r1" x="756.4" y="532.4" textLength="12.2" clip-path="url(#terminal-177041083-line-21)">
</text><text class="terminal-177041083-r5" x="48.8" y="556.8" textLength="12.2" clip-path="url(#terminal-177041083-line-22)">g</text><text class="terminal-177041083-r6" x="73.2" y="556.8" textLength="85.4" clip-path="url(#terminal-177041083-line-22)">seedbed</text><text class="terminal-177041083-r1" x="756.4" y="556.8" textLength="12.2" clip-path="url(#terminal-177041083-line-22)">
</text><text class="terminal-177041083-r6" x="97.6" y="581.2" textLength="48.8" clip-path="url(#terminal-177041083-line-23)">seed</text><text class="terminal-177041083-r1" x="756.4" y="581.2" textLength="12.2" clip-path="url(#terminal-177041083-line-23)">
</text><text class="terminal-177041083-r6" x="97.6" y="605.6" textLength="134.2" clip-path="url(#terminal-177041083-line-24)">germination</text><text class="terminal-177041083-r1" x="756.4" y="605.6" textLength="12.2" clip-path="url(#terminal-177041083-line-24)">
</text><text class="terminal-177041083-r6" x="97.6" y="630" textLength="97.6" clip-path="url(#terminal-177041083-line-25)">seedling</text><text class="terminal-177041083-r1" x="756.4" y="630" textLength="12.2" clip-path="url(#terminal-177041083-line-25)">
</text><text class="terminal-177041083-r6" x="97.6" y="654.4" textLength="85.4" clip-path="url(#terminal-177041083-line-26)">growing</text><text class="terminal-177041083-r1" x="756.4" y="654.4" textLength="12.2" clip-path="url(#terminal-177041083-line-26)">
</text><text class="terminal-177041083-r6" x="97.6" y="678.8" textLength="109.8" clip-path="url(#terminal-177041083-line-27)">flowering</text><text class="terminal-177041083-r1" x="756.4" y="678.8" textLength="12.2" clip-path="url(#terminal-177041083-line-27)">
</text><text class="terminal-177041083-r6" x="97.6" y="703.2" textLength="73.2" clip-path="url(#terminal-177041083-line-28)">growth</text><text class="terminal-177041083-r1" x="756.4" y="703.2" textLength="12.2" clip-path="url(#terminal-177041083-line-28)">
</text><text class="terminal-177041083-r5" x="48.8" y="727.6" textLength="12.2" clip-path="url(#terminal-177041083-line-29)">h</text><text class="terminal-177041083-r6" x="73.2" y="727.6" textLength="48.8" clip-path="url(#terminal-177041083-line-29)">tags</text><text class="terminal-177041083-r1" x="756.4" y="727.6" textLength="12.2" clip-path="url(#terminal-177041083-line-29)">
</text><text class="terminal-177041083-r5" x="48.8" y="752" textLength="12.2" clip-path="url(#terminal-177041083-line-30)">i</text><text class="terminal-177041083-r6" x="73.2" y="752" textLength="97.6" clip-path="url(#terminal-177041083-line-30)">unlinked</text><text class="terminal-177041083-r1" x="756.4" y="752" textLength="12.2" clip-path="url(#terminal-177041083-line-30)">
</text><text class="terminal-177041083-r1" x="756.4" y="776.4" textLength="12.2" clip-path="url(#terminal-177041083-line-31)">
</text><text class="terminal-177041083-r1" x="756.4" y="800.8" textLength="12.2" clip-path="url(#terminal-177041083-line-32)">
</text><text class="terminal-177041083-r1" x="756.4" y="825.2" textLength="12.2" clip-path="url(#terminal-177041083-line-33)">
</text><text class="terminal-177041083-r1" x="756.4" y="849.6" textLength="12.2" clip-path="url(#terminal-177041083-line-34)">
</text><text class="terminal-177041083-r1" x="756.4" y="874" textLength="12.2" clip-path="url(#terminal-177041083-line-35)">
</text><text class="terminal-177041083-r1" x="756.4" y="898.4" textLength="12.2" clip-path="url(#terminal-177041083-line-36)">
</text><text class="terminal-177041083-r1" x="756.4" y="922.8" textLength="12.2" clip-path="url(#terminal-177041083-line-37)">
</text><text class="terminal-177041083-r1" x="756.4" y="947.2" textLength="12.2" clip-path="url(#terminal-177041083-line-38)">
</text><text class="terminal-177041083-r1" x="756.4" y="971.6" textLength="12.2" clip-path="url(#terminal-177041083-line-39)">
</text><text class="terminal-177041083-r1" x="756.4" y="996" textLength="12.2" clip-path="url(#terminal-177041083-line-40)">
</text><text class="terminal-177041083-r1" x="756.4" y="1020.4" textLength="12.2" clip-path="url(#terminal-177041083-line-41)">
</text><text class="terminal-177041083-r1" x="756.4" y="1044.8" textLength="12.2" clip-path="url(#terminal-177041083-line-42)">
</text><text class="terminal-177041083-r1" x="756.4" y="1069.2" textLength="12.2" clip-path="url(#terminal-177041083-line-43)">
</text><text class="terminal-177041083-r1" x="756.4" y="1093.6" textLength="12.2" clip-path="url(#terminal-177041083-line-44)">
</text><text class="terminal-177041083-r1" x="756.4" y="1118" textLength="12.2" clip-path="url(#terminal-177041083-line-45)">
</text><text class="terminal-177041083-r1" x="756.4" y="1142.4" textLength="12.2" clip-path="url(#terminal-177041083-line-46)">
</text><text class="terminal-177041083-r1" x="756.4" y="1166.8" textLength="12.2" clip-path="url(#terminal-177041083-line-47)">
</text><text class="terminal-177041083-r1" x="756.4" y="1191.2" textLength="12.2" clip-path="url(#terminal-177041083-line-48)">
</text><text class="terminal-177041083-r1" x="756.4" y="1215.6" textLength="12.2" clip-path="url(#terminal-177041083-line-49)">
</text><text class="terminal-177041083-r3" x="0" y="1240" textLength="756.4" clip-path="url(#terminal-177041083-line-50)">──────────────────────────────────────────────────────────────</text><text class="terminal-177041083-r1" x="756.4" y="1240" textLength="12.2" clip-path="url(#terminal-177041083-line-50)">
</text><text class="terminal-177041083-r7" x="12.2" y="1264.4" textLength="12.2" clip-path="url(#terminal-177041083-line-51)">?</text><text class="terminal-177041083-r2" x="24.4" y="1264.4" textLength="85.4" clip-path="url(#terminal-177041083-line-51)">&#160;Help&#160;&#160;</text><text class="terminal-177041083-r7" x="109.8" y="1264.4" textLength="12.2" clip-path="url(#terminal-177041083-line-51)">/</text><text class="terminal-177041083-r2" x="122" y="1264.4" textLength="97.6" clip-path="url(#terminal-177041083-line-51)">&#160;Search&#160;</text><text class="terminal-177041083-r1" x="756.4" y="1264.4" textLength="12.2" clip-path="url(#terminal-177041083-line-51)">
</text>
    </g>
    </g>
</svg>
