<svg class="rich-terminal" viewBox="0 0 775 1343.1999999999998" xmlns="http://www.w3.org/2000/svg">
    <!-- Generated with Rich https://www.textualize.io -->
    <style>

    @font-face {
        font-family: "Fira Code";
        src: local("FiraCode-Regular"),
                url("https://cdnjs.cloudflare.com/ajax/libs/firacode/6.2.0/woff2/FiraCode-Regular.woff2") format("woff2"),
                url("https://cdnjs.cloudflare.com/ajax/libs/firacode/6.2.0/woff/FiraCode-Regular.woff") format("woff");
        font-style: normal;
        font-weight: 400;
    }
    @font-face {
        font-family: "Fira Code";
        src: local("FiraCode-Bold"),
                url("https://cdnjs.cloudflare.com/ajax/libs/firacode/6.2.0/woff2/FiraCode-Bold.woff2") format("woff2"),
                url("https://cdnjs.cloudflare.com/ajax/libs/firacode/6.2.0/woff/FiraCode-Bold.woff") format("woff");
        font-style: bold;
        font-weight: 700;
    }

    .terminal-2320622827-matrix {
        font-family: Fira Code, monospace;
        font-size: 20px;
        line-height: 24.4px;
        font-variant-east-asian: full-width;
    }

    .terminal-2320622827-title {
        font-size: 18px;
        font-weight: bold;
        font-family: arial;
    }

    .terminal-2320622827-r1 { fill: #c5c8c6 }
.terminal-2320622827-r2 { fill: #ffffff;font-weight: bold }
.terminal-2320622827-r3 { fill: #7f7f7f }
.terminal-2320622827-r4 { fill: #8c8e8c }
.terminal-2320622827-r5 { fill: #daa520 }
.terminal-2320622827-r6 { fill: #ffd700;font-weight: bold }
.terminal-2320622827-r7 { fill: #87cefa }
.terminal-2320622827-r8 { fill: #e9967a }
.terminal-2320622827-r9 { fill: #32cd32 }
.terminal-2320622827-r10 { fill: #ffff00;font-weight: bold }
    </style>

    <defs>
    <clipPath id="terminal-2320622827-clip-terminal">
      <rect x="0" y="0" width="755.4" height="1292.1999999999998" />
    </clipPath>
    <clipPath id="terminal-2320622827-line-0">
    <rect x="0" y="1.5" width="756.4" height="24.65"/>
            </clipPath>
<clipPath id="terminal-2320622827-line-1">
    <rect x="0" y="25.9" width="756.4" height="24.65"/>
            </clipPath>
<clipPath id="terminal-2320622827-line-2">
    <rect x="0" y="50.3" width="756.4" height="24.65"/>
            </clipPath>
<clipPath id="terminal-2320622827-line-3">
    <rect x="0" y="74.7" width="756.4" height="24.65"/>
            </clipPath>
<clipPath id="terminal-2320622827-line-4">
    <rect x="0" y="99.1" width="756.4" height="24.65"/>
            </clipPath>
<clipPath id="terminal-2320622827-line-5">
    <rect x="0" y="123.5" width="756.4" height="24.65"/>
            </clipPath>
<clipPath id="terminal-2320622827-line-6">
    <rect x="0" y="147.9" width="756.4" height="24.65"/>
            </clipPath>
<clipPath id="terminal-2320622827-line-7">
    <rect x="0" y="172.3" width="756.4" height="24.65"/>
            </clipPath>
<clipPath id="terminal-2320622827-line-8">
    <rect x="0" y="196.7" width="756.4" height="24.65"/>
            </clipPath>
<clipPath id="terminal-2320622827-line-9">
    <rect x="0" y="221.1" width="756.4" height="24.65"/>
            </clipPath>
<clipPath id="terminal-2320622827-line-10">
    <rect x="0" y="245.5" width="756.4" height="24.65"/>
            </clipPath>
<clipPath id="terminal-2320622827-line-11">
    <rect x="0" y="269.9" width="756.4" height="24.65"/>
            </clipPath>
<clipPath id="terminal-2320622827-line-12">
    <rect x="0" y="294.3" width="756.4" height="24.65"/>
            </clipPath>
<clipPath id="terminal-2320622827-line-13">
    <rect x="0" y="318.7" width="756.4" height="24.65"/>
            </clipPath>
<clipPath id="terminal-2320622827-line-14">
    <rect x="0" y="343.1" width="756.4" height="24.65"/>
            </clipPath>
<clipPath id="terminal-2320622827-line-15">
    <rect x="0" y="367.5" width="756.4" height="24.65"/>
            </clipPath>
<clipPath id="terminal-2320622827-line-16">
    <rect x="0" y="391.9" width="756.4" height="24.65"/>
            </clipPath>
<clipPath id="terminal-2320622827-line-17">
    <rect x="0" y="416.3" width="756.4" height="24.65"/>
            </clipPath>
<clipPath id="terminal-2320622827-line-18">
    <rect x="0" y="440.7" width="756.4" height="24.65"/>
            </clipPath>
<clipPath id="terminal-2320622827-line-19">
    <rect x="0" y="465.1" width="756.4" height="24.65"/>
            </clipPath>
<clipPath id="terminal-2320622827-line-20">
    <rect x="0" y="489.5" width="756.4" height="24.65"/>
            </clipPath>
<clipPath id="terminal-2320622827-line-21">
    <rect x="0" y="513.9" width="756.4" height="24.65"/>
            </clipPath>
<clipPath id="terminal-2320622827-line-22">
    <rect x="0" y="538.3" width="756.4" height="24.65"/>
            </clipPath>
<clipPath id="terminal-2320622827-line-23">
    <rect x="0" y="562.7" width="756.4" height="24.65"/>
            </clipPath>
<clipPath id="terminal-2320622827-line-24">
    <rect x="0" y="587.1" width="756.4" height="24.65"/>
            </clipPath>
<clipPath id="terminal-2320622827-line-25">
    <rect x="0" y="611.5" width="756.4" height="24.65"/>
            </clipPath>
<clipPath id="terminal-2320622827-line-26">
    <rect x="0" y="635.9" width="756.4" height="24.65"/>
            </clipPath>
<clipPath id="terminal-2320622827-line-27">
    <rect x="0" y="660.3" width="756.4" height="24.65"/>
            </clipPath>
<clipPath id="terminal-2320622827-line-28">
    <rect x="0" y="684.7" width="756.4" height="24.65"/>
            </clipPath>
<clipPath id="terminal-2320622827-line-29">
    <rect x="0" y="709.1" width="756.4" height="24.65"/>
            </clipPath>
<clipPath id="terminal-2320622827-line-30">
    <rect x="0" y="733.5" width="756.4" height="24.65"/>
            </clipPath>
<clipPath id="terminal-2320622827-line-31">
    <rect x="0" y="757.9" width="756.4" height="24.65"/>
            </clipPath>
<clipPath id="terminal-2320622827-line-32">
    <rect x="0" y="782.3" width="756.4" height="24.65"/>
            </clipPath>
<clipPath id="terminal-2320622827-line-33">
    <rect x="0" y="806.7" width="756.4" height="24.65"/>
            </clipPath>
<clipPath id="terminal-2320622827-line-34">
    <rect x="0" y="831.1" width="756.4" height="24.65"/>
            </clipPath>
<clipPath id="terminal-2320622827-line-35">
    <rect x="0" y="855.5" width="756.4" height="24.65"/>
            </clipPath>
<clipPath id="terminal-2320622827-line-36">
    <rect x="0" y="879.9" width="756.4" height="24.65"/>
            </clipPath>
<clipPath id="terminal-2320622827-line-37">
    <rect x="0" y="904.3" width="756.4" height="24.65"/>
            </clipPath>
<clipPath id="terminal-2320622827-line-38">
    <rect x="0" y="928.7" width="756.4" height="24.65"/>
            </clipPath>
<clipPath id="terminal-2320622827-line-39">
    <rect x="0" y="953.1" width="756.4" height="24.65"/>
            </clipPath>
<clipPath id="terminal-2320622827-line-40">
    <rect x="0" y="977.5" width="756.4" height="24.65"/>
            </clipPath>
<clipPath id="terminal-2320622827-line-41">
    <rect x="0" y="1001.9" width="756.4" height="24.65"/>
            </clipPath>
<clipPath id="terminal-2320622827-line-42">
    <rect x="0" y="1026.3" width="756.4" height="24.65"/>
            </clipPath>
<clipPath id="terminal-2320622827-line-43">
    <rect x="0" y="1050.7" width="756.4" height="24.65"/>
            </clipPath>
<clipPath id="terminal-2320622827-line-44">
    <rect x="0" y="1075.1" width="756.4" height="24.65"/>
            </clipPath>
<clipPath id="terminal-2320622827-line-45">
    <rect x="0" y="1099.5" width="756.4" height="24.65"/>
            </clipPath>
<clipPath id="terminal-2320622827-line-46">
    <rect x="0" y="1123.9" width="756.4" height="24.65"/>
            </clipPath>
<clipPath id="terminal-2320622827-line-47">
    <rect x="0" y="1148.3" width="756.4" height="24.65"/>
            </clipPath>
<clipPath id="terminal-2320622827-line-48">
    <rect x="0" y="1172.7" width="756.4" height="24.65"/>
            </clipPath>
<clipPath id="terminal-2320622827-line-49">
    <rect x="0" y="1197.1" width="756.4" height="24.65"/>
            </clipPath>
<clipPath id="terminal-2320622827-line-50">
    <rect x="0" y="1221.5" width="756.4" height="24.65"/>
            </clipPath>
<clipPath id="terminal-2320622827-line-51">
    <rect x="0" y="1245.9" width="756.4" height="24.65"/>
            </clipPath>
    </defs>

    <rect fill="#292929" stroke="rgba(255,255,255,0.35)" stroke-width="1" x="1" y="1" width="773" height="1341.2" rx="8"/>
            <g transform="translate(26,22)">
            <circle cx="0" cy="0" r="7" fill="#ff5f57"/>
            <circle cx="22" cy="0" r="7" fill="#febc2e"/>
            <circle cx="44" cy="0" r="7" fill="#28c840"/>
            </g>
        
    <g transform="translate(9, 41)" clip-path="url(#terminal-2320622827-clip-terminal)">
    <rect fill="#373737" x="0" y="1.5" width="756.4" height="24.65" shape-rendering="crispEdges"/><rect fill="#373737" x="0" y="25.9" width="12.2" height="24.65" shape-rendering="crispEdges"/><rect fill="#373737" x="12.2" y="25.9" width="341.6" height="24.65" shape-rendering="crispEdges"/><rect fill="#373737" x="353.8" y="25.9" width="48.8" height="24.65" shape-rendering="crispEdges"/><rect fill="#373737" x="402.6" y="25.9" width="341.6" height="24.65" shape-rendering="crispEdges"/><rect fill="#373737" x="744.2" y="25.9" width="12.2" height="24.65" shape-rendering="crispEdges"/><rect fill="#373737" x="0" y="50.3" width="756.4" height="24.65" shape-rendering="crispEdges"/><rect fill="#373737" x="0" y="74.7" width="12.2" height="24.65" shape-rendering="crispEdges"/><rect fill="#373737" x="12.2" y="74.7" width="12.2" height="24.65" shape-rendering="crispEdges"/><rect fill="#373737" x="24.4" y="74.7" width="48.8" height="24.65" shape-rendering="crispEdges"/><rect fill="#373737" x="73.2" y="74.7" width="36.6" height="24.65" shape-rendering="crispEdges"/><rect fill="#373737" x="109.8" y="74.7" width="12.2" height="24.65" shape-rendering="crispEdges"/><rect fill="#373737" x="122" y="74.7" width="12.2" height="24.65" shape-rendering="crispEdges"/><rect fill="#373737" x="134.2" y="74.7" width="85.4" height="24.65" shape-rendering="crispEdges"/><rect fill="#373737" x="219.6" y="74.7" width="36.6" height="24.65" shape-rendering="crispEdges"/><rect fill="#373737" x="256.2" y="74.7" width="12.2" height="24.65" shape-rendering="crispEdges"/><rect fill="#373737" x="268.4" y="74.7" width="12.2" height="24.65" shape-rendering="crispEdges"/><rect fill="#373737" x="280.6" y="74.7" width="48.8" height="24.65" shape-rendering="crispEdges"/><rect fill="#373737" x="329.4" y="74.7" width="36.6" height="24.65" shape-rendering="crispEdges"/><rect fill="#373737" x="366" y="74.7" width="85.4" height="24.65" shape-rendering="crispEdges"/><rect fill="#373737" x="451.4" y="74.7" width="305" height="24.65" shape-rendering="crispEdges"/><rect fill="#373737" x="0" y="99.1" width="48.8" height="24.65" shape-rendering="crispEdges"/><rect fill="#373737" x="48.8" y="99.1" width="12.2" height="24.65" shape-rendering="crispEdges"/><rect fill="#373737" x="61" y="99.1" width="12.2" height="24.65" shape-rendering="crispEdges"/><rect fill="#373737" x="73.2" y="99.1" width="305" height="24.65" shape-rendering="crispEdges"/><rect fill="#373737" x="378.2" y="99.1" width="378.2" height="24.65" shape-rendering="crispEdges"/><rect fill="#373737" x="0" y="123.5" width="48.8" height="24.65" shape-rendering="crispEdges"/><rect fill="#373737" x="48.8" y="123.5" width="12.2" height="24.65" shape-rendering="crispEdges"/><rect fill="#373737" x="61" y="123.5" width="12.2" height="24.65" shape-rendering="crispEdges"/><rect fill="#373737" x="73.2" y="123.5" width="353.8" height="24.65" shape-rendering="crispEdges"/><rect fill="#373737" x="427" y="123.5" width="329.4" height="24.65" shape-rendering="crispEdges"/><rect fill="#373737" x="0" y="147.9" width="48.8" height="24.65" shape-rendering="crispEdges"/><rect fill="#373737" x="48.8" y="147.9" width="12.2" height="24.65" shape-rendering="crispEdges"/><rect fill="#373737" x="61" y="147.9" width="12.2" height="24.65" shape-rendering="crispEdges"/><rect fill="#373737" x="73.2" y="147.9" width="244" height="24.65" shape-rendering="crispEdges"/><rect fill="#373737" x="317.2" y="147.9" width="439.2" height="24.65" shape-rendering="crispEdges"/><rect fill="#373737" x="0" y="172.3" width="48.8" height="24.65" shape-rendering="crispEdges"/><rect fill="#373737" x="48.8" y="172.3" width="12.2" height="24.65" shape-rendering="crispEdges"/><rect fill="#373737" x="61" y="172.3" width="12.2" height="24.65" shape-rendering="crispEdges"/><rect fill="#373737" x="73.2" y="172.3" width="366" height="24.65" shape-rendering="crispEdges"/><rect fill="#373737" x="439.2" y="172.3" width="317.2" height="24.65" shape-rendering="crispEdges"/><rect fill="#373737" x="0" y="196.7" width="48.8" height="24.65" shape-rendering="crispEdges"/><rect fill="#373737" x="48.8" y="196.7" width="12.2" height="24.65" shape-rendering="crispEdges"/><rect fill="#373737" x="61" y="196.7" width="12.2" height="24.65" shape-rendering="crispEdges"/><rect fill="#373737" x="73.2" y="196.7" width="353.8" height="24.65" shape-rendering="crispEdges"/><rect fill="#373737" x="427" y="196.7" width="329.4" height="24.65" shape-rendering="crispEdges"/><rect fill="#373737" x="0" y="221.1" width="48.8" height="24.65" shape-rendering="crispEdges"/><rect fill="#373737" x="48.8" y="221.1" width="12.2" height="24.65" shape-rendering="crispEdges"/><rect fill="#373737" x="61" y="221.1" width="12.2" height="24.65" shape-rendering="crispEdges"/><rect fill="#373737" x="73.2" y="221.1" width="256.2" height="24.65" shape-rendering="crispEdges"/><rect fill="#373737" x="329.4" y="221.1" width="427" height="24.65" shape-rendering="crispEdges"/><rect fill="#373737" x="0" y="245.5" width="48.8" height="24.65" shape-rendering="crispEdges"/><rect fill="#373737" x="48.8" y="245.5" width="12.2" height="24.65" shape-rendering="crispEdges"/><rect fill="#373737" x="61" y="245.5" width="12.2" height="24.65" shape-rendering="crispEdges"/><rect fill="#373737" x="73.2" y="245.5" width="414.8" height="24.65" shape-rendering="crispEdges"/><rect fill="#373737" x="488" y="245.5" width="268.4" height="24.65" shape-rendering="crispEdges"/><rect fill="#373737" x="0" y="269.9" width="756.4" height="24.65" shape-rendering="crispEdges"/><rect fill="#373737" x="0" y="294.3" width="756.4" height="24.65" shape-rendering="crispEdges"/><rect fill="#373737" x="0" y="318.7" width="756.4" height="24.65" shape-rendering="crispEdges"/><rect fill="#373737" x="0" y="343.1" width="756.4" height="24.65" shape-rendering="crispEdges"/><rect fill="#373737" x="0" y="367.5" width="756.4" height="24.65" shape-rendering="crispEdges"/><rect fill="#373737" x="0" y="391.9" width="756.4" height="24.65" shape-rendering="crispEdges"/><rect fill="#373737" x="0" y="416.3" width="756.4" height="24.65" shape-rendering="crispEdges"/><rect fill="#373737" x="0" y="440.7" width="756.4" height="24.65" shape-rendering="crispEdges"/><rect fill="#373737" x="0" y="465.1" width="756.4" height="24.65" shape-rendering="crispEdges"/><rect fill="#373737" x="0" y="489.5" width="756.4" height="24.65" shape-rendering="crispEdges"/><rect fill="#373737" x="0" y="513.9" width="756.4" height="24.65" shape-rendering="crispEdges"/><rect fill="#373737" x="0" y="538.3" width="756.4" height="24.65" shape-rendering="crispEdges"/><rect fill="#373737" x="0" y="562.7" width="756.4" height="24.65" shape-rendering="crispEdges"/><rect fill="#373737" x="0" y="587.1" width="756.4" height="24.65" shape-rendering="crispEdges"/><rect fill="#373737" x="0" y="611.5" width="756.4" height="24.65" shape-rendering="crispEdges"/><rect fill="#373737" x="0" y="635.9" width="756.4" height="24.65" shape-rendering="crispEdges"/><rect fill="#373737" x="0" y="660.3" width="756.4" height="24.65" shape-rendering="crispEdges"/><rect fill="#373737" x="0" y="684.7" width="756.4" height="24.65" shape-rendering="crispEdges"/><rect fill="#373737" x="0" y="709.1" width="756.4" height="24.65" shape-rendering="crispEdges"/><rect fill="#373737" x="0" y="733.5" width="756.4" height="24.65" shape-rendering="crispEdges"/><rect fill="#373737" x="0" y="757.9" width="756.4" height="24.65" shape-rendering="crispEdges"/><rect fill="#373737" x="0" y="782.3" width="756.4" height="24.65" shape-rendering="crispEdges"/><rect fill="#373737" x="0" y="806.7" width="756.4" height="24.65" shape-rendering="crispEdges"/><rect fill="#373737" x="0" y="831.1" width="756.4" height="24.65" shape-rendering="crispEdges"/><rect fill="#373737" x="0" y="855.5" width="756.4" height="24.65" shape-rendering="crispEdges"/><rect fill="#373737" x="0" y="879.9" width="756.4" height="24.65" shape-rendering="crispEdges"/><rect fill="#373737" x="0" y="904.3" width="756.4" height="24.65" shape-rendering="crispEdges"/><rect fill="#373737" x="0" y="928.7" width="756.4" height="24.65" shape-rendering="crispEdges"/><rect fill="#373737" x="0" y="953.1" width="756.4" height="24.65" shape-rendering="crispEdges"/><rect fill="#373737" x="0" y="977.5" width="756.4" height="24.65" shape-rendering="crispEdges"/><rect fill="#373737" x="0" y="1001.9" width="756.4" height="24.65" shape-rendering="crispEdges"/><rect fill="#373737" x="0" y="1026.3" width="756.4" height="24.65" shape-rendering="crispEdges"/><rect fill="#373737" x="0" y="1050.7" width="756.4" height="24.65" shape-rendering="crispEdges"/><rect fill="#373737" x="0" y="1075.1" width="756.4" height="24.65" shape-rendering="crispEdges"/><rect fill="#373737" x="0" y="1099.5" width="756.4" height="24.65" shape-rendering="crispEdges"/><rect fill="#373737" x="0" y="1123.9" width="756.4" height="24.65" shape-rendering="crispEdges"/><rect fill="#373737" x="0" y="1148.3" width="756.4" height="24.65" shape-rendering="crispEdges"/><rect fill="#373737" x="0" y="1172.7" width="756.4" height="24.65" shape-rendering="crispEdges"/><rect fill="#373737" x="0" y="1197.1" width="756.4" height="24.65" shape-rendering="crispEdges"/><rect fill="#373737" x="0" y="1221.5" width="756.4" height="24.65" shape-rendering="crispEdges"/><rect fill="#373737" x="0" y="1245.9" width="12.2" height="24.65" shape-rendering="crispEdges"/><rect fill="#373737" x="12.2" y="1245.9" width="12.2" height="24.65" shape-rendering="crispEdges"/><rect fill="#373737" x="24.4" y="1245.9" width="85.4" height="24.65" shape-rendering="crispEdges"/><rect fill="#373737" x="109.8" y="1245.9" width="12.2" height="24.65" shape-rendering="crispEdges"/><rect fill="#373737" x="122" y="1245.9" width="97.6" height="24.65" shape-rendering="crispEdges"/><rect fill="#373737" x="219.6" y="1245.9" width="524.6" height="24.65" shape-rendering="crispEdges"/><rect fill="#373737" x="744.2" y="1245.9" width="12.2" height="24.65" shape-rendering="crispEdges"/><rect fill="#373737" x="0" y="1270.3" width="756.4" height="24.65" shape-rendering="crispEdges"/>
    <g class="terminal-2320622827-matrix">
    <text class="terminal-2320622827-r1" x="756.4" y="20" textLength="12.2" clip-path="url(#terminal-2320622827-line-0)">
</text><text class="terminal-2320622827-r2" x="353.8" y="44.4" textLength="48.8" clip-path="url(#terminal-2320622827-line-1)">Bins</text><text class="terminal-2320622827-r1" x="756.4" y="44.4" textLength="12.2" clip-path="url(#terminal-2320622827-line-1)">
</text><text class="terminal-2320622827-r3" x="0" y="68.8" textLength="756.4" clip-path="url(#terminal-2320622827-line-2)">──────────────────────────────────────────────────────────────</text><text class="terminal-2320622827-r1" x="756.4" y="68.8" textLength="12.2" clip-path="url(#terminal-2320622827-line-2)">
</text><text class="terminal-2320622827-r4" x="0" y="93.2" textLength="12.2" clip-path="url(#terminal-2320622827-line-3)">0</text><text class="terminal-2320622827-r5" x="24.4" y="93.2" textLength="48.8" clip-path="url(#terminal-2320622827-line-3)">root</text><text class="terminal-2320622827-r1" x="73.2" y="93.2" textLength="36.6" clip-path="url(#terminal-2320622827-line-3)">&#160;/&#160;</text><text class="terminal-2320622827-r4" x="109.8" y="93.2" textLength="12.2" clip-path="url(#terminal-2320622827-line-3)">1</text><text class="terminal-2320622827-r5" x="134.2" y="93.2" textLength="85.4" clip-path="url(#terminal-2320622827-line-3)">journal</text><text class="terminal-2320622827-r1" x="219.6" y="93.2" textLength="36.6" clip-path="url(#terminal-2320622827-line-3)">&#160;/&#160;</text><text class="terminal-2320622827-r4" x="256.2" y="93.2" textLength="12.2" clip-path="url(#terminal-2320622827-line-3)">2</text><text class="terminal-2320622827-r5" x="280.6" y="93.2" textLength="48.8" clip-path="url(#terminal-2320622827-line-3)">2025</text><text class="terminal-2320622827-r1" x="329.4" y="93.2" textLength="36.6" clip-path="url(#terminal-2320622827-line-3)">&#160;/&#160;</text><text class="terminal-2320622827-r6" x="366" y="93.2" textLength="85.4" clip-path="url(#terminal-2320622827-line-3)">2025:11</text><text class="terminal-2320622827-r1" x="756.4" y="93.2" textLength="12.2" clip-path="url(#terminal-2320622827-line-3)">
</text><text class="terminal-2320622827-r4" x="48.8" y="117.6" textLength="12.2" clip-path="url(#terminal-2320622827-line-4)">a</text><text class="terminal-2320622827-r7" x="73.2" y="117.6" textLength="305" clip-path="url(#terminal-2320622827-line-4)">~&#160;Adipisci&#160;sed&#160;voluptatem</text><text class="terminal-2320622827-r1" x="756.4" y="117.6" textLength="12.2" clip-path="url(#terminal-2320622827-line-4)">
</text><text class="terminal-2320622827-r4" x="48.8" y="142" textLength="12.2" clip-path="url(#terminal-2320622827-line-5)">b</text><text class="terminal-2320622827-r7" x="73.2" y="142" textLength="353.8" clip-path="url(#terminal-2320622827-line-5)">~&#160;Amet&#160;velit&#160;dolor&#160;etincidunt</text><text class="terminal-2320622827-r1" x="756.4" y="142" textLength="12.2" clip-path="url(#terminal-2320622827-line-5)">
</text><text class="terminal-2320622827-r4" x="48.8" y="166.4" textLength="12.2" clip-path="url(#terminal-2320622827-line-6)">c</text><text class="terminal-2320622827-r7" x="73.2" y="166.4" textLength="244" clip-path="url(#terminal-2320622827-line-6)">~&#160;Labore&#160;aliquam&#160;sit</text><text class="terminal-2320622827-r1" x="756.4" y="166.4" textLength="12.2" clip-path="url(#terminal-2320622827-line-6)">
</text><text class="terminal-2320622827-r4" x="48.8" y="190.8" textLength="12.2" clip-path="url(#terminal-2320622827-line-7)">d</text><text class="terminal-2320622827-r8" x="73.2" y="190.8" textLength="366" clip-path="url(#terminal-2320622827-line-7)">%&#160;Labore&#160;neque&#160;non&#160;consectetur</text><text class="terminal-2320622827-r1" x="756.4" y="190.8" textLength="12.2" clip-path="url(#terminal-2320622827-line-7)">
</text><text class="terminal-2320622827-r4" x="48.8" y="215.2" textLength="12.2" clip-path="url(#terminal-2320622827-line-8)">e</text><text class="terminal-2320622827-r8" x="73.2" y="215.2" textLength="353.8" clip-path="url(#terminal-2320622827-line-8)">%&#160;Modi&#160;sit&#160;eius&#160;quaerat&#160;ipsum</text><text class="terminal-2320622827-r1" x="756.4" y="215.2" textLength="12.2" clip-path="url(#terminal-2320622827-line-8)">
</text><text class="terminal-2320622827-r4" x="48.8" y="239.6" textLength="12.2" clip-path="url(#terminal-2320622827-line-9)">f</text><text class="terminal-2320622827-r7" x="73.2" y="239.6" textLength="256.2" clip-path="url(#terminal-2320622827-line-9)">~&#160;Quaerat&#160;labore&#160;modi</text><text class="terminal-2320622827-r1" x="756.4" y="239.6" textLength="12.2" clip-path="url(#terminal-2320622827-line-9)">
</text><text class="terminal-2320622827-r4" x="48.8" y="264" textLength="12.2" clip-path="url(#terminal-2320622827-line-10)">g</text><text class="terminal-2320622827-r9" x="73.2" y="264" textLength="414.8" clip-path="url(#terminal-2320622827-line-10)">*&#160;Voluptatem&#160;voluptatem&#160;neque&#160;eius</text><text class="terminal-2320622827-r1" x="756.4" y="264" textLength="12.2" clip-path="url(#terminal-2320622827-line-10)">
</text><text class="terminal-2320622827-r1" x="756.4" y="288.4" textLength="12.2" clip-path="url(#terminal-2320622827-line-11)">
</text><text class="terminal-2320622827-r1" x="756.4" y="312.8" textLength="12.2" clip-path="url(#terminal-2320622827-line-12)">
</text><text class="terminal-2320622827-r1" x="756.4" y="337.2" textLength="12.2" clip-path="url(#terminal-2320622827-line-13)">
</text><text class="terminal-2320622827-r1" x="756.4" y="361.6" textLength="12.2" clip-path="url(#terminal-2320622827-line-14)">
</text><text class="terminal-2320622827-r1" x="756.4" y="386" textLength="12.2" clip-path="url(#terminal-2320622827-line-15)">
</text><text class="terminal-2320622827-r1" x="756.4" y="410.4" textLength="12.2" clip-path="url(#terminal-2320622827-line-16)">
</text><text class="terminal-2320622827-r1" x="756.4" y="434.8" textLength="12.2" clip-path="url(#terminal-2320622827-line-17)">
</text><text class="terminal-2320622827-r1" x="756.4" y="459.2" textLength="12.2" clip-path="url(#terminal-2320622827-line-18)">
</text><text class="terminal-2320622827-r1" x="756.4" y="483.6" textLength="12.2" clip-path="url(#terminal-2320622827-line-19)">
</text><text class="terminal-2320622827-r1" x="756.4" y="508" textLength="12.2" clip-path="url(#terminal-2320622827-line-20)">
</text><text class="terminal-2320622827-r1" x="756.4" y="532.4" textLength="12.2" clip-path="url(#terminal-2320622827-line-21)">
</text><text class="terminal-2320622827-r1" x="756.4" y="556.8" textLength="12.2" clip-path="url(#terminal-2320622827-line-22)">
</text><text class="terminal-2320622827-r1" x="756.4" y="581.2" textLength="12.2" clip-path="url(#terminal-2320622827-line-23)">
</text><text class="terminal-2320622827-r1" x="756.4" y="605.6" textLength="12.2" clip-path="url(#terminal-2320622827-line-24)">
</text><text class="terminal-2320622827-r1" x="756.4" y="630" textLength="12.2" clip-path="url(#terminal-2320622827-line-25)">
</text><text class="terminal-2320622827-r1" x="756.4" y="654.4" textLength="12.2" clip-path="url(#terminal-2320622827-line-26)">
</text><text class="terminal-2320622827-r1" x="756.4" y="678.8" textLength="12.2" clip-path="url(#terminal-2320622827-line-27)">
</text><text class="terminal-2320622827-r1" x="756.4" y="703.2" textLength="12.2" clip-path="url(#terminal-2320622827-line-28)">
</text><text class="terminal-2320622827-r1" x="756.4" y="727.6" textLength="12.2" clip-path="url(#terminal-2320622827-line-29)">
</text><text class="terminal-2320622827-r1" x="756.4" y="752" textLength="12.2" clip-path="url(#terminal-2320622827-line-30)">
</text><text class="terminal-2320622827-r1" x="756.4" y="776.4" textLength="12.2" clip-path="url(#terminal-2320622827-line-31)">
</text><text class="terminal-2320622827-r1" x="756.4" y="800.8" textLength="12.2" clip-path="url(#terminal-2320622827-line-32)">
</text><text class="terminal-2320622827-r1" x="756.4" y="825.2" textLength="12.2" clip-path="url(#terminal-2320622827-line-33)">
</text><text class="terminal-2320622827-r1" x="756.4" y="849.6" textLength="12.2" clip-path="url(#terminal-2320622827-line-34)">
</text><text class="terminal-2320622827-r1" x="756.4" y="874" textLength="12.2" clip-path="url(#terminal-2320622827-line-35)">
</text><text class="terminal-2320622827-r1" x="756.4" y="898.4" textLength="12.2" clip-path="url(#terminal-2320622827-line-36)">
</text><text class="terminal-2320622827-r1" x="756.4" y="922.8" textLength="12.2" clip-path="url(#terminal-2320622827-line-37)">
</text><text class="terminal-2320622827-r1" x="756.4" y="947.2" textLength="12.2" clip-path="url(#terminal-2320622827-line-38)">
</text><text class="terminal-2320622827-r1" x="756.4" y="971.6" textLength="12.2" clip-path="url(#terminal-2320622827-line-39)">
</text><text class="terminal-2320622827-r1" x="756.4" y="996" textLength="12.2" clip-path="url(#terminal-2320622827-line-40)">
</text><text class="terminal-2320622827-r1" x="756.4" y="1020.4" textLength="12.2" clip-path="url(#terminal-2320622827-line-41)">
</text><text class="terminal-2320622827-r1" x="756.4" y="1044.8" textLength="12.2" clip-path="url(#terminal-2320622827-line-42)">
</text><text class="terminal-2320622827-r1" x="756.4" y="1069.2" textLength="12.2" clip-path="url(#terminal-2320622827-line-43)">
</text><text class="terminal-2320622827-r1" x="756.4" y="1093.6" textLength="12.2" clip-path="url(#terminal-2320622827-line-44)">
</text><text class="terminal-2320622827-r1" x="756.4" y="1118" textLength="12.2" clip-path="url(#terminal-2320622827-line-45)">
</text><text class="terminal-2320622827-r1" x="756.4" y="1142.4" textLength="12.2" clip-path="url(#terminal-2320622827-line-46)">
</text><text class="terminal-2320622827-r1" x="756.4" y="1166.8" textLength="12.2" clip-path="url(#terminal-2320622827-line-47)">
</text><text class="terminal-2320622827-r1" x="756.4" y="1191.2" textLength="12.2" clip-path="url(#terminal-2320622827-line-48)">
</text><text class="terminal-2320622827-r1" x="756.4" y="1215.6" textLength="12.2" clip-path="url(#terminal-2320622827-line-49)">
</text><text class="terminal-2320622827-r3" x="0" y="1240" textLength="756.4" clip-path="url(#terminal-2320622827-line-50)">──────────────────────────────────────────────────────────────</text><text class="terminal-2320622827-r1" x="756.4" y="1240" textLength="12.2" clip-path="url(#terminal-2320622827-line-50)">
</text><text class="terminal-2320622827-r10" x="12.2" y="1264.4" textLength="12.2" clip-path="url(#terminal-2320622827-line-51)">?</text><text class="terminal-2320622827-r2" x="24.4" y="1264.4" textLength="85.4" clip-path="url(#terminal-2320622827-line-51)">&#160;Help&#160;&#160;</text><text class="terminal-2320622827-r10" x="109.8" y="1264.4" textLength="12.2" clip-path="url(#terminal-2320622827-line-51)">/</text><text class="terminal-2320622827-r2" x="122" y="1264.4" textLength="97.6" clip-path="url(#terminal-2320622827-line-51)">&#160;Search&#160;</text><text class="terminal-2320622827-r1" x="756.4" y="1264.4" textLength="12.2" clip-path="url(#terminal-2320622827-line-51)">
</text>
    </g>
    </g>
</svg>
