<svg class="rich-terminal" viewBox="0 0 702 977.1999999999999" xmlns="http://www.w3.org/2000/svg">
    <!-- Generated with Rich https://www.textualize.io -->
    <style>

    @font-face {
        font-family: "Fira Code";
        src: local("FiraCode-Regular"),
                url("https://cdnjs.cloudflare.com/ajax/libs/firacode/6.2.0/woff2/FiraCode-Regular.woff2") format("woff2"),
                url("https://cdnjs.cloudflare.com/ajax/libs/firacode/6.2.0/woff/FiraCode-Regular.woff") format("woff");
        font-style: normal;
        font-weight: 400;
    }
    @font-face {
        font-family: "Fira Code";
        src: local("FiraCode-Bold"),
                url("https://cdnjs.cloudflare.com/ajax/libs/firacode/6.2.0/woff2/FiraCode-Bold.woff2") format("woff2"),
                url("https://cdnjs.cloudflare.com/ajax/libs/firacode/6.2.0/woff/FiraCode-Bold.woff") format("woff");
        font-style: bold;
        font-weight: 700;
    }

    .terminal-3622268037-matrix {
        font-family: Fira Code, monospace;
        font-size: 20px;
        line-height: 24.4px;
        font-variant-east-asian: full-width;
    }

    .terminal-3622268037-title {
        font-size: 18px;
        font-weight: bold;
        font-family: arial;
    }

    .terminal-3622268037-r1 { fill: #c5c8c6 }
.terminal-3622268037-r2 { fill: #ffffff;font-weight: bold }
.terminal-3622268037-r3 { fill: #7f7f7f }
.terminal-3622268037-r4 { fill: #fffacd }
.terminal-3622268037-r5 { fill: #8c8e8c }
.terminal-3622268037-r6 { fill: #556b2f }
.terminal-3622268037-r7 { fill: #7cfc00 }
.terminal-3622268037-r8 { fill: #32cd32 }
.terminal-3622268037-r9 { fill: #ffd700 }
.terminal-3622268037-r10 { fill: #ff4500 }
.terminal-3622268037-r11 { fill: #a9c484 }
.terminal-3622268037-r12 { fill: #87cefa }
.terminal-3622268037-r13 { fill: #ff8c00;font-weight: bold }
    </style>

    <defs>
    <clipPath id="terminal-3622268037-clip-terminal">
      <rect x="0" y="0" width="682.1999999999999" height="926.1999999999999" />
    </clipPath>
    <clipPath id="terminal-3622268037-line-0">
    <rect x="0" y="1.5" width="683.2" height="24.65"/>
            </clipPath>
<clipPath id="terminal-3622268037-line-1">
    <rect x="0" y="25.9" width="683.2" height="24.65"/>
            </clipPath>
<clipPath id="terminal-3622268037-line-2">
    <rect x="0" y="50.3" width="683.2" height="24.65"/>
            </clipPath>
<clipPath id="terminal-3622268037-line-3">
    <rect x="0" y="74.7" width="683.2" height="24.65"/>
            </clipPath>
<clipPath id="terminal-3622268037-line-4">
    <rect x="0" y="99.1" width="683.2" height="24.65"/>
            </clipPath>
<clipPath id="terminal-3622268037-line-5">
    <rect x="0" y="123.5" width="683.2" height="24.65"/>
            </clipPath>
<clipPath id="terminal-3622268037-line-6">
    <rect x="0" y="147.9" width="683.2" height="24.65"/>
            </clipPath>
<clipPath id="terminal-3622268037-line-7">
    <rect x="0" y="172.3" width="683.2" height="24.65"/>
            </clipPath>
<clipPath id="terminal-3622268037-line-8">
    <rect x="0" y="196.7" width="683.2" height="24.65"/>
            </clipPath>
<clipPath id="terminal-3622268037-line-9">
    <rect x="0" y="221.1" width="683.2" height="24.65"/>
            </clipPath>
<clipPath id="terminal-3622268037-line-10">
    <rect x="0" y="245.5" width="683.2" height="24.65"/>
            </clipPath>
<clipPath id="terminal-3622268037-line-11">
    <rect x="0" y="269.9" width="683.2" height="24.65"/>
            </clipPath>
<clipPath id="terminal-3622268037-line-12">
    <rect x="0" y="294.3" width="683.2" height="24.65"/>
            </clipPath>
<clipPath id="terminal-3622268037-line-13">
    <rect x="0" y="318.7" width="683.2" height="24.65"/>
            </clipPath>
<clipPath id="terminal-3622268037-line-14">
    <rect x="0" y="343.1" width="683.2" height="24.65"/>
            </clipPath>
<clipPath id="terminal-3622268037-line-15">
    <rect x="0" y="367.5" width="683.2" height="24.65"/>
            </clipPath>
<clipPath id="terminal-3622268037-line-16">
    <rect x="0" y="391.9" width="683.2" height="24.65"/>
            </clipPath>
<clipPath id="terminal-3622268037-line-17">
    <rect x="0" y="416.3" width="683.2" height="24.65"/>
            </clipPath>
<clipPath id="terminal-3622268037-line-18">
    <rect x="0" y="440.7" width="683.2" height="24.65"/>
            </clipPath>
<clipPath id="terminal-3622268037-line-19">
    <rect x="0" y="465.1" width="683.2" height="24.65"/>
            </clipPath>
<clipPath id="terminal-3622268037-line-20">
    <rect x="0" y="489.5" width="683.2" height="24.65"/>
            </clipPath>
<clipPath id="terminal-3622268037-line-21">
    <rect x="0" y="513.9" width="683.2" height="24.65"/>
            </clipPath>
<clipPath id="terminal-3622268037-line-22">
    <rect x="0" y="538.3" width="683.2" height="24.65"/>
            </clipPath>
<clipPath id="terminal-3622268037-line-23">
    <rect x="0" y="562.7" width="683.2" height="24.65"/>
            </clipPath>
<clipPath id="terminal-3622268037-line-24">
    <rect x="0" y="587.1" width="683.2" height="24.65"/>
            </clipPath>
<clipPath id="terminal-3622268037-line-25">
    <rect x="0" y="611.5" width="683.2" height="24.65"/>
            </clipPath>
<clipPath id="terminal-3622268037-line-26">
    <rect x="0" y="635.9" width="683.2" height="24.65"/>
            </clipPath>
<clipPath id="terminal-3622268037-line-27">
    <rect x="0" y="660.3" width="683.2" height="24.65"/>
            </clipPath>
<clipPath id="terminal-3622268037-line-28">
    <rect x="0" y="684.7" width="683.2" height="24.65"/>
            </clipPath>
<clipPath id="terminal-3622268037-line-29">
    <rect x="0" y="709.1" width="683.2" height="24.65"/>
            </clipPath>
<clipPath id="terminal-3622268037-line-30">
    <rect x="0" y="733.5" width="683.2" height="24.65"/>
            </clipPath>
<clipPath id="terminal-3622268037-line-31">
    <rect x="0" y="757.9" width="683.2" height="24.65"/>
            </clipPath>
<clipPath id="terminal-3622268037-line-32">
    <rect x="0" y="782.3" width="683.2" height="24.65"/>
            </clipPath>
<clipPath id="terminal-3622268037-line-33">
    <rect x="0" y="806.7" width="683.2" height="24.65"/>
            </clipPath>
<clipPath id="terminal-3622268037-line-34">
    <rect x="0" y="831.1" width="683.2" height="24.65"/>
            </clipPath>
<clipPath id="terminal-3622268037-line-35">
    <rect x="0" y="855.5" width="683.2" height="24.65"/>
            </clipPath>
<clipPath id="terminal-3622268037-line-36">
    <rect x="0" y="879.9" width="683.2" height="24.65"/>
            </clipPath>
    </defs>

    <rect fill="#292929" stroke="rgba(255,255,255,0.35)" stroke-width="1" x="1" y="1" width="700" height="975.2" rx="8"/>
            <g transform="translate(26,22)">
            <circle cx="0" cy="0" r="7" fill="#ff5f57"/>
            <circle cx="22" cy="0" r="7" fill="#febc2e"/>
            <circle cx="44" cy="0" r="7" fill="#28c840"/>
            </g>
        
    <g transform="translate(9, 41)" clip-path="url(#terminal-3622268037-clip-terminal)">
    <rect fill="#373737" x="0" y="1.5" width="683.2" height="24.65" shape-rendering="crispEdges"/><rect fill="#373737" x="0" y="25.9" width="12.2" height="24.65" shape-rendering="crispEdges"/><rect fill="#373737" x="12.2" y="25.9" width="134.2" height="24.65" shape-rendering="crispEdges"/><rect fill="#373737" x="146.4" y="25.9" width="378.2" height="24.65" shape-rendering="crispEdges"/><rect fill="#373737" x="524.6" y="25.9" width="146.4" height="24.65" shape-rendering="crispEdges"/><rect fill="#373737" x="671" y="25.9" width="12.2" height="24.65" shape-rendering="crispEdges"/><rect fill="#373737" x="0" y="50.3" width="683.2" height="24.65" shape-rendering="crispEdges"/><rect fill="#373737" x="0" y="74.7" width="122" height="24.65" shape-rendering="crispEdges"/><rect fill="#373737" x="122" y="74.7" width="561.2" height="24.65" shape-rendering="crispEdges"/><rect fill="#373737" x="0" y="99.1" width="12.2" height="24.65" shape-rendering="crispEdges"/><rect fill="#373737" x="12.2" y="99.1" width="12.2" height="24.65" shape-rendering="crispEdges"/><rect fill="#373737" x="24.4" y="99.1" width="24.4" height="24.65" shape-rendering="crispEdges"/><rect fill="#373737" x="48.8" y="99.1" width="402.6" height="24.65" shape-rendering="crispEdges"/><rect fill="#373737" x="451.4" y="99.1" width="231.8" height="24.65" shape-rendering="crispEdges"/><rect fill="#373737" x="0" y="123.5" width="12.2" height="24.65" shape-rendering="crispEdges"/><rect fill="#373737" x="12.2" y="123.5" width="12.2" height="24.65" shape-rendering="crispEdges"/><rect fill="#373737" x="24.4" y="123.5" width="24.4" height="24.65" shape-rendering="crispEdges"/><rect fill="#373737" x="48.8" y="123.5" width="451.4" height="24.65" shape-rendering="crispEdges"/><rect fill="#373737" x="500.2" y="123.5" width="183" height="24.65" shape-rendering="crispEdges"/><rect fill="#373737" x="0" y="147.9" width="12.2" height="24.65" shape-rendering="crispEdges"/><rect fill="#373737" x="12.2" y="147.9" width="12.2" height="24.65" shape-rendering="crispEdges"/><rect fill="#373737" x="24.4" y="147.9" width="24.4" height="24.65" shape-rendering="crispEdges"/><rect fill="#373737" x="48.8" y="147.9" width="378.2" height="24.65" shape-rendering="crispEdges"/><rect fill="#373737" x="427" y="147.9" width="256.2" height="24.65" shape-rendering="crispEdges"/><rect fill="#373737" x="0" y="172.3" width="12.2" height="24.65" shape-rendering="crispEdges"/><rect fill="#373737" x="12.2" y="172.3" width="12.2" height="24.65" shape-rendering="crispEdges"/><rect fill="#373737" x="24.4" y="172.3" width="24.4" height="24.65" shape-rendering="crispEdges"/><rect fill="#373737" x="48.8" y="172.3" width="280.6" height="24.65" shape-rendering="crispEdges"/><rect fill="#373737" x="329.4" y="172.3" width="353.8" height="24.65" shape-rendering="crispEdges"/><rect fill="#373737" x="0" y="196.7" width="12.2" height="24.65" shape-rendering="crispEdges"/><rect fill="#373737" x="12.2" y="196.7" width="12.2" height="24.65" shape-rendering="crispEdges"/><rect fill="#373737" x="24.4" y="196.7" width="24.4" height="24.65" shape-rendering="crispEdges"/><rect fill="#373737" x="48.8" y="196.7" width="329.4" height="24.65" shape-rendering="crispEdges"/><rect fill="#373737" x="378.2" y="196.7" width="305" height="24.65" shape-rendering="crispEdges"/><rect fill="#373737" x="0" y="221.1" width="12.2" height="24.65" shape-rendering="crispEdges"/><rect fill="#373737" x="12.2" y="221.1" width="12.2" height="24.65" shape-rendering="crispEdges"/><rect fill="#373737" x="24.4" y="221.1" width="24.4" height="24.65" shape-rendering="crispEdges"/><rect fill="#373737" x="48.8" y="221.1" width="414.8" height="24.65" shape-rendering="crispEdges"/><rect fill="#373737" x="463.6" y="221.1" width="219.6" height="24.65" shape-rendering="crispEdges"/><rect fill="#373737" x="0" y="245.5" width="12.2" height="24.65" shape-rendering="crispEdges"/><rect fill="#373737" x="12.2" y="245.5" width="12.2" height="24.65" shape-rendering="crispEdges"/><rect fill="#373737" x="24.4" y="245.5" width="24.4" height="24.65" shape-rendering="crispEdges"/><rect fill="#373737" x="48.8" y="245.5" width="292.8" height="24.65" shape-rendering="crispEdges"/><rect fill="#373737" x="341.6" y="245.5" width="341.6" height="24.65" shape-rendering="crispEdges"/><rect fill="#373737" x="0" y="269.9" width="12.2" height="24.65" shape-rendering="crispEdges"/><rect fill="#373737" x="12.2" y="269.9" width="12.2" height="24.65" shape-rendering="crispEdges"/><rect fill="#373737" x="24.4" y="269.9" width="24.4" height="24.65" shape-rendering="crispEdges"/><rect fill="#373737" x="48.8" y="269.9" width="329.4" height="24.65" shape-rendering="crispEdges"/><rect fill="#373737" x="378.2" y="269.9" width="305" height="24.65" shape-rendering="crispEdges"/><rect fill="#373737" x="0" y="294.3" width="12.2" height="24.65" shape-rendering="crispEdges"/><rect fill="#373737" x="12.2" y="294.3" width="12.2" height="24.65" shape-rendering="crispEdges"/><rect fill="#373737" x="24.4" y="294.3" width="24.4" height="24.65" shape-rendering="crispEdges"/><rect fill="#373737" x="48.8" y="294.3" width="390.4" height="24.65" shape-rendering="crispEdges"/><rect fill="#373737" x="439.2" y="294.3" width="244" height="24.65" shape-rendering="crispEdges"/><rect fill="#373737" x="0" y="318.7" width="12.2" height="24.65" shape-rendering="crispEdges"/><rect fill="#373737" x="12.2" y="318.7" width="12.2" height="24.65" shape-rendering="crispEdges"/><rect fill="#373737" x="24.4" y="318.7" width="24.4" height="24.65" shape-rendering="crispEdges"/><rect fill="#373737" x="48.8" y="318.7" width="536.8" height="24.65" shape-rendering="crispEdges"/><rect fill="#373737" x="585.6" y="318.7" width="97.6" height="24.65" shape-rendering="crispEdges"/><rect fill="#373737" x="0" y="343.1" width="12.2" height="24.65" shape-rendering="crispEdges"/><rect fill="#373737" x="12.2" y="343.1" width="12.2" height="24.65" shape-rendering="crispEdges"/><rect fill="#373737" x="24.4" y="343.1" width="24.4" height="24.65" shape-rendering="crispEdges"/><rect fill="#373737" x="48.8" y="343.1" width="353.8" height="24.65" shape-rendering="crispEdges"/><rect fill="#373737" x="402.6" y="343.1" width="280.6" height="24.65" shape-rendering="crispEdges"/><rect fill="#373737" x="0" y="367.5" width="122" height="24.65" shape-rendering="crispEdges"/><rect fill="#373737" x="122" y="367.5" width="561.2" height="24.65" shape-rendering="crispEdges"/><rect fill="#373737" x="0" y="391.9" width="12.2" height="24.65" shape-rendering="crispEdges"/><rect fill="#373737" x="12.2" y="391.9" width="12.2" height="24.65" shape-rendering="crispEdges"/><rect fill="#373737" x="24.4" y="391.9" width="24.4" height="24.65" shape-rendering="crispEdges"/><rect fill="#373737" x="48.8" y="391.9" width="329.4" height="24.65" shape-rendering="crispEdges"/><rect fill="#373737" x="378.2" y="391.9" width="305" height="24.65" shape-rendering="crispEdges"/><rect fill="#373737" x="0" y="416.3" width="12.2" height="24.65" shape-rendering="crispEdges"/><rect fill="#373737" x="12.2" y="416.3" width="12.2" height="24.65" shape-rendering="crispEdges"/><rect fill="#373737" x="24.4" y="416.3" width="24.4" height="24.65" shape-rendering="crispEdges"/><rect fill="#373737" x="48.8" y="416.3" width="292.8" height="24.65" shape-rendering="crispEdges"/><rect fill="#373737" x="341.6" y="416.3" width="341.6" height="24.65" shape-rendering="crispEdges"/><rect fill="#373737" x="0" y="440.7" width="12.2" height="24.65" shape-rendering="crispEdges"/><rect fill="#373737" x="12.2" y="440.7" width="12.2" height="24.65" shape-rendering="crispEdges"/><rect fill="#373737" x="24.4" y="440.7" width="24.4" height="24.65" shape-rendering="crispEdges"/><rect fill="#373737" x="48.8" y="440.7" width="280.6" height="24.65" shape-rendering="crispEdges"/><rect fill="#373737" x="329.4" y="440.7" width="353.8" height="24.65" shape-rendering="crispEdges"/><rect fill="#373737" x="0" y="465.1" width="12.2" height="24.65" shape-rendering="crispEdges"/><rect fill="#373737" x="12.2" y="465.1" width="12.2" height="24.65" shape-rendering="crispEdges"/><rect fill="#373737" x="24.4" y="465.1" width="24.4" height="24.65" shape-rendering="crispEdges"/><rect fill="#373737" x="48.8" y="465.1" width="366" height="24.65" shape-rendering="crispEdges"/><rect fill="#373737" x="414.8" y="465.1" width="268.4" height="24.65" shape-rendering="crispEdges"/><rect fill="#373737" x="0" y="489.5" width="12.2" height="24.65" shape-rendering="crispEdges"/><rect fill="#373737" x="12.2" y="489.5" width="12.2" height="24.65" shape-rendering="crispEdges"/><rect fill="#373737" x="24.4" y="489.5" width="24.4" height="24.65" shape-rendering="crispEdges"/><rect fill="#373737" x="48.8" y="489.5" width="280.6" height="24.65" shape-rendering="crispEdges"/><rect fill="#373737" x="329.4" y="489.5" width="353.8" height="24.65" shape-rendering="crispEdges"/><rect fill="#373737" x="0" y="513.9" width="12.2" height="24.65" shape-rendering="crispEdges"/><rect fill="#373737" x="12.2" y="513.9" width="12.2" height="24.65" shape-rendering="crispEdges"/><rect fill="#373737" x="24.4" y="513.9" width="24.4" height="24.65" shape-rendering="crispEdges"/><rect fill="#373737" x="48.8" y="513.9" width="292.8" height="24.65" shape-rendering="crispEdges"/><rect fill="#373737" x="341.6" y="513.9" width="341.6" height="24.65" shape-rendering="crispEdges"/><rect fill="#373737" x="0" y="538.3" width="12.2" height="24.65" shape-rendering="crispEdges"/><rect fill="#373737" x="12.2" y="538.3" width="12.2" height="24.65" shape-rendering="crispEdges"/><rect fill="#373737" x="24.4" y="538.3" width="24.4" height="24.65" shape-rendering="crispEdges"/><rect fill="#373737" x="48.8" y="538.3" width="329.4" height="24.65" shape-rendering="crispEdges"/><rect fill="#373737" x="378.2" y="538.3" width="305" height="24.65" shape-rendering="crispEdges"/><rect fill="#373737" x="0" y="562.7" width="122" height="24.65" shape-rendering="crispEdges"/><rect fill="#373737" x="122" y="562.7" width="561.2" height="24.65" shape-rendering="crispEdges"/><rect fill="#373737" x="0" y="587.1" width="12.2" height="24.65" shape-rendering="crispEdges"/><rect fill="#373737" x="12.2" y="587.1" width="12.2" height="24.65" shape-rendering="crispEdges"/><rect fill="#373737" x="24.4" y="587.1" width="24.4" height="24.65" shape-rendering="crispEdges"/><rect fill="#373737" x="48.8" y="587.1" width="292.8" height="24.65" shape-rendering="crispEdges"/><rect fill="#373737" x="341.6" y="587.1" width="341.6" height="24.65" shape-rendering="crispEdges"/><rect fill="#373737" x="0" y="611.5" width="12.2" height="24.65" shape-rendering="crispEdges"/><rect fill="#373737" x="12.2" y="611.5" width="12.2" height="24.65" shape-rendering="crispEdges"/><rect fill="#373737" x="24.4" y="611.5" width="24.4" height="24.65" shape-rendering="crispEdges"/><rect fill="#373737" x="48.8" y="611.5" width="280.6" height="24.65" shape-rendering="crispEdges"/><rect fill="#373737" x="329.4" y="611.5" width="353.8" height="24.65" shape-rendering="crispEdges"/><rect fill="#373737" x="0" y="635.9" width="12.2" height="24.65" shape-rendering="crispEdges"/><rect fill="#373737" x="12.2" y="635.9" width="12.2" height="24.65" shape-rendering="crispEdges"/><rect fill="#373737" x="24.4" y="635.9" width="24.4" height="24.65" shape-rendering="crispEdges"/><rect fill="#373737" x="48.8" y="635.9" width="451.4" height="24.65" shape-rendering="crispEdges"/><rect fill="#373737" x="500.2" y="635.9" width="183" height="24.65" shape-rendering="crispEdges"/><rect fill="#373737" x="0" y="660.3" width="12.2" height="24.65" shape-rendering="crispEdges"/><rect fill="#373737" x="12.2" y="660.3" width="12.2" height="24.65" shape-rendering="crispEdges"/><rect fill="#373737" x="24.4" y="660.3" width="24.4" height="24.65" shape-rendering="crispEdges"/><rect fill="#373737" x="48.8" y="660.3" width="329.4" height="24.65" shape-rendering="crispEdges"/><rect fill="#373737" x="378.2" y="660.3" width="305" height="24.65" shape-rendering="crispEdges"/><rect fill="#373737" x="0" y="684.7" width="36.6" height="24.65" shape-rendering="crispEdges"/><rect fill="#373737" x="36.6" y="684.7" width="646.6" height="24.65" shape-rendering="crispEdges"/><rect fill="#373737" x="0" y="709.1" width="122" height="24.65" shape-rendering="crispEdges"/><rect fill="#373737" x="122" y="709.1" width="561.2" height="24.65" shape-rendering="crispEdges"/><rect fill="#373737" x="0" y="733.5" width="12.2" height="24.65" shape-rendering="crispEdges"/><rect fill="#373737" x="12.2" y="733.5" width="12.2" height="24.65" shape-rendering="crispEdges"/><rect fill="#373737" x="24.4" y="733.5" width="24.4" height="24.65" shape-rendering="crispEdges"/><rect fill="#373737" x="48.8" y="733.5" width="24.4" height="24.65" shape-rendering="crispEdges"/><rect fill="#373737" x="73.2" y="733.5" width="451.4" height="24.65" shape-rendering="crispEdges"/><rect fill="#373737" x="524.6" y="733.5" width="158.6" height="24.65" shape-rendering="crispEdges"/><rect fill="#373737" x="0" y="757.9" width="12.2" height="24.65" shape-rendering="crispEdges"/><rect fill="#373737" x="12.2" y="757.9" width="12.2" height="24.65" shape-rendering="crispEdges"/><rect fill="#373737" x="24.4" y="757.9" width="24.4" height="24.65" shape-rendering="crispEdges"/><rect fill="#373737" x="48.8" y="757.9" width="24.4" height="24.65" shape-rendering="crispEdges"/><rect fill="#373737" x="73.2" y="757.9" width="207.4" height="24.65" shape-rendering="crispEdges"/><rect fill="#373737" x="280.6" y="757.9" width="402.6" height="24.65" shape-rendering="crispEdges"/><rect fill="#373737" x="0" y="782.3" width="12.2" height="24.65" shape-rendering="crispEdges"/><rect fill="#373737" x="12.2" y="782.3" width="12.2" height="24.65" shape-rendering="crispEdges"/><rect fill="#373737" x="24.4" y="782.3" width="24.4" height="24.65" shape-rendering="crispEdges"/><rect fill="#373737" x="48.8" y="782.3" width="24.4" height="24.65" shape-rendering="crispEdges"/><rect fill="#373737" x="73.2" y="782.3" width="414.8" height="24.65" shape-rendering="crispEdges"/><rect fill="#373737" x="488" y="782.3" width="195.2" height="24.65" shape-rendering="crispEdges"/><rect fill="#373737" x="0" y="806.7" width="12.2" height="24.65" shape-rendering="crispEdges"/><rect fill="#373737" x="12.2" y="806.7" width="12.2" height="24.65" shape-rendering="crispEdges"/><rect fill="#373737" x="24.4" y="806.7" width="24.4" height="24.65" shape-rendering="crispEdges"/><rect fill="#373737" x="48.8" y="806.7" width="24.4" height="24.65" shape-rendering="crispEdges"/><rect fill="#373737" x="73.2" y="806.7" width="170.8" height="24.65" shape-rendering="crispEdges"/><rect fill="#373737" x="244" y="806.7" width="439.2" height="24.65" shape-rendering="crispEdges"/><rect fill="#373737" x="0" y="831.1" width="683.2" height="24.65" shape-rendering="crispEdges"/><rect fill="#373737" x="0" y="855.5" width="683.2" height="24.65" shape-rendering="crispEdges"/><rect fill="#373737" x="0" y="879.9" width="12.2" height="24.65" shape-rendering="crispEdges"/><rect fill="#373737" x="12.2" y="879.9" width="12.2" height="24.65" shape-rendering="crispEdges"/><rect fill="#373737" x="24.4" y="879.9" width="85.4" height="24.65" shape-rendering="crispEdges"/><rect fill="#373737" x="109.8" y="879.9" width="12.2" height="24.65" shape-rendering="crispEdges"/><rect fill="#373737" x="122" y="879.9" width="85.4" height="24.65" shape-rendering="crispEdges"/><rect fill="#373737" x="207.4" y="879.9" width="463.6" height="24.65" shape-rendering="crispEdges"/><rect fill="#373737" x="671" y="879.9" width="12.2" height="24.65" shape-rendering="crispEdges"/><rect fill="#373737" x="0" y="904.3" width="683.2" height="24.65" shape-rendering="crispEdges"/>
    <g class="terminal-3622268037-matrix">
    <text class="terminal-3622268037-r1" x="683.2" y="20" textLength="12.2" clip-path="url(#terminal-3622268037-line-0)">
</text><text class="terminal-3622268037-r2" x="146.4" y="44.4" textLength="378.2" clip-path="url(#terminal-3622268037-line-1)">Agenda&#160;-&#160;Events&#160;and&#160;Tasks&#160;(1/2)</text><text class="terminal-3622268037-r1" x="683.2" y="44.4" textLength="12.2" clip-path="url(#terminal-3622268037-line-1)">
</text><text class="terminal-3622268037-r3" x="0" y="68.8" textLength="683.2" clip-path="url(#terminal-3622268037-line-2)">────────────────────────────────────────────────────────</text><text class="terminal-3622268037-r1" x="683.2" y="68.8" textLength="12.2" clip-path="url(#terminal-3622268037-line-2)">
</text><text class="terminal-3622268037-r4" x="0" y="93.2" textLength="122" clip-path="url(#terminal-3622268037-line-3)">Sun&#160;Oct&#160;26</text><text class="terminal-3622268037-r1" x="683.2" y="93.2" textLength="12.2" clip-path="url(#terminal-3622268037-line-3)">
</text><text class="terminal-3622268037-r5" x="12.2" y="117.6" textLength="12.2" clip-path="url(#terminal-3622268037-line-4)">a</text><text class="terminal-3622268037-r6" x="48.8" y="117.6" textLength="402.6" clip-path="url(#terminal-3622268037-line-4)">7-8:00&#160;timezone&#160;test&#160;for&#160;noon&#160;CET</text><text class="terminal-3622268037-r1" x="683.2" y="117.6" textLength="12.2" clip-path="url(#terminal-3622268037-line-4)">
</text><text class="terminal-3622268037-r5" x="12.2" y="142" textLength="12.2" clip-path="url(#terminal-3622268037-line-5)">b</text><text class="terminal-3622268037-r6" x="48.8" y="142" textLength="451.4" clip-path="url(#terminal-3622268037-line-5)">12-13:00&#160;timezone&#160;test&#160;for&#160;noon&#160;naive</text><text class="terminal-3622268037-r1" x="683.2" y="142" textLength="12.2" clip-path="url(#terminal-3622268037-line-5)">
</text><text class="terminal-3622268037-r5" x="12.2" y="166.4" textLength="12.2" clip-path="url(#terminal-3622268037-line-6)">c</text><text class="terminal-3622268037-r7" x="48.8" y="166.4" textLength="378.2" clip-path="url(#terminal-3622268037-line-6)">13:00&#160;daily&#160;datetime&#160;US/Pacific</text><text class="terminal-3622268037-r1" x="683.2" y="166.4" textLength="12.2" clip-path="url(#terminal-3622268037-line-6)">
</text><text class="terminal-3622268037-r5" x="12.2" y="190.8" textLength="12.2" clip-path="url(#terminal-3622268037-line-7)">d</text><text class="terminal-3622268037-r6" x="48.8" y="190.8" textLength="280.6" clip-path="url(#terminal-3622268037-line-7)">15-15:30&#160;daily&#160;datetime</text><text class="terminal-3622268037-r1" x="683.2" y="190.8" textLength="12.2" clip-path="url(#terminal-3622268037-line-7)">
</text><text class="terminal-3622268037-r5" x="12.2" y="215.2" textLength="12.2" clip-path="url(#terminal-3622268037-line-8)">e</text><text class="terminal-3622268037-r8" x="48.8" y="215.2" textLength="329.4" clip-path="url(#terminal-3622268037-line-8)">17:10-17:55&#160;three&#160;datetimes</text><text class="terminal-3622268037-r1" x="683.2" y="215.2" textLength="12.2" clip-path="url(#terminal-3622268037-line-8)">
</text><text class="terminal-3622268037-r5" x="12.2" y="239.6" textLength="12.2" clip-path="url(#terminal-3622268037-line-9)">f</text><text class="terminal-3622268037-r8" x="48.8" y="239.6" textLength="414.8" clip-path="url(#terminal-3622268037-line-9)">18:00&#160;daily&#160;with&#160;US/Pacific&#160;from&#160;z</text><text class="terminal-3622268037-r1" x="683.2" y="239.6" textLength="12.2" clip-path="url(#terminal-3622268037-line-9)">
</text><text class="terminal-3622268037-r5" x="12.2" y="264" textLength="12.2" clip-path="url(#terminal-3622268037-line-10)">g</text><text class="terminal-3622268037-r8" x="48.8" y="264" textLength="292.8" clip-path="url(#terminal-3622268037-line-10)">18-18:45&#160;three&#160;datetimes</text><text class="terminal-3622268037-r1" x="683.2" y="264" textLength="12.2" clip-path="url(#terminal-3622268037-line-10)">
</text><text class="terminal-3622268037-r5" x="12.2" y="288.4" textLength="12.2" clip-path="url(#terminal-3622268037-line-11)">h</text><text class="terminal-3622268037-r8" x="48.8" y="288.4" textLength="329.4" clip-path="url(#terminal-3622268037-line-11)">19:30-20:30&#160;repeating&#160;until</text><text class="terminal-3622268037-r1" x="683.2" y="288.4" textLength="12.2" clip-path="url(#terminal-3622268037-line-11)">
</text><text class="terminal-3622268037-r5" x="12.2" y="312.8" textLength="12.2" clip-path="url(#terminal-3622268037-line-12)">i</text><text class="terminal-3622268037-r9" x="48.8" y="312.8" textLength="390.4" clip-path="url(#terminal-3622268037-line-12)">+1d&#160;event&#160;in&#160;1&#160;day&#160;with&#160;beginby&#160;</text><text class="terminal-3622268037-r1" x="683.2" y="312.8" textLength="12.2" clip-path="url(#terminal-3622268037-line-12)">
</text><text class="terminal-3622268037-r5" x="12.2" y="337.2" textLength="12.2" clip-path="url(#terminal-3622268037-line-13)">j</text><text class="terminal-3622268037-r9" x="48.8" y="337.2" textLength="536.8" clip-path="url(#terminal-3622268037-line-13)">+5d&#160;starting&#160;in&#160;5&#160;days&#160;repeating&#160;for&#160;3&#160;days&#160;</text><text class="terminal-3622268037-r1" x="683.2" y="337.2" textLength="12.2" clip-path="url(#terminal-3622268037-line-13)">
</text><text class="terminal-3622268037-r5" x="12.2" y="361.6" textLength="12.2" clip-path="url(#terminal-3622268037-line-14)">k</text><text class="terminal-3622268037-r10" x="48.8" y="361.6" textLength="353.8" clip-path="url(#terminal-3622268037-line-14)">&#160;?&#160;draft&#160;reminder&#160;-&#160;no&#160;checks</text><text class="terminal-3622268037-r1" x="683.2" y="361.6" textLength="12.2" clip-path="url(#terminal-3622268037-line-14)">
</text><text class="terminal-3622268037-r4" x="0" y="386" textLength="122" clip-path="url(#terminal-3622268037-line-15)">Mon&#160;Oct&#160;27</text><text class="terminal-3622268037-r1" x="683.2" y="386" textLength="12.2" clip-path="url(#terminal-3622268037-line-15)">
</text><text class="terminal-3622268037-r5" x="12.2" y="410.4" textLength="12.2" clip-path="url(#terminal-3622268037-line-16)">l</text><text class="terminal-3622268037-r8" x="48.8" y="410.4" textLength="329.4" clip-path="url(#terminal-3622268037-line-16)">event&#160;in&#160;1&#160;day&#160;with&#160;beginby</text><text class="terminal-3622268037-r1" x="683.2" y="410.4" textLength="12.2" clip-path="url(#terminal-3622268037-line-16)">
</text><text class="terminal-3622268037-r5" x="12.2" y="434.8" textLength="12.2" clip-path="url(#terminal-3622268037-line-17)">m</text><text class="terminal-3622268037-r8" x="48.8" y="434.8" textLength="292.8" clip-path="url(#terminal-3622268037-line-17)">Ellen&#x27;s&#160;French&#160;adventure</text><text class="terminal-3622268037-r1" x="683.2" y="434.8" textLength="12.2" clip-path="url(#terminal-3622268037-line-17)">
</text><text class="terminal-3622268037-r5" x="12.2" y="459.2" textLength="12.2" clip-path="url(#terminal-3622268037-line-18)">n</text><text class="terminal-3622268037-r8" x="48.8" y="459.2" textLength="280.6" clip-path="url(#terminal-3622268037-line-18)">10:00&#160;zero&#160;extent&#160;naive</text><text class="terminal-3622268037-r1" x="683.2" y="459.2" textLength="12.2" clip-path="url(#terminal-3622268037-line-18)">
</text><text class="terminal-3622268037-r5" x="12.2" y="483.6" textLength="12.2" clip-path="url(#terminal-3622268037-line-19)">o</text><text class="terminal-3622268037-r8" x="48.8" y="483.6" textLength="366" clip-path="url(#terminal-3622268037-line-19)">10:00&#160;zero&#160;extent&#160;naive&#160;from&#160;z</text><text class="terminal-3622268037-r1" x="683.2" y="483.6" textLength="12.2" clip-path="url(#terminal-3622268037-line-19)">
</text><text class="terminal-3622268037-r5" x="12.2" y="508" textLength="12.2" clip-path="url(#terminal-3622268037-line-20)">p</text><text class="terminal-3622268037-r8" x="48.8" y="508" textLength="280.6" clip-path="url(#terminal-3622268037-line-20)">15-15:30&#160;daily&#160;datetime</text><text class="terminal-3622268037-r1" x="683.2" y="508" textLength="12.2" clip-path="url(#terminal-3622268037-line-20)">
</text><text class="terminal-3622268037-r5" x="12.2" y="532.4" textLength="12.2" clip-path="url(#terminal-3622268037-line-21)">q</text><text class="terminal-3622268037-r8" x="48.8" y="532.4" textLength="292.8" clip-path="url(#terminal-3622268037-line-21)">18-18:45&#160;three&#160;datetimes</text><text class="terminal-3622268037-r1" x="683.2" y="532.4" textLength="12.2" clip-path="url(#terminal-3622268037-line-21)">
</text><text class="terminal-3622268037-r5" x="12.2" y="556.8" textLength="12.2" clip-path="url(#terminal-3622268037-line-22)">r</text><text class="terminal-3622268037-r8" x="48.8" y="556.8" textLength="329.4" clip-path="url(#terminal-3622268037-line-22)">19:30-20:30&#160;repeating&#160;until</text><text class="terminal-3622268037-r1" x="683.2" y="556.8" textLength="12.2" clip-path="url(#terminal-3622268037-line-22)">
</text><text class="terminal-3622268037-r4" x="0" y="581.2" textLength="122" clip-path="url(#terminal-3622268037-line-23)">Tue&#160;Oct&#160;28</text><text class="terminal-3622268037-r1" x="683.2" y="581.2" textLength="12.2" clip-path="url(#terminal-3622268037-line-23)">
</text><text class="terminal-3622268037-r5" x="12.2" y="605.6" textLength="12.2" clip-path="url(#terminal-3622268037-line-24)">s</text><text class="terminal-3622268037-r8" x="48.8" y="605.6" textLength="292.8" clip-path="url(#terminal-3622268037-line-24)">Ellen&#x27;s&#160;French&#160;adventure</text><text class="terminal-3622268037-r1" x="683.2" y="605.6" textLength="12.2" clip-path="url(#terminal-3622268037-line-24)">
</text><text class="terminal-3622268037-r5" x="12.2" y="630" textLength="12.2" clip-path="url(#terminal-3622268037-line-25)">t</text><text class="terminal-3622268037-r8" x="48.8" y="630" textLength="280.6" clip-path="url(#terminal-3622268037-line-25)">15-15:30&#160;daily&#160;datetime</text><text class="terminal-3622268037-r1" x="683.2" y="630" textLength="12.2" clip-path="url(#terminal-3622268037-line-25)">
</text><text class="terminal-3622268037-r5" x="12.2" y="654.4" textLength="12.2" clip-path="url(#terminal-3622268037-line-26)">u</text><text class="terminal-3622268037-r8" x="48.8" y="654.4" textLength="451.4" clip-path="url(#terminal-3622268037-line-26)">18:00&#160;event&#160;in&#160;2&#160;days&#160;with&#160;1d&#160;beginby</text><text class="terminal-3622268037-r1" x="683.2" y="654.4" textLength="12.2" clip-path="url(#terminal-3622268037-line-26)">
</text><text class="terminal-3622268037-r5" x="12.2" y="678.8" textLength="12.2" clip-path="url(#terminal-3622268037-line-27)">v</text><text class="terminal-3622268037-r8" x="48.8" y="678.8" textLength="329.4" clip-path="url(#terminal-3622268037-line-27)">19:30-20:30&#160;repeating&#160;until</text><text class="terminal-3622268037-r1" x="683.2" y="678.8" textLength="12.2" clip-path="url(#terminal-3622268037-line-27)">
</text><text class="terminal-3622268037-r1" x="683.2" y="703.2" textLength="12.2" clip-path="url(#terminal-3622268037-line-28)">
</text><text class="terminal-3622268037-r1" x="0" y="727.6" textLength="122" clip-path="url(#terminal-3622268037-line-29)">Tasks&#160;(19)</text><text class="terminal-3622268037-r1" x="683.2" y="727.6" textLength="12.2" clip-path="url(#terminal-3622268037-line-29)">
</text><text class="terminal-3622268037-r5" x="12.2" y="752" textLength="12.2" clip-path="url(#terminal-3622268037-line-30)">w</text><text class="terminal-3622268037-r11" x="48.8" y="752" textLength="24.4" clip-path="url(#terminal-3622268037-line-30)">93</text><text class="terminal-3622268037-r12" x="73.2" y="752" textLength="451.4" clip-path="url(#terminal-3622268037-line-30)">&#160;due,&#160;tags,&#160;description,&#160;priority&#160;one</text><text class="terminal-3622268037-r1" x="683.2" y="752" textLength="12.2" clip-path="url(#terminal-3622268037-line-30)">
</text><text class="terminal-3622268037-r5" x="12.2" y="776.4" textLength="12.2" clip-path="url(#terminal-3622268037-line-31)">x</text><text class="terminal-3622268037-r11" x="48.8" y="776.4" textLength="24.4" clip-path="url(#terminal-3622268037-line-31)">92</text><text class="terminal-3622268037-r12" x="73.2" y="776.4" textLength="207.4" clip-path="url(#terminal-3622268037-line-31)">&#160;all&#160;day&#160;tomorrow</text><text class="terminal-3622268037-r1" x="683.2" y="776.4" textLength="12.2" clip-path="url(#terminal-3622268037-line-31)">
</text><text class="terminal-3622268037-r5" x="12.2" y="800.8" textLength="12.2" clip-path="url(#terminal-3622268037-line-32)">y</text><text class="terminal-3622268037-r11" x="48.8" y="800.8" textLength="24.4" clip-path="url(#terminal-3622268037-line-32)">92</text><text class="terminal-3622268037-r12" x="73.2" y="800.8" textLength="414.8" clip-path="url(#terminal-3622268037-line-32)">&#160;one&#160;due&#160;datetime&#160;and&#160;priority&#160;one</text><text class="terminal-3622268037-r1" x="683.2" y="800.8" textLength="12.2" clip-path="url(#terminal-3622268037-line-32)">
</text><text class="terminal-3622268037-r5" x="12.2" y="825.2" textLength="12.2" clip-path="url(#terminal-3622268037-line-33)">z</text><text class="terminal-3622268037-r11" x="48.8" y="825.2" textLength="24.4" clip-path="url(#terminal-3622268037-line-33)">92</text><text class="terminal-3622268037-r12" x="73.2" y="825.2" textLength="170.8" clip-path="url(#terminal-3622268037-line-33)">&#160;all&#160;day&#160;today</text><text class="terminal-3622268037-r1" x="683.2" y="825.2" textLength="12.2" clip-path="url(#terminal-3622268037-line-33)">
</text><text class="terminal-3622268037-r1" x="683.2" y="849.6" textLength="12.2" clip-path="url(#terminal-3622268037-line-34)">
</text><text class="terminal-3622268037-r3" x="0" y="874" textLength="683.2" clip-path="url(#terminal-3622268037-line-35)">────────────────────────────────────────────────────────</text><text class="terminal-3622268037-r1" x="683.2" y="874" textLength="12.2" clip-path="url(#terminal-3622268037-line-35)">
</text><text class="terminal-3622268037-r13" x="12.2" y="898.4" textLength="12.2" clip-path="url(#terminal-3622268037-line-36)">?</text><text class="terminal-3622268037-r2" x="24.4" y="898.4" textLength="85.4" clip-path="url(#terminal-3622268037-line-36)">&#160;Help&#160;&#160;</text><text class="terminal-3622268037-r13" x="109.8" y="898.4" textLength="12.2" clip-path="url(#terminal-3622268037-line-36)">/</text><text class="terminal-3622268037-r2" x="122" y="898.4" textLength="85.4" clip-path="url(#terminal-3622268037-line-36)">&#160;Search</text><text class="terminal-3622268037-r1" x="683.2" y="898.4" textLength="12.2" clip-path="url(#terminal-3622268037-line-36)">
</text>
    </g>
    </g>
</svg>
