<svg class="rich-terminal" viewBox="0 0 738 904.0" xmlns="http://www.w3.org/2000/svg">
    <!-- Generated with Rich https://www.textualize.io -->
    <style>

    @font-face {
        font-family: "Fira Code";
        src: local("FiraCode-Regular"),
                url("https://cdnjs.cloudflare.com/ajax/libs/firacode/6.2.0/woff2/FiraCode-Regular.woff2") format("woff2"),
                url("https://cdnjs.cloudflare.com/ajax/libs/firacode/6.2.0/woff/FiraCode-Regular.woff") format("woff");
        font-style: normal;
        font-weight: 400;
    }
    @font-face {
        font-family: "Fira Code";
        src: local("FiraCode-Bold"),
                url("https://cdnjs.cloudflare.com/ajax/libs/firacode/6.2.0/woff2/FiraCode-Bold.woff2") format("woff2"),
                url("https://cdnjs.cloudflare.com/ajax/libs/firacode/6.2.0/woff/FiraCode-Bold.woff") format("woff");
        font-style: bold;
        font-weight: 700;
    }

    .terminal-1551202207-matrix {
        font-family: Fira Code, monospace;
        font-size: 20px;
        line-height: 24.4px;
        font-variant-east-asian: full-width;
    }

    .terminal-1551202207-title {
        font-size: 18px;
        font-weight: bold;
        font-family: arial;
    }

    .terminal-1551202207-r1 { fill: #c5c8c6 }
.terminal-1551202207-r2 { fill: #ffffff;font-weight: bold }
.terminal-1551202207-r3 { fill: #7f7f7f }
.terminal-1551202207-r4 { fill: #fffacd }
.terminal-1551202207-r5 { fill: #373737 }
.terminal-1551202207-r6 { fill: #8c8e8c }
.terminal-1551202207-r7 { fill: #32cd32 }
.terminal-1551202207-r8 { fill: #98b89e }
.terminal-1551202207-r9 { fill: #87cefa }
.terminal-1551202207-r10 { fill: #000000 }
.terminal-1551202207-r11 { fill: #e0e0e0 }
.terminal-1551202207-r12 { fill: #ffff00;font-weight: bold }
    </style>

    <defs>
    <clipPath id="terminal-1551202207-clip-terminal">
      <rect x="0" y="0" width="718.8" height="853.0" />
    </clipPath>
    <clipPath id="terminal-1551202207-line-0">
    <rect x="0" y="1.5" width="719.8" height="24.65"/>
            </clipPath>
<clipPath id="terminal-1551202207-line-1">
    <rect x="0" y="25.9" width="719.8" height="24.65"/>
            </clipPath>
<clipPath id="terminal-1551202207-line-2">
    <rect x="0" y="50.3" width="719.8" height="24.65"/>
            </clipPath>
<clipPath id="terminal-1551202207-line-3">
    <rect x="0" y="74.7" width="719.8" height="24.65"/>
            </clipPath>
<clipPath id="terminal-1551202207-line-4">
    <rect x="0" y="99.1" width="719.8" height="24.65"/>
            </clipPath>
<clipPath id="terminal-1551202207-line-5">
    <rect x="0" y="123.5" width="719.8" height="24.65"/>
            </clipPath>
<clipPath id="terminal-1551202207-line-6">
    <rect x="0" y="147.9" width="719.8" height="24.65"/>
            </clipPath>
<clipPath id="terminal-1551202207-line-7">
    <rect x="0" y="172.3" width="719.8" height="24.65"/>
            </clipPath>
<clipPath id="terminal-1551202207-line-8">
    <rect x="0" y="196.7" width="719.8" height="24.65"/>
            </clipPath>
<clipPath id="terminal-1551202207-line-9">
    <rect x="0" y="221.1" width="719.8" height="24.65"/>
            </clipPath>
<clipPath id="terminal-1551202207-line-10">
    <rect x="0" y="245.5" width="719.8" height="24.65"/>
            </clipPath>
<clipPath id="terminal-1551202207-line-11">
    <rect x="0" y="269.9" width="719.8" height="24.65"/>
            </clipPath>
<clipPath id="terminal-1551202207-line-12">
    <rect x="0" y="294.3" width="719.8" height="24.65"/>
            </clipPath>
<clipPath id="terminal-1551202207-line-13">
    <rect x="0" y="318.7" width="719.8" height="24.65"/>
            </clipPath>
<clipPath id="terminal-1551202207-line-14">
    <rect x="0" y="343.1" width="719.8" height="24.65"/>
            </clipPath>
<clipPath id="terminal-1551202207-line-15">
    <rect x="0" y="367.5" width="719.8" height="24.65"/>
            </clipPath>
<clipPath id="terminal-1551202207-line-16">
    <rect x="0" y="391.9" width="719.8" height="24.65"/>
            </clipPath>
<clipPath id="terminal-1551202207-line-17">
    <rect x="0" y="416.3" width="719.8" height="24.65"/>
            </clipPath>
<clipPath id="terminal-1551202207-line-18">
    <rect x="0" y="440.7" width="719.8" height="24.65"/>
            </clipPath>
<clipPath id="terminal-1551202207-line-19">
    <rect x="0" y="465.1" width="719.8" height="24.65"/>
            </clipPath>
<clipPath id="terminal-1551202207-line-20">
    <rect x="0" y="489.5" width="719.8" height="24.65"/>
            </clipPath>
<clipPath id="terminal-1551202207-line-21">
    <rect x="0" y="513.9" width="719.8" height="24.65"/>
            </clipPath>
<clipPath id="terminal-1551202207-line-22">
    <rect x="0" y="538.3" width="719.8" height="24.65"/>
            </clipPath>
<clipPath id="terminal-1551202207-line-23">
    <rect x="0" y="562.7" width="719.8" height="24.65"/>
            </clipPath>
<clipPath id="terminal-1551202207-line-24">
    <rect x="0" y="587.1" width="719.8" height="24.65"/>
            </clipPath>
<clipPath id="terminal-1551202207-line-25">
    <rect x="0" y="611.5" width="719.8" height="24.65"/>
            </clipPath>
<clipPath id="terminal-1551202207-line-26">
    <rect x="0" y="635.9" width="719.8" height="24.65"/>
            </clipPath>
<clipPath id="terminal-1551202207-line-27">
    <rect x="0" y="660.3" width="719.8" height="24.65"/>
            </clipPath>
<clipPath id="terminal-1551202207-line-28">
    <rect x="0" y="684.7" width="719.8" height="24.65"/>
            </clipPath>
<clipPath id="terminal-1551202207-line-29">
    <rect x="0" y="709.1" width="719.8" height="24.65"/>
            </clipPath>
<clipPath id="terminal-1551202207-line-30">
    <rect x="0" y="733.5" width="719.8" height="24.65"/>
            </clipPath>
<clipPath id="terminal-1551202207-line-31">
    <rect x="0" y="757.9" width="719.8" height="24.65"/>
            </clipPath>
<clipPath id="terminal-1551202207-line-32">
    <rect x="0" y="782.3" width="719.8" height="24.65"/>
            </clipPath>
<clipPath id="terminal-1551202207-line-33">
    <rect x="0" y="806.7" width="719.8" height="24.65"/>
            </clipPath>
    </defs>

    <rect fill="#292929" stroke="rgba(255,255,255,0.35)" stroke-width="1" x="1" y="1" width="736" height="902" rx="8"/>
            <g transform="translate(26,22)">
            <circle cx="0" cy="0" r="7" fill="#ff5f57"/>
            <circle cx="22" cy="0" r="7" fill="#febc2e"/>
            <circle cx="44" cy="0" r="7" fill="#28c840"/>
            </g>
        
    <g transform="translate(9, 41)" clip-path="url(#terminal-1551202207-clip-terminal)">
    <rect fill="#373737" x="0" y="1.5" width="719.8" height="24.65" shape-rendering="crispEdges"/><rect fill="#373737" x="0" y="25.9" width="12.2" height="24.65" shape-rendering="crispEdges"/><rect fill="#373737" x="12.2" y="25.9" width="158.6" height="24.65" shape-rendering="crispEdges"/><rect fill="#373737" x="170.8" y="25.9" width="378.2" height="24.65" shape-rendering="crispEdges"/><rect fill="#373737" x="549" y="25.9" width="158.6" height="24.65" shape-rendering="crispEdges"/><rect fill="#373737" x="707.6" y="25.9" width="12.2" height="24.65" shape-rendering="crispEdges"/><rect fill="#373737" x="0" y="50.3" width="719.8" height="24.65" shape-rendering="crispEdges"/><rect fill="#373737" x="0" y="74.7" width="109.8" height="24.65" shape-rendering="crispEdges"/><rect fill="#373737" x="109.8" y="74.7" width="585.6" height="24.65" shape-rendering="crispEdges"/><rect fill="#003054" x="695.4" y="74.7" width="24.4" height="24.65" shape-rendering="crispEdges"/><rect fill="#373737" x="0" y="99.1" width="12.2" height="24.65" shape-rendering="crispEdges"/><rect fill="#373737" x="12.2" y="99.1" width="12.2" height="24.65" shape-rendering="crispEdges"/><rect fill="#373737" x="24.4" y="99.1" width="24.4" height="24.65" shape-rendering="crispEdges"/><rect fill="#373737" x="48.8" y="99.1" width="292.8" height="24.65" shape-rendering="crispEdges"/><rect fill="#373737" x="341.6" y="99.1" width="353.8" height="24.65" shape-rendering="crispEdges"/><rect fill="#003054" x="695.4" y="99.1" width="24.4" height="24.65" shape-rendering="crispEdges"/><rect fill="#373737" x="0" y="123.5" width="109.8" height="24.65" shape-rendering="crispEdges"/><rect fill="#373737" x="109.8" y="123.5" width="585.6" height="24.65" shape-rendering="crispEdges"/><rect fill="#003054" x="695.4" y="123.5" width="24.4" height="24.65" shape-rendering="crispEdges"/><rect fill="#373737" x="0" y="147.9" width="12.2" height="24.65" shape-rendering="crispEdges"/><rect fill="#373737" x="12.2" y="147.9" width="12.2" height="24.65" shape-rendering="crispEdges"/><rect fill="#373737" x="24.4" y="147.9" width="24.4" height="24.65" shape-rendering="crispEdges"/><rect fill="#373737" x="48.8" y="147.9" width="390.4" height="24.65" shape-rendering="crispEdges"/><rect fill="#373737" x="439.2" y="147.9" width="256.2" height="24.65" shape-rendering="crispEdges"/><rect fill="#003054" x="695.4" y="147.9" width="24.4" height="24.65" shape-rendering="crispEdges"/><rect fill="#373737" x="0" y="172.3" width="12.2" height="24.65" shape-rendering="crispEdges"/><rect fill="#373737" x="12.2" y="172.3" width="12.2" height="24.65" shape-rendering="crispEdges"/><rect fill="#373737" x="24.4" y="172.3" width="24.4" height="24.65" shape-rendering="crispEdges"/><rect fill="#373737" x="48.8" y="172.3" width="439.2" height="24.65" shape-rendering="crispEdges"/><rect fill="#373737" x="488" y="172.3" width="207.4" height="24.65" shape-rendering="crispEdges"/><rect fill="#003054" x="695.4" y="172.3" width="24.4" height="24.65" shape-rendering="crispEdges"/><rect fill="#373737" x="0" y="196.7" width="12.2" height="24.65" shape-rendering="crispEdges"/><rect fill="#373737" x="12.2" y="196.7" width="12.2" height="24.65" shape-rendering="crispEdges"/><rect fill="#373737" x="24.4" y="196.7" width="24.4" height="24.65" shape-rendering="crispEdges"/><rect fill="#373737" x="48.8" y="196.7" width="512.4" height="24.65" shape-rendering="crispEdges"/><rect fill="#373737" x="561.2" y="196.7" width="134.2" height="24.65" shape-rendering="crispEdges"/><rect fill="#003054" x="695.4" y="196.7" width="24.4" height="24.65" shape-rendering="crispEdges"/><rect fill="#373737" x="0" y="221.1" width="12.2" height="24.65" shape-rendering="crispEdges"/><rect fill="#373737" x="12.2" y="221.1" width="12.2" height="24.65" shape-rendering="crispEdges"/><rect fill="#373737" x="24.4" y="221.1" width="24.4" height="24.65" shape-rendering="crispEdges"/><rect fill="#373737" x="48.8" y="221.1" width="353.8" height="24.65" shape-rendering="crispEdges"/><rect fill="#373737" x="402.6" y="221.1" width="292.8" height="24.65" shape-rendering="crispEdges"/><rect fill="#003054" x="695.4" y="221.1" width="24.4" height="24.65" shape-rendering="crispEdges"/><rect fill="#373737" x="0" y="245.5" width="122" height="24.65" shape-rendering="crispEdges"/><rect fill="#373737" x="122" y="245.5" width="573.4" height="24.65" shape-rendering="crispEdges"/><rect fill="#003054" x="695.4" y="245.5" width="24.4" height="24.65" shape-rendering="crispEdges"/><rect fill="#373737" x="0" y="269.9" width="12.2" height="24.65" shape-rendering="crispEdges"/><rect fill="#373737" x="12.2" y="269.9" width="12.2" height="24.65" shape-rendering="crispEdges"/><rect fill="#373737" x="24.4" y="269.9" width="24.4" height="24.65" shape-rendering="crispEdges"/><rect fill="#373737" x="48.8" y="269.9" width="317.2" height="24.65" shape-rendering="crispEdges"/><rect fill="#373737" x="366" y="269.9" width="329.4" height="24.65" shape-rendering="crispEdges"/><rect fill="#003054" x="695.4" y="269.9" width="24.4" height="24.65" shape-rendering="crispEdges"/><rect fill="#373737" x="0" y="294.3" width="36.6" height="24.65" shape-rendering="crispEdges"/><rect fill="#373737" x="36.6" y="294.3" width="658.8" height="24.65" shape-rendering="crispEdges"/><rect fill="#003054" x="695.4" y="294.3" width="24.4" height="24.65" shape-rendering="crispEdges"/><rect fill="#373737" x="0" y="318.7" width="122" height="24.65" shape-rendering="crispEdges"/><rect fill="#373737" x="122" y="318.7" width="573.4" height="24.65" shape-rendering="crispEdges"/><rect fill="#003054" x="695.4" y="318.7" width="24.4" height="24.65" shape-rendering="crispEdges"/><rect fill="#373737" x="0" y="343.1" width="12.2" height="24.65" shape-rendering="crispEdges"/><rect fill="#373737" x="12.2" y="343.1" width="12.2" height="24.65" shape-rendering="crispEdges"/><rect fill="#373737" x="24.4" y="343.1" width="24.4" height="24.65" shape-rendering="crispEdges"/><rect fill="#373737" x="48.8" y="343.1" width="24.4" height="24.65" shape-rendering="crispEdges"/><rect fill="#373737" x="73.2" y="343.1" width="317.2" height="24.65" shape-rendering="crispEdges"/><rect fill="#373737" x="390.4" y="343.1" width="305" height="24.65" shape-rendering="crispEdges"/><rect fill="#003054" x="695.4" y="343.1" width="24.4" height="24.65" shape-rendering="crispEdges"/><rect fill="#373737" x="0" y="367.5" width="12.2" height="24.65" shape-rendering="crispEdges"/><rect fill="#373737" x="12.2" y="367.5" width="12.2" height="24.65" shape-rendering="crispEdges"/><rect fill="#373737" x="24.4" y="367.5" width="24.4" height="24.65" shape-rendering="crispEdges"/><rect fill="#373737" x="48.8" y="367.5" width="24.4" height="24.65" shape-rendering="crispEdges"/><rect fill="#373737" x="73.2" y="367.5" width="378.2" height="24.65" shape-rendering="crispEdges"/><rect fill="#373737" x="451.4" y="367.5" width="244" height="24.65" shape-rendering="crispEdges"/><rect fill="#003054" x="695.4" y="367.5" width="24.4" height="24.65" shape-rendering="crispEdges"/><rect fill="#373737" x="0" y="391.9" width="12.2" height="24.65" shape-rendering="crispEdges"/><rect fill="#373737" x="12.2" y="391.9" width="12.2" height="24.65" shape-rendering="crispEdges"/><rect fill="#373737" x="24.4" y="391.9" width="24.4" height="24.65" shape-rendering="crispEdges"/><rect fill="#373737" x="48.8" y="391.9" width="24.4" height="24.65" shape-rendering="crispEdges"/><rect fill="#373737" x="73.2" y="391.9" width="244" height="24.65" shape-rendering="crispEdges"/><rect fill="#373737" x="317.2" y="391.9" width="378.2" height="24.65" shape-rendering="crispEdges"/><rect fill="#003054" x="695.4" y="391.9" width="24.4" height="24.65" shape-rendering="crispEdges"/><rect fill="#373737" x="0" y="416.3" width="12.2" height="24.65" shape-rendering="crispEdges"/><rect fill="#373737" x="12.2" y="416.3" width="12.2" height="24.65" shape-rendering="crispEdges"/><rect fill="#373737" x="24.4" y="416.3" width="24.4" height="24.65" shape-rendering="crispEdges"/><rect fill="#373737" x="48.8" y="416.3" width="24.4" height="24.65" shape-rendering="crispEdges"/><rect fill="#373737" x="73.2" y="416.3" width="378.2" height="24.65" shape-rendering="crispEdges"/><rect fill="#373737" x="451.4" y="416.3" width="244" height="24.65" shape-rendering="crispEdges"/><rect fill="#003054" x="695.4" y="416.3" width="24.4" height="24.65" shape-rendering="crispEdges"/><rect fill="#373737" x="0" y="440.7" width="12.2" height="24.65" shape-rendering="crispEdges"/><rect fill="#373737" x="12.2" y="440.7" width="12.2" height="24.65" shape-rendering="crispEdges"/><rect fill="#373737" x="24.4" y="440.7" width="24.4" height="24.65" shape-rendering="crispEdges"/><rect fill="#373737" x="48.8" y="440.7" width="24.4" height="24.65" shape-rendering="crispEdges"/><rect fill="#373737" x="73.2" y="440.7" width="256.2" height="24.65" shape-rendering="crispEdges"/><rect fill="#373737" x="329.4" y="440.7" width="366" height="24.65" shape-rendering="crispEdges"/><rect fill="#003054" x="695.4" y="440.7" width="24.4" height="24.65" shape-rendering="crispEdges"/><rect fill="#373737" x="0" y="465.1" width="12.2" height="24.65" shape-rendering="crispEdges"/><rect fill="#373737" x="12.2" y="465.1" width="12.2" height="24.65" shape-rendering="crispEdges"/><rect fill="#373737" x="24.4" y="465.1" width="24.4" height="24.65" shape-rendering="crispEdges"/><rect fill="#373737" x="48.8" y="465.1" width="24.4" height="24.65" shape-rendering="crispEdges"/><rect fill="#373737" x="73.2" y="465.1" width="292.8" height="24.65" shape-rendering="crispEdges"/><rect fill="#373737" x="366" y="465.1" width="329.4" height="24.65" shape-rendering="crispEdges"/><rect fill="#003054" x="695.4" y="465.1" width="24.4" height="24.65" shape-rendering="crispEdges"/><rect fill="#373737" x="0" y="489.5" width="12.2" height="24.65" shape-rendering="crispEdges"/><rect fill="#373737" x="12.2" y="489.5" width="12.2" height="24.65" shape-rendering="crispEdges"/><rect fill="#373737" x="24.4" y="489.5" width="24.4" height="24.65" shape-rendering="crispEdges"/><rect fill="#373737" x="48.8" y="489.5" width="24.4" height="24.65" shape-rendering="crispEdges"/><rect fill="#373737" x="73.2" y="489.5" width="280.6" height="24.65" shape-rendering="crispEdges"/><rect fill="#373737" x="353.8" y="489.5" width="341.6" height="24.65" shape-rendering="crispEdges"/><rect fill="#003054" x="695.4" y="489.5" width="24.4" height="24.65" shape-rendering="crispEdges"/><rect fill="#373737" x="0" y="513.9" width="12.2" height="24.65" shape-rendering="crispEdges"/><rect fill="#373737" x="12.2" y="513.9" width="12.2" height="24.65" shape-rendering="crispEdges"/><rect fill="#373737" x="24.4" y="513.9" width="24.4" height="24.65" shape-rendering="crispEdges"/><rect fill="#373737" x="48.8" y="513.9" width="24.4" height="24.65" shape-rendering="crispEdges"/><rect fill="#373737" x="73.2" y="513.9" width="341.6" height="24.65" shape-rendering="crispEdges"/><rect fill="#373737" x="414.8" y="513.9" width="280.6" height="24.65" shape-rendering="crispEdges"/><rect fill="#003054" x="695.4" y="513.9" width="24.4" height="24.65" shape-rendering="crispEdges"/><rect fill="#373737" x="0" y="538.3" width="12.2" height="24.65" shape-rendering="crispEdges"/><rect fill="#373737" x="12.2" y="538.3" width="12.2" height="24.65" shape-rendering="crispEdges"/><rect fill="#373737" x="24.4" y="538.3" width="24.4" height="24.65" shape-rendering="crispEdges"/><rect fill="#373737" x="48.8" y="538.3" width="24.4" height="24.65" shape-rendering="crispEdges"/><rect fill="#373737" x="73.2" y="538.3" width="341.6" height="24.65" shape-rendering="crispEdges"/><rect fill="#373737" x="414.8" y="538.3" width="280.6" height="24.65" shape-rendering="crispEdges"/><rect fill="#003054" x="695.4" y="538.3" width="24.4" height="24.65" shape-rendering="crispEdges"/><rect fill="#373737" x="0" y="562.7" width="12.2" height="24.65" shape-rendering="crispEdges"/><rect fill="#373737" x="12.2" y="562.7" width="12.2" height="24.65" shape-rendering="crispEdges"/><rect fill="#373737" x="24.4" y="562.7" width="24.4" height="24.65" shape-rendering="crispEdges"/><rect fill="#373737" x="48.8" y="562.7" width="24.4" height="24.65" shape-rendering="crispEdges"/><rect fill="#373737" x="73.2" y="562.7" width="256.2" height="24.65" shape-rendering="crispEdges"/><rect fill="#373737" x="329.4" y="562.7" width="366" height="24.65" shape-rendering="crispEdges"/><rect fill="#003054" x="695.4" y="562.7" width="24.4" height="24.65" shape-rendering="crispEdges"/><rect fill="#373737" x="0" y="587.1" width="12.2" height="24.65" shape-rendering="crispEdges"/><rect fill="#373737" x="12.2" y="587.1" width="12.2" height="24.65" shape-rendering="crispEdges"/><rect fill="#373737" x="24.4" y="587.1" width="24.4" height="24.65" shape-rendering="crispEdges"/><rect fill="#373737" x="48.8" y="587.1" width="24.4" height="24.65" shape-rendering="crispEdges"/><rect fill="#373737" x="73.2" y="587.1" width="317.2" height="24.65" shape-rendering="crispEdges"/><rect fill="#373737" x="390.4" y="587.1" width="305" height="24.65" shape-rendering="crispEdges"/><rect fill="#003054" x="695.4" y="587.1" width="24.4" height="24.65" shape-rendering="crispEdges"/><rect fill="#373737" x="0" y="611.5" width="12.2" height="24.65" shape-rendering="crispEdges"/><rect fill="#373737" x="12.2" y="611.5" width="12.2" height="24.65" shape-rendering="crispEdges"/><rect fill="#373737" x="24.4" y="611.5" width="24.4" height="24.65" shape-rendering="crispEdges"/><rect fill="#373737" x="48.8" y="611.5" width="24.4" height="24.65" shape-rendering="crispEdges"/><rect fill="#373737" x="73.2" y="611.5" width="439.2" height="24.65" shape-rendering="crispEdges"/><rect fill="#373737" x="512.4" y="611.5" width="183" height="24.65" shape-rendering="crispEdges"/><rect fill="#003054" x="695.4" y="611.5" width="24.4" height="24.65" shape-rendering="crispEdges"/><rect fill="#373737" x="0" y="635.9" width="12.2" height="24.65" shape-rendering="crispEdges"/><rect fill="#373737" x="12.2" y="635.9" width="12.2" height="24.65" shape-rendering="crispEdges"/><rect fill="#373737" x="24.4" y="635.9" width="24.4" height="24.65" shape-rendering="crispEdges"/><rect fill="#373737" x="48.8" y="635.9" width="24.4" height="24.65" shape-rendering="crispEdges"/><rect fill="#373737" x="73.2" y="635.9" width="183" height="24.65" shape-rendering="crispEdges"/><rect fill="#373737" x="256.2" y="635.9" width="439.2" height="24.65" shape-rendering="crispEdges"/><rect fill="#003054" x="695.4" y="635.9" width="24.4" height="24.65" shape-rendering="crispEdges"/><rect fill="#373737" x="0" y="660.3" width="12.2" height="24.65" shape-rendering="crispEdges"/><rect fill="#373737" x="12.2" y="660.3" width="12.2" height="24.65" shape-rendering="crispEdges"/><rect fill="#373737" x="24.4" y="660.3" width="24.4" height="24.65" shape-rendering="crispEdges"/><rect fill="#373737" x="48.8" y="660.3" width="24.4" height="24.65" shape-rendering="crispEdges"/><rect fill="#373737" x="73.2" y="660.3" width="219.6" height="24.65" shape-rendering="crispEdges"/><rect fill="#373737" x="292.8" y="660.3" width="402.6" height="24.65" shape-rendering="crispEdges"/><rect fill="#003054" x="695.4" y="660.3" width="24.4" height="24.65" shape-rendering="crispEdges"/><rect fill="#373737" x="0" y="684.7" width="12.2" height="24.65" shape-rendering="crispEdges"/><rect fill="#373737" x="12.2" y="684.7" width="12.2" height="24.65" shape-rendering="crispEdges"/><rect fill="#373737" x="24.4" y="684.7" width="24.4" height="24.65" shape-rendering="crispEdges"/><rect fill="#373737" x="48.8" y="684.7" width="24.4" height="24.65" shape-rendering="crispEdges"/><rect fill="#373737" x="73.2" y="684.7" width="402.6" height="24.65" shape-rendering="crispEdges"/><rect fill="#373737" x="475.8" y="684.7" width="219.6" height="24.65" shape-rendering="crispEdges"/><rect fill="#003054" x="695.4" y="684.7" width="24.4" height="24.65" shape-rendering="crispEdges"/><rect fill="#373737" x="0" y="709.1" width="12.2" height="24.65" shape-rendering="crispEdges"/><rect fill="#373737" x="12.2" y="709.1" width="12.2" height="24.65" shape-rendering="crispEdges"/><rect fill="#373737" x="24.4" y="709.1" width="24.4" height="24.65" shape-rendering="crispEdges"/><rect fill="#373737" x="48.8" y="709.1" width="24.4" height="24.65" shape-rendering="crispEdges"/><rect fill="#373737" x="73.2" y="709.1" width="427" height="24.65" shape-rendering="crispEdges"/><rect fill="#373737" x="500.2" y="709.1" width="195.2" height="24.65" shape-rendering="crispEdges"/><rect fill="#003054" x="695.4" y="709.1" width="24.4" height="24.65" shape-rendering="crispEdges"/><rect fill="#373737" x="0" y="733.5" width="12.2" height="24.65" shape-rendering="crispEdges"/><rect fill="#373737" x="12.2" y="733.5" width="12.2" height="24.65" shape-rendering="crispEdges"/><rect fill="#373737" x="24.4" y="733.5" width="24.4" height="24.65" shape-rendering="crispEdges"/><rect fill="#373737" x="48.8" y="733.5" width="24.4" height="24.65" shape-rendering="crispEdges"/><rect fill="#373737" x="73.2" y="733.5" width="231.8" height="24.65" shape-rendering="crispEdges"/><rect fill="#373737" x="305" y="733.5" width="390.4" height="24.65" shape-rendering="crispEdges"/><rect fill="#003054" x="695.4" y="733.5" width="24.4" height="24.65" shape-rendering="crispEdges"/><rect fill="#373737" x="0" y="757.9" width="12.2" height="24.65" shape-rendering="crispEdges"/><rect fill="#373737" x="12.2" y="757.9" width="12.2" height="24.65" shape-rendering="crispEdges"/><rect fill="#373737" x="24.4" y="757.9" width="24.4" height="24.65" shape-rendering="crispEdges"/><rect fill="#373737" x="48.8" y="757.9" width="24.4" height="24.65" shape-rendering="crispEdges"/><rect fill="#373737" x="73.2" y="757.9" width="256.2" height="24.65" shape-rendering="crispEdges"/><rect fill="#373737" x="329.4" y="757.9" width="366" height="24.65" shape-rendering="crispEdges"/><rect fill="#000000" x="695.4" y="757.9" width="24.4" height="24.65" shape-rendering="crispEdges"/><rect fill="#373737" x="0" y="782.3" width="719.8" height="24.65" shape-rendering="crispEdges"/><rect fill="#373737" x="0" y="806.7" width="12.2" height="24.65" shape-rendering="crispEdges"/><rect fill="#373737" x="12.2" y="806.7" width="12.2" height="24.65" shape-rendering="crispEdges"/><rect fill="#373737" x="24.4" y="806.7" width="85.4" height="24.65" shape-rendering="crispEdges"/><rect fill="#373737" x="109.8" y="806.7" width="12.2" height="24.65" shape-rendering="crispEdges"/><rect fill="#373737" x="122" y="806.7" width="85.4" height="24.65" shape-rendering="crispEdges"/><rect fill="#373737" x="207.4" y="806.7" width="500.2" height="24.65" shape-rendering="crispEdges"/><rect fill="#373737" x="707.6" y="806.7" width="12.2" height="24.65" shape-rendering="crispEdges"/><rect fill="#373737" x="0" y="831.1" width="719.8" height="24.65" shape-rendering="crispEdges"/>
    <g class="terminal-1551202207-matrix">
    <text class="terminal-1551202207-r1" x="719.8" y="20" textLength="12.2" clip-path="url(#terminal-1551202207-line-0)">
</text><text class="terminal-1551202207-r2" x="170.8" y="44.4" textLength="378.2" clip-path="url(#terminal-1551202207-line-1)">Agenda&#160;-&#160;Events&#160;and&#160;Tasks&#160;(1/3)</text><text class="terminal-1551202207-r1" x="719.8" y="44.4" textLength="12.2" clip-path="url(#terminal-1551202207-line-1)">
</text><text class="terminal-1551202207-r3" x="0" y="68.8" textLength="719.8" clip-path="url(#terminal-1551202207-line-2)">───────────────────────────────────────────────────────────</text><text class="terminal-1551202207-r1" x="719.8" y="68.8" textLength="12.2" clip-path="url(#terminal-1551202207-line-2)">
</text><text class="terminal-1551202207-r4" x="0" y="93.2" textLength="109.8" clip-path="url(#terminal-1551202207-line-3)">Fri&#160;Nov&#160;7</text><text class="terminal-1551202207-r1" x="719.8" y="93.2" textLength="12.2" clip-path="url(#terminal-1551202207-line-3)">
</text><text class="terminal-1551202207-r6" x="12.2" y="117.6" textLength="12.2" clip-path="url(#terminal-1551202207-line-4)">a</text><text class="terminal-1551202207-r7" x="48.8" y="117.6" textLength="292.8" clip-path="url(#terminal-1551202207-line-4)">19-20:45&#160;Sed&#160;est&#160;dolorem</text><text class="terminal-1551202207-r1" x="719.8" y="117.6" textLength="12.2" clip-path="url(#terminal-1551202207-line-4)">
</text><text class="terminal-1551202207-r4" x="0" y="142" textLength="109.8" clip-path="url(#terminal-1551202207-line-5)">Sat&#160;Nov&#160;8</text><text class="terminal-1551202207-r1" x="719.8" y="142" textLength="12.2" clip-path="url(#terminal-1551202207-line-5)">
</text><text class="terminal-1551202207-r6" x="12.2" y="166.4" textLength="12.2" clip-path="url(#terminal-1551202207-line-6)">b</text><text class="terminal-1551202207-r7" x="48.8" y="166.4" textLength="390.4" clip-path="url(#terminal-1551202207-line-6)">8-8:45&#160;Non&#160;dolor&#160;non&#160;numquam&#160;sed</text><text class="terminal-1551202207-r1" x="719.8" y="166.4" textLength="12.2" clip-path="url(#terminal-1551202207-line-6)">
</text><text class="terminal-1551202207-r6" x="12.2" y="190.8" textLength="12.2" clip-path="url(#terminal-1551202207-line-7)">c</text><text class="terminal-1551202207-r7" x="48.8" y="190.8" textLength="439.2" clip-path="url(#terminal-1551202207-line-7)">13:30-15:00&#160;Numquam&#160;velit&#160;labore&#160;sit</text><text class="terminal-1551202207-r1" x="719.8" y="190.8" textLength="12.2" clip-path="url(#terminal-1551202207-line-7)">
</text><text class="terminal-1551202207-r6" x="12.2" y="215.2" textLength="12.2" clip-path="url(#terminal-1551202207-line-8)">d</text><text class="terminal-1551202207-r7" x="48.8" y="215.2" textLength="512.4" clip-path="url(#terminal-1551202207-line-8)">13:30-13:45&#160;Consectetur&#160;non&#160;dolore&#160;numquam</text><text class="terminal-1551202207-r1" x="719.8" y="215.2" textLength="12.2" clip-path="url(#terminal-1551202207-line-8)">
</text><text class="terminal-1551202207-r6" x="12.2" y="239.6" textLength="12.2" clip-path="url(#terminal-1551202207-line-9)">e</text><text class="terminal-1551202207-r7" x="48.8" y="239.6" textLength="353.8" clip-path="url(#terminal-1551202207-line-9)">19:00&#160;Est&#160;porro&#160;quiquia&#160;ut&#160;ut</text><text class="terminal-1551202207-r1" x="719.8" y="239.6" textLength="12.2" clip-path="url(#terminal-1551202207-line-9)">
</text><text class="terminal-1551202207-r4" x="0" y="264" textLength="122" clip-path="url(#terminal-1551202207-line-10)">Mon&#160;Nov&#160;10</text><text class="terminal-1551202207-r1" x="719.8" y="264" textLength="12.2" clip-path="url(#terminal-1551202207-line-10)">
</text><text class="terminal-1551202207-r6" x="12.2" y="288.4" textLength="12.2" clip-path="url(#terminal-1551202207-line-11)">f</text><text class="terminal-1551202207-r7" x="48.8" y="288.4" textLength="317.2" clip-path="url(#terminal-1551202207-line-11)">Consectetur&#160;amet&#160;ipsum&#160;est</text><text class="terminal-1551202207-r1" x="719.8" y="288.4" textLength="12.2" clip-path="url(#terminal-1551202207-line-11)">
</text><text class="terminal-1551202207-r1" x="719.8" y="312.8" textLength="12.2" clip-path="url(#terminal-1551202207-line-12)">
</text><text class="terminal-1551202207-r1" x="0" y="337.2" textLength="122" clip-path="url(#terminal-1551202207-line-13)">Tasks&#160;(59)</text><text class="terminal-1551202207-r1" x="719.8" y="337.2" textLength="12.2" clip-path="url(#terminal-1551202207-line-13)">
</text><text class="terminal-1551202207-r6" x="12.2" y="361.6" textLength="12.2" clip-path="url(#terminal-1551202207-line-14)">g</text><text class="terminal-1551202207-r8" x="48.8" y="361.6" textLength="24.4" clip-path="url(#terminal-1551202207-line-14)">87</text><text class="terminal-1551202207-r9" x="73.2" y="361.6" textLength="317.2" clip-path="url(#terminal-1551202207-line-14)">&#160;Dolor&#160;quiquia&#160;neque&#160;porro</text><text class="terminal-1551202207-r1" x="719.8" y="361.6" textLength="12.2" clip-path="url(#terminal-1551202207-line-14)">
</text><text class="terminal-1551202207-r6" x="12.2" y="386" textLength="12.2" clip-path="url(#terminal-1551202207-line-15)">h</text><text class="terminal-1551202207-r8" x="48.8" y="386" textLength="24.4" clip-path="url(#terminal-1551202207-line-15)">87</text><text class="terminal-1551202207-r9" x="73.2" y="386" textLength="378.2" clip-path="url(#terminal-1551202207-line-15)">&#160;Sit&#160;voluptatem&#160;sit&#160;dolor&#160;velit</text><text class="terminal-1551202207-r1" x="719.8" y="386" textLength="12.2" clip-path="url(#terminal-1551202207-line-15)">
</text><text class="terminal-1551202207-r6" x="12.2" y="410.4" textLength="12.2" clip-path="url(#terminal-1551202207-line-16)">i</text><text class="terminal-1551202207-r8" x="48.8" y="410.4" textLength="24.4" clip-path="url(#terminal-1551202207-line-16)">87</text><text class="terminal-1551202207-r9" x="73.2" y="410.4" textLength="244" clip-path="url(#terminal-1551202207-line-16)">&#160;Ipsum&#160;aliquam&#160;neque</text><text class="terminal-1551202207-r1" x="719.8" y="410.4" textLength="12.2" clip-path="url(#terminal-1551202207-line-16)">
</text><text class="terminal-1551202207-r6" x="12.2" y="434.8" textLength="12.2" clip-path="url(#terminal-1551202207-line-17)">j</text><text class="terminal-1551202207-r8" x="48.8" y="434.8" textLength="24.4" clip-path="url(#terminal-1551202207-line-17)">87</text><text class="terminal-1551202207-r9" x="73.2" y="434.8" textLength="378.2" clip-path="url(#terminal-1551202207-line-17)">&#160;Modi&#160;numquam&#160;sit&#160;adipisci&#160;amet</text><text class="terminal-1551202207-r1" x="719.8" y="434.8" textLength="12.2" clip-path="url(#terminal-1551202207-line-17)">
</text><text class="terminal-1551202207-r6" x="12.2" y="459.2" textLength="12.2" clip-path="url(#terminal-1551202207-line-18)">k</text><text class="terminal-1551202207-r8" x="48.8" y="459.2" textLength="24.4" clip-path="url(#terminal-1551202207-line-18)">87</text><text class="terminal-1551202207-r9" x="73.2" y="459.2" textLength="256.2" clip-path="url(#terminal-1551202207-line-18)">&#160;Quaerat&#160;dolor&#160;magnam</text><text class="terminal-1551202207-r1" x="719.8" y="459.2" textLength="12.2" clip-path="url(#terminal-1551202207-line-18)">
</text><text class="terminal-1551202207-r6" x="12.2" y="483.6" textLength="12.2" clip-path="url(#terminal-1551202207-line-19)">l</text><text class="terminal-1551202207-r8" x="48.8" y="483.6" textLength="24.4" clip-path="url(#terminal-1551202207-line-19)">87</text><text class="terminal-1551202207-r9" x="73.2" y="483.6" textLength="292.8" clip-path="url(#terminal-1551202207-line-19)">&#160;Quisquam&#160;non&#160;voluptatem</text><text class="terminal-1551202207-r1" x="719.8" y="483.6" textLength="12.2" clip-path="url(#terminal-1551202207-line-19)">
</text><text class="terminal-1551202207-r6" x="12.2" y="508" textLength="12.2" clip-path="url(#terminal-1551202207-line-20)">m</text><text class="terminal-1551202207-r8" x="48.8" y="508" textLength="24.4" clip-path="url(#terminal-1551202207-line-20)">87</text><text class="terminal-1551202207-r9" x="73.2" y="508" textLength="280.6" clip-path="url(#terminal-1551202207-line-20)">&#160;Est&#160;dolorem&#160;labore&#160;non</text><text class="terminal-1551202207-r1" x="719.8" y="508" textLength="12.2" clip-path="url(#terminal-1551202207-line-20)">
</text><text class="terminal-1551202207-r6" x="12.2" y="532.4" textLength="12.2" clip-path="url(#terminal-1551202207-line-21)">n</text><text class="terminal-1551202207-r8" x="48.8" y="532.4" textLength="24.4" clip-path="url(#terminal-1551202207-line-21)">87</text><text class="terminal-1551202207-r9" x="73.2" y="532.4" textLength="341.6" clip-path="url(#terminal-1551202207-line-21)">&#160;Quisquam&#160;porro&#160;labore&#160;dolor</text><text class="terminal-1551202207-r1" x="719.8" y="532.4" textLength="12.2" clip-path="url(#terminal-1551202207-line-21)">
</text><text class="terminal-1551202207-r6" x="12.2" y="556.8" textLength="12.2" clip-path="url(#terminal-1551202207-line-22)">o</text><text class="terminal-1551202207-r8" x="48.8" y="556.8" textLength="24.4" clip-path="url(#terminal-1551202207-line-22)">87</text><text class="terminal-1551202207-r9" x="73.2" y="556.8" textLength="341.6" clip-path="url(#terminal-1551202207-line-22)">&#160;Quisquam&#160;adipisci&#160;dolor&#160;non</text><text class="terminal-1551202207-r1" x="719.8" y="556.8" textLength="12.2" clip-path="url(#terminal-1551202207-line-22)">
</text><text class="terminal-1551202207-r6" x="12.2" y="581.2" textLength="12.2" clip-path="url(#terminal-1551202207-line-23)">p</text><text class="terminal-1551202207-r8" x="48.8" y="581.2" textLength="24.4" clip-path="url(#terminal-1551202207-line-23)">87</text><text class="terminal-1551202207-r9" x="73.2" y="581.2" textLength="256.2" clip-path="url(#terminal-1551202207-line-23)">&#160;Modi&#160;porro&#160;ut&#160;labore</text><text class="terminal-1551202207-r1" x="719.8" y="581.2" textLength="12.2" clip-path="url(#terminal-1551202207-line-23)">
</text><text class="terminal-1551202207-r6" x="12.2" y="605.6" textLength="12.2" clip-path="url(#terminal-1551202207-line-24)">q</text><text class="terminal-1551202207-r8" x="48.8" y="605.6" textLength="24.4" clip-path="url(#terminal-1551202207-line-24)">87</text><text class="terminal-1551202207-r9" x="73.2" y="605.6" textLength="317.2" clip-path="url(#terminal-1551202207-line-24)">&#160;Labore&#160;ipsum&#160;velit&#160;labore</text><text class="terminal-1551202207-r1" x="719.8" y="605.6" textLength="12.2" clip-path="url(#terminal-1551202207-line-24)">
</text><text class="terminal-1551202207-r6" x="12.2" y="630" textLength="12.2" clip-path="url(#terminal-1551202207-line-25)">r</text><text class="terminal-1551202207-r8" x="48.8" y="630" textLength="24.4" clip-path="url(#terminal-1551202207-line-25)">87</text><text class="terminal-1551202207-r9" x="73.2" y="630" textLength="439.2" clip-path="url(#terminal-1551202207-line-25)">&#160;Voluptatem&#160;voluptatem&#160;numquam&#160;neque</text><text class="terminal-1551202207-r1" x="719.8" y="630" textLength="12.2" clip-path="url(#terminal-1551202207-line-25)">
</text><text class="terminal-1551202207-r6" x="12.2" y="654.4" textLength="12.2" clip-path="url(#terminal-1551202207-line-26)">s</text><text class="terminal-1551202207-r8" x="48.8" y="654.4" textLength="24.4" clip-path="url(#terminal-1551202207-line-26)">87</text><text class="terminal-1551202207-r9" x="73.2" y="654.4" textLength="183" clip-path="url(#terminal-1551202207-line-26)">&#160;Modi&#160;ipsum&#160;est</text><text class="terminal-1551202207-r1" x="719.8" y="654.4" textLength="12.2" clip-path="url(#terminal-1551202207-line-26)">
</text><text class="terminal-1551202207-r6" x="12.2" y="678.8" textLength="12.2" clip-path="url(#terminal-1551202207-line-27)">t</text><text class="terminal-1551202207-r8" x="48.8" y="678.8" textLength="24.4" clip-path="url(#terminal-1551202207-line-27)">87</text><text class="terminal-1551202207-r9" x="73.2" y="678.8" textLength="219.6" clip-path="url(#terminal-1551202207-line-27)">&#160;Ut&#160;dolore&#160;quaerat</text><text class="terminal-1551202207-r1" x="719.8" y="678.8" textLength="12.2" clip-path="url(#terminal-1551202207-line-27)">
</text><text class="terminal-1551202207-r6" x="12.2" y="703.2" textLength="12.2" clip-path="url(#terminal-1551202207-line-28)">u</text><text class="terminal-1551202207-r8" x="48.8" y="703.2" textLength="24.4" clip-path="url(#terminal-1551202207-line-28)">87</text><text class="terminal-1551202207-r9" x="73.2" y="703.2" textLength="402.6" clip-path="url(#terminal-1551202207-line-28)">&#160;Eius&#160;quisquam&#160;aliquam&#160;eius&#160;velit</text><text class="terminal-1551202207-r1" x="719.8" y="703.2" textLength="12.2" clip-path="url(#terminal-1551202207-line-28)">
</text><text class="terminal-1551202207-r6" x="12.2" y="727.6" textLength="12.2" clip-path="url(#terminal-1551202207-line-29)">v</text><text class="terminal-1551202207-r8" x="48.8" y="727.6" textLength="24.4" clip-path="url(#terminal-1551202207-line-29)">87</text><text class="terminal-1551202207-r9" x="73.2" y="727.6" textLength="427" clip-path="url(#terminal-1551202207-line-29)">&#160;Dolorem&#160;quisquam&#160;sed&#160;eius&#160;quisquam</text><text class="terminal-1551202207-r1" x="719.8" y="727.6" textLength="12.2" clip-path="url(#terminal-1551202207-line-29)">
</text><text class="terminal-1551202207-r6" x="12.2" y="752" textLength="12.2" clip-path="url(#terminal-1551202207-line-30)">w</text><text class="terminal-1551202207-r8" x="48.8" y="752" textLength="24.4" clip-path="url(#terminal-1551202207-line-30)">87</text><text class="terminal-1551202207-r9" x="73.2" y="752" textLength="231.8" clip-path="url(#terminal-1551202207-line-30)">&#160;Sed&#160;velit&#160;amet&#160;est</text><text class="terminal-1551202207-r10" x="695.4" y="752" textLength="24.4" clip-path="url(#terminal-1551202207-line-30)">▆▆</text><text class="terminal-1551202207-r1" x="719.8" y="752" textLength="12.2" clip-path="url(#terminal-1551202207-line-30)">
</text><text class="terminal-1551202207-r6" x="12.2" y="776.4" textLength="12.2" clip-path="url(#terminal-1551202207-line-31)">x</text><text class="terminal-1551202207-r8" x="48.8" y="776.4" textLength="24.4" clip-path="url(#terminal-1551202207-line-31)">87</text><text class="terminal-1551202207-r9" x="73.2" y="776.4" textLength="256.2" clip-path="url(#terminal-1551202207-line-31)">&#160;Numquam&#160;quaerat&#160;modi</text><text class="terminal-1551202207-r1" x="719.8" y="776.4" textLength="12.2" clip-path="url(#terminal-1551202207-line-31)">
</text><text class="terminal-1551202207-r3" x="0" y="800.8" textLength="719.8" clip-path="url(#terminal-1551202207-line-32)">───────────────────────────────────────────────────────────</text><text class="terminal-1551202207-r1" x="719.8" y="800.8" textLength="12.2" clip-path="url(#terminal-1551202207-line-32)">
</text><text class="terminal-1551202207-r12" x="12.2" y="825.2" textLength="12.2" clip-path="url(#terminal-1551202207-line-33)">?</text><text class="terminal-1551202207-r2" x="24.4" y="825.2" textLength="85.4" clip-path="url(#terminal-1551202207-line-33)">&#160;Help&#160;&#160;</text><text class="terminal-1551202207-r12" x="109.8" y="825.2" textLength="12.2" clip-path="url(#terminal-1551202207-line-33)">/</text><text class="terminal-1551202207-r2" x="122" y="825.2" textLength="85.4" clip-path="url(#terminal-1551202207-line-33)">&#160;Search</text><text class="terminal-1551202207-r1" x="719.8" y="825.2" textLength="12.2" clip-path="url(#terminal-1551202207-line-33)">
</text>
    </g>
    </g>
</svg>
