<svg class="rich-terminal" viewBox="0 0 775 977.1999999999999" xmlns="http://www.w3.org/2000/svg">
    <!-- Generated with Rich https://www.textualize.io -->
    <style>

    @font-face {
        font-family: "Fira Code";
        src: local("FiraCode-Regular"),
                url("https://cdnjs.cloudflare.com/ajax/libs/firacode/6.2.0/woff2/FiraCode-Regular.woff2") format("woff2"),
                url("https://cdnjs.cloudflare.com/ajax/libs/firacode/6.2.0/woff/FiraCode-Regular.woff") format("woff");
        font-style: normal;
        font-weight: 400;
    }
    @font-face {
        font-family: "Fira Code";
        src: local("FiraCode-Bold"),
                url("https://cdnjs.cloudflare.com/ajax/libs/firacode/6.2.0/woff2/FiraCode-Bold.woff2") format("woff2"),
                url("https://cdnjs.cloudflare.com/ajax/libs/firacode/6.2.0/woff/FiraCode-Bold.woff") format("woff");
        font-style: bold;
        font-weight: 700;
    }

    .terminal-3820972252-matrix {
        font-family: Fira Code, monospace;
        font-size: 20px;
        line-height: 24.4px;
        font-variant-east-asian: full-width;
    }

    .terminal-3820972252-title {
        font-size: 18px;
        font-weight: bold;
        font-family: arial;
    }

    .terminal-3820972252-r1 { fill: #c5c8c6 }
.terminal-3820972252-r2 { fill: #ffffff;font-weight: bold }
.terminal-3820972252-r3 { fill: #ffff00;font-weight: bold }
.terminal-3820972252-r4 { fill: #7f7f7f }
.terminal-3820972252-r5 { fill: #8c8e8c }
.terminal-3820972252-r6 { fill: #32cd32 }
.terminal-3820972252-r7 { fill: #ff4500 }
.terminal-3820972252-r8 { fill: #c5c8c6;font-weight: bold }
.terminal-3820972252-r9 { fill: #daa520;font-weight: bold }
.terminal-3820972252-r10 { fill: #daa520 }
.terminal-3820972252-r11 { fill: #87cefa }
    </style>

    <defs>
    <clipPath id="terminal-3820972252-clip-terminal">
      <rect x="0" y="0" width="755.4" height="926.1999999999999" />
    </clipPath>
    <clipPath id="terminal-3820972252-line-0">
    <rect x="0" y="1.5" width="756.4" height="24.65"/>
            </clipPath>
<clipPath id="terminal-3820972252-line-1">
    <rect x="0" y="25.9" width="756.4" height="24.65"/>
            </clipPath>
<clipPath id="terminal-3820972252-line-2">
    <rect x="0" y="50.3" width="756.4" height="24.65"/>
            </clipPath>
<clipPath id="terminal-3820972252-line-3">
    <rect x="0" y="74.7" width="756.4" height="24.65"/>
            </clipPath>
<clipPath id="terminal-3820972252-line-4">
    <rect x="0" y="99.1" width="756.4" height="24.65"/>
            </clipPath>
<clipPath id="terminal-3820972252-line-5">
    <rect x="0" y="123.5" width="756.4" height="24.65"/>
            </clipPath>
<clipPath id="terminal-3820972252-line-6">
    <rect x="0" y="147.9" width="756.4" height="24.65"/>
            </clipPath>
<clipPath id="terminal-3820972252-line-7">
    <rect x="0" y="172.3" width="756.4" height="24.65"/>
            </clipPath>
<clipPath id="terminal-3820972252-line-8">
    <rect x="0" y="196.7" width="756.4" height="24.65"/>
            </clipPath>
<clipPath id="terminal-3820972252-line-9">
    <rect x="0" y="221.1" width="756.4" height="24.65"/>
            </clipPath>
<clipPath id="terminal-3820972252-line-10">
    <rect x="0" y="245.5" width="756.4" height="24.65"/>
            </clipPath>
<clipPath id="terminal-3820972252-line-11">
    <rect x="0" y="269.9" width="756.4" height="24.65"/>
            </clipPath>
<clipPath id="terminal-3820972252-line-12">
    <rect x="0" y="294.3" width="756.4" height="24.65"/>
            </clipPath>
<clipPath id="terminal-3820972252-line-13">
    <rect x="0" y="318.7" width="756.4" height="24.65"/>
            </clipPath>
<clipPath id="terminal-3820972252-line-14">
    <rect x="0" y="343.1" width="756.4" height="24.65"/>
            </clipPath>
<clipPath id="terminal-3820972252-line-15">
    <rect x="0" y="367.5" width="756.4" height="24.65"/>
            </clipPath>
<clipPath id="terminal-3820972252-line-16">
    <rect x="0" y="391.9" width="756.4" height="24.65"/>
            </clipPath>
<clipPath id="terminal-3820972252-line-17">
    <rect x="0" y="416.3" width="756.4" height="24.65"/>
            </clipPath>
<clipPath id="terminal-3820972252-line-18">
    <rect x="0" y="440.7" width="756.4" height="24.65"/>
            </clipPath>
<clipPath id="terminal-3820972252-line-19">
    <rect x="0" y="465.1" width="756.4" height="24.65"/>
            </clipPath>
<clipPath id="terminal-3820972252-line-20">
    <rect x="0" y="489.5" width="756.4" height="24.65"/>
            </clipPath>
<clipPath id="terminal-3820972252-line-21">
    <rect x="0" y="513.9" width="756.4" height="24.65"/>
            </clipPath>
<clipPath id="terminal-3820972252-line-22">
    <rect x="0" y="538.3" width="756.4" height="24.65"/>
            </clipPath>
<clipPath id="terminal-3820972252-line-23">
    <rect x="0" y="562.7" width="756.4" height="24.65"/>
            </clipPath>
<clipPath id="terminal-3820972252-line-24">
    <rect x="0" y="587.1" width="756.4" height="24.65"/>
            </clipPath>
<clipPath id="terminal-3820972252-line-25">
    <rect x="0" y="611.5" width="756.4" height="24.65"/>
            </clipPath>
<clipPath id="terminal-3820972252-line-26">
    <rect x="0" y="635.9" width="756.4" height="24.65"/>
            </clipPath>
<clipPath id="terminal-3820972252-line-27">
    <rect x="0" y="660.3" width="756.4" height="24.65"/>
            </clipPath>
<clipPath id="terminal-3820972252-line-28">
    <rect x="0" y="684.7" width="756.4" height="24.65"/>
            </clipPath>
<clipPath id="terminal-3820972252-line-29">
    <rect x="0" y="709.1" width="756.4" height="24.65"/>
            </clipPath>
<clipPath id="terminal-3820972252-line-30">
    <rect x="0" y="733.5" width="756.4" height="24.65"/>
            </clipPath>
<clipPath id="terminal-3820972252-line-31">
    <rect x="0" y="757.9" width="756.4" height="24.65"/>
            </clipPath>
<clipPath id="terminal-3820972252-line-32">
    <rect x="0" y="782.3" width="756.4" height="24.65"/>
            </clipPath>
<clipPath id="terminal-3820972252-line-33">
    <rect x="0" y="806.7" width="756.4" height="24.65"/>
            </clipPath>
<clipPath id="terminal-3820972252-line-34">
    <rect x="0" y="831.1" width="756.4" height="24.65"/>
            </clipPath>
<clipPath id="terminal-3820972252-line-35">
    <rect x="0" y="855.5" width="756.4" height="24.65"/>
            </clipPath>
<clipPath id="terminal-3820972252-line-36">
    <rect x="0" y="879.9" width="756.4" height="24.65"/>
            </clipPath>
    </defs>

    <rect fill="#292929" stroke="rgba(255,255,255,0.35)" stroke-width="1" x="1" y="1" width="773" height="975.2" rx="8"/>
            <g transform="translate(26,22)">
            <circle cx="0" cy="0" r="7" fill="#ff5f57"/>
            <circle cx="22" cy="0" r="7" fill="#febc2e"/>
            <circle cx="44" cy="0" r="7" fill="#28c840"/>
            </g>
        
    <g transform="translate(9, 41)" clip-path="url(#terminal-3820972252-clip-terminal)">
    <rect fill="#373737" x="0" y="1.5" width="756.4" height="24.65" shape-rendering="crispEdges"/><rect fill="#373737" x="0" y="25.9" width="12.2" height="24.65" shape-rendering="crispEdges"/><rect fill="#373737" x="12.2" y="25.9" width="305" height="24.65" shape-rendering="crispEdges"/><rect fill="#373737" x="317.2" y="25.9" width="109.8" height="24.65" shape-rendering="crispEdges"/><rect fill="#373737" x="427" y="25.9" width="317.2" height="24.65" shape-rendering="crispEdges"/><rect fill="#373737" x="744.2" y="25.9" width="12.2" height="24.65" shape-rendering="crispEdges"/><rect fill="#373737" x="0" y="50.3" width="12.2" height="24.65" shape-rendering="crispEdges"/><rect fill="#373737" x="12.2" y="50.3" width="170.8" height="24.65" shape-rendering="crispEdges"/><rect fill="#373737" x="183" y="50.3" width="305" height="24.65" shape-rendering="crispEdges"/><rect fill="#373737" x="488" y="50.3" width="48.8" height="24.65" shape-rendering="crispEdges"/><rect fill="#373737" x="536.8" y="50.3" width="24.4" height="24.65" shape-rendering="crispEdges"/><rect fill="#373737" x="561.2" y="50.3" width="183" height="24.65" shape-rendering="crispEdges"/><rect fill="#373737" x="744.2" y="50.3" width="12.2" height="24.65" shape-rendering="crispEdges"/><rect fill="#373737" x="0" y="74.7" width="756.4" height="24.65" shape-rendering="crispEdges"/><rect fill="#373737" x="0" y="99.1" width="12.2" height="24.65" shape-rendering="crispEdges"/><rect fill="#373737" x="12.2" y="99.1" width="12.2" height="24.65" shape-rendering="crispEdges"/><rect fill="#373737" x="24.4" y="99.1" width="24.4" height="24.65" shape-rendering="crispEdges"/><rect fill="#373737" x="48.8" y="99.1" width="451.4" height="24.65" shape-rendering="crispEdges"/><rect fill="#373737" x="500.2" y="99.1" width="170.8" height="24.65" shape-rendering="crispEdges"/><rect fill="#373737" x="671" y="99.1" width="85.4" height="24.65" shape-rendering="crispEdges"/><rect fill="#373737" x="0" y="123.5" width="12.2" height="24.65" shape-rendering="crispEdges"/><rect fill="#373737" x="12.2" y="123.5" width="12.2" height="24.65" shape-rendering="crispEdges"/><rect fill="#373737" x="24.4" y="123.5" width="24.4" height="24.65" shape-rendering="crispEdges"/><rect fill="#373737" x="48.8" y="123.5" width="451.4" height="24.65" shape-rendering="crispEdges"/><rect fill="#373737" x="500.2" y="123.5" width="170.8" height="24.65" shape-rendering="crispEdges"/><rect fill="#373737" x="671" y="123.5" width="85.4" height="24.65" shape-rendering="crispEdges"/><rect fill="#373737" x="0" y="147.9" width="12.2" height="24.65" shape-rendering="crispEdges"/><rect fill="#373737" x="12.2" y="147.9" width="12.2" height="24.65" shape-rendering="crispEdges"/><rect fill="#373737" x="24.4" y="147.9" width="24.4" height="24.65" shape-rendering="crispEdges"/><rect fill="#373737" x="48.8" y="147.9" width="451.4" height="24.65" shape-rendering="crispEdges"/><rect fill="#373737" x="500.2" y="147.9" width="170.8" height="24.65" shape-rendering="crispEdges"/><rect fill="#373737" x="671" y="147.9" width="85.4" height="24.65" shape-rendering="crispEdges"/><rect fill="#373737" x="0" y="172.3" width="12.2" height="24.65" shape-rendering="crispEdges"/><rect fill="#373737" x="12.2" y="172.3" width="12.2" height="24.65" shape-rendering="crispEdges"/><rect fill="#373737" x="24.4" y="172.3" width="24.4" height="24.65" shape-rendering="crispEdges"/><rect fill="#373737" x="48.8" y="172.3" width="451.4" height="24.65" shape-rendering="crispEdges"/><rect fill="#373737" x="500.2" y="172.3" width="170.8" height="24.65" shape-rendering="crispEdges"/><rect fill="#373737" x="671" y="172.3" width="85.4" height="24.65" shape-rendering="crispEdges"/><rect fill="#373737" x="0" y="196.7" width="756.4" height="24.65" shape-rendering="crispEdges"/><rect fill="#373737" x="0" y="221.1" width="756.4" height="24.65" shape-rendering="crispEdges"/><rect fill="#373737" x="0" y="245.5" width="756.4" height="24.65" shape-rendering="crispEdges"/><rect fill="#373737" x="0" y="269.9" width="756.4" height="24.65" shape-rendering="crispEdges"/><rect fill="#373737" x="0" y="294.3" width="756.4" height="24.65" shape-rendering="crispEdges"/><rect fill="#373737" x="0" y="318.7" width="756.4" height="24.65" shape-rendering="crispEdges"/><rect fill="#373737" x="0" y="343.1" width="756.4" height="24.65" shape-rendering="crispEdges"/><rect fill="#373737" x="0" y="367.5" width="756.4" height="24.65" shape-rendering="crispEdges"/><rect fill="#373737" x="0" y="391.9" width="756.4" height="24.65" shape-rendering="crispEdges"/><rect fill="#373737" x="0" y="416.3" width="756.4" height="24.65" shape-rendering="crispEdges"/><rect fill="#373737" x="0" y="440.7" width="756.4" height="24.65" shape-rendering="crispEdges"/><rect fill="#373737" x="0" y="465.1" width="756.4" height="24.65" shape-rendering="crispEdges"/><rect fill="#373737" x="0" y="489.5" width="756.4" height="24.65" shape-rendering="crispEdges"/><rect fill="#373737" x="0" y="513.9" width="756.4" height="24.65" shape-rendering="crispEdges"/><rect fill="#373737" x="0" y="538.3" width="756.4" height="24.65" shape-rendering="crispEdges"/><rect fill="#373737" x="0" y="562.7" width="756.4" height="24.65" shape-rendering="crispEdges"/><rect fill="#373737" x="0" y="587.1" width="756.4" height="24.65" shape-rendering="crispEdges"/><rect fill="#373737" x="0" y="611.5" width="756.4" height="24.65" shape-rendering="crispEdges"/><rect fill="#373737" x="0" y="635.9" width="756.4" height="24.65" shape-rendering="crispEdges"/><rect fill="#373737" x="0" y="660.3" width="756.4" height="24.65" shape-rendering="crispEdges"/><rect fill="#373737" x="0" y="684.7" width="756.4" height="24.65" shape-rendering="crispEdges"/><rect fill="#373737" x="0" y="709.1" width="683.2" height="24.65" shape-rendering="crispEdges"/><rect fill="#373737" x="683.2" y="709.1" width="73.2" height="24.65" shape-rendering="crispEdges"/><rect fill="#373737" x="0" y="733.5" width="12.2" height="24.65" shape-rendering="crispEdges"/><rect fill="#373737" x="12.2" y="733.5" width="341.6" height="24.65" shape-rendering="crispEdges"/><rect fill="#373737" x="353.8" y="733.5" width="36.6" height="24.65" shape-rendering="crispEdges"/><rect fill="#373737" x="390.4" y="733.5" width="183" height="24.65" shape-rendering="crispEdges"/><rect fill="#373737" x="573.4" y="733.5" width="36.6" height="24.65" shape-rendering="crispEdges"/><rect fill="#373737" x="610" y="733.5" width="24.4" height="24.65" shape-rendering="crispEdges"/><rect fill="#373737" x="634.4" y="733.5" width="122" height="24.65" shape-rendering="crispEdges"/><rect fill="#373737" x="0" y="757.9" width="36.6" height="24.65" shape-rendering="crispEdges"/><rect fill="#373737" x="36.6" y="757.9" width="219.6" height="24.65" shape-rendering="crispEdges"/><rect fill="#373737" x="256.2" y="757.9" width="500.2" height="24.65" shape-rendering="crispEdges"/><rect fill="#373737" x="0" y="782.3" width="12.2" height="24.65" shape-rendering="crispEdges"/><rect fill="#373737" x="12.2" y="782.3" width="744.2" height="24.65" shape-rendering="crispEdges"/><rect fill="#373737" x="0" y="806.7" width="109.8" height="24.65" shape-rendering="crispEdges"/><rect fill="#373737" x="109.8" y="806.7" width="256.2" height="24.65" shape-rendering="crispEdges"/><rect fill="#373737" x="366" y="806.7" width="390.4" height="24.65" shape-rendering="crispEdges"/><rect fill="#373737" x="0" y="831.1" width="109.8" height="24.65" shape-rendering="crispEdges"/><rect fill="#373737" x="109.8" y="831.1" width="439.2" height="24.65" shape-rendering="crispEdges"/><rect fill="#373737" x="549" y="831.1" width="207.4" height="24.65" shape-rendering="crispEdges"/><rect fill="#373737" x="0" y="855.5" width="756.4" height="24.65" shape-rendering="crispEdges"/><rect fill="#373737" x="0" y="879.9" width="12.2" height="24.65" shape-rendering="crispEdges"/><rect fill="#373737" x="12.2" y="879.9" width="12.2" height="24.65" shape-rendering="crispEdges"/><rect fill="#373737" x="24.4" y="879.9" width="85.4" height="24.65" shape-rendering="crispEdges"/><rect fill="#373737" x="109.8" y="879.9" width="12.2" height="24.65" shape-rendering="crispEdges"/><rect fill="#373737" x="122" y="879.9" width="85.4" height="24.65" shape-rendering="crispEdges"/><rect fill="#373737" x="207.4" y="879.9" width="536.8" height="24.65" shape-rendering="crispEdges"/><rect fill="#373737" x="744.2" y="879.9" width="12.2" height="24.65" shape-rendering="crispEdges"/><rect fill="#373737" x="0" y="904.3" width="756.4" height="24.65" shape-rendering="crispEdges"/>
    <g class="terminal-3820972252-matrix">
    <text class="terminal-3820972252-r1" x="756.4" y="20" textLength="12.2" clip-path="url(#terminal-3820972252-line-0)">
</text><text class="terminal-3820972252-r2" x="317.2" y="44.4" textLength="109.8" clip-path="url(#terminal-3820972252-line-1)">Items&#160;(4)</text><text class="terminal-3820972252-r1" x="756.4" y="44.4" textLength="12.2" clip-path="url(#terminal-3820972252-line-1)">
</text><text class="terminal-3820972252-r2" x="183" y="68.8" textLength="305" clip-path="url(#terminal-3820972252-line-2)">&#160;containing&#160;a&#160;match&#160;for&#160;&quot;</text><text class="terminal-3820972252-r3" x="488" y="68.8" textLength="48.8" clip-path="url(#terminal-3820972252-line-2)">test</text><text class="terminal-3820972252-r2" x="536.8" y="68.8" textLength="24.4" clip-path="url(#terminal-3820972252-line-2)">&quot;&#160;</text><text class="terminal-3820972252-r1" x="756.4" y="68.8" textLength="12.2" clip-path="url(#terminal-3820972252-line-2)">
</text><text class="terminal-3820972252-r4" x="0" y="93.2" textLength="756.4" clip-path="url(#terminal-3820972252-line-3)">──────────────────────────────────────────────────────────────</text><text class="terminal-3820972252-r1" x="756.4" y="93.2" textLength="12.2" clip-path="url(#terminal-3820972252-line-3)">
</text><text class="terminal-3820972252-r5" x="12.2" y="117.6" textLength="12.2" clip-path="url(#terminal-3820972252-line-4)">a</text><text class="terminal-3820972252-r6" x="48.8" y="117.6" textLength="451.4" clip-path="url(#terminal-3820972252-line-4)">*&#160;Consectetur&#160;adipisci&#160;quaerat&#160;v&#160;…&#160;&#160;&#160;</text><text class="terminal-3820972252-r6" x="500.2" y="117.6" textLength="170.8" clip-path="url(#terminal-3820972252-line-4)">25-11-10&#160;15:40</text><text class="terminal-3820972252-r1" x="756.4" y="117.6" textLength="12.2" clip-path="url(#terminal-3820972252-line-4)">
</text><text class="terminal-3820972252-r5" x="12.2" y="142" textLength="12.2" clip-path="url(#terminal-3820972252-line-5)">b</text><text class="terminal-3820972252-r6" x="48.8" y="142" textLength="451.4" clip-path="url(#terminal-3820972252-line-5)">*&#160;Dolor&#160;magnam&#160;aliquam&#160;consectet&#160;…&#160;&#160;&#160;</text><text class="terminal-3820972252-r6" x="500.2" y="142" textLength="170.8" clip-path="url(#terminal-3820972252-line-5)">25-11-10&#160;15:40</text><text class="terminal-3820972252-r1" x="756.4" y="142" textLength="12.2" clip-path="url(#terminal-3820972252-line-5)">
</text><text class="terminal-3820972252-r5" x="12.2" y="166.4" textLength="12.2" clip-path="url(#terminal-3820972252-line-6)">c</text><text class="terminal-3820972252-r7" x="48.8" y="166.4" textLength="451.4" clip-path="url(#terminal-3820972252-line-6)">?&#160;Consectetur&#160;modi&#160;aliquam&#160;sit&#160;&#160;&#160;&#160;&#160;&#160;&#160;</text><text class="terminal-3820972252-r7" x="500.2" y="166.4" textLength="170.8" clip-path="url(#terminal-3820972252-line-6)">&#160;&#160;&#160;&#160;&#160;&#160;~&#160;&#160;&#160;&#160;&#160;&#160;&#160;</text><text class="terminal-3820972252-r1" x="756.4" y="166.4" textLength="12.2" clip-path="url(#terminal-3820972252-line-6)">
</text><text class="terminal-3820972252-r5" x="12.2" y="190.8" textLength="12.2" clip-path="url(#terminal-3820972252-line-7)">d</text><text class="terminal-3820972252-r6" x="48.8" y="190.8" textLength="451.4" clip-path="url(#terminal-3820972252-line-7)">*&#160;Quaerat&#160;magnam&#160;numquam&#160;sit&#160;&#160;&#160;&#160;&#160;&#160;&#160;&#160;&#160;</text><text class="terminal-3820972252-r6" x="500.2" y="190.8" textLength="170.8" clip-path="url(#terminal-3820972252-line-7)">25-11-15&#160;16:30</text><text class="terminal-3820972252-r1" x="756.4" y="190.8" textLength="12.2" clip-path="url(#terminal-3820972252-line-7)">
</text><text class="terminal-3820972252-r1" x="756.4" y="215.2" textLength="12.2" clip-path="url(#terminal-3820972252-line-8)">
</text><text class="terminal-3820972252-r1" x="756.4" y="239.6" textLength="12.2" clip-path="url(#terminal-3820972252-line-9)">
</text><text class="terminal-3820972252-r1" x="756.4" y="264" textLength="12.2" clip-path="url(#terminal-3820972252-line-10)">
</text><text class="terminal-3820972252-r1" x="756.4" y="288.4" textLength="12.2" clip-path="url(#terminal-3820972252-line-11)">
</text><text class="terminal-3820972252-r1" x="756.4" y="312.8" textLength="12.2" clip-path="url(#terminal-3820972252-line-12)">
</text><text class="terminal-3820972252-r1" x="756.4" y="337.2" textLength="12.2" clip-path="url(#terminal-3820972252-line-13)">
</text><text class="terminal-3820972252-r1" x="756.4" y="361.6" textLength="12.2" clip-path="url(#terminal-3820972252-line-14)">
</text><text class="terminal-3820972252-r1" x="756.4" y="386" textLength="12.2" clip-path="url(#terminal-3820972252-line-15)">
</text><text class="terminal-3820972252-r1" x="756.4" y="410.4" textLength="12.2" clip-path="url(#terminal-3820972252-line-16)">
</text><text class="terminal-3820972252-r1" x="756.4" y="434.8" textLength="12.2" clip-path="url(#terminal-3820972252-line-17)">
</text><text class="terminal-3820972252-r1" x="756.4" y="459.2" textLength="12.2" clip-path="url(#terminal-3820972252-line-18)">
</text><text class="terminal-3820972252-r1" x="756.4" y="483.6" textLength="12.2" clip-path="url(#terminal-3820972252-line-19)">
</text><text class="terminal-3820972252-r1" x="756.4" y="508" textLength="12.2" clip-path="url(#terminal-3820972252-line-20)">
</text><text class="terminal-3820972252-r1" x="756.4" y="532.4" textLength="12.2" clip-path="url(#terminal-3820972252-line-21)">
</text><text class="terminal-3820972252-r1" x="756.4" y="556.8" textLength="12.2" clip-path="url(#terminal-3820972252-line-22)">
</text><text class="terminal-3820972252-r1" x="756.4" y="581.2" textLength="12.2" clip-path="url(#terminal-3820972252-line-23)">
</text><text class="terminal-3820972252-r1" x="756.4" y="605.6" textLength="12.2" clip-path="url(#terminal-3820972252-line-24)">
</text><text class="terminal-3820972252-r1" x="756.4" y="630" textLength="12.2" clip-path="url(#terminal-3820972252-line-25)">
</text><text class="terminal-3820972252-r1" x="756.4" y="654.4" textLength="12.2" clip-path="url(#terminal-3820972252-line-26)">
</text><text class="terminal-3820972252-r1" x="756.4" y="678.8" textLength="12.2" clip-path="url(#terminal-3820972252-line-27)">
</text><text class="terminal-3820972252-r4" x="0" y="703.2" textLength="756.4" clip-path="url(#terminal-3820972252-line-28)">──────────────────────────────────────────────────────────────</text><text class="terminal-3820972252-r1" x="756.4" y="703.2" textLength="12.2" clip-path="url(#terminal-3820972252-line-28)">
</text><text class="terminal-3820972252-r8" x="0" y="727.6" textLength="683.2" clip-path="url(#terminal-3820972252-line-29)">&#160;&#160;&#160;&#160;&#160;&#160;&#160;&#160;&#160;&#160;&#160;&#160;&#160;&#160;&#160;Quaerat&#160;magnam&#160;numquam&#160;sit&#160;&#160;&#160;&#160;&#160;&#160;&#160;&#160;&#160;&#160;&#160;&#160;&#160;&#160;&#160;</text><text class="terminal-3820972252-r1" x="756.4" y="727.6" textLength="12.2" clip-path="url(#terminal-3820972252-line-29)">
</text><text class="terminal-3820972252-r9" x="0" y="752" textLength="12.2" clip-path="url(#terminal-3820972252-line-30)">*</text><text class="terminal-3820972252-r1" x="12.2" y="752" textLength="341.6" clip-path="url(#terminal-3820972252-line-30)">&#160;Quaerat&#160;magnam&#160;numquam&#160;sit&#160;</text><text class="terminal-3820972252-r10" x="353.8" y="752" textLength="36.6" clip-path="url(#terminal-3820972252-line-30)">@s&#160;</text><text class="terminal-3820972252-r1" x="390.4" y="752" textLength="183" clip-path="url(#terminal-3820972252-line-30)">25-11-15&#160;21:30&#160;</text><text class="terminal-3820972252-r10" x="573.4" y="752" textLength="36.6" clip-path="url(#terminal-3820972252-line-30)">@n&#160;</text><text class="terminal-3820972252-r1" x="610" y="752" textLength="24.4" clip-path="url(#terminal-3820972252-line-30)">7d</text><text class="terminal-3820972252-r1" x="756.4" y="752" textLength="12.2" clip-path="url(#terminal-3820972252-line-30)">
</text><text class="terminal-3820972252-r10" x="0" y="776.4" textLength="36.6" clip-path="url(#terminal-3820972252-line-31)">@d&#160;</text><text class="terminal-3820972252-r1" x="36.6" y="776.4" textLength="219.6" clip-path="url(#terminal-3820972252-line-31)">notice&#160;test&#160;#lorem</text><text class="terminal-3820972252-r1" x="756.4" y="776.4" textLength="12.2" clip-path="url(#terminal-3820972252-line-31)">
</text><text class="terminal-3820972252-r1" x="756.4" y="800.8" textLength="12.2" clip-path="url(#terminal-3820972252-line-32)">
</text><text class="terminal-3820972252-r11" x="0" y="825.2" textLength="109.8" clip-path="url(#terminal-3820972252-line-33)">rruleset:</text><text class="terminal-3820972252-r1" x="109.8" y="825.2" textLength="256.2" clip-path="url(#terminal-3820972252-line-33)">&#160;RDATE:20251115T2130Z</text><text class="terminal-3820972252-r1" x="756.4" y="825.2" textLength="12.2" clip-path="url(#terminal-3820972252-line-33)">
</text><text class="terminal-3820972252-r11" x="0" y="849.6" textLength="109.8" clip-path="url(#terminal-3820972252-line-34)">id/cr/md:</text><text class="terminal-3820972252-r1" x="109.8" y="849.6" textLength="439.2" clip-path="url(#terminal-3820972252-line-34)">&#160;4&#160;/&#160;20251110T2023Z&#160;/&#160;20251110T2023Z</text><text class="terminal-3820972252-r1" x="756.4" y="849.6" textLength="12.2" clip-path="url(#terminal-3820972252-line-34)">
</text><text class="terminal-3820972252-r4" x="0" y="874" textLength="756.4" clip-path="url(#terminal-3820972252-line-35)">──────────────────────────────────────────────────────────────</text><text class="terminal-3820972252-r1" x="756.4" y="874" textLength="12.2" clip-path="url(#terminal-3820972252-line-35)">
</text><text class="terminal-3820972252-r3" x="12.2" y="898.4" textLength="12.2" clip-path="url(#terminal-3820972252-line-36)">?</text><text class="terminal-3820972252-r2" x="24.4" y="898.4" textLength="85.4" clip-path="url(#terminal-3820972252-line-36)">&#160;Help&#160;&#160;</text><text class="terminal-3820972252-r3" x="109.8" y="898.4" textLength="12.2" clip-path="url(#terminal-3820972252-line-36)">/</text><text class="terminal-3820972252-r2" x="122" y="898.4" textLength="85.4" clip-path="url(#terminal-3820972252-line-36)">&#160;Search</text><text class="terminal-3820972252-r1" x="756.4" y="898.4" textLength="12.2" clip-path="url(#terminal-3820972252-line-36)">
</text>
    </g>
    </g>
</svg>
