<svg class="rich-terminal" viewBox="0 0 702 1001.5999999999999" xmlns="http://www.w3.org/2000/svg">
    <!-- Generated with Rich https://www.textualize.io -->
    <style>

    @font-face {
        font-family: "Fira Code";
        src: local("FiraCode-Regular"),
                url("https://cdnjs.cloudflare.com/ajax/libs/firacode/6.2.0/woff2/FiraCode-Regular.woff2") format("woff2"),
                url("https://cdnjs.cloudflare.com/ajax/libs/firacode/6.2.0/woff/FiraCode-Regular.woff") format("woff");
        font-style: normal;
        font-weight: 400;
    }
    @font-face {
        font-family: "Fira Code";
        src: local("FiraCode-Bold"),
                url("https://cdnjs.cloudflare.com/ajax/libs/firacode/6.2.0/woff2/FiraCode-Bold.woff2") format("woff2"),
                url("https://cdnjs.cloudflare.com/ajax/libs/firacode/6.2.0/woff/FiraCode-Bold.woff") format("woff");
        font-style: bold;
        font-weight: 700;
    }

    .terminal-1056368958-matrix {
        font-family: Fira Code, monospace;
        font-size: 20px;
        line-height: 24.4px;
        font-variant-east-asian: full-width;
    }

    .terminal-1056368958-title {
        font-size: 18px;
        font-weight: bold;
        font-family: arial;
    }

    .terminal-1056368958-r1 { fill: #c5c8c6 }
.terminal-1056368958-r2 { fill: #ffffff;font-weight: bold }
.terminal-1056368958-r3 { fill: #7f7f7f }
.terminal-1056368958-r4 { fill: #fffacd }
.terminal-1056368958-r5 { fill: #c4c5b5 }
.terminal-1056368958-r6 { fill: #94948a }
.terminal-1056368958-r7 { fill: #98fb98 }
.terminal-1056368958-r8 { fill: #da70d6 }
.terminal-1056368958-r9 { fill: #daa520 }
.terminal-1056368958-r10 { fill: #00bfff }
.terminal-1056368958-r11 { fill: #ff8c00;font-weight: bold }
    </style>

    <defs>
    <clipPath id="terminal-1056368958-clip-terminal">
      <rect x="0" y="0" width="682.1999999999999" height="950.5999999999999" />
    </clipPath>
    <clipPath id="terminal-1056368958-line-0">
    <rect x="0" y="1.5" width="683.2" height="24.65"/>
            </clipPath>
<clipPath id="terminal-1056368958-line-1">
    <rect x="0" y="25.9" width="683.2" height="24.65"/>
            </clipPath>
<clipPath id="terminal-1056368958-line-2">
    <rect x="0" y="50.3" width="683.2" height="24.65"/>
            </clipPath>
<clipPath id="terminal-1056368958-line-3">
    <rect x="0" y="74.7" width="683.2" height="24.65"/>
            </clipPath>
<clipPath id="terminal-1056368958-line-4">
    <rect x="0" y="99.1" width="683.2" height="24.65"/>
            </clipPath>
<clipPath id="terminal-1056368958-line-5">
    <rect x="0" y="123.5" width="683.2" height="24.65"/>
            </clipPath>
<clipPath id="terminal-1056368958-line-6">
    <rect x="0" y="147.9" width="683.2" height="24.65"/>
            </clipPath>
<clipPath id="terminal-1056368958-line-7">
    <rect x="0" y="172.3" width="683.2" height="24.65"/>
            </clipPath>
<clipPath id="terminal-1056368958-line-8">
    <rect x="0" y="196.7" width="683.2" height="24.65"/>
            </clipPath>
<clipPath id="terminal-1056368958-line-9">
    <rect x="0" y="221.1" width="683.2" height="24.65"/>
            </clipPath>
<clipPath id="terminal-1056368958-line-10">
    <rect x="0" y="245.5" width="683.2" height="24.65"/>
            </clipPath>
<clipPath id="terminal-1056368958-line-11">
    <rect x="0" y="269.9" width="683.2" height="24.65"/>
            </clipPath>
<clipPath id="terminal-1056368958-line-12">
    <rect x="0" y="294.3" width="683.2" height="24.65"/>
            </clipPath>
<clipPath id="terminal-1056368958-line-13">
    <rect x="0" y="318.7" width="683.2" height="24.65"/>
            </clipPath>
<clipPath id="terminal-1056368958-line-14">
    <rect x="0" y="343.1" width="683.2" height="24.65"/>
            </clipPath>
<clipPath id="terminal-1056368958-line-15">
    <rect x="0" y="367.5" width="683.2" height="24.65"/>
            </clipPath>
<clipPath id="terminal-1056368958-line-16">
    <rect x="0" y="391.9" width="683.2" height="24.65"/>
            </clipPath>
<clipPath id="terminal-1056368958-line-17">
    <rect x="0" y="416.3" width="683.2" height="24.65"/>
            </clipPath>
<clipPath id="terminal-1056368958-line-18">
    <rect x="0" y="440.7" width="683.2" height="24.65"/>
            </clipPath>
<clipPath id="terminal-1056368958-line-19">
    <rect x="0" y="465.1" width="683.2" height="24.65"/>
            </clipPath>
<clipPath id="terminal-1056368958-line-20">
    <rect x="0" y="489.5" width="683.2" height="24.65"/>
            </clipPath>
<clipPath id="terminal-1056368958-line-21">
    <rect x="0" y="513.9" width="683.2" height="24.65"/>
            </clipPath>
<clipPath id="terminal-1056368958-line-22">
    <rect x="0" y="538.3" width="683.2" height="24.65"/>
            </clipPath>
<clipPath id="terminal-1056368958-line-23">
    <rect x="0" y="562.7" width="683.2" height="24.65"/>
            </clipPath>
<clipPath id="terminal-1056368958-line-24">
    <rect x="0" y="587.1" width="683.2" height="24.65"/>
            </clipPath>
<clipPath id="terminal-1056368958-line-25">
    <rect x="0" y="611.5" width="683.2" height="24.65"/>
            </clipPath>
<clipPath id="terminal-1056368958-line-26">
    <rect x="0" y="635.9" width="683.2" height="24.65"/>
            </clipPath>
<clipPath id="terminal-1056368958-line-27">
    <rect x="0" y="660.3" width="683.2" height="24.65"/>
            </clipPath>
<clipPath id="terminal-1056368958-line-28">
    <rect x="0" y="684.7" width="683.2" height="24.65"/>
            </clipPath>
<clipPath id="terminal-1056368958-line-29">
    <rect x="0" y="709.1" width="683.2" height="24.65"/>
            </clipPath>
<clipPath id="terminal-1056368958-line-30">
    <rect x="0" y="733.5" width="683.2" height="24.65"/>
            </clipPath>
<clipPath id="terminal-1056368958-line-31">
    <rect x="0" y="757.9" width="683.2" height="24.65"/>
            </clipPath>
<clipPath id="terminal-1056368958-line-32">
    <rect x="0" y="782.3" width="683.2" height="24.65"/>
            </clipPath>
<clipPath id="terminal-1056368958-line-33">
    <rect x="0" y="806.7" width="683.2" height="24.65"/>
            </clipPath>
<clipPath id="terminal-1056368958-line-34">
    <rect x="0" y="831.1" width="683.2" height="24.65"/>
            </clipPath>
<clipPath id="terminal-1056368958-line-35">
    <rect x="0" y="855.5" width="683.2" height="24.65"/>
            </clipPath>
<clipPath id="terminal-1056368958-line-36">
    <rect x="0" y="879.9" width="683.2" height="24.65"/>
            </clipPath>
<clipPath id="terminal-1056368958-line-37">
    <rect x="0" y="904.3" width="683.2" height="24.65"/>
            </clipPath>
    </defs>

    <rect fill="#292929" stroke="rgba(255,255,255,0.35)" stroke-width="1" x="1" y="1" width="700" height="999.6" rx="8"/>
            <g transform="translate(26,22)">
            <circle cx="0" cy="0" r="7" fill="#ff5f57"/>
            <circle cx="22" cy="0" r="7" fill="#febc2e"/>
            <circle cx="44" cy="0" r="7" fill="#28c840"/>
            </g>

    <g transform="translate(9, 41)" clip-path="url(#terminal-1056368958-clip-terminal)">
    <rect fill="#373737" x="0" y="1.5" width="683.2" height="24.65" shape-rendering="crispEdges"/><rect fill="#373737" x="0" y="25.9" width="12.2" height="24.65" shape-rendering="crispEdges"/><rect fill="#373737" x="12.2" y="25.9" width="97.6" height="24.65" shape-rendering="crispEdges"/><rect fill="#373737" x="109.8" y="25.9" width="463.6" height="24.65" shape-rendering="crispEdges"/><rect fill="#373737" x="573.4" y="25.9" width="97.6" height="24.65" shape-rendering="crispEdges"/><rect fill="#373737" x="671" y="25.9" width="12.2" height="24.65" shape-rendering="crispEdges"/><rect fill="#373737" x="0" y="50.3" width="683.2" height="24.65" shape-rendering="crispEdges"/><rect fill="#373737" x="0" y="74.7" width="195.2" height="24.65" shape-rendering="crispEdges"/><rect fill="#373737" x="195.2" y="74.7" width="488" height="24.65" shape-rendering="crispEdges"/><rect fill="#373737" x="0" y="99.1" width="12.2" height="24.65" shape-rendering="crispEdges"/><rect fill="#373737" x="12.2" y="99.1" width="12.2" height="24.65" shape-rendering="crispEdges"/><rect fill="#373737" x="24.4" y="99.1" width="24.4" height="24.65" shape-rendering="crispEdges"/><rect fill="#373737" x="48.8" y="99.1" width="585.6" height="24.65" shape-rendering="crispEdges"/><rect fill="#373737" x="634.4" y="99.1" width="48.8" height="24.65" shape-rendering="crispEdges"/><rect fill="#373737" x="0" y="123.5" width="12.2" height="24.65" shape-rendering="crispEdges"/><rect fill="#373737" x="12.2" y="123.5" width="12.2" height="24.65" shape-rendering="crispEdges"/><rect fill="#373737" x="24.4" y="123.5" width="24.4" height="24.65" shape-rendering="crispEdges"/><rect fill="#373737" x="48.8" y="123.5" width="561.2" height="24.65" shape-rendering="crispEdges"/><rect fill="#373737" x="610" y="123.5" width="73.2" height="24.65" shape-rendering="crispEdges"/><rect fill="#373737" x="0" y="147.9" width="12.2" height="24.65" shape-rendering="crispEdges"/><rect fill="#373737" x="12.2" y="147.9" width="12.2" height="24.65" shape-rendering="crispEdges"/><rect fill="#373737" x="24.4" y="147.9" width="24.4" height="24.65" shape-rendering="crispEdges"/><rect fill="#373737" x="48.8" y="147.9" width="427" height="24.65" shape-rendering="crispEdges"/><rect fill="#373737" x="475.8" y="147.9" width="207.4" height="24.65" shape-rendering="crispEdges"/><rect fill="#373737" x="0" y="172.3" width="12.2" height="24.65" shape-rendering="crispEdges"/><rect fill="#373737" x="12.2" y="172.3" width="12.2" height="24.65" shape-rendering="crispEdges"/><rect fill="#373737" x="24.4" y="172.3" width="24.4" height="24.65" shape-rendering="crispEdges"/><rect fill="#373737" x="48.8" y="172.3" width="366" height="24.65" shape-rendering="crispEdges"/><rect fill="#373737" x="414.8" y="172.3" width="268.4" height="24.65" shape-rendering="crispEdges"/><rect fill="#373737" x="0" y="196.7" width="12.2" height="24.65" shape-rendering="crispEdges"/><rect fill="#373737" x="12.2" y="196.7" width="12.2" height="24.65" shape-rendering="crispEdges"/><rect fill="#373737" x="24.4" y="196.7" width="24.4" height="24.65" shape-rendering="crispEdges"/><rect fill="#373737" x="48.8" y="196.7" width="610" height="24.65" shape-rendering="crispEdges"/><rect fill="#373737" x="658.8" y="196.7" width="24.4" height="24.65" shape-rendering="crispEdges"/><rect fill="#373737" x="0" y="221.1" width="12.2" height="24.65" shape-rendering="crispEdges"/><rect fill="#373737" x="12.2" y="221.1" width="12.2" height="24.65" shape-rendering="crispEdges"/><rect fill="#373737" x="24.4" y="221.1" width="24.4" height="24.65" shape-rendering="crispEdges"/><rect fill="#373737" x="48.8" y="221.1" width="451.4" height="24.65" shape-rendering="crispEdges"/><rect fill="#373737" x="500.2" y="221.1" width="183" height="24.65" shape-rendering="crispEdges"/><rect fill="#373737" x="0" y="245.5" width="12.2" height="24.65" shape-rendering="crispEdges"/><rect fill="#373737" x="12.2" y="245.5" width="12.2" height="24.65" shape-rendering="crispEdges"/><rect fill="#373737" x="24.4" y="245.5" width="24.4" height="24.65" shape-rendering="crispEdges"/><rect fill="#373737" x="48.8" y="245.5" width="500.2" height="24.65" shape-rendering="crispEdges"/><rect fill="#373737" x="549" y="245.5" width="134.2" height="24.65" shape-rendering="crispEdges"/><rect fill="#373737" x="0" y="269.9" width="12.2" height="24.65" shape-rendering="crispEdges"/><rect fill="#373737" x="12.2" y="269.9" width="12.2" height="24.65" shape-rendering="crispEdges"/><rect fill="#373737" x="24.4" y="269.9" width="24.4" height="24.65" shape-rendering="crispEdges"/><rect fill="#373737" x="48.8" y="269.9" width="610" height="24.65" shape-rendering="crispEdges"/><rect fill="#373737" x="658.8" y="269.9" width="24.4" height="24.65" shape-rendering="crispEdges"/><rect fill="#373737" x="0" y="294.3" width="12.2" height="24.65" shape-rendering="crispEdges"/><rect fill="#373737" x="12.2" y="294.3" width="12.2" height="24.65" shape-rendering="crispEdges"/><rect fill="#373737" x="24.4" y="294.3" width="24.4" height="24.65" shape-rendering="crispEdges"/><rect fill="#373737" x="48.8" y="294.3" width="610" height="24.65" shape-rendering="crispEdges"/><rect fill="#373737" x="658.8" y="294.3" width="24.4" height="24.65" shape-rendering="crispEdges"/><rect fill="#373737" x="0" y="318.7" width="12.2" height="24.65" shape-rendering="crispEdges"/><rect fill="#373737" x="12.2" y="318.7" width="12.2" height="24.65" shape-rendering="crispEdges"/><rect fill="#373737" x="24.4" y="318.7" width="24.4" height="24.65" shape-rendering="crispEdges"/><rect fill="#373737" x="48.8" y="318.7" width="219.6" height="24.65" shape-rendering="crispEdges"/><rect fill="#373737" x="268.4" y="318.7" width="414.8" height="24.65" shape-rendering="crispEdges"/><rect fill="#373737" x="0" y="343.1" width="12.2" height="24.65" shape-rendering="crispEdges"/><rect fill="#373737" x="12.2" y="343.1" width="12.2" height="24.65" shape-rendering="crispEdges"/><rect fill="#373737" x="24.4" y="343.1" width="24.4" height="24.65" shape-rendering="crispEdges"/><rect fill="#373737" x="48.8" y="343.1" width="329.4" height="24.65" shape-rendering="crispEdges"/><rect fill="#373737" x="378.2" y="343.1" width="305" height="24.65" shape-rendering="crispEdges"/><rect fill="#373737" x="0" y="367.5" width="122" height="24.65" shape-rendering="crispEdges"/><rect fill="#373737" x="122" y="367.5" width="561.2" height="24.65" shape-rendering="crispEdges"/><rect fill="#373737" x="0" y="391.9" width="12.2" height="24.65" shape-rendering="crispEdges"/><rect fill="#373737" x="12.2" y="391.9" width="12.2" height="24.65" shape-rendering="crispEdges"/><rect fill="#373737" x="24.4" y="391.9" width="24.4" height="24.65" shape-rendering="crispEdges"/><rect fill="#373737" x="48.8" y="391.9" width="378.2" height="24.65" shape-rendering="crispEdges"/><rect fill="#373737" x="427" y="391.9" width="256.2" height="24.65" shape-rendering="crispEdges"/><rect fill="#373737" x="0" y="416.3" width="12.2" height="24.65" shape-rendering="crispEdges"/><rect fill="#373737" x="12.2" y="416.3" width="12.2" height="24.65" shape-rendering="crispEdges"/><rect fill="#373737" x="24.4" y="416.3" width="24.4" height="24.65" shape-rendering="crispEdges"/><rect fill="#373737" x="48.8" y="416.3" width="353.8" height="24.65" shape-rendering="crispEdges"/><rect fill="#373737" x="402.6" y="416.3" width="280.6" height="24.65" shape-rendering="crispEdges"/><rect fill="#373737" x="0" y="440.7" width="195.2" height="24.65" shape-rendering="crispEdges"/><rect fill="#373737" x="195.2" y="440.7" width="488" height="24.65" shape-rendering="crispEdges"/><rect fill="#373737" x="0" y="465.1" width="12.2" height="24.65" shape-rendering="crispEdges"/><rect fill="#373737" x="12.2" y="465.1" width="12.2" height="24.65" shape-rendering="crispEdges"/><rect fill="#373737" x="24.4" y="465.1" width="24.4" height="24.65" shape-rendering="crispEdges"/><rect fill="#373737" x="48.8" y="465.1" width="610" height="24.65" shape-rendering="crispEdges"/><rect fill="#373737" x="658.8" y="465.1" width="24.4" height="24.65" shape-rendering="crispEdges"/><rect fill="#373737" x="0" y="489.5" width="12.2" height="24.65" shape-rendering="crispEdges"/><rect fill="#373737" x="12.2" y="489.5" width="12.2" height="24.65" shape-rendering="crispEdges"/><rect fill="#373737" x="24.4" y="489.5" width="24.4" height="24.65" shape-rendering="crispEdges"/><rect fill="#373737" x="48.8" y="489.5" width="390.4" height="24.65" shape-rendering="crispEdges"/><rect fill="#373737" x="439.2" y="489.5" width="244" height="24.65" shape-rendering="crispEdges"/><rect fill="#373737" x="0" y="513.9" width="12.2" height="24.65" shape-rendering="crispEdges"/><rect fill="#373737" x="12.2" y="513.9" width="12.2" height="24.65" shape-rendering="crispEdges"/><rect fill="#373737" x="24.4" y="513.9" width="24.4" height="24.65" shape-rendering="crispEdges"/><rect fill="#373737" x="48.8" y="513.9" width="549" height="24.65" shape-rendering="crispEdges"/><rect fill="#373737" x="597.8" y="513.9" width="85.4" height="24.65" shape-rendering="crispEdges"/><rect fill="#373737" x="0" y="538.3" width="12.2" height="24.65" shape-rendering="crispEdges"/><rect fill="#373737" x="12.2" y="538.3" width="12.2" height="24.65" shape-rendering="crispEdges"/><rect fill="#373737" x="24.4" y="538.3" width="24.4" height="24.65" shape-rendering="crispEdges"/><rect fill="#373737" x="48.8" y="538.3" width="317.2" height="24.65" shape-rendering="crispEdges"/><rect fill="#373737" x="366" y="538.3" width="317.2" height="24.65" shape-rendering="crispEdges"/><rect fill="#373737" x="0" y="562.7" width="195.2" height="24.65" shape-rendering="crispEdges"/><rect fill="#373737" x="195.2" y="562.7" width="488" height="24.65" shape-rendering="crispEdges"/><rect fill="#373737" x="0" y="587.1" width="12.2" height="24.65" shape-rendering="crispEdges"/><rect fill="#373737" x="12.2" y="587.1" width="12.2" height="24.65" shape-rendering="crispEdges"/><rect fill="#373737" x="24.4" y="587.1" width="24.4" height="24.65" shape-rendering="crispEdges"/><rect fill="#373737" x="48.8" y="587.1" width="402.6" height="24.65" shape-rendering="crispEdges"/><rect fill="#373737" x="451.4" y="587.1" width="231.8" height="24.65" shape-rendering="crispEdges"/><rect fill="#373737" x="0" y="611.5" width="12.2" height="24.65" shape-rendering="crispEdges"/><rect fill="#373737" x="12.2" y="611.5" width="12.2" height="24.65" shape-rendering="crispEdges"/><rect fill="#373737" x="24.4" y="611.5" width="24.4" height="24.65" shape-rendering="crispEdges"/><rect fill="#373737" x="48.8" y="611.5" width="549" height="24.65" shape-rendering="crispEdges"/><rect fill="#373737" x="597.8" y="611.5" width="85.4" height="24.65" shape-rendering="crispEdges"/><rect fill="#373737" x="0" y="635.9" width="12.2" height="24.65" shape-rendering="crispEdges"/><rect fill="#373737" x="12.2" y="635.9" width="12.2" height="24.65" shape-rendering="crispEdges"/><rect fill="#373737" x="24.4" y="635.9" width="24.4" height="24.65" shape-rendering="crispEdges"/><rect fill="#373737" x="48.8" y="635.9" width="585.6" height="24.65" shape-rendering="crispEdges"/><rect fill="#373737" x="634.4" y="635.9" width="48.8" height="24.65" shape-rendering="crispEdges"/><rect fill="#373737" x="0" y="660.3" width="12.2" height="24.65" shape-rendering="crispEdges"/><rect fill="#373737" x="12.2" y="660.3" width="12.2" height="24.65" shape-rendering="crispEdges"/><rect fill="#373737" x="24.4" y="660.3" width="24.4" height="24.65" shape-rendering="crispEdges"/><rect fill="#373737" x="48.8" y="660.3" width="610" height="24.65" shape-rendering="crispEdges"/><rect fill="#373737" x="658.8" y="660.3" width="24.4" height="24.65" shape-rendering="crispEdges"/><rect fill="#373737" x="0" y="684.7" width="12.2" height="24.65" shape-rendering="crispEdges"/><rect fill="#373737" x="12.2" y="684.7" width="12.2" height="24.65" shape-rendering="crispEdges"/><rect fill="#373737" x="24.4" y="684.7" width="24.4" height="24.65" shape-rendering="crispEdges"/><rect fill="#373737" x="48.8" y="684.7" width="610" height="24.65" shape-rendering="crispEdges"/><rect fill="#373737" x="658.8" y="684.7" width="24.4" height="24.65" shape-rendering="crispEdges"/><rect fill="#373737" x="0" y="709.1" width="195.2" height="24.65" shape-rendering="crispEdges"/><rect fill="#373737" x="195.2" y="709.1" width="488" height="24.65" shape-rendering="crispEdges"/><rect fill="#373737" x="0" y="733.5" width="12.2" height="24.65" shape-rendering="crispEdges"/><rect fill="#373737" x="12.2" y="733.5" width="12.2" height="24.65" shape-rendering="crispEdges"/><rect fill="#373737" x="24.4" y="733.5" width="24.4" height="24.65" shape-rendering="crispEdges"/><rect fill="#373737" x="48.8" y="733.5" width="463.6" height="24.65" shape-rendering="crispEdges"/><rect fill="#373737" x="512.4" y="733.5" width="170.8" height="24.65" shape-rendering="crispEdges"/><rect fill="#373737" x="0" y="757.9" width="12.2" height="24.65" shape-rendering="crispEdges"/><rect fill="#373737" x="12.2" y="757.9" width="12.2" height="24.65" shape-rendering="crispEdges"/><rect fill="#373737" x="24.4" y="757.9" width="24.4" height="24.65" shape-rendering="crispEdges"/><rect fill="#373737" x="48.8" y="757.9" width="536.8" height="24.65" shape-rendering="crispEdges"/><rect fill="#373737" x="585.6" y="757.9" width="97.6" height="24.65" shape-rendering="crispEdges"/><rect fill="#373737" x="0" y="782.3" width="12.2" height="24.65" shape-rendering="crispEdges"/><rect fill="#373737" x="12.2" y="782.3" width="12.2" height="24.65" shape-rendering="crispEdges"/><rect fill="#373737" x="24.4" y="782.3" width="24.4" height="24.65" shape-rendering="crispEdges"/><rect fill="#373737" x="48.8" y="782.3" width="610" height="24.65" shape-rendering="crispEdges"/><rect fill="#373737" x="658.8" y="782.3" width="24.4" height="24.65" shape-rendering="crispEdges"/><rect fill="#373737" x="0" y="806.7" width="195.2" height="24.65" shape-rendering="crispEdges"/><rect fill="#373737" x="195.2" y="806.7" width="488" height="24.65" shape-rendering="crispEdges"/><rect fill="#373737" x="0" y="831.1" width="12.2" height="24.65" shape-rendering="crispEdges"/><rect fill="#373737" x="12.2" y="831.1" width="12.2" height="24.65" shape-rendering="crispEdges"/><rect fill="#373737" x="24.4" y="831.1" width="24.4" height="24.65" shape-rendering="crispEdges"/><rect fill="#373737" x="48.8" y="831.1" width="475.8" height="24.65" shape-rendering="crispEdges"/><rect fill="#373737" x="524.6" y="831.1" width="158.6" height="24.65" shape-rendering="crispEdges"/><rect fill="#373737" x="0" y="855.5" width="683.2" height="24.65" shape-rendering="crispEdges"/><rect fill="#373737" x="0" y="879.9" width="683.2" height="24.65" shape-rendering="crispEdges"/><rect fill="#373737" x="0" y="904.3" width="12.2" height="24.65" shape-rendering="crispEdges"/><rect fill="#373737" x="12.2" y="904.3" width="12.2" height="24.65" shape-rendering="crispEdges"/><rect fill="#373737" x="24.4" y="904.3" width="85.4" height="24.65" shape-rendering="crispEdges"/><rect fill="#373737" x="109.8" y="904.3" width="12.2" height="24.65" shape-rendering="crispEdges"/><rect fill="#373737" x="122" y="904.3" width="85.4" height="24.65" shape-rendering="crispEdges"/><rect fill="#373737" x="207.4" y="904.3" width="0" height="24.65" shape-rendering="crispEdges"/><rect fill="#373737" x="207.4" y="904.3" width="463.6" height="24.65" shape-rendering="crispEdges"/><rect fill="#373737" x="671" y="904.3" width="12.2" height="24.65" shape-rendering="crispEdges"/><rect fill="#373737" x="0" y="928.7" width="683.2" height="24.65" shape-rendering="crispEdges"/>
    <g class="terminal-1056368958-matrix">
    <text class="terminal-1056368958-r1" x="683.2" y="20" textLength="12.2" clip-path="url(#terminal-1056368958-line-0)">
</text><text class="terminal-1056368958-r2" x="109.8" y="44.4" textLength="463.6" clip-path="url(#terminal-1056368958-line-1)">Jots&#160;-&#160;Feb&#160;2&#160;-&#160;8,&#160;2026&#160;#6:&#160;13.0h&#160;(1/2)</text><text class="terminal-1056368958-r1" x="683.2" y="44.4" textLength="12.2" clip-path="url(#terminal-1056368958-line-1)">
</text><text class="terminal-1056368958-r3" x="0" y="68.8" textLength="683.2" clip-path="url(#terminal-1056368958-line-2)">────────────────────────────────────────────────────────</text><text class="terminal-1056368958-r1" x="683.2" y="68.8" textLength="12.2" clip-path="url(#terminal-1056368958-line-2)">
</text><text class="terminal-1056368958-r4" x="0" y="93.2" textLength="195.2" clip-path="url(#terminal-1056368958-line-3)">Mon,&#160;Feb&#160;2:&#160;6.7h</text><text class="terminal-1056368958-r1" x="683.2" y="93.2" textLength="12.2" clip-path="url(#terminal-1056368958-line-3)">
</text><text class="terminal-1056368958-r6" x="12.2" y="117.6" textLength="12.2" clip-path="url(#terminal-1056368958-line-4)">a</text><text class="terminal-1056368958-r7" x="48.8" y="117.6" textLength="585.6" clip-path="url(#terminal-1056368958-line-4)">10:45&#160;Sed&#160;quaerat&#160;velit&#160;aliquam&#160;&#160;(writing:&#160;0.8h)</text><text class="terminal-1056368958-r1" x="683.2" y="117.6" textLength="12.2" clip-path="url(#terminal-1056368958-line-4)">
</text><text class="terminal-1056368958-r6" x="12.2" y="142" textLength="12.2" clip-path="url(#terminal-1056368958-line-5)">b</text><text class="terminal-1056368958-r8" x="48.8" y="142" textLength="561.2" clip-path="url(#terminal-1056368958-line-5)">11:45&#160;Dolor&#160;quiquia&#160;sit&#160;etincidunt&#160;non&#160;&#160;(1.8h)</text><text class="terminal-1056368958-r1" x="683.2" y="142" textLength="12.2" clip-path="url(#terminal-1056368958-line-5)">
</text><text class="terminal-1056368958-r6" x="12.2" y="166.4" textLength="12.2" clip-path="url(#terminal-1056368958-line-6)">c</text><text class="terminal-1056368958-r8" x="48.8" y="166.4" textLength="427" clip-path="url(#terminal-1056368958-line-6)">12:30&#160;Dolor&#160;aliquam&#160;numquam&#160;&#160;(1.0h)</text><text class="terminal-1056368958-r1" x="683.2" y="166.4" textLength="12.2" clip-path="url(#terminal-1056368958-line-6)">
</text><text class="terminal-1056368958-r6" x="12.2" y="190.8" textLength="12.2" clip-path="url(#terminal-1056368958-line-7)">d</text><text class="terminal-1056368958-r8" x="48.8" y="190.8" textLength="366" clip-path="url(#terminal-1056368958-line-7)">12:30&#160;Tempora&#160;eius&#160;sit&#160;&#160;(1.5h)</text><text class="terminal-1056368958-r1" x="683.2" y="190.8" textLength="12.2" clip-path="url(#terminal-1056368958-line-7)">
</text><text class="terminal-1056368958-r6" x="12.2" y="215.2" textLength="12.2" clip-path="url(#terminal-1056368958-line-8)">e</text><text class="terminal-1056368958-r9" x="48.8" y="215.2" textLength="610" clip-path="url(#terminal-1056368958-line-8)">13:30&#160;Magnam&#160;quaerat&#160;dolor&#160;non&#160;&#160;(exercise.walking)</text><text class="terminal-1056368958-r1" x="683.2" y="215.2" textLength="12.2" clip-path="url(#terminal-1056368958-line-8)">
</text><text class="terminal-1056368958-r6" x="12.2" y="239.6" textLength="12.2" clip-path="url(#terminal-1056368958-line-9)">f</text><text class="terminal-1056368958-r8" x="48.8" y="239.6" textLength="451.4" clip-path="url(#terminal-1056368958-line-9)">14:13&#160;Modi&#160;ut&#160;etincidunt&#160;eius&#160;&#160;(1.1h)</text><text class="terminal-1056368958-r1" x="683.2" y="239.6" textLength="12.2" clip-path="url(#terminal-1056368958-line-9)">
</text><text class="terminal-1056368958-r6" x="12.2" y="264" textLength="12.2" clip-path="url(#terminal-1056368958-line-10)">g</text><text class="terminal-1056368958-r10" x="48.8" y="264" textLength="500.2" clip-path="url(#terminal-1056368958-line-10)">14:13&#160;Dolor&#160;quisquam&#160;tempora&#160;dolor&#160;ipsum&#160;</text><text class="terminal-1056368958-r1" x="683.2" y="264" textLength="12.2" clip-path="url(#terminal-1056368958-line-10)">
</text><text class="terminal-1056368958-r6" x="12.2" y="288.4" textLength="12.2" clip-path="url(#terminal-1056368958-line-11)">h</text><text class="terminal-1056368958-r9" x="48.8" y="288.4" textLength="610" clip-path="url(#terminal-1056368958-line-11)">14:13&#160;Voluptatem&#160;aliquam&#160;ipsum&#160;v&#160;…&#160;(exercise.bike)</text><text class="terminal-1056368958-r1" x="683.2" y="288.4" textLength="12.2" clip-path="url(#terminal-1056368958-line-11)">
</text><text class="terminal-1056368958-r6" x="12.2" y="312.8" textLength="12.2" clip-path="url(#terminal-1056368958-line-12)">i</text><text class="terminal-1056368958-r7" x="48.8" y="312.8" textLength="610" clip-path="url(#terminal-1056368958-line-12)">14:13&#160;Quaerat&#160;numquam&#160;eius&#160;am&#160;…&#160;(meditation:&#160;0.5h)</text><text class="terminal-1056368958-r1" x="683.2" y="312.8" textLength="12.2" clip-path="url(#terminal-1056368958-line-12)">
</text><text class="terminal-1056368958-r6" x="12.2" y="337.2" textLength="12.2" clip-path="url(#terminal-1056368958-line-13)">j</text><text class="terminal-1056368958-r10" x="48.8" y="337.2" textLength="219.6" clip-path="url(#terminal-1056368958-line-13)">14:45&#160;Sed&#160;sed&#160;est&#160;</text><text class="terminal-1056368958-r1" x="683.2" y="337.2" textLength="12.2" clip-path="url(#terminal-1056368958-line-13)">
</text><text class="terminal-1056368958-r6" x="12.2" y="361.6" textLength="12.2" clip-path="url(#terminal-1056368958-line-14)">k</text><text class="terminal-1056368958-r10" x="48.8" y="361.6" textLength="329.4" clip-path="url(#terminal-1056368958-line-14)">16:45&#160;Velit&#160;numquam&#160;labore&#160;</text><text class="terminal-1056368958-r1" x="683.2" y="361.6" textLength="12.2" clip-path="url(#terminal-1056368958-line-14)">
</text><text class="terminal-1056368958-r4" x="0" y="386" textLength="122" clip-path="url(#terminal-1056368958-line-15)">Tue,&#160;Feb&#160;3</text><text class="terminal-1056368958-r1" x="683.2" y="386" textLength="12.2" clip-path="url(#terminal-1056368958-line-15)">
</text><text class="terminal-1056368958-r6" x="12.2" y="410.4" textLength="12.2" clip-path="url(#terminal-1056368958-line-16)">l</text><text class="terminal-1056368958-r10" x="48.8" y="410.4" textLength="378.2" clip-path="url(#terminal-1056368958-line-16)">11:45&#160;Quiquia&#160;adipisci&#160;amet&#160;ut&#160;</text><text class="terminal-1056368958-r1" x="683.2" y="410.4" textLength="12.2" clip-path="url(#terminal-1056368958-line-16)">
</text><text class="terminal-1056368958-r6" x="12.2" y="434.8" textLength="12.2" clip-path="url(#terminal-1056368958-line-17)">m</text><text class="terminal-1056368958-r10" x="48.8" y="434.8" textLength="353.8" clip-path="url(#terminal-1056368958-line-17)">13:30&#160;Quiquia&#160;neque&#160;adipisci&#160;</text><text class="terminal-1056368958-r1" x="683.2" y="434.8" textLength="12.2" clip-path="url(#terminal-1056368958-line-17)">
</text><text class="terminal-1056368958-r4" x="0" y="459.2" textLength="195.2" clip-path="url(#terminal-1056368958-line-18)">Wed,&#160;Feb&#160;4:&#160;2.1h</text><text class="terminal-1056368958-r1" x="683.2" y="459.2" textLength="12.2" clip-path="url(#terminal-1056368958-line-18)">
</text><text class="terminal-1056368958-r6" x="12.2" y="483.6" textLength="12.2" clip-path="url(#terminal-1056368958-line-19)">n</text><text class="terminal-1056368958-r7" x="48.8" y="483.6" textLength="610" clip-path="url(#terminal-1056368958-line-19)">09:00&#160;Aliquam&#160;eius&#160;quiquia&#160;magna&#160;…&#160;(reading:&#160;0.3h)</text><text class="terminal-1056368958-r1" x="683.2" y="483.6" textLength="12.2" clip-path="url(#terminal-1056368958-line-19)">
</text><text class="terminal-1056368958-r6" x="12.2" y="508" textLength="12.2" clip-path="url(#terminal-1056368958-line-20)">o</text><text class="terminal-1056368958-r10" x="48.8" y="508" textLength="390.4" clip-path="url(#terminal-1056368958-line-20)">09:45&#160;Etincidunt&#160;dolor&#160;quisquam&#160;</text><text class="terminal-1056368958-r1" x="683.2" y="508" textLength="12.2" clip-path="url(#terminal-1056368958-line-20)">
</text><text class="terminal-1056368958-r6" x="12.2" y="532.4" textLength="12.2" clip-path="url(#terminal-1056368958-line-21)">p</text><text class="terminal-1056368958-r7" x="48.8" y="532.4" textLength="549" clip-path="url(#terminal-1056368958-line-21)">12:00&#160;Quisquam&#160;ipsum&#160;numquam&#160;&#160;(reading:&#160;1.5h)</text><text class="terminal-1056368958-r1" x="683.2" y="532.4" textLength="12.2" clip-path="url(#terminal-1056368958-line-21)">
</text><text class="terminal-1056368958-r6" x="12.2" y="556.8" textLength="12.2" clip-path="url(#terminal-1056368958-line-22)">q</text><text class="terminal-1056368958-r8" x="48.8" y="556.8" textLength="317.2" clip-path="url(#terminal-1056368958-line-22)">14:15&#160;Eius&#160;ut&#160;modi&#160;&#160;(0.3h)</text><text class="terminal-1056368958-r1" x="683.2" y="556.8" textLength="12.2" clip-path="url(#terminal-1056368958-line-22)">
</text><text class="terminal-1056368958-r4" x="0" y="581.2" textLength="195.2" clip-path="url(#terminal-1056368958-line-23)">Thu,&#160;Feb&#160;5:&#160;1.8h</text><text class="terminal-1056368958-r1" x="683.2" y="581.2" textLength="12.2" clip-path="url(#terminal-1056368958-line-23)">
</text><text class="terminal-1056368958-r6" x="12.2" y="605.6" textLength="12.2" clip-path="url(#terminal-1056368958-line-24)">r</text><text class="terminal-1056368958-r9" x="48.8" y="605.6" textLength="402.6" clip-path="url(#terminal-1056368958-line-24)">12:30&#160;Porro&#160;est&#160;sed&#160;&#160;(meditation)</text><text class="terminal-1056368958-r1" x="683.2" y="605.6" textLength="12.2" clip-path="url(#terminal-1056368958-line-24)">
</text><text class="terminal-1056368958-r6" x="12.2" y="630" textLength="12.2" clip-path="url(#terminal-1056368958-line-25)">s</text><text class="terminal-1056368958-r7" x="48.8" y="630" textLength="549" clip-path="url(#terminal-1056368958-line-25)">12:45&#160;Porro&#160;est&#160;sit&#160;&#160;(exercise.walking:&#160;1.8h)</text><text class="terminal-1056368958-r1" x="683.2" y="630" textLength="12.2" clip-path="url(#terminal-1056368958-line-25)">
</text><text class="terminal-1056368958-r6" x="12.2" y="654.4" textLength="12.2" clip-path="url(#terminal-1056368958-line-26)">t</text><text class="terminal-1056368958-r9" x="48.8" y="654.4" textLength="585.6" clip-path="url(#terminal-1056368958-line-26)">13:15&#160;Adipisci&#160;tempora&#160;neque&#160;&#160;(exercise.walking)</text><text class="terminal-1056368958-r1" x="683.2" y="654.4" textLength="12.2" clip-path="url(#terminal-1056368958-line-26)">
</text><text class="terminal-1056368958-r6" x="12.2" y="678.8" textLength="12.2" clip-path="url(#terminal-1056368958-line-27)">u</text><text class="terminal-1056368958-r9" x="48.8" y="678.8" textLength="610" clip-path="url(#terminal-1056368958-line-27)">15:15&#160;Adipisci&#160;sed&#160;voluptatem&#160;…&#160;(exercise.walking)</text><text class="terminal-1056368958-r1" x="683.2" y="678.8" textLength="12.2" clip-path="url(#terminal-1056368958-line-27)">
</text><text class="terminal-1056368958-r6" x="12.2" y="703.2" textLength="12.2" clip-path="url(#terminal-1056368958-line-28)">v</text><text class="terminal-1056368958-r9" x="48.8" y="703.2" textLength="610" clip-path="url(#terminal-1056368958-line-28)">15:30&#160;Dolorem&#160;sit&#160;dolore&#160;non&#160;&#160;…&#160;(exercise.walking)</text><text class="terminal-1056368958-r1" x="683.2" y="703.2" textLength="12.2" clip-path="url(#terminal-1056368958-line-28)">
</text><text class="terminal-1056368958-r4" x="0" y="727.6" textLength="195.2" clip-path="url(#terminal-1056368958-line-29)">Fri,&#160;Feb&#160;6:&#160;1.3h</text><text class="terminal-1056368958-r1" x="683.2" y="727.6" textLength="12.2" clip-path="url(#terminal-1056368958-line-29)">
</text><text class="terminal-1056368958-r6" x="12.2" y="752" textLength="12.2" clip-path="url(#terminal-1056368958-line-30)">w</text><text class="terminal-1056368958-r9" x="48.8" y="752" textLength="463.6" clip-path="url(#terminal-1056368958-line-30)">11:00&#160;Ipsum&#160;ipsum&#160;est&#160;&#160;(exercise.bike)</text><text class="terminal-1056368958-r1" x="683.2" y="752" textLength="12.2" clip-path="url(#terminal-1056368958-line-30)">
</text><text class="terminal-1056368958-r6" x="12.2" y="776.4" textLength="12.2" clip-path="url(#terminal-1056368958-line-31)">x</text><text class="terminal-1056368958-r9" x="48.8" y="776.4" textLength="536.8" clip-path="url(#terminal-1056368958-line-31)">11:00&#160;Labore&#160;eius&#160;quaerat&#160;aliquam&#160;&#160;(reading)</text><text class="terminal-1056368958-r1" x="683.2" y="776.4" textLength="12.2" clip-path="url(#terminal-1056368958-line-31)">
</text><text class="terminal-1056368958-r6" x="12.2" y="800.8" textLength="12.2" clip-path="url(#terminal-1056368958-line-32)">y</text><text class="terminal-1056368958-r7" x="48.8" y="800.8" textLength="610" clip-path="url(#terminal-1056368958-line-32)">11:15&#160;Dolor&#160;dolorem&#160;labore&#160;…&#160;(exercise.bike:&#160;1.3h)</text><text class="terminal-1056368958-r1" x="683.2" y="800.8" textLength="12.2" clip-path="url(#terminal-1056368958-line-32)">
</text><text class="terminal-1056368958-r4" x="0" y="825.2" textLength="195.2" clip-path="url(#terminal-1056368958-line-33)">Sat,&#160;Feb&#160;7:&#160;0.8h</text><text class="terminal-1056368958-r1" x="683.2" y="825.2" textLength="12.2" clip-path="url(#terminal-1056368958-line-33)">
</text><text class="terminal-1056368958-r6" x="12.2" y="849.6" textLength="12.2" clip-path="url(#terminal-1056368958-line-34)">z</text><text class="terminal-1056368958-r8" x="48.8" y="849.6" textLength="475.8" clip-path="url(#terminal-1056368958-line-34)">11:00&#160;Quaerat&#160;eius&#160;aliquam&#160;amet&#160;&#160;(0.5h)</text><text class="terminal-1056368958-r1" x="683.2" y="849.6" textLength="12.2" clip-path="url(#terminal-1056368958-line-34)">
</text><text class="terminal-1056368958-r1" x="683.2" y="874" textLength="12.2" clip-path="url(#terminal-1056368958-line-35)">
</text><text class="terminal-1056368958-r3" x="0" y="898.4" textLength="683.2" clip-path="url(#terminal-1056368958-line-36)">────────────────────────────────────────────────────────</text><text class="terminal-1056368958-r1" x="683.2" y="898.4" textLength="12.2" clip-path="url(#terminal-1056368958-line-36)">
</text><text class="terminal-1056368958-r11" x="12.2" y="922.8" textLength="12.2" clip-path="url(#terminal-1056368958-line-37)">?</text><text class="terminal-1056368958-r2" x="24.4" y="922.8" textLength="85.4" clip-path="url(#terminal-1056368958-line-37)">&#160;Help&#160;&#160;</text><text class="terminal-1056368958-r11" x="109.8" y="922.8" textLength="12.2" clip-path="url(#terminal-1056368958-line-37)">/</text><text class="terminal-1056368958-r2" x="122" y="922.8" textLength="85.4" clip-path="url(#terminal-1056368958-line-37)">&#160;Search</text><text class="terminal-1056368958-r1" x="683.2" y="922.8" textLength="12.2" clip-path="url(#terminal-1056368958-line-37)">
</text>
    </g>
    </g>
</svg>
