<svg class="rich-terminal" viewBox="0 0 702 1001.5999999999999" xmlns="http://www.w3.org/2000/svg">
    <!-- Generated with Rich https://www.textualize.io -->
    <style>

    @font-face {
        font-family: "Fira Code";
        src: local("FiraCode-Regular"),
                url("https://cdnjs.cloudflare.com/ajax/libs/firacode/6.2.0/woff2/FiraCode-Regular.woff2") format("woff2"),
                url("https://cdnjs.cloudflare.com/ajax/libs/firacode/6.2.0/woff/FiraCode-Regular.woff") format("woff");
        font-style: normal;
        font-weight: 400;
    }
    @font-face {
        font-family: "Fira Code";
        src: local("FiraCode-Bold"),
                url("https://cdnjs.cloudflare.com/ajax/libs/firacode/6.2.0/woff2/FiraCode-Bold.woff2") format("woff2"),
                url("https://cdnjs.cloudflare.com/ajax/libs/firacode/6.2.0/woff/FiraCode-Bold.woff") format("woff");
        font-style: bold;
        font-weight: 700;
    }

    .terminal-1917653713-matrix {
        font-family: Fira Code, monospace;
        font-size: 20px;
        line-height: 24.4px;
        font-variant-east-asian: full-width;
    }

    .terminal-1917653713-title {
        font-size: 18px;
        font-weight: bold;
        font-family: arial;
    }

    .terminal-1917653713-r1 { fill: #c5c8c6 }
.terminal-1917653713-r2 { fill: #ffffff;font-weight: bold }
.terminal-1917653713-r3 { fill: #7f7f7f }
.terminal-1917653713-r4 { fill: #fffacd }
.terminal-1917653713-r5 { fill: #c4c5b5 }
.terminal-1917653713-r6 { fill: #94948a }
.terminal-1917653713-r7 { fill: #daa520 }
.terminal-1917653713-r8 { fill: #98fb98 }
.terminal-1917653713-r9 { fill: #da70d6 }
.terminal-1917653713-r10 { fill: #00bfff }
.terminal-1917653713-r11 { fill: #fd971f;font-weight: bold }
    </style>

    <defs>
    <clipPath id="terminal-1917653713-clip-terminal">
      <rect x="0" y="0" width="682.1999999999999" height="950.5999999999999" />
    </clipPath>
    <clipPath id="terminal-1917653713-line-0">
    <rect x="0" y="1.5" width="683.2" height="24.65"/>
            </clipPath>
<clipPath id="terminal-1917653713-line-1">
    <rect x="0" y="25.9" width="683.2" height="24.65"/>
            </clipPath>
<clipPath id="terminal-1917653713-line-2">
    <rect x="0" y="50.3" width="683.2" height="24.65"/>
            </clipPath>
<clipPath id="terminal-1917653713-line-3">
    <rect x="0" y="74.7" width="683.2" height="24.65"/>
            </clipPath>
<clipPath id="terminal-1917653713-line-4">
    <rect x="0" y="99.1" width="683.2" height="24.65"/>
            </clipPath>
<clipPath id="terminal-1917653713-line-5">
    <rect x="0" y="123.5" width="683.2" height="24.65"/>
            </clipPath>
<clipPath id="terminal-1917653713-line-6">
    <rect x="0" y="147.9" width="683.2" height="24.65"/>
            </clipPath>
<clipPath id="terminal-1917653713-line-7">
    <rect x="0" y="172.3" width="683.2" height="24.65"/>
            </clipPath>
<clipPath id="terminal-1917653713-line-8">
    <rect x="0" y="196.7" width="683.2" height="24.65"/>
            </clipPath>
<clipPath id="terminal-1917653713-line-9">
    <rect x="0" y="221.1" width="683.2" height="24.65"/>
            </clipPath>
<clipPath id="terminal-1917653713-line-10">
    <rect x="0" y="245.5" width="683.2" height="24.65"/>
            </clipPath>
<clipPath id="terminal-1917653713-line-11">
    <rect x="0" y="269.9" width="683.2" height="24.65"/>
            </clipPath>
<clipPath id="terminal-1917653713-line-12">
    <rect x="0" y="294.3" width="683.2" height="24.65"/>
            </clipPath>
<clipPath id="terminal-1917653713-line-13">
    <rect x="0" y="318.7" width="683.2" height="24.65"/>
            </clipPath>
<clipPath id="terminal-1917653713-line-14">
    <rect x="0" y="343.1" width="683.2" height="24.65"/>
            </clipPath>
<clipPath id="terminal-1917653713-line-15">
    <rect x="0" y="367.5" width="683.2" height="24.65"/>
            </clipPath>
<clipPath id="terminal-1917653713-line-16">
    <rect x="0" y="391.9" width="683.2" height="24.65"/>
            </clipPath>
<clipPath id="terminal-1917653713-line-17">
    <rect x="0" y="416.3" width="683.2" height="24.65"/>
            </clipPath>
<clipPath id="terminal-1917653713-line-18">
    <rect x="0" y="440.7" width="683.2" height="24.65"/>
            </clipPath>
<clipPath id="terminal-1917653713-line-19">
    <rect x="0" y="465.1" width="683.2" height="24.65"/>
            </clipPath>
<clipPath id="terminal-1917653713-line-20">
    <rect x="0" y="489.5" width="683.2" height="24.65"/>
            </clipPath>
<clipPath id="terminal-1917653713-line-21">
    <rect x="0" y="513.9" width="683.2" height="24.65"/>
            </clipPath>
<clipPath id="terminal-1917653713-line-22">
    <rect x="0" y="538.3" width="683.2" height="24.65"/>
            </clipPath>
<clipPath id="terminal-1917653713-line-23">
    <rect x="0" y="562.7" width="683.2" height="24.65"/>
            </clipPath>
<clipPath id="terminal-1917653713-line-24">
    <rect x="0" y="587.1" width="683.2" height="24.65"/>
            </clipPath>
<clipPath id="terminal-1917653713-line-25">
    <rect x="0" y="611.5" width="683.2" height="24.65"/>
            </clipPath>
<clipPath id="terminal-1917653713-line-26">
    <rect x="0" y="635.9" width="683.2" height="24.65"/>
            </clipPath>
<clipPath id="terminal-1917653713-line-27">
    <rect x="0" y="660.3" width="683.2" height="24.65"/>
            </clipPath>
<clipPath id="terminal-1917653713-line-28">
    <rect x="0" y="684.7" width="683.2" height="24.65"/>
            </clipPath>
<clipPath id="terminal-1917653713-line-29">
    <rect x="0" y="709.1" width="683.2" height="24.65"/>
            </clipPath>
<clipPath id="terminal-1917653713-line-30">
    <rect x="0" y="733.5" width="683.2" height="24.65"/>
            </clipPath>
<clipPath id="terminal-1917653713-line-31">
    <rect x="0" y="757.9" width="683.2" height="24.65"/>
            </clipPath>
<clipPath id="terminal-1917653713-line-32">
    <rect x="0" y="782.3" width="683.2" height="24.65"/>
            </clipPath>
<clipPath id="terminal-1917653713-line-33">
    <rect x="0" y="806.7" width="683.2" height="24.65"/>
            </clipPath>
<clipPath id="terminal-1917653713-line-34">
    <rect x="0" y="831.1" width="683.2" height="24.65"/>
            </clipPath>
<clipPath id="terminal-1917653713-line-35">
    <rect x="0" y="855.5" width="683.2" height="24.65"/>
            </clipPath>
<clipPath id="terminal-1917653713-line-36">
    <rect x="0" y="879.9" width="683.2" height="24.65"/>
            </clipPath>
<clipPath id="terminal-1917653713-line-37">
    <rect x="0" y="904.3" width="683.2" height="24.65"/>
            </clipPath>
    </defs>

    <rect fill="#292929" stroke="rgba(255,255,255,0.35)" stroke-width="1" x="1" y="1" width="700" height="999.6" rx="8"/>
            <g transform="translate(26,22)">
            <circle cx="0" cy="0" r="7" fill="#ff5f57"/>
            <circle cx="22" cy="0" r="7" fill="#febc2e"/>
            <circle cx="44" cy="0" r="7" fill="#28c840"/>
            </g>

    <g transform="translate(9, 41)" clip-path="url(#terminal-1917653713-clip-terminal)">
    <rect fill="#373737" x="0" y="1.5" width="683.2" height="24.65" shape-rendering="crispEdges"/><rect fill="#373737" x="0" y="25.9" width="12.2" height="24.65" shape-rendering="crispEdges"/><rect fill="#373737" x="12.2" y="25.9" width="134.2" height="24.65" shape-rendering="crispEdges"/><rect fill="#373737" x="146.4" y="25.9" width="390.4" height="24.65" shape-rendering="crispEdges"/><rect fill="#373737" x="536.8" y="25.9" width="134.2" height="24.65" shape-rendering="crispEdges"/><rect fill="#373737" x="671" y="25.9" width="12.2" height="24.65" shape-rendering="crispEdges"/><rect fill="#373737" x="0" y="50.3" width="683.2" height="24.65" shape-rendering="crispEdges"/><rect fill="#373737" x="0" y="74.7" width="183" height="24.65" shape-rendering="crispEdges"/><rect fill="#373737" x="183" y="74.7" width="500.2" height="24.65" shape-rendering="crispEdges"/><rect fill="#373737" x="0" y="99.1" width="256.2" height="24.65" shape-rendering="crispEdges"/><rect fill="#373737" x="256.2" y="99.1" width="427" height="24.65" shape-rendering="crispEdges"/><rect fill="#373737" x="0" y="123.5" width="48.8" height="24.65" shape-rendering="crispEdges"/><rect fill="#373737" x="48.8" y="123.5" width="12.2" height="24.65" shape-rendering="crispEdges"/><rect fill="#373737" x="61" y="123.5" width="12.2" height="24.65" shape-rendering="crispEdges"/><rect fill="#373737" x="73.2" y="123.5" width="524.6" height="24.65" shape-rendering="crispEdges"/><rect fill="#373737" x="597.8" y="123.5" width="85.4" height="24.65" shape-rendering="crispEdges"/><rect fill="#373737" x="0" y="147.9" width="48.8" height="24.65" shape-rendering="crispEdges"/><rect fill="#373737" x="48.8" y="147.9" width="12.2" height="24.65" shape-rendering="crispEdges"/><rect fill="#373737" x="61" y="147.9" width="12.2" height="24.65" shape-rendering="crispEdges"/><rect fill="#373737" x="73.2" y="147.9" width="341.6" height="24.65" shape-rendering="crispEdges"/><rect fill="#373737" x="414.8" y="147.9" width="268.4" height="24.65" shape-rendering="crispEdges"/><rect fill="#373737" x="0" y="172.3" width="48.8" height="24.65" shape-rendering="crispEdges"/><rect fill="#373737" x="48.8" y="172.3" width="12.2" height="24.65" shape-rendering="crispEdges"/><rect fill="#373737" x="61" y="172.3" width="12.2" height="24.65" shape-rendering="crispEdges"/><rect fill="#373737" x="73.2" y="172.3" width="451.4" height="24.65" shape-rendering="crispEdges"/><rect fill="#373737" x="524.6" y="172.3" width="158.6" height="24.65" shape-rendering="crispEdges"/><rect fill="#373737" x="0" y="196.7" width="48.8" height="24.65" shape-rendering="crispEdges"/><rect fill="#373737" x="48.8" y="196.7" width="12.2" height="24.65" shape-rendering="crispEdges"/><rect fill="#373737" x="61" y="196.7" width="12.2" height="24.65" shape-rendering="crispEdges"/><rect fill="#373737" x="73.2" y="196.7" width="561.2" height="24.65" shape-rendering="crispEdges"/><rect fill="#373737" x="634.4" y="196.7" width="48.8" height="24.65" shape-rendering="crispEdges"/><rect fill="#373737" x="0" y="221.1" width="292.8" height="24.65" shape-rendering="crispEdges"/><rect fill="#373737" x="292.8" y="221.1" width="390.4" height="24.65" shape-rendering="crispEdges"/><rect fill="#373737" x="0" y="245.5" width="48.8" height="24.65" shape-rendering="crispEdges"/><rect fill="#373737" x="48.8" y="245.5" width="12.2" height="24.65" shape-rendering="crispEdges"/><rect fill="#373737" x="61" y="245.5" width="12.2" height="24.65" shape-rendering="crispEdges"/><rect fill="#373737" x="73.2" y="245.5" width="451.4" height="24.65" shape-rendering="crispEdges"/><rect fill="#373737" x="524.6" y="245.5" width="158.6" height="24.65" shape-rendering="crispEdges"/><rect fill="#373737" x="0" y="269.9" width="48.8" height="24.65" shape-rendering="crispEdges"/><rect fill="#373737" x="48.8" y="269.9" width="12.2" height="24.65" shape-rendering="crispEdges"/><rect fill="#373737" x="61" y="269.9" width="12.2" height="24.65" shape-rendering="crispEdges"/><rect fill="#373737" x="73.2" y="269.9" width="317.2" height="24.65" shape-rendering="crispEdges"/><rect fill="#373737" x="390.4" y="269.9" width="292.8" height="24.65" shape-rendering="crispEdges"/><rect fill="#373737" x="0" y="294.3" width="48.8" height="24.65" shape-rendering="crispEdges"/><rect fill="#373737" x="48.8" y="294.3" width="12.2" height="24.65" shape-rendering="crispEdges"/><rect fill="#373737" x="61" y="294.3" width="12.2" height="24.65" shape-rendering="crispEdges"/><rect fill="#373737" x="73.2" y="294.3" width="427" height="24.65" shape-rendering="crispEdges"/><rect fill="#373737" x="500.2" y="294.3" width="183" height="24.65" shape-rendering="crispEdges"/><rect fill="#373737" x="0" y="318.7" width="48.8" height="24.65" shape-rendering="crispEdges"/><rect fill="#373737" x="48.8" y="318.7" width="12.2" height="24.65" shape-rendering="crispEdges"/><rect fill="#373737" x="61" y="318.7" width="12.2" height="24.65" shape-rendering="crispEdges"/><rect fill="#373737" x="73.2" y="318.7" width="561.2" height="24.65" shape-rendering="crispEdges"/><rect fill="#373737" x="634.4" y="318.7" width="48.8" height="24.65" shape-rendering="crispEdges"/><rect fill="#373737" x="0" y="343.1" width="48.8" height="24.65" shape-rendering="crispEdges"/><rect fill="#373737" x="48.8" y="343.1" width="12.2" height="24.65" shape-rendering="crispEdges"/><rect fill="#373737" x="61" y="343.1" width="12.2" height="24.65" shape-rendering="crispEdges"/><rect fill="#373737" x="73.2" y="343.1" width="524.6" height="24.65" shape-rendering="crispEdges"/><rect fill="#373737" x="597.8" y="343.1" width="85.4" height="24.65" shape-rendering="crispEdges"/><rect fill="#373737" x="0" y="367.5" width="219.6" height="24.65" shape-rendering="crispEdges"/><rect fill="#373737" x="219.6" y="367.5" width="463.6" height="24.65" shape-rendering="crispEdges"/><rect fill="#373737" x="0" y="391.9" width="48.8" height="24.65" shape-rendering="crispEdges"/><rect fill="#373737" x="48.8" y="391.9" width="12.2" height="24.65" shape-rendering="crispEdges"/><rect fill="#373737" x="61" y="391.9" width="12.2" height="24.65" shape-rendering="crispEdges"/><rect fill="#373737" x="73.2" y="391.9" width="463.6" height="24.65" shape-rendering="crispEdges"/><rect fill="#373737" x="536.8" y="391.9" width="146.4" height="24.65" shape-rendering="crispEdges"/><rect fill="#373737" x="0" y="416.3" width="48.8" height="24.65" shape-rendering="crispEdges"/><rect fill="#373737" x="48.8" y="416.3" width="12.2" height="24.65" shape-rendering="crispEdges"/><rect fill="#373737" x="61" y="416.3" width="12.2" height="24.65" shape-rendering="crispEdges"/><rect fill="#373737" x="73.2" y="416.3" width="317.2" height="24.65" shape-rendering="crispEdges"/><rect fill="#373737" x="390.4" y="416.3" width="292.8" height="24.65" shape-rendering="crispEdges"/><rect fill="#373737" x="0" y="440.7" width="48.8" height="24.65" shape-rendering="crispEdges"/><rect fill="#373737" x="48.8" y="440.7" width="12.2" height="24.65" shape-rendering="crispEdges"/><rect fill="#373737" x="61" y="440.7" width="12.2" height="24.65" shape-rendering="crispEdges"/><rect fill="#373737" x="73.2" y="440.7" width="585.6" height="24.65" shape-rendering="crispEdges"/><rect fill="#373737" x="658.8" y="440.7" width="24.4" height="24.65" shape-rendering="crispEdges"/><rect fill="#373737" x="0" y="465.1" width="183" height="24.65" shape-rendering="crispEdges"/><rect fill="#373737" x="183" y="465.1" width="500.2" height="24.65" shape-rendering="crispEdges"/><rect fill="#373737" x="0" y="489.5" width="48.8" height="24.65" shape-rendering="crispEdges"/><rect fill="#373737" x="48.8" y="489.5" width="12.2" height="24.65" shape-rendering="crispEdges"/><rect fill="#373737" x="61" y="489.5" width="12.2" height="24.65" shape-rendering="crispEdges"/><rect fill="#373737" x="73.2" y="489.5" width="536.8" height="24.65" shape-rendering="crispEdges"/><rect fill="#373737" x="610" y="489.5" width="73.2" height="24.65" shape-rendering="crispEdges"/><rect fill="#373737" x="0" y="513.9" width="48.8" height="24.65" shape-rendering="crispEdges"/><rect fill="#373737" x="48.8" y="513.9" width="12.2" height="24.65" shape-rendering="crispEdges"/><rect fill="#373737" x="61" y="513.9" width="12.2" height="24.65" shape-rendering="crispEdges"/><rect fill="#373737" x="73.2" y="513.9" width="427" height="24.65" shape-rendering="crispEdges"/><rect fill="#373737" x="500.2" y="513.9" width="183" height="24.65" shape-rendering="crispEdges"/><rect fill="#373737" x="0" y="538.3" width="48.8" height="24.65" shape-rendering="crispEdges"/><rect fill="#373737" x="48.8" y="538.3" width="12.2" height="24.65" shape-rendering="crispEdges"/><rect fill="#373737" x="61" y="538.3" width="12.2" height="24.65" shape-rendering="crispEdges"/><rect fill="#373737" x="73.2" y="538.3" width="488" height="24.65" shape-rendering="crispEdges"/><rect fill="#373737" x="561.2" y="538.3" width="122" height="24.65" shape-rendering="crispEdges"/><rect fill="#373737" x="0" y="562.7" width="48.8" height="24.65" shape-rendering="crispEdges"/><rect fill="#373737" x="48.8" y="562.7" width="12.2" height="24.65" shape-rendering="crispEdges"/><rect fill="#373737" x="61" y="562.7" width="12.2" height="24.65" shape-rendering="crispEdges"/><rect fill="#373737" x="73.2" y="562.7" width="402.6" height="24.65" shape-rendering="crispEdges"/><rect fill="#373737" x="475.8" y="562.7" width="207.4" height="24.65" shape-rendering="crispEdges"/><rect fill="#373737" x="0" y="587.1" width="183" height="24.65" shape-rendering="crispEdges"/><rect fill="#373737" x="183" y="587.1" width="500.2" height="24.65" shape-rendering="crispEdges"/><rect fill="#373737" x="0" y="611.5" width="48.8" height="24.65" shape-rendering="crispEdges"/><rect fill="#373737" x="48.8" y="611.5" width="12.2" height="24.65" shape-rendering="crispEdges"/><rect fill="#373737" x="61" y="611.5" width="12.2" height="24.65" shape-rendering="crispEdges"/><rect fill="#373737" x="73.2" y="611.5" width="549" height="24.65" shape-rendering="crispEdges"/><rect fill="#373737" x="622.2" y="611.5" width="61" height="24.65" shape-rendering="crispEdges"/><rect fill="#373737" x="0" y="635.9" width="48.8" height="24.65" shape-rendering="crispEdges"/><rect fill="#373737" x="48.8" y="635.9" width="12.2" height="24.65" shape-rendering="crispEdges"/><rect fill="#373737" x="61" y="635.9" width="12.2" height="24.65" shape-rendering="crispEdges"/><rect fill="#373737" x="73.2" y="635.9" width="463.6" height="24.65" shape-rendering="crispEdges"/><rect fill="#373737" x="536.8" y="635.9" width="146.4" height="24.65" shape-rendering="crispEdges"/><rect fill="#373737" x="0" y="660.3" width="48.8" height="24.65" shape-rendering="crispEdges"/><rect fill="#373737" x="48.8" y="660.3" width="12.2" height="24.65" shape-rendering="crispEdges"/><rect fill="#373737" x="61" y="660.3" width="12.2" height="24.65" shape-rendering="crispEdges"/><rect fill="#373737" x="73.2" y="660.3" width="512.4" height="24.65" shape-rendering="crispEdges"/><rect fill="#373737" x="585.6" y="660.3" width="97.6" height="24.65" shape-rendering="crispEdges"/><rect fill="#373737" x="0" y="684.7" width="219.6" height="24.65" shape-rendering="crispEdges"/><rect fill="#373737" x="219.6" y="684.7" width="463.6" height="24.65" shape-rendering="crispEdges"/><rect fill="#373737" x="0" y="709.1" width="48.8" height="24.65" shape-rendering="crispEdges"/><rect fill="#373737" x="48.8" y="709.1" width="12.2" height="24.65" shape-rendering="crispEdges"/><rect fill="#373737" x="61" y="709.1" width="12.2" height="24.65" shape-rendering="crispEdges"/><rect fill="#373737" x="73.2" y="709.1" width="378.2" height="24.65" shape-rendering="crispEdges"/><rect fill="#373737" x="451.4" y="709.1" width="231.8" height="24.65" shape-rendering="crispEdges"/><rect fill="#373737" x="0" y="733.5" width="48.8" height="24.65" shape-rendering="crispEdges"/><rect fill="#373737" x="48.8" y="733.5" width="12.2" height="24.65" shape-rendering="crispEdges"/><rect fill="#373737" x="61" y="733.5" width="12.2" height="24.65" shape-rendering="crispEdges"/><rect fill="#373737" x="73.2" y="733.5" width="549" height="24.65" shape-rendering="crispEdges"/><rect fill="#373737" x="622.2" y="733.5" width="61" height="24.65" shape-rendering="crispEdges"/><rect fill="#373737" x="0" y="757.9" width="48.8" height="24.65" shape-rendering="crispEdges"/><rect fill="#373737" x="48.8" y="757.9" width="12.2" height="24.65" shape-rendering="crispEdges"/><rect fill="#373737" x="61" y="757.9" width="12.2" height="24.65" shape-rendering="crispEdges"/><rect fill="#373737" x="73.2" y="757.9" width="414.8" height="24.65" shape-rendering="crispEdges"/><rect fill="#373737" x="488" y="757.9" width="195.2" height="24.65" shape-rendering="crispEdges"/><rect fill="#373737" x="0" y="782.3" width="48.8" height="24.65" shape-rendering="crispEdges"/><rect fill="#373737" x="48.8" y="782.3" width="12.2" height="24.65" shape-rendering="crispEdges"/><rect fill="#373737" x="61" y="782.3" width="12.2" height="24.65" shape-rendering="crispEdges"/><rect fill="#373737" x="73.2" y="782.3" width="353.8" height="24.65" shape-rendering="crispEdges"/><rect fill="#373737" x="427" y="782.3" width="256.2" height="24.65" shape-rendering="crispEdges"/><rect fill="#373737" x="0" y="806.7" width="48.8" height="24.65" shape-rendering="crispEdges"/><rect fill="#373737" x="48.8" y="806.7" width="12.2" height="24.65" shape-rendering="crispEdges"/><rect fill="#373737" x="61" y="806.7" width="12.2" height="24.65" shape-rendering="crispEdges"/><rect fill="#373737" x="73.2" y="806.7" width="439.2" height="24.65" shape-rendering="crispEdges"/><rect fill="#373737" x="512.4" y="806.7" width="170.8" height="24.65" shape-rendering="crispEdges"/><rect fill="#373737" x="0" y="831.1" width="48.8" height="24.65" shape-rendering="crispEdges"/><rect fill="#373737" x="48.8" y="831.1" width="12.2" height="24.65" shape-rendering="crispEdges"/><rect fill="#373737" x="61" y="831.1" width="12.2" height="24.65" shape-rendering="crispEdges"/><rect fill="#373737" x="73.2" y="831.1" width="573.4" height="24.65" shape-rendering="crispEdges"/><rect fill="#373737" x="646.6" y="831.1" width="36.6" height="24.65" shape-rendering="crispEdges"/><rect fill="#373737" x="0" y="855.5" width="48.8" height="24.65" shape-rendering="crispEdges"/><rect fill="#373737" x="48.8" y="855.5" width="12.2" height="24.65" shape-rendering="crispEdges"/><rect fill="#373737" x="61" y="855.5" width="12.2" height="24.65" shape-rendering="crispEdges"/><rect fill="#373737" x="73.2" y="855.5" width="292.8" height="24.65" shape-rendering="crispEdges"/><rect fill="#373737" x="366" y="855.5" width="317.2" height="24.65" shape-rendering="crispEdges"/><rect fill="#373737" x="0" y="879.9" width="683.2" height="24.65" shape-rendering="crispEdges"/><rect fill="#373737" x="0" y="904.3" width="12.2" height="24.65" shape-rendering="crispEdges"/><rect fill="#373737" x="12.2" y="904.3" width="12.2" height="24.65" shape-rendering="crispEdges"/><rect fill="#373737" x="24.4" y="904.3" width="73.2" height="24.65" shape-rendering="crispEdges"/><rect fill="#373737" x="97.6" y="904.3" width="12.2" height="24.65" shape-rendering="crispEdges"/><rect fill="#373737" x="109.8" y="904.3" width="85.4" height="24.65" shape-rendering="crispEdges"/><rect fill="#373737" x="195.2" y="904.3" width="0" height="24.65" shape-rendering="crispEdges"/><rect fill="#373737" x="195.2" y="904.3" width="475.8" height="24.65" shape-rendering="crispEdges"/><rect fill="#373737" x="671" y="904.3" width="12.2" height="24.65" shape-rendering="crispEdges"/><rect fill="#373737" x="0" y="928.7" width="683.2" height="24.65" shape-rendering="crispEdges"/>
    <g class="terminal-1917653713-matrix">
    <text class="terminal-1917653713-r1" x="683.2" y="20" textLength="12.2" clip-path="url(#terminal-1917653713-line-0)">
</text><text class="terminal-1917653713-r2" x="146.4" y="44.4" textLength="390.4" clip-path="url(#terminal-1917653713-line-1)">Jot&#160;Uses&#160;-&#160;Feb&#160;2026:&#160;15.6h&#160;(1/2)</text><text class="terminal-1917653713-r1" x="683.2" y="44.4" textLength="12.2" clip-path="url(#terminal-1917653713-line-1)">
</text><text class="terminal-1917653713-r3" x="0" y="68.8" textLength="683.2" clip-path="url(#terminal-1917653713-line-2)">────────────────────────────────────────────────────────</text><text class="terminal-1917653713-r1" x="683.2" y="68.8" textLength="12.2" clip-path="url(#terminal-1917653713-line-2)">
</text><text class="terminal-1917653713-r4" x="0" y="93.2" textLength="183" clip-path="url(#terminal-1917653713-line-3)">Feb&#160;2026:&#160;15.6h</text><text class="terminal-1917653713-r1" x="683.2" y="93.2" textLength="12.2" clip-path="url(#terminal-1917653713-line-3)">
</text><text class="terminal-1917653713-r4" x="0" y="117.6" textLength="256.2" clip-path="url(#terminal-1917653713-line-4)">&#160;&#160;exercise.bike:&#160;1.6h</text><text class="terminal-1917653713-r1" x="683.2" y="117.6" textLength="12.2" clip-path="url(#terminal-1917653713-line-4)">
</text><text class="terminal-1917653713-r6" x="48.8" y="142" textLength="12.2" clip-path="url(#terminal-1917653713-line-5)">a</text><text class="terminal-1917653713-r7" x="73.2" y="142" textLength="524.6" clip-path="url(#terminal-1917653713-line-5)">14:13&#160;2&#160;&#160;&#160;&#160;&#160;&#160;Voluptatem&#160;aliquam&#160;ipsum&#160;velit</text><text class="terminal-1917653713-r1" x="683.2" y="142" textLength="12.2" clip-path="url(#terminal-1917653713-line-5)">
</text><text class="terminal-1917653713-r6" x="48.8" y="166.4" textLength="12.2" clip-path="url(#terminal-1917653713-line-6)">b</text><text class="terminal-1917653713-r7" x="73.2" y="166.4" textLength="341.6" clip-path="url(#terminal-1917653713-line-6)">11:00&#160;6&#160;&#160;&#160;&#160;&#160;&#160;Ipsum&#160;ipsum&#160;est</text><text class="terminal-1917653713-r1" x="683.2" y="166.4" textLength="12.2" clip-path="url(#terminal-1917653713-line-6)">
</text><text class="terminal-1917653713-r6" x="48.8" y="190.8" textLength="12.2" clip-path="url(#terminal-1917653713-line-7)">c</text><text class="terminal-1917653713-r8" x="73.2" y="190.8" textLength="451.4" clip-path="url(#terminal-1917653713-line-7)">11:15&#160;6&#160;1.3h&#160;Dolor&#160;dolorem&#160;labore&#160;sed</text><text class="terminal-1917653713-r1" x="683.2" y="190.8" textLength="12.2" clip-path="url(#terminal-1917653713-line-7)">
</text><text class="terminal-1917653713-r6" x="48.8" y="215.2" textLength="12.2" clip-path="url(#terminal-1917653713-line-8)">d</text><text class="terminal-1917653713-r8" x="73.2" y="215.2" textLength="561.2" clip-path="url(#terminal-1917653713-line-8)">13:15&#160;8&#160;0.3h&#160;Quaerat&#160;etincidunt&#160;quisquam&#160;dolor</text><text class="terminal-1917653713-r1" x="683.2" y="215.2" textLength="12.2" clip-path="url(#terminal-1917653713-line-8)">
</text><text class="terminal-1917653713-r4" x="0" y="239.6" textLength="292.8" clip-path="url(#terminal-1917653713-line-9)">&#160;&#160;exercise.walking:&#160;1.8h</text><text class="terminal-1917653713-r1" x="683.2" y="239.6" textLength="12.2" clip-path="url(#terminal-1917653713-line-9)">
</text><text class="terminal-1917653713-r6" x="48.8" y="264" textLength="12.2" clip-path="url(#terminal-1917653713-line-10)">e</text><text class="terminal-1917653713-r7" x="73.2" y="264" textLength="451.4" clip-path="url(#terminal-1917653713-line-10)">13:30&#160;2&#160;&#160;&#160;&#160;&#160;&#160;Magnam&#160;quaerat&#160;dolor&#160;non</text><text class="terminal-1917653713-r1" x="683.2" y="264" textLength="12.2" clip-path="url(#terminal-1917653713-line-10)">
</text><text class="terminal-1917653713-r6" x="48.8" y="288.4" textLength="12.2" clip-path="url(#terminal-1917653713-line-11)">f</text><text class="terminal-1917653713-r8" x="73.2" y="288.4" textLength="317.2" clip-path="url(#terminal-1917653713-line-11)">12:45&#160;5&#160;1.8h&#160;Porro&#160;est&#160;sit</text><text class="terminal-1917653713-r1" x="683.2" y="288.4" textLength="12.2" clip-path="url(#terminal-1917653713-line-11)">
</text><text class="terminal-1917653713-r6" x="48.8" y="312.8" textLength="12.2" clip-path="url(#terminal-1917653713-line-12)">g</text><text class="terminal-1917653713-r7" x="73.2" y="312.8" textLength="427" clip-path="url(#terminal-1917653713-line-12)">13:15&#160;5&#160;&#160;&#160;&#160;&#160;&#160;Adipisci&#160;tempora&#160;neque</text><text class="terminal-1917653713-r1" x="683.2" y="312.8" textLength="12.2" clip-path="url(#terminal-1917653713-line-12)">
</text><text class="terminal-1917653713-r6" x="48.8" y="337.2" textLength="12.2" clip-path="url(#terminal-1917653713-line-13)">h</text><text class="terminal-1917653713-r7" x="73.2" y="337.2" textLength="561.2" clip-path="url(#terminal-1917653713-line-13)">15:15&#160;5&#160;&#160;&#160;&#160;&#160;&#160;Adipisci&#160;sed&#160;voluptatem&#160;sit&#160;porro</text><text class="terminal-1917653713-r1" x="683.2" y="337.2" textLength="12.2" clip-path="url(#terminal-1917653713-line-13)">
</text><text class="terminal-1917653713-r6" x="48.8" y="361.6" textLength="12.2" clip-path="url(#terminal-1917653713-line-14)">i</text><text class="terminal-1917653713-r7" x="73.2" y="361.6" textLength="524.6" clip-path="url(#terminal-1917653713-line-14)">15:30&#160;5&#160;&#160;&#160;&#160;&#160;&#160;Dolorem&#160;sit&#160;dolore&#160;non&#160;dolorem</text><text class="terminal-1917653713-r1" x="683.2" y="361.6" textLength="12.2" clip-path="url(#terminal-1917653713-line-14)">
</text><text class="terminal-1917653713-r4" x="0" y="386" textLength="219.6" clip-path="url(#terminal-1917653713-line-15)">&#160;&#160;meditation:&#160;1.0h</text><text class="terminal-1917653713-r1" x="683.2" y="386" textLength="12.2" clip-path="url(#terminal-1917653713-line-15)">
</text><text class="terminal-1917653713-r6" x="48.8" y="410.4" textLength="12.2" clip-path="url(#terminal-1917653713-line-16)">j</text><text class="terminal-1917653713-r8" x="73.2" y="410.4" textLength="463.6" clip-path="url(#terminal-1917653713-line-16)">14:13&#160;2&#160;0.5h&#160;Quaerat&#160;numquam&#160;eius&#160;amet</text><text class="terminal-1917653713-r1" x="683.2" y="410.4" textLength="12.2" clip-path="url(#terminal-1917653713-line-16)">
</text><text class="terminal-1917653713-r6" x="48.8" y="434.8" textLength="12.2" clip-path="url(#terminal-1917653713-line-17)">k</text><text class="terminal-1917653713-r7" x="73.2" y="434.8" textLength="317.2" clip-path="url(#terminal-1917653713-line-17)">12:30&#160;5&#160;&#160;&#160;&#160;&#160;&#160;Porro&#160;est&#160;sed</text><text class="terminal-1917653713-r1" x="683.2" y="434.8" textLength="12.2" clip-path="url(#terminal-1917653713-line-17)">
</text><text class="terminal-1917653713-r6" x="48.8" y="459.2" textLength="12.2" clip-path="url(#terminal-1917653713-line-18)">l</text><text class="terminal-1917653713-r8" x="73.2" y="459.2" textLength="585.6" clip-path="url(#terminal-1917653713-line-18)">14:34&#160;9&#160;0.5h&#160;Dolorem&#160;quaerat&#160;quaerat&#160;consectetur</text><text class="terminal-1917653713-r1" x="683.2" y="459.2" textLength="12.2" clip-path="url(#terminal-1917653713-line-18)">
</text><text class="terminal-1917653713-r4" x="0" y="483.6" textLength="183" clip-path="url(#terminal-1917653713-line-19)">&#160;&#160;reading:&#160;1.8h</text><text class="terminal-1917653713-r1" x="683.2" y="483.6" textLength="12.2" clip-path="url(#terminal-1917653713-line-19)">
</text><text class="terminal-1917653713-r6" x="48.8" y="508" textLength="12.2" clip-path="url(#terminal-1917653713-line-20)">m</text><text class="terminal-1917653713-r8" x="73.2" y="508" textLength="536.8" clip-path="url(#terminal-1917653713-line-20)">09:00&#160;4&#160;0.3h&#160;Aliquam&#160;eius&#160;quiquia&#160;magnam&#160;non</text><text class="terminal-1917653713-r1" x="683.2" y="508" textLength="12.2" clip-path="url(#terminal-1917653713-line-20)">
</text><text class="terminal-1917653713-r6" x="48.8" y="532.4" textLength="12.2" clip-path="url(#terminal-1917653713-line-21)">n</text><text class="terminal-1917653713-r8" x="73.2" y="532.4" textLength="427" clip-path="url(#terminal-1917653713-line-21)">12:00&#160;4&#160;1.5h&#160;Quisquam&#160;ipsum&#160;numquam</text><text class="terminal-1917653713-r1" x="683.2" y="532.4" textLength="12.2" clip-path="url(#terminal-1917653713-line-21)">
</text><text class="terminal-1917653713-r6" x="48.8" y="556.8" textLength="12.2" clip-path="url(#terminal-1917653713-line-22)">o</text><text class="terminal-1917653713-r7" x="73.2" y="556.8" textLength="488" clip-path="url(#terminal-1917653713-line-22)">11:00&#160;6&#160;&#160;&#160;&#160;&#160;&#160;Labore&#160;eius&#160;quaerat&#160;aliquam</text><text class="terminal-1917653713-r1" x="683.2" y="556.8" textLength="12.2" clip-path="url(#terminal-1917653713-line-22)">
</text><text class="terminal-1917653713-r6" x="48.8" y="581.2" textLength="12.2" clip-path="url(#terminal-1917653713-line-23)">p</text><text class="terminal-1917653713-r7" x="73.2" y="581.2" textLength="402.6" clip-path="url(#terminal-1917653713-line-23)">12:15&#160;7&#160;&#160;&#160;&#160;&#160;&#160;Neque&#160;est&#160;voluptatem</text><text class="terminal-1917653713-r1" x="683.2" y="581.2" textLength="12.2" clip-path="url(#terminal-1917653713-line-23)">
</text><text class="terminal-1917653713-r4" x="0" y="605.6" textLength="183" clip-path="url(#terminal-1917653713-line-24)">&#160;&#160;writing:&#160;1.3h</text><text class="terminal-1917653713-r1" x="683.2" y="605.6" textLength="12.2" clip-path="url(#terminal-1917653713-line-24)">
</text><text class="terminal-1917653713-r6" x="48.8" y="630" textLength="12.2" clip-path="url(#terminal-1917653713-line-25)">q</text><text class="terminal-1917653713-r8" x="73.2" y="630" textLength="549" clip-path="url(#terminal-1917653713-line-25)">10:45&#160;1&#160;0.5h&#160;Est&#160;quisquam&#160;magnam&#160;dolorem&#160;amet</text><text class="terminal-1917653713-r1" x="683.2" y="630" textLength="12.2" clip-path="url(#terminal-1917653713-line-25)">
</text><text class="terminal-1917653713-r6" x="48.8" y="654.4" textLength="12.2" clip-path="url(#terminal-1917653713-line-26)">r</text><text class="terminal-1917653713-r8" x="73.2" y="654.4" textLength="463.6" clip-path="url(#terminal-1917653713-line-26)">10:45&#160;2&#160;0.8h&#160;Sed&#160;quaerat&#160;velit&#160;aliquam</text><text class="terminal-1917653713-r1" x="683.2" y="654.4" textLength="12.2" clip-path="url(#terminal-1917653713-line-26)">
</text><text class="terminal-1917653713-r6" x="48.8" y="678.8" textLength="12.2" clip-path="url(#terminal-1917653713-line-27)">s</text><text class="terminal-1917653713-r7" x="73.2" y="678.8" textLength="512.4" clip-path="url(#terminal-1917653713-line-27)">15:04&#160;9&#160;&#160;&#160;&#160;&#160;&#160;Magnam&#160;consectetur&#160;neque&#160;modi</text><text class="terminal-1917653713-r1" x="683.2" y="678.8" textLength="12.2" clip-path="url(#terminal-1917653713-line-27)">
</text><text class="terminal-1917653713-r4" x="0" y="703.2" textLength="219.6" clip-path="url(#terminal-1917653713-line-28)">&#160;&#160;unassigned:&#160;8.1h</text><text class="terminal-1917653713-r1" x="683.2" y="703.2" textLength="12.2" clip-path="url(#terminal-1917653713-line-28)">
</text><text class="terminal-1917653713-r6" x="48.8" y="727.6" textLength="12.2" clip-path="url(#terminal-1917653713-line-29)">t</text><text class="terminal-1917653713-r9" x="73.2" y="727.6" textLength="378.2" clip-path="url(#terminal-1917653713-line-29)">15:45&#160;1&#160;0.5h&#160;Neque&#160;sed&#160;adipisci</text><text class="terminal-1917653713-r1" x="683.2" y="727.6" textLength="12.2" clip-path="url(#terminal-1917653713-line-29)">
</text><text class="terminal-1917653713-r6" x="48.8" y="752" textLength="12.2" clip-path="url(#terminal-1917653713-line-30)">u</text><text class="terminal-1917653713-r9" x="73.2" y="752" textLength="549" clip-path="url(#terminal-1917653713-line-30)">11:45&#160;2&#160;1.8h&#160;Dolor&#160;quiquia&#160;sit&#160;etincidunt&#160;non</text><text class="terminal-1917653713-r1" x="683.2" y="752" textLength="12.2" clip-path="url(#terminal-1917653713-line-30)">
</text><text class="terminal-1917653713-r6" x="48.8" y="776.4" textLength="12.2" clip-path="url(#terminal-1917653713-line-31)">v</text><text class="terminal-1917653713-r9" x="73.2" y="776.4" textLength="414.8" clip-path="url(#terminal-1917653713-line-31)">12:30&#160;2&#160;1.0h&#160;Dolor&#160;aliquam&#160;numquam</text><text class="terminal-1917653713-r1" x="683.2" y="776.4" textLength="12.2" clip-path="url(#terminal-1917653713-line-31)">
</text><text class="terminal-1917653713-r6" x="48.8" y="800.8" textLength="12.2" clip-path="url(#terminal-1917653713-line-32)">w</text><text class="terminal-1917653713-r9" x="73.2" y="800.8" textLength="353.8" clip-path="url(#terminal-1917653713-line-32)">12:30&#160;2&#160;1.5h&#160;Tempora&#160;eius&#160;sit</text><text class="terminal-1917653713-r1" x="683.2" y="800.8" textLength="12.2" clip-path="url(#terminal-1917653713-line-32)">
</text><text class="terminal-1917653713-r6" x="48.8" y="825.2" textLength="12.2" clip-path="url(#terminal-1917653713-line-33)">x</text><text class="terminal-1917653713-r9" x="73.2" y="825.2" textLength="439.2" clip-path="url(#terminal-1917653713-line-33)">14:13&#160;2&#160;1.1h&#160;Modi&#160;ut&#160;etincidunt&#160;eius</text><text class="terminal-1917653713-r1" x="683.2" y="825.2" textLength="12.2" clip-path="url(#terminal-1917653713-line-33)">
</text><text class="terminal-1917653713-r6" x="48.8" y="849.6" textLength="12.2" clip-path="url(#terminal-1917653713-line-34)">y</text><text class="terminal-1917653713-r10" x="73.2" y="849.6" textLength="573.4" clip-path="url(#terminal-1917653713-line-34)">14:13&#160;2&#160;&#160;&#160;&#160;&#160;&#160;Dolor&#160;quisquam&#160;tempora&#160;dolor&#160;ipsum</text><text class="terminal-1917653713-r1" x="683.2" y="849.6" textLength="12.2" clip-path="url(#terminal-1917653713-line-34)">
</text><text class="terminal-1917653713-r6" x="48.8" y="874" textLength="12.2" clip-path="url(#terminal-1917653713-line-35)">z</text><text class="terminal-1917653713-r10" x="73.2" y="874" textLength="292.8" clip-path="url(#terminal-1917653713-line-35)">14:45&#160;2&#160;&#160;&#160;&#160;&#160;&#160;Sed&#160;sed&#160;est</text><text class="terminal-1917653713-r1" x="683.2" y="874" textLength="12.2" clip-path="url(#terminal-1917653713-line-35)">
</text><text class="terminal-1917653713-r3" x="0" y="898.4" textLength="683.2" clip-path="url(#terminal-1917653713-line-36)">────────────────────────────────────────────────────────</text><text class="terminal-1917653713-r1" x="683.2" y="898.4" textLength="12.2" clip-path="url(#terminal-1917653713-line-36)">
</text><text class="terminal-1917653713-r11" x="12.2" y="922.8" textLength="12.2" clip-path="url(#terminal-1917653713-line-37)">?</text><text class="terminal-1917653713-r2" x="24.4" y="922.8" textLength="73.2" clip-path="url(#terminal-1917653713-line-37)">&#160;Help&#160;</text><text class="terminal-1917653713-r11" x="97.6" y="922.8" textLength="12.2" clip-path="url(#terminal-1917653713-line-37)">/</text><text class="terminal-1917653713-r2" x="109.8" y="922.8" textLength="85.4" clip-path="url(#terminal-1917653713-line-37)">&#160;Search</text><text class="terminal-1917653713-r1" x="683.2" y="922.8" textLength="12.2" clip-path="url(#terminal-1917653713-line-37)">
</text>
    </g>
    </g>
</svg>
