<svg class="rich-terminal" viewBox="0 0 702 952.8" xmlns="http://www.w3.org/2000/svg">
    <!-- Generated with Rich https://www.textualize.io -->
    <style>

    @font-face {
        font-family: "Fira Code";
        src: local("FiraCode-Regular"),
                url("https://cdnjs.cloudflare.com/ajax/libs/firacode/6.2.0/woff2/FiraCode-Regular.woff2") format("woff2"),
                url("https://cdnjs.cloudflare.com/ajax/libs/firacode/6.2.0/woff/FiraCode-Regular.woff") format("woff");
        font-style: normal;
        font-weight: 400;
    }
    @font-face {
        font-family: "Fira Code";
        src: local("FiraCode-Bold"),
                url("https://cdnjs.cloudflare.com/ajax/libs/firacode/6.2.0/woff2/FiraCode-Bold.woff2") format("woff2"),
                url("https://cdnjs.cloudflare.com/ajax/libs/firacode/6.2.0/woff/FiraCode-Bold.woff") format("woff");
        font-style: bold;
        font-weight: 700;
    }

    .terminal-70780204-matrix {
        font-family: Fira Code, monospace;
        font-size: 20px;
        line-height: 24.4px;
        font-variant-east-asian: full-width;
    }

    .terminal-70780204-title {
        font-size: 18px;
        font-weight: bold;
        font-family: arial;
    }

    .terminal-70780204-r1 { fill: #c5c8c6 }
.terminal-70780204-r2 { fill: #ffffff;font-weight: bold }
.terminal-70780204-r3 { fill: #7f7f7f }
.terminal-70780204-r4 { fill: #000000 }
.terminal-70780204-r5 { fill: #373737 }
.terminal-70780204-r6 { fill: #fdfdfd }
.terminal-70780204-r7 { fill: #000080 }
.terminal-70780204-r8 { fill: #00008b }
.terminal-70780204-r9 { fill: #0000cd }
.terminal-70780204-r10 { fill: #0000ff }
.terminal-70780204-r11 { fill: #006400 }
.terminal-70780204-r12 { fill: #008000 }
.terminal-70780204-r13 { fill: #008080 }
.terminal-70780204-r14 { fill: #e0e0e0 }
.terminal-70780204-r15 { fill: #008b8b }
.terminal-70780204-r16 { fill: #00bfff }
.terminal-70780204-r17 { fill: #00ced1 }
.terminal-70780204-r18 { fill: #00fa9a }
.terminal-70780204-r19 { fill: #00ff00 }
.terminal-70780204-r20 { fill: #00ff7f }
.terminal-70780204-r21 { fill: #00ffff }
.terminal-70780204-r22 { fill: #191970 }
.terminal-70780204-r23 { fill: #1e90ff }
.terminal-70780204-r24 { fill: #20b2aa }
.terminal-70780204-r25 { fill: #228b22 }
.terminal-70780204-r26 { fill: #2e8b57 }
.terminal-70780204-r27 { fill: #2f4f4f }
.terminal-70780204-r28 { fill: #32cd32 }
.terminal-70780204-r29 { fill: #3cb371 }
.terminal-70780204-r30 { fill: #40e0d0 }
.terminal-70780204-r31 { fill: #4169e1 }
.terminal-70780204-r32 { fill: #4682b4 }
.terminal-70780204-r33 { fill: #483d8b }
.terminal-70780204-r34 { fill: #48d1cc }
.terminal-70780204-r35 { fill: #003054 }
.terminal-70780204-r36 { fill: #ff8c00;font-weight: bold }
    </style>

    <defs>
    <clipPath id="terminal-70780204-clip-terminal">
      <rect x="0" y="0" width="682.1999999999999" height="901.8" />
    </clipPath>
    <clipPath id="terminal-70780204-line-0">
    <rect x="0" y="1.5" width="683.2" height="24.65"/>
            </clipPath>
<clipPath id="terminal-70780204-line-1">
    <rect x="0" y="25.9" width="683.2" height="24.65"/>
            </clipPath>
<clipPath id="terminal-70780204-line-2">
    <rect x="0" y="50.3" width="683.2" height="24.65"/>
            </clipPath>
<clipPath id="terminal-70780204-line-3">
    <rect x="0" y="74.7" width="683.2" height="24.65"/>
            </clipPath>
<clipPath id="terminal-70780204-line-4">
    <rect x="0" y="99.1" width="683.2" height="24.65"/>
            </clipPath>
<clipPath id="terminal-70780204-line-5">
    <rect x="0" y="123.5" width="683.2" height="24.65"/>
            </clipPath>
<clipPath id="terminal-70780204-line-6">
    <rect x="0" y="147.9" width="683.2" height="24.65"/>
            </clipPath>
<clipPath id="terminal-70780204-line-7">
    <rect x="0" y="172.3" width="683.2" height="24.65"/>
            </clipPath>
<clipPath id="terminal-70780204-line-8">
    <rect x="0" y="196.7" width="683.2" height="24.65"/>
            </clipPath>
<clipPath id="terminal-70780204-line-9">
    <rect x="0" y="221.1" width="683.2" height="24.65"/>
            </clipPath>
<clipPath id="terminal-70780204-line-10">
    <rect x="0" y="245.5" width="683.2" height="24.65"/>
            </clipPath>
<clipPath id="terminal-70780204-line-11">
    <rect x="0" y="269.9" width="683.2" height="24.65"/>
            </clipPath>
<clipPath id="terminal-70780204-line-12">
    <rect x="0" y="294.3" width="683.2" height="24.65"/>
            </clipPath>
<clipPath id="terminal-70780204-line-13">
    <rect x="0" y="318.7" width="683.2" height="24.65"/>
            </clipPath>
<clipPath id="terminal-70780204-line-14">
    <rect x="0" y="343.1" width="683.2" height="24.65"/>
            </clipPath>
<clipPath id="terminal-70780204-line-15">
    <rect x="0" y="367.5" width="683.2" height="24.65"/>
            </clipPath>
<clipPath id="terminal-70780204-line-16">
    <rect x="0" y="391.9" width="683.2" height="24.65"/>
            </clipPath>
<clipPath id="terminal-70780204-line-17">
    <rect x="0" y="416.3" width="683.2" height="24.65"/>
            </clipPath>
<clipPath id="terminal-70780204-line-18">
    <rect x="0" y="440.7" width="683.2" height="24.65"/>
            </clipPath>
<clipPath id="terminal-70780204-line-19">
    <rect x="0" y="465.1" width="683.2" height="24.65"/>
            </clipPath>
<clipPath id="terminal-70780204-line-20">
    <rect x="0" y="489.5" width="683.2" height="24.65"/>
            </clipPath>
<clipPath id="terminal-70780204-line-21">
    <rect x="0" y="513.9" width="683.2" height="24.65"/>
            </clipPath>
<clipPath id="terminal-70780204-line-22">
    <rect x="0" y="538.3" width="683.2" height="24.65"/>
            </clipPath>
<clipPath id="terminal-70780204-line-23">
    <rect x="0" y="562.7" width="683.2" height="24.65"/>
            </clipPath>
<clipPath id="terminal-70780204-line-24">
    <rect x="0" y="587.1" width="683.2" height="24.65"/>
            </clipPath>
<clipPath id="terminal-70780204-line-25">
    <rect x="0" y="611.5" width="683.2" height="24.65"/>
            </clipPath>
<clipPath id="terminal-70780204-line-26">
    <rect x="0" y="635.9" width="683.2" height="24.65"/>
            </clipPath>
<clipPath id="terminal-70780204-line-27">
    <rect x="0" y="660.3" width="683.2" height="24.65"/>
            </clipPath>
<clipPath id="terminal-70780204-line-28">
    <rect x="0" y="684.7" width="683.2" height="24.65"/>
            </clipPath>
<clipPath id="terminal-70780204-line-29">
    <rect x="0" y="709.1" width="683.2" height="24.65"/>
            </clipPath>
<clipPath id="terminal-70780204-line-30">
    <rect x="0" y="733.5" width="683.2" height="24.65"/>
            </clipPath>
<clipPath id="terminal-70780204-line-31">
    <rect x="0" y="757.9" width="683.2" height="24.65"/>
            </clipPath>
<clipPath id="terminal-70780204-line-32">
    <rect x="0" y="782.3" width="683.2" height="24.65"/>
            </clipPath>
<clipPath id="terminal-70780204-line-33">
    <rect x="0" y="806.7" width="683.2" height="24.65"/>
            </clipPath>
<clipPath id="terminal-70780204-line-34">
    <rect x="0" y="831.1" width="683.2" height="24.65"/>
            </clipPath>
<clipPath id="terminal-70780204-line-35">
    <rect x="0" y="855.5" width="683.2" height="24.65"/>
            </clipPath>
    </defs>

    <rect fill="#292929" stroke="rgba(255,255,255,0.35)" stroke-width="1" x="1" y="1" width="700" height="950.8" rx="8"/>
            <g transform="translate(26,22)">
            <circle cx="0" cy="0" r="7" fill="#ff5f57"/>
            <circle cx="22" cy="0" r="7" fill="#febc2e"/>
            <circle cx="44" cy="0" r="7" fill="#28c840"/>
            </g>

    <g transform="translate(9, 41)" clip-path="url(#terminal-70780204-clip-terminal)">
    <rect fill="#373737" x="0" y="1.5" width="683.2" height="24.65" shape-rendering="crispEdges"/><rect fill="#373737" x="0" y="25.9" width="12.2" height="24.65" shape-rendering="crispEdges"/><rect fill="#373737" x="12.2" y="25.9" width="256.2" height="24.65" shape-rendering="crispEdges"/><rect fill="#373737" x="268.4" y="25.9" width="146.4" height="24.65" shape-rendering="crispEdges"/><rect fill="#373737" x="414.8" y="25.9" width="256.2" height="24.65" shape-rendering="crispEdges"/><rect fill="#373737" x="671" y="25.9" width="12.2" height="24.65" shape-rendering="crispEdges"/><rect fill="#373737" x="0" y="50.3" width="683.2" height="24.65" shape-rendering="crispEdges"/><rect fill="#373737" x="0" y="74.7" width="158.6" height="24.65" shape-rendering="crispEdges"/><rect fill="#373737" x="158.6" y="74.7" width="158.6" height="24.65" shape-rendering="crispEdges"/><rect fill="#003054" x="317.2" y="74.7" width="24.4" height="24.65" shape-rendering="crispEdges"/><rect fill="#fdfdfd" x="341.6" y="74.7" width="158.6" height="24.65" shape-rendering="crispEdges"/><rect fill="#fdfdfd" x="500.2" y="74.7" width="158.6" height="24.65" shape-rendering="crispEdges"/><rect fill="#003054" x="658.8" y="74.7" width="24.4" height="24.65" shape-rendering="crispEdges"/><rect fill="#373737" x="0" y="99.1" width="146.4" height="24.65" shape-rendering="crispEdges"/><rect fill="#373737" x="146.4" y="99.1" width="170.8" height="24.65" shape-rendering="crispEdges"/><rect fill="#003054" x="317.2" y="99.1" width="24.4" height="24.65" shape-rendering="crispEdges"/><rect fill="#fdfdfd" x="341.6" y="99.1" width="146.4" height="24.65" shape-rendering="crispEdges"/><rect fill="#fdfdfd" x="488" y="99.1" width="170.8" height="24.65" shape-rendering="crispEdges"/><rect fill="#003054" x="658.8" y="99.1" width="24.4" height="24.65" shape-rendering="crispEdges"/><rect fill="#373737" x="0" y="123.5" width="195.2" height="24.65" shape-rendering="crispEdges"/><rect fill="#373737" x="195.2" y="123.5" width="122" height="24.65" shape-rendering="crispEdges"/><rect fill="#003054" x="317.2" y="123.5" width="24.4" height="24.65" shape-rendering="crispEdges"/><rect fill="#fdfdfd" x="341.6" y="123.5" width="195.2" height="24.65" shape-rendering="crispEdges"/><rect fill="#fdfdfd" x="536.8" y="123.5" width="122" height="24.65" shape-rendering="crispEdges"/><rect fill="#003054" x="658.8" y="123.5" width="24.4" height="24.65" shape-rendering="crispEdges"/><rect fill="#373737" x="0" y="147.9" width="219.6" height="24.65" shape-rendering="crispEdges"/><rect fill="#373737" x="219.6" y="147.9" width="97.6" height="24.65" shape-rendering="crispEdges"/><rect fill="#003054" x="317.2" y="147.9" width="24.4" height="24.65" shape-rendering="crispEdges"/><rect fill="#fdfdfd" x="341.6" y="147.9" width="219.6" height="24.65" shape-rendering="crispEdges"/><rect fill="#fdfdfd" x="561.2" y="147.9" width="97.6" height="24.65" shape-rendering="crispEdges"/><rect fill="#003054" x="658.8" y="147.9" width="24.4" height="24.65" shape-rendering="crispEdges"/><rect fill="#373737" x="0" y="172.3" width="146.4" height="24.65" shape-rendering="crispEdges"/><rect fill="#373737" x="146.4" y="172.3" width="170.8" height="24.65" shape-rendering="crispEdges"/><rect fill="#003054" x="317.2" y="172.3" width="24.4" height="24.65" shape-rendering="crispEdges"/><rect fill="#fdfdfd" x="341.6" y="172.3" width="146.4" height="24.65" shape-rendering="crispEdges"/><rect fill="#fdfdfd" x="488" y="172.3" width="170.8" height="24.65" shape-rendering="crispEdges"/><rect fill="#003054" x="658.8" y="172.3" width="24.4" height="24.65" shape-rendering="crispEdges"/><rect fill="#373737" x="0" y="196.7" width="207.4" height="24.65" shape-rendering="crispEdges"/><rect fill="#373737" x="207.4" y="196.7" width="109.8" height="24.65" shape-rendering="crispEdges"/><rect fill="#003054" x="317.2" y="196.7" width="24.4" height="24.65" shape-rendering="crispEdges"/><rect fill="#fdfdfd" x="341.6" y="196.7" width="207.4" height="24.65" shape-rendering="crispEdges"/><rect fill="#fdfdfd" x="549" y="196.7" width="109.8" height="24.65" shape-rendering="crispEdges"/><rect fill="#003054" x="658.8" y="196.7" width="24.4" height="24.65" shape-rendering="crispEdges"/><rect fill="#373737" x="0" y="221.1" width="158.6" height="24.65" shape-rendering="crispEdges"/><rect fill="#373737" x="158.6" y="221.1" width="158.6" height="24.65" shape-rendering="crispEdges"/><rect fill="#003054" x="317.2" y="221.1" width="24.4" height="24.65" shape-rendering="crispEdges"/><rect fill="#fdfdfd" x="341.6" y="221.1" width="158.6" height="24.65" shape-rendering="crispEdges"/><rect fill="#fdfdfd" x="500.2" y="221.1" width="158.6" height="24.65" shape-rendering="crispEdges"/><rect fill="#003054" x="658.8" y="221.1" width="24.4" height="24.65" shape-rendering="crispEdges"/><rect fill="#373737" x="0" y="245.5" width="146.4" height="24.65" shape-rendering="crispEdges"/><rect fill="#373737" x="146.4" y="245.5" width="170.8" height="24.65" shape-rendering="crispEdges"/><rect fill="#000000" x="317.2" y="245.5" width="24.4" height="24.65" shape-rendering="crispEdges"/><rect fill="#fdfdfd" x="341.6" y="245.5" width="146.4" height="24.65" shape-rendering="crispEdges"/><rect fill="#fdfdfd" x="488" y="245.5" width="170.8" height="24.65" shape-rendering="crispEdges"/><rect fill="#000000" x="658.8" y="245.5" width="24.4" height="24.65" shape-rendering="crispEdges"/><rect fill="#373737" x="0" y="269.9" width="195.2" height="24.65" shape-rendering="crispEdges"/><rect fill="#373737" x="195.2" y="269.9" width="122" height="24.65" shape-rendering="crispEdges"/><rect fill="#000000" x="317.2" y="269.9" width="24.4" height="24.65" shape-rendering="crispEdges"/><rect fill="#fdfdfd" x="341.6" y="269.9" width="195.2" height="24.65" shape-rendering="crispEdges"/><rect fill="#fdfdfd" x="536.8" y="269.9" width="122" height="24.65" shape-rendering="crispEdges"/><rect fill="#000000" x="658.8" y="269.9" width="24.4" height="24.65" shape-rendering="crispEdges"/><rect fill="#373737" x="0" y="294.3" width="231.8" height="24.65" shape-rendering="crispEdges"/><rect fill="#373737" x="231.8" y="294.3" width="85.4" height="24.65" shape-rendering="crispEdges"/><rect fill="#000000" x="317.2" y="294.3" width="24.4" height="24.65" shape-rendering="crispEdges"/><rect fill="#fdfdfd" x="341.6" y="294.3" width="231.8" height="24.65" shape-rendering="crispEdges"/><rect fill="#fdfdfd" x="573.4" y="294.3" width="85.4" height="24.65" shape-rendering="crispEdges"/><rect fill="#000000" x="658.8" y="294.3" width="24.4" height="24.65" shape-rendering="crispEdges"/><rect fill="#373737" x="0" y="318.7" width="256.2" height="24.65" shape-rendering="crispEdges"/><rect fill="#373737" x="256.2" y="318.7" width="61" height="24.65" shape-rendering="crispEdges"/><rect fill="#000000" x="317.2" y="318.7" width="24.4" height="24.65" shape-rendering="crispEdges"/><rect fill="#fdfdfd" x="341.6" y="318.7" width="256.2" height="24.65" shape-rendering="crispEdges"/><rect fill="#fdfdfd" x="597.8" y="318.7" width="61" height="24.65" shape-rendering="crispEdges"/><rect fill="#000000" x="658.8" y="318.7" width="24.4" height="24.65" shape-rendering="crispEdges"/><rect fill="#373737" x="0" y="343.1" width="305" height="24.65" shape-rendering="crispEdges"/><rect fill="#373737" x="305" y="343.1" width="12.2" height="24.65" shape-rendering="crispEdges"/><rect fill="#000000" x="317.2" y="343.1" width="24.4" height="24.65" shape-rendering="crispEdges"/><rect fill="#fdfdfd" x="341.6" y="343.1" width="305" height="24.65" shape-rendering="crispEdges"/><rect fill="#fdfdfd" x="646.6" y="343.1" width="12.2" height="24.65" shape-rendering="crispEdges"/><rect fill="#000000" x="658.8" y="343.1" width="24.4" height="24.65" shape-rendering="crispEdges"/><rect fill="#373737" x="0" y="367.5" width="146.4" height="24.65" shape-rendering="crispEdges"/><rect fill="#373737" x="146.4" y="367.5" width="170.8" height="24.65" shape-rendering="crispEdges"/><rect fill="#000000" x="317.2" y="367.5" width="24.4" height="24.65" shape-rendering="crispEdges"/><rect fill="#fdfdfd" x="341.6" y="367.5" width="146.4" height="24.65" shape-rendering="crispEdges"/><rect fill="#fdfdfd" x="488" y="367.5" width="170.8" height="24.65" shape-rendering="crispEdges"/><rect fill="#000000" x="658.8" y="367.5" width="24.4" height="24.65" shape-rendering="crispEdges"/><rect fill="#373737" x="0" y="391.9" width="231.8" height="24.65" shape-rendering="crispEdges"/><rect fill="#373737" x="231.8" y="391.9" width="85.4" height="24.65" shape-rendering="crispEdges"/><rect fill="#000000" x="317.2" y="391.9" width="24.4" height="24.65" shape-rendering="crispEdges"/><rect fill="#fdfdfd" x="341.6" y="391.9" width="231.8" height="24.65" shape-rendering="crispEdges"/><rect fill="#fdfdfd" x="573.4" y="391.9" width="85.4" height="24.65" shape-rendering="crispEdges"/><rect fill="#000000" x="658.8" y="391.9" width="24.4" height="24.65" shape-rendering="crispEdges"/><rect fill="#373737" x="0" y="416.3" width="146.4" height="24.65" shape-rendering="crispEdges"/><rect fill="#373737" x="146.4" y="416.3" width="170.8" height="24.65" shape-rendering="crispEdges"/><rect fill="#000000" x="317.2" y="416.3" width="24.4" height="24.65" shape-rendering="crispEdges"/><rect fill="#fdfdfd" x="341.6" y="416.3" width="146.4" height="24.65" shape-rendering="crispEdges"/><rect fill="#fdfdfd" x="488" y="416.3" width="170.8" height="24.65" shape-rendering="crispEdges"/><rect fill="#000000" x="658.8" y="416.3" width="24.4" height="24.65" shape-rendering="crispEdges"/><rect fill="#373737" x="0" y="440.7" width="146.4" height="24.65" shape-rendering="crispEdges"/><rect fill="#373737" x="146.4" y="440.7" width="170.8" height="24.65" shape-rendering="crispEdges"/><rect fill="#000000" x="317.2" y="440.7" width="24.4" height="24.65" shape-rendering="crispEdges"/><rect fill="#fdfdfd" x="341.6" y="440.7" width="146.4" height="24.65" shape-rendering="crispEdges"/><rect fill="#fdfdfd" x="488" y="440.7" width="170.8" height="24.65" shape-rendering="crispEdges"/><rect fill="#000000" x="658.8" y="440.7" width="24.4" height="24.65" shape-rendering="crispEdges"/><rect fill="#373737" x="0" y="465.1" width="244" height="24.65" shape-rendering="crispEdges"/><rect fill="#373737" x="244" y="465.1" width="73.2" height="24.65" shape-rendering="crispEdges"/><rect fill="#000000" x="317.2" y="465.1" width="24.4" height="24.65" shape-rendering="crispEdges"/><rect fill="#fdfdfd" x="341.6" y="465.1" width="244" height="24.65" shape-rendering="crispEdges"/><rect fill="#fdfdfd" x="585.6" y="465.1" width="73.2" height="24.65" shape-rendering="crispEdges"/><rect fill="#000000" x="658.8" y="465.1" width="24.4" height="24.65" shape-rendering="crispEdges"/><rect fill="#373737" x="0" y="489.5" width="219.6" height="24.65" shape-rendering="crispEdges"/><rect fill="#373737" x="219.6" y="489.5" width="97.6" height="24.65" shape-rendering="crispEdges"/><rect fill="#000000" x="317.2" y="489.5" width="24.4" height="24.65" shape-rendering="crispEdges"/><rect fill="#fdfdfd" x="341.6" y="489.5" width="219.6" height="24.65" shape-rendering="crispEdges"/><rect fill="#fdfdfd" x="561.2" y="489.5" width="97.6" height="24.65" shape-rendering="crispEdges"/><rect fill="#000000" x="658.8" y="489.5" width="24.4" height="24.65" shape-rendering="crispEdges"/><rect fill="#373737" x="0" y="513.9" width="256.2" height="24.65" shape-rendering="crispEdges"/><rect fill="#373737" x="256.2" y="513.9" width="61" height="24.65" shape-rendering="crispEdges"/><rect fill="#000000" x="317.2" y="513.9" width="24.4" height="24.65" shape-rendering="crispEdges"/><rect fill="#fdfdfd" x="341.6" y="513.9" width="256.2" height="24.65" shape-rendering="crispEdges"/><rect fill="#fdfdfd" x="597.8" y="513.9" width="61" height="24.65" shape-rendering="crispEdges"/><rect fill="#000000" x="658.8" y="513.9" width="24.4" height="24.65" shape-rendering="crispEdges"/><rect fill="#373737" x="0" y="538.3" width="231.8" height="24.65" shape-rendering="crispEdges"/><rect fill="#373737" x="231.8" y="538.3" width="85.4" height="24.65" shape-rendering="crispEdges"/><rect fill="#000000" x="317.2" y="538.3" width="24.4" height="24.65" shape-rendering="crispEdges"/><rect fill="#fdfdfd" x="341.6" y="538.3" width="231.8" height="24.65" shape-rendering="crispEdges"/><rect fill="#fdfdfd" x="573.4" y="538.3" width="85.4" height="24.65" shape-rendering="crispEdges"/><rect fill="#000000" x="658.8" y="538.3" width="24.4" height="24.65" shape-rendering="crispEdges"/><rect fill="#373737" x="0" y="562.7" width="195.2" height="24.65" shape-rendering="crispEdges"/><rect fill="#373737" x="195.2" y="562.7" width="122" height="24.65" shape-rendering="crispEdges"/><rect fill="#000000" x="317.2" y="562.7" width="24.4" height="24.65" shape-rendering="crispEdges"/><rect fill="#fdfdfd" x="341.6" y="562.7" width="195.2" height="24.65" shape-rendering="crispEdges"/><rect fill="#fdfdfd" x="536.8" y="562.7" width="122" height="24.65" shape-rendering="crispEdges"/><rect fill="#000000" x="658.8" y="562.7" width="24.4" height="24.65" shape-rendering="crispEdges"/><rect fill="#373737" x="0" y="587.1" width="256.2" height="24.65" shape-rendering="crispEdges"/><rect fill="#373737" x="256.2" y="587.1" width="61" height="24.65" shape-rendering="crispEdges"/><rect fill="#000000" x="317.2" y="587.1" width="24.4" height="24.65" shape-rendering="crispEdges"/><rect fill="#fdfdfd" x="341.6" y="587.1" width="256.2" height="24.65" shape-rendering="crispEdges"/><rect fill="#fdfdfd" x="597.8" y="587.1" width="61" height="24.65" shape-rendering="crispEdges"/><rect fill="#000000" x="658.8" y="587.1" width="24.4" height="24.65" shape-rendering="crispEdges"/><rect fill="#373737" x="0" y="611.5" width="207.4" height="24.65" shape-rendering="crispEdges"/><rect fill="#373737" x="207.4" y="611.5" width="109.8" height="24.65" shape-rendering="crispEdges"/><rect fill="#000000" x="317.2" y="611.5" width="24.4" height="24.65" shape-rendering="crispEdges"/><rect fill="#fdfdfd" x="341.6" y="611.5" width="207.4" height="24.65" shape-rendering="crispEdges"/><rect fill="#fdfdfd" x="549" y="611.5" width="109.8" height="24.65" shape-rendering="crispEdges"/><rect fill="#000000" x="658.8" y="611.5" width="24.4" height="24.65" shape-rendering="crispEdges"/><rect fill="#373737" x="0" y="635.9" width="268.4" height="24.65" shape-rendering="crispEdges"/><rect fill="#373737" x="268.4" y="635.9" width="48.8" height="24.65" shape-rendering="crispEdges"/><rect fill="#000000" x="317.2" y="635.9" width="24.4" height="24.65" shape-rendering="crispEdges"/><rect fill="#fdfdfd" x="341.6" y="635.9" width="268.4" height="24.65" shape-rendering="crispEdges"/><rect fill="#fdfdfd" x="610" y="635.9" width="48.8" height="24.65" shape-rendering="crispEdges"/><rect fill="#000000" x="658.8" y="635.9" width="24.4" height="24.65" shape-rendering="crispEdges"/><rect fill="#373737" x="0" y="660.3" width="207.4" height="24.65" shape-rendering="crispEdges"/><rect fill="#373737" x="207.4" y="660.3" width="109.8" height="24.65" shape-rendering="crispEdges"/><rect fill="#000000" x="317.2" y="660.3" width="24.4" height="24.65" shape-rendering="crispEdges"/><rect fill="#fdfdfd" x="341.6" y="660.3" width="207.4" height="24.65" shape-rendering="crispEdges"/><rect fill="#fdfdfd" x="549" y="660.3" width="109.8" height="24.65" shape-rendering="crispEdges"/><rect fill="#000000" x="658.8" y="660.3" width="24.4" height="24.65" shape-rendering="crispEdges"/><rect fill="#373737" x="0" y="684.7" width="207.4" height="24.65" shape-rendering="crispEdges"/><rect fill="#373737" x="207.4" y="684.7" width="109.8" height="24.65" shape-rendering="crispEdges"/><rect fill="#000000" x="317.2" y="684.7" width="24.4" height="24.65" shape-rendering="crispEdges"/><rect fill="#fdfdfd" x="341.6" y="684.7" width="207.4" height="24.65" shape-rendering="crispEdges"/><rect fill="#fdfdfd" x="549" y="684.7" width="109.8" height="24.65" shape-rendering="crispEdges"/><rect fill="#000000" x="658.8" y="684.7" width="24.4" height="24.65" shape-rendering="crispEdges"/><rect fill="#373737" x="0" y="709.1" width="207.4" height="24.65" shape-rendering="crispEdges"/><rect fill="#373737" x="207.4" y="709.1" width="109.8" height="24.65" shape-rendering="crispEdges"/><rect fill="#000000" x="317.2" y="709.1" width="24.4" height="24.65" shape-rendering="crispEdges"/><rect fill="#fdfdfd" x="341.6" y="709.1" width="207.4" height="24.65" shape-rendering="crispEdges"/><rect fill="#fdfdfd" x="549" y="709.1" width="109.8" height="24.65" shape-rendering="crispEdges"/><rect fill="#000000" x="658.8" y="709.1" width="24.4" height="24.65" shape-rendering="crispEdges"/><rect fill="#373737" x="0" y="733.5" width="256.2" height="24.65" shape-rendering="crispEdges"/><rect fill="#373737" x="256.2" y="733.5" width="61" height="24.65" shape-rendering="crispEdges"/><rect fill="#000000" x="317.2" y="733.5" width="24.4" height="24.65" shape-rendering="crispEdges"/><rect fill="#fdfdfd" x="341.6" y="733.5" width="256.2" height="24.65" shape-rendering="crispEdges"/><rect fill="#fdfdfd" x="597.8" y="733.5" width="61" height="24.65" shape-rendering="crispEdges"/><rect fill="#000000" x="658.8" y="733.5" width="24.4" height="24.65" shape-rendering="crispEdges"/><rect fill="#373737" x="0" y="757.9" width="280.6" height="24.65" shape-rendering="crispEdges"/><rect fill="#373737" x="280.6" y="757.9" width="36.6" height="24.65" shape-rendering="crispEdges"/><rect fill="#000000" x="317.2" y="757.9" width="24.4" height="24.65" shape-rendering="crispEdges"/><rect fill="#fdfdfd" x="341.6" y="757.9" width="280.6" height="24.65" shape-rendering="crispEdges"/><rect fill="#fdfdfd" x="622.2" y="757.9" width="36.6" height="24.65" shape-rendering="crispEdges"/><rect fill="#000000" x="658.8" y="757.9" width="24.4" height="24.65" shape-rendering="crispEdges"/><rect fill="#003054" x="0" y="782.3" width="12.2" height="24.65" shape-rendering="crispEdges"/><rect fill="#003054" x="12.2" y="782.3" width="12.2" height="24.65" shape-rendering="crispEdges"/><rect fill="#003054" x="24.4" y="782.3" width="12.2" height="24.65" shape-rendering="crispEdges"/><rect fill="#003054" x="36.6" y="782.3" width="12.2" height="24.65" shape-rendering="crispEdges"/><rect fill="#003054" x="48.8" y="782.3" width="12.2" height="24.65" shape-rendering="crispEdges"/><rect fill="#003054" x="61" y="782.3" width="12.2" height="24.65" shape-rendering="crispEdges"/><rect fill="#003054" x="73.2" y="782.3" width="12.2" height="24.65" shape-rendering="crispEdges"/><rect fill="#003054" x="85.4" y="782.3" width="12.2" height="24.65" shape-rendering="crispEdges"/><rect fill="#003054" x="97.6" y="782.3" width="12.2" height="24.65" shape-rendering="crispEdges"/><rect fill="#003054" x="109.8" y="782.3" width="12.2" height="24.65" shape-rendering="crispEdges"/><rect fill="#003054" x="122" y="782.3" width="12.2" height="24.65" shape-rendering="crispEdges"/><rect fill="#003054" x="134.2" y="782.3" width="12.2" height="24.65" shape-rendering="crispEdges"/><rect fill="#000000" x="146.4" y="782.3" width="12.2" height="24.65" shape-rendering="crispEdges"/><rect fill="#000000" x="158.6" y="782.3" width="12.2" height="24.65" shape-rendering="crispEdges"/><rect fill="#000000" x="170.8" y="782.3" width="12.2" height="24.65" shape-rendering="crispEdges"/><rect fill="#000000" x="183" y="782.3" width="12.2" height="24.65" shape-rendering="crispEdges"/><rect fill="#000000" x="195.2" y="782.3" width="12.2" height="24.65" shape-rendering="crispEdges"/><rect fill="#000000" x="207.4" y="782.3" width="12.2" height="24.65" shape-rendering="crispEdges"/><rect fill="#000000" x="219.6" y="782.3" width="12.2" height="24.65" shape-rendering="crispEdges"/><rect fill="#000000" x="231.8" y="782.3" width="12.2" height="24.65" shape-rendering="crispEdges"/><rect fill="#000000" x="244" y="782.3" width="12.2" height="24.65" shape-rendering="crispEdges"/><rect fill="#000000" x="256.2" y="782.3" width="12.2" height="24.65" shape-rendering="crispEdges"/><rect fill="#000000" x="268.4" y="782.3" width="12.2" height="24.65" shape-rendering="crispEdges"/><rect fill="#000000" x="280.6" y="782.3" width="12.2" height="24.65" shape-rendering="crispEdges"/><rect fill="#000000" x="292.8" y="782.3" width="12.2" height="24.65" shape-rendering="crispEdges"/><rect fill="#000000" x="305" y="782.3" width="12.2" height="24.65" shape-rendering="crispEdges"/><rect fill="#000000" x="317.2" y="782.3" width="24.4" height="24.65" shape-rendering="crispEdges"/><rect fill="#003054" x="341.6" y="782.3" width="12.2" height="24.65" shape-rendering="crispEdges"/><rect fill="#003054" x="353.8" y="782.3" width="12.2" height="24.65" shape-rendering="crispEdges"/><rect fill="#003054" x="366" y="782.3" width="12.2" height="24.65" shape-rendering="crispEdges"/><rect fill="#003054" x="378.2" y="782.3" width="12.2" height="24.65" shape-rendering="crispEdges"/><rect fill="#003054" x="390.4" y="782.3" width="12.2" height="24.65" shape-rendering="crispEdges"/><rect fill="#003054" x="402.6" y="782.3" width="12.2" height="24.65" shape-rendering="crispEdges"/><rect fill="#003054" x="414.8" y="782.3" width="12.2" height="24.65" shape-rendering="crispEdges"/><rect fill="#003054" x="427" y="782.3" width="12.2" height="24.65" shape-rendering="crispEdges"/><rect fill="#003054" x="439.2" y="782.3" width="12.2" height="24.65" shape-rendering="crispEdges"/><rect fill="#003054" x="451.4" y="782.3" width="12.2" height="24.65" shape-rendering="crispEdges"/><rect fill="#003054" x="463.6" y="782.3" width="12.2" height="24.65" shape-rendering="crispEdges"/><rect fill="#003054" x="475.8" y="782.3" width="12.2" height="24.65" shape-rendering="crispEdges"/><rect fill="#000000" x="488" y="782.3" width="12.2" height="24.65" shape-rendering="crispEdges"/><rect fill="#000000" x="500.2" y="782.3" width="12.2" height="24.65" shape-rendering="crispEdges"/><rect fill="#000000" x="512.4" y="782.3" width="12.2" height="24.65" shape-rendering="crispEdges"/><rect fill="#000000" x="524.6" y="782.3" width="12.2" height="24.65" shape-rendering="crispEdges"/><rect fill="#000000" x="536.8" y="782.3" width="12.2" height="24.65" shape-rendering="crispEdges"/><rect fill="#000000" x="549" y="782.3" width="12.2" height="24.65" shape-rendering="crispEdges"/><rect fill="#000000" x="561.2" y="782.3" width="12.2" height="24.65" shape-rendering="crispEdges"/><rect fill="#000000" x="573.4" y="782.3" width="12.2" height="24.65" shape-rendering="crispEdges"/><rect fill="#000000" x="585.6" y="782.3" width="12.2" height="24.65" shape-rendering="crispEdges"/><rect fill="#000000" x="597.8" y="782.3" width="12.2" height="24.65" shape-rendering="crispEdges"/><rect fill="#000000" x="610" y="782.3" width="12.2" height="24.65" shape-rendering="crispEdges"/><rect fill="#000000" x="622.2" y="782.3" width="12.2" height="24.65" shape-rendering="crispEdges"/><rect fill="#000000" x="634.4" y="782.3" width="12.2" height="24.65" shape-rendering="crispEdges"/><rect fill="#000000" x="646.6" y="782.3" width="12.2" height="24.65" shape-rendering="crispEdges"/><rect fill="#000000" x="658.8" y="782.3" width="24.4" height="24.65" shape-rendering="crispEdges"/><rect fill="#373737" x="0" y="806.7" width="683.2" height="24.65" shape-rendering="crispEdges"/><rect fill="#373737" x="0" y="831.1" width="12.2" height="24.65" shape-rendering="crispEdges"/><rect fill="#373737" x="12.2" y="831.1" width="12.2" height="24.65" shape-rendering="crispEdges"/><rect fill="#373737" x="24.4" y="831.1" width="268.4" height="24.65" shape-rendering="crispEdges"/><rect fill="#373737" x="292.8" y="831.1" width="12.2" height="24.65" shape-rendering="crispEdges"/><rect fill="#373737" x="305" y="831.1" width="268.4" height="24.65" shape-rendering="crispEdges"/><rect fill="#373737" x="573.4" y="831.1" width="12.2" height="24.65" shape-rendering="crispEdges"/><rect fill="#373737" x="585.6" y="831.1" width="73.2" height="24.65" shape-rendering="crispEdges"/><rect fill="#373737" x="658.8" y="831.1" width="0" height="24.65" shape-rendering="crispEdges"/><rect fill="#373737" x="658.8" y="831.1" width="12.2" height="24.65" shape-rendering="crispEdges"/><rect fill="#373737" x="671" y="831.1" width="12.2" height="24.65" shape-rendering="crispEdges"/><rect fill="#373737" x="0" y="855.5" width="12.2" height="24.65" shape-rendering="crispEdges"/><rect fill="#373737" x="12.2" y="855.5" width="12.2" height="24.65" shape-rendering="crispEdges"/><rect fill="#373737" x="24.4" y="855.5" width="634.4" height="24.65" shape-rendering="crispEdges"/><rect fill="#373737" x="658.8" y="855.5" width="0" height="24.65" shape-rendering="crispEdges"/><rect fill="#373737" x="658.8" y="855.5" width="12.2" height="24.65" shape-rendering="crispEdges"/><rect fill="#373737" x="671" y="855.5" width="12.2" height="24.65" shape-rendering="crispEdges"/><rect fill="#373737" x="0" y="879.9" width="683.2" height="24.65" shape-rendering="crispEdges"/>
    <g class="terminal-70780204-matrix">
    <text class="terminal-70780204-r1" x="683.2" y="20" textLength="12.2" clip-path="url(#terminal-70780204-line-0)">
</text><text class="terminal-70780204-r2" x="268.4" y="44.4" textLength="146.4" clip-path="url(#terminal-70780204-line-1)">Named&#160;colors</text><text class="terminal-70780204-r1" x="683.2" y="44.4" textLength="12.2" clip-path="url(#terminal-70780204-line-1)">
</text><text class="terminal-70780204-r3" x="0" y="68.8" textLength="683.2" clip-path="url(#terminal-70780204-line-2)">────────────────────────────────────────────────────────</text><text class="terminal-70780204-r1" x="683.2" y="68.8" textLength="12.2" clip-path="url(#terminal-70780204-line-2)">
</text><text class="terminal-70780204-r4" x="0" y="93.2" textLength="158.6" clip-path="url(#terminal-70780204-line-3)">black&#160;#000000</text><text class="terminal-70780204-r4" x="341.6" y="93.2" textLength="158.6" clip-path="url(#terminal-70780204-line-3)">black&#160;#000000</text><text class="terminal-70780204-r1" x="683.2" y="93.2" textLength="12.2" clip-path="url(#terminal-70780204-line-3)">
</text><text class="terminal-70780204-r7" x="0" y="117.6" textLength="146.4" clip-path="url(#terminal-70780204-line-4)">navy&#160;#000080</text><text class="terminal-70780204-r7" x="341.6" y="117.6" textLength="146.4" clip-path="url(#terminal-70780204-line-4)">navy&#160;#000080</text><text class="terminal-70780204-r1" x="683.2" y="117.6" textLength="12.2" clip-path="url(#terminal-70780204-line-4)">
</text><text class="terminal-70780204-r8" x="0" y="142" textLength="195.2" clip-path="url(#terminal-70780204-line-5)">darkblue&#160;#00008B</text><text class="terminal-70780204-r8" x="341.6" y="142" textLength="195.2" clip-path="url(#terminal-70780204-line-5)">darkblue&#160;#00008B</text><text class="terminal-70780204-r1" x="683.2" y="142" textLength="12.2" clip-path="url(#terminal-70780204-line-5)">
</text><text class="terminal-70780204-r9" x="0" y="166.4" textLength="219.6" clip-path="url(#terminal-70780204-line-6)">mediumblue&#160;#0000CD</text><text class="terminal-70780204-r9" x="341.6" y="166.4" textLength="219.6" clip-path="url(#terminal-70780204-line-6)">mediumblue&#160;#0000CD</text><text class="terminal-70780204-r1" x="683.2" y="166.4" textLength="12.2" clip-path="url(#terminal-70780204-line-6)">
</text><text class="terminal-70780204-r10" x="0" y="190.8" textLength="146.4" clip-path="url(#terminal-70780204-line-7)">blue&#160;#0000FF</text><text class="terminal-70780204-r10" x="341.6" y="190.8" textLength="146.4" clip-path="url(#terminal-70780204-line-7)">blue&#160;#0000FF</text><text class="terminal-70780204-r1" x="683.2" y="190.8" textLength="12.2" clip-path="url(#terminal-70780204-line-7)">
</text><text class="terminal-70780204-r11" x="0" y="215.2" textLength="207.4" clip-path="url(#terminal-70780204-line-8)">darkgreen&#160;#006400</text><text class="terminal-70780204-r11" x="341.6" y="215.2" textLength="207.4" clip-path="url(#terminal-70780204-line-8)">darkgreen&#160;#006400</text><text class="terminal-70780204-r1" x="683.2" y="215.2" textLength="12.2" clip-path="url(#terminal-70780204-line-8)">
</text><text class="terminal-70780204-r12" x="0" y="239.6" textLength="158.6" clip-path="url(#terminal-70780204-line-9)">green&#160;#008000</text><text class="terminal-70780204-r4" x="317.2" y="239.6" textLength="24.4" clip-path="url(#terminal-70780204-line-9)">▇▇</text><text class="terminal-70780204-r12" x="341.6" y="239.6" textLength="158.6" clip-path="url(#terminal-70780204-line-9)">green&#160;#008000</text><text class="terminal-70780204-r4" x="658.8" y="239.6" textLength="24.4" clip-path="url(#terminal-70780204-line-9)">▇▇</text><text class="terminal-70780204-r1" x="683.2" y="239.6" textLength="12.2" clip-path="url(#terminal-70780204-line-9)">
</text><text class="terminal-70780204-r13" x="0" y="264" textLength="146.4" clip-path="url(#terminal-70780204-line-10)">teal&#160;#008080</text><text class="terminal-70780204-r13" x="341.6" y="264" textLength="146.4" clip-path="url(#terminal-70780204-line-10)">teal&#160;#008080</text><text class="terminal-70780204-r1" x="683.2" y="264" textLength="12.2" clip-path="url(#terminal-70780204-line-10)">
</text><text class="terminal-70780204-r15" x="0" y="288.4" textLength="195.2" clip-path="url(#terminal-70780204-line-11)">darkcyan&#160;#008B8B</text><text class="terminal-70780204-r15" x="341.6" y="288.4" textLength="195.2" clip-path="url(#terminal-70780204-line-11)">darkcyan&#160;#008B8B</text><text class="terminal-70780204-r1" x="683.2" y="288.4" textLength="12.2" clip-path="url(#terminal-70780204-line-11)">
</text><text class="terminal-70780204-r16" x="0" y="312.8" textLength="231.8" clip-path="url(#terminal-70780204-line-12)">deepskyblue&#160;#00BFFF</text><text class="terminal-70780204-r16" x="341.6" y="312.8" textLength="231.8" clip-path="url(#terminal-70780204-line-12)">deepskyblue&#160;#00BFFF</text><text class="terminal-70780204-r1" x="683.2" y="312.8" textLength="12.2" clip-path="url(#terminal-70780204-line-12)">
</text><text class="terminal-70780204-r17" x="0" y="337.2" textLength="256.2" clip-path="url(#terminal-70780204-line-13)">darkturquoise&#160;#00CED1</text><text class="terminal-70780204-r17" x="341.6" y="337.2" textLength="256.2" clip-path="url(#terminal-70780204-line-13)">darkturquoise&#160;#00CED1</text><text class="terminal-70780204-r1" x="683.2" y="337.2" textLength="12.2" clip-path="url(#terminal-70780204-line-13)">
</text><text class="terminal-70780204-r18" x="0" y="361.6" textLength="305" clip-path="url(#terminal-70780204-line-14)">mediumspringgreen&#160;#00FA9A</text><text class="terminal-70780204-r18" x="341.6" y="361.6" textLength="305" clip-path="url(#terminal-70780204-line-14)">mediumspringgreen&#160;#00FA9A</text><text class="terminal-70780204-r1" x="683.2" y="361.6" textLength="12.2" clip-path="url(#terminal-70780204-line-14)">
</text><text class="terminal-70780204-r19" x="0" y="386" textLength="146.4" clip-path="url(#terminal-70780204-line-15)">lime&#160;#00FF00</text><text class="terminal-70780204-r19" x="341.6" y="386" textLength="146.4" clip-path="url(#terminal-70780204-line-15)">lime&#160;#00FF00</text><text class="terminal-70780204-r1" x="683.2" y="386" textLength="12.2" clip-path="url(#terminal-70780204-line-15)">
</text><text class="terminal-70780204-r20" x="0" y="410.4" textLength="231.8" clip-path="url(#terminal-70780204-line-16)">springgreen&#160;#00FF7F</text><text class="terminal-70780204-r20" x="341.6" y="410.4" textLength="231.8" clip-path="url(#terminal-70780204-line-16)">springgreen&#160;#00FF7F</text><text class="terminal-70780204-r1" x="683.2" y="410.4" textLength="12.2" clip-path="url(#terminal-70780204-line-16)">
</text><text class="terminal-70780204-r21" x="0" y="434.8" textLength="146.4" clip-path="url(#terminal-70780204-line-17)">aqua&#160;#00FFFF</text><text class="terminal-70780204-r21" x="341.6" y="434.8" textLength="146.4" clip-path="url(#terminal-70780204-line-17)">aqua&#160;#00FFFF</text><text class="terminal-70780204-r1" x="683.2" y="434.8" textLength="12.2" clip-path="url(#terminal-70780204-line-17)">
</text><text class="terminal-70780204-r21" x="0" y="459.2" textLength="146.4" clip-path="url(#terminal-70780204-line-18)">cyan&#160;#00FFFF</text><text class="terminal-70780204-r21" x="341.6" y="459.2" textLength="146.4" clip-path="url(#terminal-70780204-line-18)">cyan&#160;#00FFFF</text><text class="terminal-70780204-r1" x="683.2" y="459.2" textLength="12.2" clip-path="url(#terminal-70780204-line-18)">
</text><text class="terminal-70780204-r22" x="0" y="483.6" textLength="244" clip-path="url(#terminal-70780204-line-19)">midnightblue&#160;#191970</text><text class="terminal-70780204-r22" x="341.6" y="483.6" textLength="244" clip-path="url(#terminal-70780204-line-19)">midnightblue&#160;#191970</text><text class="terminal-70780204-r1" x="683.2" y="483.6" textLength="12.2" clip-path="url(#terminal-70780204-line-19)">
</text><text class="terminal-70780204-r23" x="0" y="508" textLength="219.6" clip-path="url(#terminal-70780204-line-20)">dodgerblue&#160;#1E90FF</text><text class="terminal-70780204-r23" x="341.6" y="508" textLength="219.6" clip-path="url(#terminal-70780204-line-20)">dodgerblue&#160;#1E90FF</text><text class="terminal-70780204-r1" x="683.2" y="508" textLength="12.2" clip-path="url(#terminal-70780204-line-20)">
</text><text class="terminal-70780204-r24" x="0" y="532.4" textLength="256.2" clip-path="url(#terminal-70780204-line-21)">lightseagreen&#160;#20B2AA</text><text class="terminal-70780204-r24" x="341.6" y="532.4" textLength="256.2" clip-path="url(#terminal-70780204-line-21)">lightseagreen&#160;#20B2AA</text><text class="terminal-70780204-r1" x="683.2" y="532.4" textLength="12.2" clip-path="url(#terminal-70780204-line-21)">
</text><text class="terminal-70780204-r25" x="0" y="556.8" textLength="231.8" clip-path="url(#terminal-70780204-line-22)">forestgreen&#160;#228B22</text><text class="terminal-70780204-r25" x="341.6" y="556.8" textLength="231.8" clip-path="url(#terminal-70780204-line-22)">forestgreen&#160;#228B22</text><text class="terminal-70780204-r1" x="683.2" y="556.8" textLength="12.2" clip-path="url(#terminal-70780204-line-22)">
</text><text class="terminal-70780204-r26" x="0" y="581.2" textLength="195.2" clip-path="url(#terminal-70780204-line-23)">seagreen&#160;#2E8B57</text><text class="terminal-70780204-r26" x="341.6" y="581.2" textLength="195.2" clip-path="url(#terminal-70780204-line-23)">seagreen&#160;#2E8B57</text><text class="terminal-70780204-r1" x="683.2" y="581.2" textLength="12.2" clip-path="url(#terminal-70780204-line-23)">
</text><text class="terminal-70780204-r27" x="0" y="605.6" textLength="256.2" clip-path="url(#terminal-70780204-line-24)">darkslategray&#160;#2F4F4F</text><text class="terminal-70780204-r27" x="341.6" y="605.6" textLength="256.2" clip-path="url(#terminal-70780204-line-24)">darkslategray&#160;#2F4F4F</text><text class="terminal-70780204-r1" x="683.2" y="605.6" textLength="12.2" clip-path="url(#terminal-70780204-line-24)">
</text><text class="terminal-70780204-r28" x="0" y="630" textLength="207.4" clip-path="url(#terminal-70780204-line-25)">limegreen&#160;#32CD32</text><text class="terminal-70780204-r28" x="341.6" y="630" textLength="207.4" clip-path="url(#terminal-70780204-line-25)">limegreen&#160;#32CD32</text><text class="terminal-70780204-r1" x="683.2" y="630" textLength="12.2" clip-path="url(#terminal-70780204-line-25)">
</text><text class="terminal-70780204-r29" x="0" y="654.4" textLength="268.4" clip-path="url(#terminal-70780204-line-26)">mediumseagreen&#160;#3CB371</text><text class="terminal-70780204-r29" x="341.6" y="654.4" textLength="268.4" clip-path="url(#terminal-70780204-line-26)">mediumseagreen&#160;#3CB371</text><text class="terminal-70780204-r1" x="683.2" y="654.4" textLength="12.2" clip-path="url(#terminal-70780204-line-26)">
</text><text class="terminal-70780204-r30" x="0" y="678.8" textLength="207.4" clip-path="url(#terminal-70780204-line-27)">turquoise&#160;#40E0D0</text><text class="terminal-70780204-r30" x="341.6" y="678.8" textLength="207.4" clip-path="url(#terminal-70780204-line-27)">turquoise&#160;#40E0D0</text><text class="terminal-70780204-r1" x="683.2" y="678.8" textLength="12.2" clip-path="url(#terminal-70780204-line-27)">
</text><text class="terminal-70780204-r31" x="0" y="703.2" textLength="207.4" clip-path="url(#terminal-70780204-line-28)">royalblue&#160;#4169E1</text><text class="terminal-70780204-r31" x="341.6" y="703.2" textLength="207.4" clip-path="url(#terminal-70780204-line-28)">royalblue&#160;#4169E1</text><text class="terminal-70780204-r1" x="683.2" y="703.2" textLength="12.2" clip-path="url(#terminal-70780204-line-28)">
</text><text class="terminal-70780204-r32" x="0" y="727.6" textLength="207.4" clip-path="url(#terminal-70780204-line-29)">steelblue&#160;#4682B4</text><text class="terminal-70780204-r32" x="341.6" y="727.6" textLength="207.4" clip-path="url(#terminal-70780204-line-29)">steelblue&#160;#4682B4</text><text class="terminal-70780204-r1" x="683.2" y="727.6" textLength="12.2" clip-path="url(#terminal-70780204-line-29)">
</text><text class="terminal-70780204-r33" x="0" y="752" textLength="256.2" clip-path="url(#terminal-70780204-line-30)">darkslateblue&#160;#483D8B</text><text class="terminal-70780204-r33" x="341.6" y="752" textLength="256.2" clip-path="url(#terminal-70780204-line-30)">darkslateblue&#160;#483D8B</text><text class="terminal-70780204-r1" x="683.2" y="752" textLength="12.2" clip-path="url(#terminal-70780204-line-30)">
</text><text class="terminal-70780204-r34" x="0" y="776.4" textLength="280.6" clip-path="url(#terminal-70780204-line-31)">mediumturquoise&#160;#48D1CC</text><text class="terminal-70780204-r34" x="341.6" y="776.4" textLength="280.6" clip-path="url(#terminal-70780204-line-31)">mediumturquoise&#160;#48D1CC</text><text class="terminal-70780204-r1" x="683.2" y="776.4" textLength="12.2" clip-path="url(#terminal-70780204-line-31)">
</text><text class="terminal-70780204-r35" x="146.4" y="800.8" textLength="12.2" clip-path="url(#terminal-70780204-line-32)">▉</text><text class="terminal-70780204-r35" x="488" y="800.8" textLength="12.2" clip-path="url(#terminal-70780204-line-32)">▉</text><text class="terminal-70780204-r1" x="683.2" y="800.8" textLength="12.2" clip-path="url(#terminal-70780204-line-32)">
</text><text class="terminal-70780204-r3" x="0" y="825.2" textLength="683.2" clip-path="url(#terminal-70780204-line-33)">────────────────────────────────────────────────────────</text><text class="terminal-70780204-r1" x="683.2" y="825.2" textLength="12.2" clip-path="url(#terminal-70780204-line-33)">
</text><text class="terminal-70780204-r36" x="12.2" y="849.6" textLength="12.2" clip-path="url(#terminal-70780204-line-34)">p</text><text class="terminal-70780204-r2" x="24.4" y="849.6" textLength="268.4" clip-path="url(#terminal-70780204-line-34)">&#160;Toggle&#160;dual&#160;palette&#160;&#160;</text><text class="terminal-70780204-r36" x="292.8" y="849.6" textLength="12.2" clip-path="url(#terminal-70780204-line-34)">c</text><text class="terminal-70780204-r2" x="305" y="849.6" textLength="268.4" clip-path="url(#terminal-70780204-line-34)">&#160;Toggle&#160;named&#160;colors&#160;&#160;</text><text class="terminal-70780204-r36" x="573.4" y="849.6" textLength="12.2" clip-path="url(#terminal-70780204-line-34)">?</text><text class="terminal-70780204-r2" x="585.6" y="849.6" textLength="73.2" clip-path="url(#terminal-70780204-line-34)">&#160;Help&#160;</text><text class="terminal-70780204-r1" x="683.2" y="849.6" textLength="12.2" clip-path="url(#terminal-70780204-line-34)">
</text><text class="terminal-70780204-r36" x="12.2" y="874" textLength="12.2" clip-path="url(#terminal-70780204-line-35)">/</text><text class="terminal-70780204-r2" x="24.4" y="874" textLength="634.4" clip-path="url(#terminal-70780204-line-35)">&#160;Search&#160;&#160;&#160;&#160;&#160;&#160;&#160;&#160;&#160;&#160;&#160;&#160;&#160;&#160;&#160;&#160;&#160;&#160;&#160;&#160;&#160;&#160;&#160;&#160;&#160;&#160;&#160;&#160;&#160;&#160;&#160;&#160;&#160;&#160;&#160;&#160;&#160;&#160;&#160;&#160;&#160;&#160;&#160;&#160;&#160;</text><text class="terminal-70780204-r1" x="683.2" y="874" textLength="12.2" clip-path="url(#terminal-70780204-line-35)">
</text>
    </g>
    </g>
</svg>
