<svg class="rich-terminal" viewBox="0 0 702 708.8" xmlns="http://www.w3.org/2000/svg">
    <!-- Generated with Rich https://www.textualize.io -->
    <style>

    @font-face {
        font-family: "Fira Code";
        src: local("FiraCode-Regular"),
                url("https://cdnjs.cloudflare.com/ajax/libs/firacode/6.2.0/woff2/FiraCode-Regular.woff2") format("woff2"),
                url("https://cdnjs.cloudflare.com/ajax/libs/firacode/6.2.0/woff/FiraCode-Regular.woff") format("woff");
        font-style: normal;
        font-weight: 400;
    }
    @font-face {
        font-family: "Fira Code";
        src: local("FiraCode-Bold"),
                url("https://cdnjs.cloudflare.com/ajax/libs/firacode/6.2.0/woff2/FiraCode-Bold.woff2") format("woff2"),
                url("https://cdnjs.cloudflare.com/ajax/libs/firacode/6.2.0/woff/FiraCode-Bold.woff") format("woff");
        font-style: bold;
        font-weight: 700;
    }

    .terminal-1564225479-matrix {
        font-family: Fira Code, monospace;
        font-size: 20px;
        line-height: 24.4px;
        font-variant-east-asian: full-width;
    }

    .terminal-1564225479-title {
        font-size: 18px;
        font-weight: bold;
        font-family: arial;
    }

    .terminal-1564225479-r1 { fill: #c5c8c6 }
.terminal-1564225479-r2 { fill: #ffffff;font-weight: bold }
.terminal-1564225479-r3 { fill: #7f7f7f }
.terminal-1564225479-r4 { fill: #373737 }
.terminal-1564225479-r5 { fill: #191919 }
.terminal-1564225479-r6 { fill: #e0e0e0 }
.terminal-1564225479-r7 { fill: #ffffff }
.terminal-1564225479-r8 { fill: #8c8e8c }
.terminal-1564225479-r9 { fill: #ffff00;font-weight: bold }
    </style>

    <defs>
    <clipPath id="terminal-1564225479-clip-terminal">
      <rect x="0" y="0" width="682.1999999999999" height="657.8" />
    </clipPath>
    <clipPath id="terminal-1564225479-line-0">
    <rect x="0" y="1.5" width="683.2" height="24.65"/>
            </clipPath>
<clipPath id="terminal-1564225479-line-1">
    <rect x="0" y="25.9" width="683.2" height="24.65"/>
            </clipPath>
<clipPath id="terminal-1564225479-line-2">
    <rect x="0" y="50.3" width="683.2" height="24.65"/>
            </clipPath>
<clipPath id="terminal-1564225479-line-3">
    <rect x="0" y="74.7" width="683.2" height="24.65"/>
            </clipPath>
<clipPath id="terminal-1564225479-line-4">
    <rect x="0" y="99.1" width="683.2" height="24.65"/>
            </clipPath>
<clipPath id="terminal-1564225479-line-5">
    <rect x="0" y="123.5" width="683.2" height="24.65"/>
            </clipPath>
<clipPath id="terminal-1564225479-line-6">
    <rect x="0" y="147.9" width="683.2" height="24.65"/>
            </clipPath>
<clipPath id="terminal-1564225479-line-7">
    <rect x="0" y="172.3" width="683.2" height="24.65"/>
            </clipPath>
<clipPath id="terminal-1564225479-line-8">
    <rect x="0" y="196.7" width="683.2" height="24.65"/>
            </clipPath>
<clipPath id="terminal-1564225479-line-9">
    <rect x="0" y="221.1" width="683.2" height="24.65"/>
            </clipPath>
<clipPath id="terminal-1564225479-line-10">
    <rect x="0" y="245.5" width="683.2" height="24.65"/>
            </clipPath>
<clipPath id="terminal-1564225479-line-11">
    <rect x="0" y="269.9" width="683.2" height="24.65"/>
            </clipPath>
<clipPath id="terminal-1564225479-line-12">
    <rect x="0" y="294.3" width="683.2" height="24.65"/>
            </clipPath>
<clipPath id="terminal-1564225479-line-13">
    <rect x="0" y="318.7" width="683.2" height="24.65"/>
            </clipPath>
<clipPath id="terminal-1564225479-line-14">
    <rect x="0" y="343.1" width="683.2" height="24.65"/>
            </clipPath>
<clipPath id="terminal-1564225479-line-15">
    <rect x="0" y="367.5" width="683.2" height="24.65"/>
            </clipPath>
<clipPath id="terminal-1564225479-line-16">
    <rect x="0" y="391.9" width="683.2" height="24.65"/>
            </clipPath>
<clipPath id="terminal-1564225479-line-17">
    <rect x="0" y="416.3" width="683.2" height="24.65"/>
            </clipPath>
<clipPath id="terminal-1564225479-line-18">
    <rect x="0" y="440.7" width="683.2" height="24.65"/>
            </clipPath>
<clipPath id="terminal-1564225479-line-19">
    <rect x="0" y="465.1" width="683.2" height="24.65"/>
            </clipPath>
<clipPath id="terminal-1564225479-line-20">
    <rect x="0" y="489.5" width="683.2" height="24.65"/>
            </clipPath>
<clipPath id="terminal-1564225479-line-21">
    <rect x="0" y="513.9" width="683.2" height="24.65"/>
            </clipPath>
<clipPath id="terminal-1564225479-line-22">
    <rect x="0" y="538.3" width="683.2" height="24.65"/>
            </clipPath>
<clipPath id="terminal-1564225479-line-23">
    <rect x="0" y="562.7" width="683.2" height="24.65"/>
            </clipPath>
<clipPath id="terminal-1564225479-line-24">
    <rect x="0" y="587.1" width="683.2" height="24.65"/>
            </clipPath>
<clipPath id="terminal-1564225479-line-25">
    <rect x="0" y="611.5" width="683.2" height="24.65"/>
            </clipPath>
    </defs>

    <rect fill="#292929" stroke="rgba(255,255,255,0.35)" stroke-width="1" x="1" y="1" width="700" height="706.8" rx="8"/>
            <g transform="translate(26,22)">
            <circle cx="0" cy="0" r="7" fill="#ff5f57"/>
            <circle cx="22" cy="0" r="7" fill="#febc2e"/>
            <circle cx="44" cy="0" r="7" fill="#28c840"/>
            </g>

    <g transform="translate(9, 41)" clip-path="url(#terminal-1564225479-clip-terminal)">
    <rect fill="#373737" x="0" y="1.5" width="305" height="24.65" shape-rendering="crispEdges"/><rect fill="#373737" x="305" y="1.5" width="61" height="24.65" shape-rendering="crispEdges"/><rect fill="#373737" x="366" y="1.5" width="317.2" height="24.65" shape-rendering="crispEdges"/><rect fill="#373737" x="0" y="25.9" width="683.2" height="24.65" shape-rendering="crispEdges"/><rect fill="#191919" x="0" y="50.3" width="12.2" height="24.65" shape-rendering="crispEdges"/><rect fill="#1e1e1e" x="12.2" y="50.3" width="658.8" height="24.65" shape-rendering="crispEdges"/><rect fill="#373737" x="671" y="50.3" width="12.2" height="24.65" shape-rendering="crispEdges"/><rect fill="#191919" x="0" y="74.7" width="12.2" height="24.65" shape-rendering="crispEdges"/><rect fill="#1e1e1e" x="12.2" y="74.7" width="97.6" height="24.65" shape-rendering="crispEdges"/><rect fill="#1e1e1e" x="109.8" y="74.7" width="561.2" height="24.65" shape-rendering="crispEdges"/><rect fill="#373737" x="671" y="74.7" width="12.2" height="24.65" shape-rendering="crispEdges"/><rect fill="#191919" x="0" y="99.1" width="12.2" height="24.65" shape-rendering="crispEdges"/><rect fill="#1e1e1e" x="12.2" y="99.1" width="658.8" height="24.65" shape-rendering="crispEdges"/><rect fill="#373737" x="671" y="99.1" width="12.2" height="24.65" shape-rendering="crispEdges"/><rect fill="#373737" x="0" y="123.5" width="170.8" height="24.65" shape-rendering="crispEdges"/><rect fill="#373737" x="170.8" y="123.5" width="512.4" height="24.65" shape-rendering="crispEdges"/><rect fill="#373737" x="0" y="147.9" width="12.2" height="24.65" shape-rendering="crispEdges"/><rect fill="#373737" x="12.2" y="147.9" width="12.2" height="24.65" shape-rendering="crispEdges"/><rect fill="#373737" x="24.4" y="147.9" width="488" height="24.65" shape-rendering="crispEdges"/><rect fill="#373737" x="512.4" y="147.9" width="170.8" height="24.65" shape-rendering="crispEdges"/><rect fill="#373737" x="0" y="172.3" width="12.2" height="24.65" shape-rendering="crispEdges"/><rect fill="#373737" x="12.2" y="172.3" width="12.2" height="24.65" shape-rendering="crispEdges"/><rect fill="#373737" x="24.4" y="172.3" width="427" height="24.65" shape-rendering="crispEdges"/><rect fill="#373737" x="451.4" y="172.3" width="231.8" height="24.65" shape-rendering="crispEdges"/><rect fill="#373737" x="0" y="196.7" width="12.2" height="24.65" shape-rendering="crispEdges"/><rect fill="#373737" x="12.2" y="196.7" width="12.2" height="24.65" shape-rendering="crispEdges"/><rect fill="#373737" x="24.4" y="196.7" width="390.4" height="24.65" shape-rendering="crispEdges"/><rect fill="#373737" x="414.8" y="196.7" width="268.4" height="24.65" shape-rendering="crispEdges"/><rect fill="#373737" x="0" y="221.1" width="12.2" height="24.65" shape-rendering="crispEdges"/><rect fill="#373737" x="12.2" y="221.1" width="12.2" height="24.65" shape-rendering="crispEdges"/><rect fill="#373737" x="24.4" y="221.1" width="536.8" height="24.65" shape-rendering="crispEdges"/><rect fill="#373737" x="561.2" y="221.1" width="122" height="24.65" shape-rendering="crispEdges"/><rect fill="#373737" x="0" y="245.5" width="12.2" height="24.65" shape-rendering="crispEdges"/><rect fill="#373737" x="12.2" y="245.5" width="12.2" height="24.65" shape-rendering="crispEdges"/><rect fill="#373737" x="24.4" y="245.5" width="585.6" height="24.65" shape-rendering="crispEdges"/><rect fill="#373737" x="610" y="245.5" width="73.2" height="24.65" shape-rendering="crispEdges"/><rect fill="#373737" x="0" y="269.9" width="12.2" height="24.65" shape-rendering="crispEdges"/><rect fill="#373737" x="12.2" y="269.9" width="12.2" height="24.65" shape-rendering="crispEdges"/><rect fill="#373737" x="24.4" y="269.9" width="561.2" height="24.65" shape-rendering="crispEdges"/><rect fill="#373737" x="585.6" y="269.9" width="97.6" height="24.65" shape-rendering="crispEdges"/><rect fill="#373737" x="0" y="294.3" width="12.2" height="24.65" shape-rendering="crispEdges"/><rect fill="#373737" x="12.2" y="294.3" width="12.2" height="24.65" shape-rendering="crispEdges"/><rect fill="#373737" x="24.4" y="294.3" width="402.6" height="24.65" shape-rendering="crispEdges"/><rect fill="#373737" x="427" y="294.3" width="256.2" height="24.65" shape-rendering="crispEdges"/><rect fill="#373737" x="0" y="318.7" width="12.2" height="24.65" shape-rendering="crispEdges"/><rect fill="#373737" x="12.2" y="318.7" width="12.2" height="24.65" shape-rendering="crispEdges"/><rect fill="#373737" x="24.4" y="318.7" width="451.4" height="24.65" shape-rendering="crispEdges"/><rect fill="#373737" x="475.8" y="318.7" width="207.4" height="24.65" shape-rendering="crispEdges"/><rect fill="#373737" x="0" y="343.1" width="12.2" height="24.65" shape-rendering="crispEdges"/><rect fill="#373737" x="12.2" y="343.1" width="12.2" height="24.65" shape-rendering="crispEdges"/><rect fill="#373737" x="24.4" y="343.1" width="610" height="24.65" shape-rendering="crispEdges"/><rect fill="#373737" x="634.4" y="343.1" width="48.8" height="24.65" shape-rendering="crispEdges"/><rect fill="#373737" x="0" y="367.5" width="12.2" height="24.65" shape-rendering="crispEdges"/><rect fill="#373737" x="12.2" y="367.5" width="12.2" height="24.65" shape-rendering="crispEdges"/><rect fill="#373737" x="24.4" y="367.5" width="353.8" height="24.65" shape-rendering="crispEdges"/><rect fill="#373737" x="378.2" y="367.5" width="305" height="24.65" shape-rendering="crispEdges"/><rect fill="#373737" x="0" y="391.9" width="12.2" height="24.65" shape-rendering="crispEdges"/><rect fill="#373737" x="12.2" y="391.9" width="12.2" height="24.65" shape-rendering="crispEdges"/><rect fill="#373737" x="24.4" y="391.9" width="305" height="24.65" shape-rendering="crispEdges"/><rect fill="#373737" x="329.4" y="391.9" width="353.8" height="24.65" shape-rendering="crispEdges"/><rect fill="#373737" x="0" y="416.3" width="12.2" height="24.65" shape-rendering="crispEdges"/><rect fill="#373737" x="12.2" y="416.3" width="12.2" height="24.65" shape-rendering="crispEdges"/><rect fill="#373737" x="24.4" y="416.3" width="524.6" height="24.65" shape-rendering="crispEdges"/><rect fill="#373737" x="549" y="416.3" width="134.2" height="24.65" shape-rendering="crispEdges"/><rect fill="#373737" x="0" y="440.7" width="12.2" height="24.65" shape-rendering="crispEdges"/><rect fill="#373737" x="12.2" y="440.7" width="12.2" height="24.65" shape-rendering="crispEdges"/><rect fill="#373737" x="24.4" y="440.7" width="353.8" height="24.65" shape-rendering="crispEdges"/><rect fill="#373737" x="378.2" y="440.7" width="305" height="24.65" shape-rendering="crispEdges"/><rect fill="#373737" x="0" y="465.1" width="683.2" height="24.65" shape-rendering="crispEdges"/><rect fill="#373737" x="0" y="489.5" width="683.2" height="24.65" shape-rendering="crispEdges"/><rect fill="#373737" x="0" y="513.9" width="683.2" height="24.65" shape-rendering="crispEdges"/><rect fill="#373737" x="0" y="538.3" width="683.2" height="24.65" shape-rendering="crispEdges"/><rect fill="#373737" x="0" y="562.7" width="683.2" height="24.65" shape-rendering="crispEdges"/><rect fill="#373737" x="0" y="587.1" width="683.2" height="24.65" shape-rendering="crispEdges"/><rect fill="#373737" x="0" y="611.5" width="12.2" height="24.65" shape-rendering="crispEdges"/><rect fill="#373737" x="12.2" y="611.5" width="12.2" height="24.65" shape-rendering="crispEdges"/><rect fill="#373737" x="24.4" y="611.5" width="85.4" height="24.65" shape-rendering="crispEdges"/><rect fill="#373737" x="109.8" y="611.5" width="61" height="24.65" shape-rendering="crispEdges"/><rect fill="#373737" x="170.8" y="611.5" width="146.4" height="24.65" shape-rendering="crispEdges"/><rect fill="#373737" x="317.2" y="611.5" width="36.6" height="24.65" shape-rendering="crispEdges"/><rect fill="#373737" x="353.8" y="611.5" width="158.6" height="24.65" shape-rendering="crispEdges"/><rect fill="#373737" x="512.4" y="611.5" width="158.6" height="24.65" shape-rendering="crispEdges"/><rect fill="#373737" x="671" y="611.5" width="12.2" height="24.65" shape-rendering="crispEdges"/><rect fill="#373737" x="0" y="635.9" width="683.2" height="24.65" shape-rendering="crispEdges"/>
    <g class="terminal-1564225479-matrix">
    <text class="terminal-1564225479-r2" x="305" y="20" textLength="61" clip-path="url(#terminal-1564225479-line-0)">Query</text><text class="terminal-1564225479-r1" x="683.2" y="20" textLength="12.2" clip-path="url(#terminal-1564225479-line-0)">
</text><text class="terminal-1564225479-r3" x="0" y="44.4" textLength="683.2" clip-path="url(#terminal-1564225479-line-1)">────────────────────────────────────────────────────────</text><text class="terminal-1564225479-r1" x="683.2" y="44.4" textLength="12.2" clip-path="url(#terminal-1564225479-line-1)">
</text><text class="terminal-1564225479-r4" x="0" y="68.8" textLength="12.2" clip-path="url(#terminal-1564225479-line-2)">▊</text><text class="terminal-1564225479-r5" x="12.2" y="68.8" textLength="658.8" clip-path="url(#terminal-1564225479-line-2)">▔▔▔▔▔▔▔▔▔▔▔▔▔▔▔▔▔▔▔▔▔▔▔▔▔▔▔▔▔▔▔▔▔▔▔▔▔▔▔▔▔▔▔▔▔▔▔▔▔▔▔▔▔▔</text><text class="terminal-1564225479-r5" x="671" y="68.8" textLength="12.2" clip-path="url(#terminal-1564225479-line-2)">▎</text><text class="terminal-1564225479-r1" x="683.2" y="68.8" textLength="12.2" clip-path="url(#terminal-1564225479-line-2)">
</text><text class="terminal-1564225479-r4" x="0" y="93.2" textLength="12.2" clip-path="url(#terminal-1564225479-line-3)">▊</text><text class="terminal-1564225479-r6" x="12.2" y="93.2" textLength="97.6" clip-path="url(#terminal-1564225479-line-3)">exists&#160;r</text><text class="terminal-1564225479-r5" x="671" y="93.2" textLength="12.2" clip-path="url(#terminal-1564225479-line-3)">▎</text><text class="terminal-1564225479-r1" x="683.2" y="93.2" textLength="12.2" clip-path="url(#terminal-1564225479-line-3)">
</text><text class="terminal-1564225479-r4" x="0" y="117.6" textLength="12.2" clip-path="url(#terminal-1564225479-line-4)">▊</text><text class="terminal-1564225479-r5" x="12.2" y="117.6" textLength="658.8" clip-path="url(#terminal-1564225479-line-4)">▁▁▁▁▁▁▁▁▁▁▁▁▁▁▁▁▁▁▁▁▁▁▁▁▁▁▁▁▁▁▁▁▁▁▁▁▁▁▁▁▁▁▁▁▁▁▁▁▁▁▁▁▁▁</text><text class="terminal-1564225479-r5" x="671" y="117.6" textLength="12.2" clip-path="url(#terminal-1564225479-line-4)">▎</text><text class="terminal-1564225479-r1" x="683.2" y="117.6" textLength="12.2" clip-path="url(#terminal-1564225479-line-4)">
</text><text class="terminal-1564225479-r7" x="0" y="142" textLength="170.8" clip-path="url(#terminal-1564225479-line-5)">Matching&#160;(13):</text><text class="terminal-1564225479-r1" x="683.2" y="142" textLength="12.2" clip-path="url(#terminal-1564225479-line-5)">
</text><text class="terminal-1564225479-r8" x="12.2" y="166.4" textLength="12.2" clip-path="url(#terminal-1564225479-line-6)">a</text><text class="terminal-1564225479-r1" x="24.4" y="166.4" textLength="488" clip-path="url(#terminal-1564225479-line-6)">&#160;*&#160;Amet&#160;velit&#160;etincidunt&#160;aliquam&#160;(id&#160;44)</text><text class="terminal-1564225479-r1" x="683.2" y="166.4" textLength="12.2" clip-path="url(#terminal-1564225479-line-6)">
</text><text class="terminal-1564225479-r8" x="12.2" y="190.8" textLength="12.2" clip-path="url(#terminal-1564225479-line-7)">b</text><text class="terminal-1564225479-r1" x="24.4" y="190.8" textLength="427" clip-path="url(#terminal-1564225479-line-7)">&#160;*&#160;Modi&#160;voluptatem&#160;adipisci&#160;(id&#160;52)</text><text class="terminal-1564225479-r1" x="683.2" y="190.8" textLength="12.2" clip-path="url(#terminal-1564225479-line-7)">
</text><text class="terminal-1564225479-r8" x="12.2" y="215.2" textLength="12.2" clip-path="url(#terminal-1564225479-line-8)">c</text><text class="terminal-1564225479-r1" x="24.4" y="215.2" textLength="390.4" clip-path="url(#terminal-1564225479-line-8)">&#160;*&#160;Tempora&#160;velit&#160;tempora&#160;(id&#160;53)</text><text class="terminal-1564225479-r1" x="683.2" y="215.2" textLength="12.2" clip-path="url(#terminal-1564225479-line-8)">
</text><text class="terminal-1564225479-r8" x="12.2" y="239.6" textLength="12.2" clip-path="url(#terminal-1564225479-line-9)">d</text><text class="terminal-1564225479-r1" x="24.4" y="239.6" textLength="536.8" clip-path="url(#terminal-1564225479-line-9)">&#160;*&#160;Aliquam&#160;numquam&#160;porro&#160;neque&#160;dolor&#160;(id&#160;57)</text><text class="terminal-1564225479-r1" x="683.2" y="239.6" textLength="12.2" clip-path="url(#terminal-1564225479-line-9)">
</text><text class="terminal-1564225479-r8" x="12.2" y="264" textLength="12.2" clip-path="url(#terminal-1564225479-line-10)">e</text><text class="terminal-1564225479-r1" x="24.4" y="264" textLength="585.6" clip-path="url(#terminal-1564225479-line-10)">&#160;*&#160;Quaerat&#160;porro&#160;eius&#160;numquam&#160;voluptatem&#160;(id&#160;58)</text><text class="terminal-1564225479-r1" x="683.2" y="264" textLength="12.2" clip-path="url(#terminal-1564225479-line-10)">
</text><text class="terminal-1564225479-r8" x="12.2" y="288.4" textLength="12.2" clip-path="url(#terminal-1564225479-line-11)">f</text><text class="terminal-1564225479-r1" x="24.4" y="288.4" textLength="561.2" clip-path="url(#terminal-1564225479-line-11)">&#160;*&#160;Tempora&#160;dolore&#160;dolore&#160;ipsum&#160;dolorem&#160;(id&#160;63)</text><text class="terminal-1564225479-r1" x="683.2" y="288.4" textLength="12.2" clip-path="url(#terminal-1564225479-line-11)">
</text><text class="terminal-1564225479-r8" x="12.2" y="312.8" textLength="12.2" clip-path="url(#terminal-1564225479-line-12)">g</text><text class="terminal-1564225479-r1" x="24.4" y="312.8" textLength="402.6" clip-path="url(#terminal-1564225479-line-12)">&#160;*&#160;Ipsum&#160;etincidunt&#160;dolor&#160;(id&#160;66)</text><text class="terminal-1564225479-r1" x="683.2" y="312.8" textLength="12.2" clip-path="url(#terminal-1564225479-line-12)">
</text><text class="terminal-1564225479-r8" x="12.2" y="337.2" textLength="12.2" clip-path="url(#terminal-1564225479-line-13)">h</text><text class="terminal-1564225479-r1" x="24.4" y="337.2" textLength="451.4" clip-path="url(#terminal-1564225479-line-13)">&#160;*&#160;Eius&#160;quisquam&#160;quiquia&#160;eius&#160;(id&#160;83)</text><text class="terminal-1564225479-r1" x="683.2" y="337.2" textLength="12.2" clip-path="url(#terminal-1564225479-line-13)">
</text><text class="terminal-1564225479-r8" x="12.2" y="361.6" textLength="12.2" clip-path="url(#terminal-1564225479-line-14)">i</text><text class="terminal-1564225479-r1" x="24.4" y="361.6" textLength="610" clip-path="url(#terminal-1564225479-line-14)">&#160;*&#160;Dolorem&#160;velit&#160;consectetur&#160;porro&#160;quaerat&#160;(id&#160;94)</text><text class="terminal-1564225479-r1" x="683.2" y="361.6" textLength="12.2" clip-path="url(#terminal-1564225479-line-14)">
</text><text class="terminal-1564225479-r8" x="12.2" y="386" textLength="12.2" clip-path="url(#terminal-1564225479-line-15)">j</text><text class="terminal-1564225479-r1" x="24.4" y="386" textLength="353.8" clip-path="url(#terminal-1564225479-line-15)">&#160;*&#160;Amet&#160;neque&#160;tempora&#160;(id&#160;99)</text><text class="terminal-1564225479-r1" x="683.2" y="386" textLength="12.2" clip-path="url(#terminal-1564225479-line-15)">
</text><text class="terminal-1564225479-r8" x="12.2" y="410.4" textLength="12.2" clip-path="url(#terminal-1564225479-line-16)">k</text><text class="terminal-1564225479-r1" x="24.4" y="410.4" textLength="305" clip-path="url(#terminal-1564225479-line-16)">&#160;*&#160;Dolor&#160;est&#160;sit&#160;(id&#160;109)</text><text class="terminal-1564225479-r1" x="683.2" y="410.4" textLength="12.2" clip-path="url(#terminal-1564225479-line-16)">
</text><text class="terminal-1564225479-r8" x="12.2" y="434.8" textLength="12.2" clip-path="url(#terminal-1564225479-line-17)">l</text><text class="terminal-1564225479-r1" x="24.4" y="434.8" textLength="524.6" clip-path="url(#terminal-1564225479-line-17)">&#160;*&#160;Sit&#160;numquam&#160;aliquam&#160;consectetur&#160;(id&#160;111)</text><text class="terminal-1564225479-r1" x="683.2" y="434.8" textLength="12.2" clip-path="url(#terminal-1564225479-line-17)">
</text><text class="terminal-1564225479-r8" x="12.2" y="459.2" textLength="12.2" clip-path="url(#terminal-1564225479-line-18)">m</text><text class="terminal-1564225479-r1" x="24.4" y="459.2" textLength="353.8" clip-path="url(#terminal-1564225479-line-18)">&#160;*&#160;Quisquam&#160;modi&#160;sit&#160;(id&#160;121)</text><text class="terminal-1564225479-r1" x="683.2" y="459.2" textLength="12.2" clip-path="url(#terminal-1564225479-line-18)">
</text><text class="terminal-1564225479-r1" x="683.2" y="483.6" textLength="12.2" clip-path="url(#terminal-1564225479-line-19)">
</text><text class="terminal-1564225479-r1" x="683.2" y="508" textLength="12.2" clip-path="url(#terminal-1564225479-line-20)">
</text><text class="terminal-1564225479-r1" x="683.2" y="532.4" textLength="12.2" clip-path="url(#terminal-1564225479-line-21)">
</text><text class="terminal-1564225479-r1" x="683.2" y="556.8" textLength="12.2" clip-path="url(#terminal-1564225479-line-22)">
</text><text class="terminal-1564225479-r1" x="683.2" y="581.2" textLength="12.2" clip-path="url(#terminal-1564225479-line-23)">
</text><text class="terminal-1564225479-r3" x="0" y="605.6" textLength="683.2" clip-path="url(#terminal-1564225479-line-24)">────────────────────────────────────────────────────────</text><text class="terminal-1564225479-r1" x="683.2" y="605.6" textLength="12.2" clip-path="url(#terminal-1564225479-line-24)">
</text><text class="terminal-1564225479-r9" x="12.2" y="630" textLength="12.2" clip-path="url(#terminal-1564225479-line-25)">?</text><text class="terminal-1564225479-r2" x="24.4" y="630" textLength="85.4" clip-path="url(#terminal-1564225479-line-25)">&#160;Help&#160;&#160;</text><text class="terminal-1564225479-r9" x="109.8" y="630" textLength="61" clip-path="url(#terminal-1564225479-line-25)">Enter</text><text class="terminal-1564225479-r2" x="170.8" y="630" textLength="146.4" clip-path="url(#terminal-1564225479-line-25)">&#160;Run&#160;query&#160;&#160;</text><text class="terminal-1564225479-r9" x="317.2" y="630" textLength="36.6" clip-path="url(#terminal-1564225479-line-25)">Tab</text><text class="terminal-1564225479-r2" x="353.8" y="630" textLength="158.6" clip-path="url(#terminal-1564225479-line-25)">&#160;query&#160;↔&#160;list</text><text class="terminal-1564225479-r1" x="683.2" y="630" textLength="12.2" clip-path="url(#terminal-1564225479-line-25)">
</text>
    </g>
    </g>
</svg>
