<svg class="rich-terminal" viewBox="0 0 702 538.0" xmlns="http://www.w3.org/2000/svg">
    <!-- Generated with Rich https://www.textualize.io -->
    <style>

    @font-face {
        font-family: "Fira Code";
        src: local("FiraCode-Regular"),
                url("https://cdnjs.cloudflare.com/ajax/libs/firacode/6.2.0/woff2/FiraCode-Regular.woff2") format("woff2"),
                url("https://cdnjs.cloudflare.com/ajax/libs/firacode/6.2.0/woff/FiraCode-Regular.woff") format("woff");
        font-style: normal;
        font-weight: 400;
    }
    @font-face {
        font-family: "Fira Code";
        src: local("FiraCode-Bold"),
                url("https://cdnjs.cloudflare.com/ajax/libs/firacode/6.2.0/woff2/FiraCode-Bold.woff2") format("woff2"),
                url("https://cdnjs.cloudflare.com/ajax/libs/firacode/6.2.0/woff/FiraCode-Bold.woff") format("woff");
        font-style: bold;
        font-weight: 700;
    }

    .terminal-1058398560-matrix {
        font-family: Fira Code, monospace;
        font-size: 20px;
        line-height: 24.4px;
        font-variant-east-asian: full-width;
    }

    .terminal-1058398560-title {
        font-size: 18px;
        font-weight: bold;
        font-family: arial;
    }

    .terminal-1058398560-r1 { fill: #c5c8c6 }
.terminal-1058398560-r2 { fill: #ffffff;font-weight: bold }
.terminal-1058398560-r3 { fill: #7f7f7f }
.terminal-1058398560-r4 { fill: #fffacd;font-weight: bold }
.terminal-1058398560-r5 { fill: #373737 }
.terminal-1058398560-r6 { fill: #8c8e8c }
.terminal-1058398560-r7 { fill: #32cd32 }
.terminal-1058398560-r8 { fill: #000000 }
.terminal-1058398560-r9 { fill: #e0e0e0 }
.terminal-1058398560-r10 { fill: #ff4500 }
.terminal-1058398560-r11 { fill: #daa520 }
.terminal-1058398560-r12 { fill: #ffff00;font-weight: bold }
    </style>

    <defs>
    <clipPath id="terminal-1058398560-clip-terminal">
      <rect x="0" y="0" width="682.1999999999999" height="487.0" />
    </clipPath>
    <clipPath id="terminal-1058398560-line-0">
    <rect x="0" y="1.5" width="683.2" height="24.65"/>
            </clipPath>
<clipPath id="terminal-1058398560-line-1">
    <rect x="0" y="25.9" width="683.2" height="24.65"/>
            </clipPath>
<clipPath id="terminal-1058398560-line-2">
    <rect x="0" y="50.3" width="683.2" height="24.65"/>
            </clipPath>
<clipPath id="terminal-1058398560-line-3">
    <rect x="0" y="74.7" width="683.2" height="24.65"/>
            </clipPath>
<clipPath id="terminal-1058398560-line-4">
    <rect x="0" y="99.1" width="683.2" height="24.65"/>
            </clipPath>
<clipPath id="terminal-1058398560-line-5">
    <rect x="0" y="123.5" width="683.2" height="24.65"/>
            </clipPath>
<clipPath id="terminal-1058398560-line-6">
    <rect x="0" y="147.9" width="683.2" height="24.65"/>
            </clipPath>
<clipPath id="terminal-1058398560-line-7">
    <rect x="0" y="172.3" width="683.2" height="24.65"/>
            </clipPath>
<clipPath id="terminal-1058398560-line-8">
    <rect x="0" y="196.7" width="683.2" height="24.65"/>
            </clipPath>
<clipPath id="terminal-1058398560-line-9">
    <rect x="0" y="221.1" width="683.2" height="24.65"/>
            </clipPath>
<clipPath id="terminal-1058398560-line-10">
    <rect x="0" y="245.5" width="683.2" height="24.65"/>
            </clipPath>
<clipPath id="terminal-1058398560-line-11">
    <rect x="0" y="269.9" width="683.2" height="24.65"/>
            </clipPath>
<clipPath id="terminal-1058398560-line-12">
    <rect x="0" y="294.3" width="683.2" height="24.65"/>
            </clipPath>
<clipPath id="terminal-1058398560-line-13">
    <rect x="0" y="318.7" width="683.2" height="24.65"/>
            </clipPath>
<clipPath id="terminal-1058398560-line-14">
    <rect x="0" y="343.1" width="683.2" height="24.65"/>
            </clipPath>
<clipPath id="terminal-1058398560-line-15">
    <rect x="0" y="367.5" width="683.2" height="24.65"/>
            </clipPath>
<clipPath id="terminal-1058398560-line-16">
    <rect x="0" y="391.9" width="683.2" height="24.65"/>
            </clipPath>
<clipPath id="terminal-1058398560-line-17">
    <rect x="0" y="416.3" width="683.2" height="24.65"/>
            </clipPath>
<clipPath id="terminal-1058398560-line-18">
    <rect x="0" y="440.7" width="683.2" height="24.65"/>
            </clipPath>
    </defs>

    <rect fill="#292929" stroke="rgba(255,255,255,0.35)" stroke-width="1" x="1" y="1" width="700" height="536" rx="8"/>
            <g transform="translate(26,22)">
            <circle cx="0" cy="0" r="7" fill="#ff5f57"/>
            <circle cx="22" cy="0" r="7" fill="#febc2e"/>
            <circle cx="44" cy="0" r="7" fill="#28c840"/>
            </g>

    <g transform="translate(9, 41)" clip-path="url(#terminal-1058398560-clip-terminal)">
    <rect fill="#373737" x="0" y="1.5" width="683.2" height="24.65" shape-rendering="crispEdges"/><rect fill="#373737" x="0" y="25.9" width="12.2" height="24.65" shape-rendering="crispEdges"/><rect fill="#373737" x="12.2" y="25.9" width="207.4" height="24.65" shape-rendering="crispEdges"/><rect fill="#373737" x="219.6" y="25.9" width="231.8" height="24.65" shape-rendering="crispEdges"/><rect fill="#373737" x="451.4" y="25.9" width="219.6" height="24.65" shape-rendering="crispEdges"/><rect fill="#373737" x="671" y="25.9" width="12.2" height="24.65" shape-rendering="crispEdges"/><rect fill="#373737" x="0" y="50.3" width="683.2" height="24.65" shape-rendering="crispEdges"/><rect fill="#373737" x="0" y="74.7" width="73.2" height="24.65" shape-rendering="crispEdges"/><rect fill="#373737" x="73.2" y="74.7" width="585.6" height="24.65" shape-rendering="crispEdges"/><rect fill="#003054" x="658.8" y="74.7" width="24.4" height="24.65" shape-rendering="crispEdges"/><rect fill="#373737" x="0" y="99.1" width="12.2" height="24.65" shape-rendering="crispEdges"/><rect fill="#373737" x="12.2" y="99.1" width="12.2" height="24.65" shape-rendering="crispEdges"/><rect fill="#373737" x="24.4" y="99.1" width="24.4" height="24.65" shape-rendering="crispEdges"/><rect fill="#373737" x="48.8" y="99.1" width="353.8" height="24.65" shape-rendering="crispEdges"/><rect fill="#373737" x="402.6" y="99.1" width="256.2" height="24.65" shape-rendering="crispEdges"/><rect fill="#003054" x="658.8" y="99.1" width="24.4" height="24.65" shape-rendering="crispEdges"/><rect fill="#373737" x="0" y="123.5" width="12.2" height="24.65" shape-rendering="crispEdges"/><rect fill="#373737" x="12.2" y="123.5" width="12.2" height="24.65" shape-rendering="crispEdges"/><rect fill="#373737" x="24.4" y="123.5" width="24.4" height="24.65" shape-rendering="crispEdges"/><rect fill="#373737" x="48.8" y="123.5" width="353.8" height="24.65" shape-rendering="crispEdges"/><rect fill="#373737" x="402.6" y="123.5" width="256.2" height="24.65" shape-rendering="crispEdges"/><rect fill="#003054" x="658.8" y="123.5" width="24.4" height="24.65" shape-rendering="crispEdges"/><rect fill="#373737" x="0" y="147.9" width="61" height="24.65" shape-rendering="crispEdges"/><rect fill="#373737" x="61" y="147.9" width="597.8" height="24.65" shape-rendering="crispEdges"/><rect fill="#003054" x="658.8" y="147.9" width="24.4" height="24.65" shape-rendering="crispEdges"/><rect fill="#373737" x="0" y="172.3" width="12.2" height="24.65" shape-rendering="crispEdges"/><rect fill="#373737" x="12.2" y="172.3" width="12.2" height="24.65" shape-rendering="crispEdges"/><rect fill="#373737" x="24.4" y="172.3" width="24.4" height="24.65" shape-rendering="crispEdges"/><rect fill="#373737" x="48.8" y="172.3" width="451.4" height="24.65" shape-rendering="crispEdges"/><rect fill="#373737" x="500.2" y="172.3" width="158.6" height="24.65" shape-rendering="crispEdges"/><rect fill="#003054" x="658.8" y="172.3" width="24.4" height="24.65" shape-rendering="crispEdges"/><rect fill="#373737" x="0" y="196.7" width="12.2" height="24.65" shape-rendering="crispEdges"/><rect fill="#373737" x="12.2" y="196.7" width="12.2" height="24.65" shape-rendering="crispEdges"/><rect fill="#373737" x="24.4" y="196.7" width="24.4" height="24.65" shape-rendering="crispEdges"/><rect fill="#373737" x="48.8" y="196.7" width="317.2" height="24.65" shape-rendering="crispEdges"/><rect fill="#373737" x="366" y="196.7" width="292.8" height="24.65" shape-rendering="crispEdges"/><rect fill="#003054" x="658.8" y="196.7" width="24.4" height="24.65" shape-rendering="crispEdges"/><rect fill="#373737" x="0" y="221.1" width="12.2" height="24.65" shape-rendering="crispEdges"/><rect fill="#373737" x="12.2" y="221.1" width="12.2" height="24.65" shape-rendering="crispEdges"/><rect fill="#373737" x="24.4" y="221.1" width="24.4" height="24.65" shape-rendering="crispEdges"/><rect fill="#373737" x="48.8" y="221.1" width="268.4" height="24.65" shape-rendering="crispEdges"/><rect fill="#373737" x="317.2" y="221.1" width="341.6" height="24.65" shape-rendering="crispEdges"/><rect fill="#003054" x="658.8" y="221.1" width="24.4" height="24.65" shape-rendering="crispEdges"/><rect fill="#373737" x="0" y="245.5" width="61" height="24.65" shape-rendering="crispEdges"/><rect fill="#373737" x="61" y="245.5" width="597.8" height="24.65" shape-rendering="crispEdges"/><rect fill="#000000" x="658.8" y="245.5" width="24.4" height="24.65" shape-rendering="crispEdges"/><rect fill="#373737" x="0" y="269.9" width="12.2" height="24.65" shape-rendering="crispEdges"/><rect fill="#373737" x="12.2" y="269.9" width="12.2" height="24.65" shape-rendering="crispEdges"/><rect fill="#373737" x="24.4" y="269.9" width="24.4" height="24.65" shape-rendering="crispEdges"/><rect fill="#373737" x="48.8" y="269.9" width="244" height="24.65" shape-rendering="crispEdges"/><rect fill="#373737" x="292.8" y="269.9" width="366" height="24.65" shape-rendering="crispEdges"/><rect fill="#000000" x="658.8" y="269.9" width="24.4" height="24.65" shape-rendering="crispEdges"/><rect fill="#373737" x="0" y="294.3" width="73.2" height="24.65" shape-rendering="crispEdges"/><rect fill="#373737" x="73.2" y="294.3" width="585.6" height="24.65" shape-rendering="crispEdges"/><rect fill="#000000" x="658.8" y="294.3" width="24.4" height="24.65" shape-rendering="crispEdges"/><rect fill="#373737" x="0" y="318.7" width="12.2" height="24.65" shape-rendering="crispEdges"/><rect fill="#373737" x="12.2" y="318.7" width="12.2" height="24.65" shape-rendering="crispEdges"/><rect fill="#373737" x="24.4" y="318.7" width="24.4" height="24.65" shape-rendering="crispEdges"/><rect fill="#373737" x="48.8" y="318.7" width="402.6" height="24.65" shape-rendering="crispEdges"/><rect fill="#373737" x="451.4" y="318.7" width="207.4" height="24.65" shape-rendering="crispEdges"/><rect fill="#000000" x="658.8" y="318.7" width="24.4" height="24.65" shape-rendering="crispEdges"/><rect fill="#373737" x="0" y="343.1" width="12.2" height="24.65" shape-rendering="crispEdges"/><rect fill="#373737" x="12.2" y="343.1" width="12.2" height="24.65" shape-rendering="crispEdges"/><rect fill="#373737" x="24.4" y="343.1" width="24.4" height="24.65" shape-rendering="crispEdges"/><rect fill="#373737" x="48.8" y="343.1" width="353.8" height="24.65" shape-rendering="crispEdges"/><rect fill="#373737" x="402.6" y="343.1" width="256.2" height="24.65" shape-rendering="crispEdges"/><rect fill="#000000" x="658.8" y="343.1" width="24.4" height="24.65" shape-rendering="crispEdges"/><rect fill="#373737" x="0" y="367.5" width="12.2" height="24.65" shape-rendering="crispEdges"/><rect fill="#373737" x="12.2" y="367.5" width="12.2" height="24.65" shape-rendering="crispEdges"/><rect fill="#373737" x="24.4" y="367.5" width="24.4" height="24.65" shape-rendering="crispEdges"/><rect fill="#373737" x="48.8" y="367.5" width="292.8" height="24.65" shape-rendering="crispEdges"/><rect fill="#373737" x="341.6" y="367.5" width="317.2" height="24.65" shape-rendering="crispEdges"/><rect fill="#000000" x="658.8" y="367.5" width="24.4" height="24.65" shape-rendering="crispEdges"/><rect fill="#373737" x="0" y="391.9" width="12.2" height="24.65" shape-rendering="crispEdges"/><rect fill="#373737" x="12.2" y="391.9" width="12.2" height="24.65" shape-rendering="crispEdges"/><rect fill="#373737" x="24.4" y="391.9" width="24.4" height="24.65" shape-rendering="crispEdges"/><rect fill="#373737" x="48.8" y="391.9" width="231.8" height="24.65" shape-rendering="crispEdges"/><rect fill="#373737" x="280.6" y="391.9" width="378.2" height="24.65" shape-rendering="crispEdges"/><rect fill="#000000" x="658.8" y="391.9" width="24.4" height="24.65" shape-rendering="crispEdges"/><rect fill="#373737" x="0" y="416.3" width="683.2" height="24.65" shape-rendering="crispEdges"/><rect fill="#373737" x="0" y="440.7" width="12.2" height="24.65" shape-rendering="crispEdges"/><rect fill="#373737" x="12.2" y="440.7" width="12.2" height="24.65" shape-rendering="crispEdges"/><rect fill="#373737" x="24.4" y="440.7" width="85.4" height="24.65" shape-rendering="crispEdges"/><rect fill="#373737" x="109.8" y="440.7" width="12.2" height="24.65" shape-rendering="crispEdges"/><rect fill="#373737" x="122" y="440.7" width="85.4" height="24.65" shape-rendering="crispEdges"/><rect fill="#373737" x="207.4" y="440.7" width="463.6" height="24.65" shape-rendering="crispEdges"/><rect fill="#373737" x="671" y="440.7" width="12.2" height="24.65" shape-rendering="crispEdges"/><rect fill="#373737" x="0" y="465.1" width="683.2" height="24.65" shape-rendering="crispEdges"/>
    <g class="terminal-1058398560-matrix">
    <text class="terminal-1058398560-r1" x="683.2" y="20" textLength="12.2" clip-path="url(#terminal-1058398560-line-0)">
</text><text class="terminal-1058398560-r2" x="219.6" y="44.4" textLength="231.8" clip-path="url(#terminal-1058398560-line-1)">Hash&#160;Tags&#160;(4)&#160;(1/5)</text><text class="terminal-1058398560-r1" x="683.2" y="44.4" textLength="12.2" clip-path="url(#terminal-1058398560-line-1)">
</text><text class="terminal-1058398560-r3" x="0" y="68.8" textLength="683.2" clip-path="url(#terminal-1058398560-line-2)">â”€â”€â”€â”€â”€â”€â”€â”€â”€â”€â”€â”€â”€â”€â”€â”€â”€â”€â”€â”€â”€â”€â”€â”€â”€â”€â”€â”€â”€â”€â”€â”€â”€â”€â”€â”€â”€â”€â”€â”€â”€â”€â”€â”€â”€â”€â”€â”€â”€â”€â”€â”€â”€â”€â”€â”€</text><text class="terminal-1058398560-r1" x="683.2" y="68.8" textLength="12.2" clip-path="url(#terminal-1058398560-line-2)">
</text><text class="terminal-1058398560-r4" x="0" y="93.2" textLength="73.2" clip-path="url(#terminal-1058398560-line-3)">#amber</text><text class="terminal-1058398560-r1" x="683.2" y="93.2" textLength="12.2" clip-path="url(#terminal-1058398560-line-3)">
</text><text class="terminal-1058398560-r6" x="12.2" y="117.6" textLength="12.2" clip-path="url(#terminal-1058398560-line-4)">a</text><text class="terminal-1058398560-r7" x="48.8" y="117.6" textLength="353.8" clip-path="url(#terminal-1058398560-line-4)">*&#160;Labore&#160;magnam&#160;sed&#160;ut&#160;velitğ•£</text><text class="terminal-1058398560-r1" x="683.2" y="117.6" textLength="12.2" clip-path="url(#terminal-1058398560-line-4)">
</text><text class="terminal-1058398560-r6" x="12.2" y="142" textLength="12.2" clip-path="url(#terminal-1058398560-line-5)">b</text><text class="terminal-1058398560-r7" x="48.8" y="142" textLength="353.8" clip-path="url(#terminal-1058398560-line-5)">*&#160;Sed&#160;adipisci&#160;ipsum&#160;ut&#160;eiusğ•£</text><text class="terminal-1058398560-r1" x="683.2" y="142" textLength="12.2" clip-path="url(#terminal-1058398560-line-5)">
</text><text class="terminal-1058398560-r4" x="0" y="166.4" textLength="61" clip-path="url(#terminal-1058398560-line-6)">#blue</text><text class="terminal-1058398560-r1" x="683.2" y="166.4" textLength="12.2" clip-path="url(#terminal-1058398560-line-6)">
</text><text class="terminal-1058398560-r6" x="12.2" y="190.8" textLength="12.2" clip-path="url(#terminal-1058398560-line-7)">c</text><text class="terminal-1058398560-r7" x="48.8" y="190.8" textLength="451.4" clip-path="url(#terminal-1058398560-line-7)">*&#160;Sit&#160;quiquia&#160;quisquam&#160;modi&#160;quisquamğ•£</text><text class="terminal-1058398560-r1" x="683.2" y="190.8" textLength="12.2" clip-path="url(#terminal-1058398560-line-7)">
</text><text class="terminal-1058398560-r6" x="12.2" y="215.2" textLength="12.2" clip-path="url(#terminal-1058398560-line-8)">d</text><text class="terminal-1058398560-r7" x="48.8" y="215.2" textLength="317.2" clip-path="url(#terminal-1058398560-line-8)">*&#160;Labore&#160;non&#160;dolor&#160;doloreğ•£</text><text class="terminal-1058398560-r1" x="683.2" y="215.2" textLength="12.2" clip-path="url(#terminal-1058398560-line-8)">
</text><text class="terminal-1058398560-r6" x="12.2" y="239.6" textLength="12.2" clip-path="url(#terminal-1058398560-line-9)">e</text><text class="terminal-1058398560-r7" x="48.8" y="239.6" textLength="268.4" clip-path="url(#terminal-1058398560-line-9)">*&#160;Magnam&#160;amet&#160;non&#160;sedğ•£</text><text class="terminal-1058398560-r8" x="658.8" y="239.6" textLength="24.4" clip-path="url(#terminal-1058398560-line-9)">â–ƒâ–ƒ</text><text class="terminal-1058398560-r1" x="683.2" y="239.6" textLength="12.2" clip-path="url(#terminal-1058398560-line-9)">
</text><text class="terminal-1058398560-r4" x="0" y="264" textLength="61" clip-path="url(#terminal-1058398560-line-10)">#cyan</text><text class="terminal-1058398560-r1" x="683.2" y="264" textLength="12.2" clip-path="url(#terminal-1058398560-line-10)">
</text><text class="terminal-1058398560-r6" x="12.2" y="288.4" textLength="12.2" clip-path="url(#terminal-1058398560-line-11)">f</text><text class="terminal-1058398560-r7" x="48.8" y="288.4" textLength="244" clip-path="url(#terminal-1058398560-line-11)">*&#160;Ipsum&#160;est&#160;aliquamğ•£</text><text class="terminal-1058398560-r1" x="683.2" y="288.4" textLength="12.2" clip-path="url(#terminal-1058398560-line-11)">
</text><text class="terminal-1058398560-r4" x="0" y="312.8" textLength="73.2" clip-path="url(#terminal-1058398560-line-12)">#lorem</text><text class="terminal-1058398560-r1" x="683.2" y="312.8" textLength="12.2" clip-path="url(#terminal-1058398560-line-12)">
</text><text class="terminal-1058398560-r6" x="12.2" y="337.2" textLength="12.2" clip-path="url(#terminal-1058398560-line-13)">g</text><text class="terminal-1058398560-r7" x="48.8" y="337.2" textLength="402.6" clip-path="url(#terminal-1058398560-line-13)">*&#160;Etincidunt&#160;ut&#160;quisquam&#160;numquamğ•’</text><text class="terminal-1058398560-r1" x="683.2" y="337.2" textLength="12.2" clip-path="url(#terminal-1058398560-line-13)">
</text><text class="terminal-1058398560-r6" x="12.2" y="361.6" textLength="12.2" clip-path="url(#terminal-1058398560-line-14)">h</text><text class="terminal-1058398560-r10" x="48.8" y="361.6" textLength="353.8" clip-path="url(#terminal-1058398560-line-14)">?&#160;Adipisci&#160;est&#160;neque&#160;modi&#160;non</text><text class="terminal-1058398560-r1" x="683.2" y="361.6" textLength="12.2" clip-path="url(#terminal-1058398560-line-14)">
</text><text class="terminal-1058398560-r6" x="12.2" y="386" textLength="12.2" clip-path="url(#terminal-1058398560-line-15)">i</text><text class="terminal-1058398560-r7" x="48.8" y="386" textLength="292.8" clip-path="url(#terminal-1058398560-line-15)">*&#160;Etincidunt&#160;neque&#160;neque</text><text class="terminal-1058398560-r1" x="683.2" y="386" textLength="12.2" clip-path="url(#terminal-1058398560-line-15)">
</text><text class="terminal-1058398560-r6" x="12.2" y="410.4" textLength="12.2" clip-path="url(#terminal-1058398560-line-16)">j</text><text class="terminal-1058398560-r11" x="48.8" y="410.4" textLength="231.8" clip-path="url(#terminal-1058398560-line-16)">!&#160;Neque&#160;numquam&#160;sit</text><text class="terminal-1058398560-r1" x="683.2" y="410.4" textLength="12.2" clip-path="url(#terminal-1058398560-line-16)">
</text><text class="terminal-1058398560-r3" x="0" y="434.8" textLength="683.2" clip-path="url(#terminal-1058398560-line-17)">â”€â”€â”€â”€â”€â”€â”€â”€â”€â”€â”€â”€â”€â”€â”€â”€â”€â”€â”€â”€â”€â”€â”€â”€â”€â”€â”€â”€â”€â”€â”€â”€â”€â”€â”€â”€â”€â”€â”€â”€â”€â”€â”€â”€â”€â”€â”€â”€â”€â”€â”€â”€â”€â”€â”€â”€</text><text class="terminal-1058398560-r1" x="683.2" y="434.8" textLength="12.2" clip-path="url(#terminal-1058398560-line-17)">
</text><text class="terminal-1058398560-r12" x="12.2" y="459.2" textLength="12.2" clip-path="url(#terminal-1058398560-line-18)">?</text><text class="terminal-1058398560-r2" x="24.4" y="459.2" textLength="85.4" clip-path="url(#terminal-1058398560-line-18)">&#160;Help&#160;&#160;</text><text class="terminal-1058398560-r12" x="109.8" y="459.2" textLength="12.2" clip-path="url(#terminal-1058398560-line-18)">/</text><text class="terminal-1058398560-r2" x="122" y="459.2" textLength="85.4" clip-path="url(#terminal-1058398560-line-18)">&#160;Search</text><text class="terminal-1058398560-r1" x="683.2" y="459.2" textLength="12.2" clip-path="url(#terminal-1058398560-line-18)">
</text>
    </g>
    </g>
</svg>
