<svg class="rich-terminal" viewBox="0 0 702 855.1999999999999" xmlns="http://www.w3.org/2000/svg">
    <!-- Generated with Rich https://www.textualize.io -->
    <style>

    @font-face {
        font-family: "Fira Code";
        src: local("FiraCode-Regular"),
                url("https://cdnjs.cloudflare.com/ajax/libs/firacode/6.2.0/woff2/FiraCode-Regular.woff2") format("woff2"),
                url("https://cdnjs.cloudflare.com/ajax/libs/firacode/6.2.0/woff/FiraCode-Regular.woff") format("woff");
        font-style: normal;
        font-weight: 400;
    }
    @font-face {
        font-family: "Fira Code";
        src: local("FiraCode-Bold"),
                url("https://cdnjs.cloudflare.com/ajax/libs/firacode/6.2.0/woff2/FiraCode-Bold.woff2") format("woff2"),
                url("https://cdnjs.cloudflare.com/ajax/libs/firacode/6.2.0/woff/FiraCode-Bold.woff") format("woff");
        font-style: bold;
        font-weight: 700;
    }

    .terminal-1943628309-matrix {
        font-family: Fira Code, monospace;
        font-size: 20px;
        line-height: 24.4px;
        font-variant-east-asian: full-width;
    }

    .terminal-1943628309-title {
        font-size: 18px;
        font-weight: bold;
        font-family: arial;
    }

    .terminal-1943628309-r1 { fill: #c5c8c6 }
.terminal-1943628309-r2 { fill: #ffffff;font-weight: bold }
.terminal-1943628309-r3 { fill: #7f7f7f }
.terminal-1943628309-r4 { fill: #e0e0e0;font-weight: bold }
.terminal-1943628309-r5 { fill: #008000;font-weight: bold }
.terminal-1943628309-r6 { fill: #ff0000;font-weight: bold }
.terminal-1943628309-r7 { fill: #fffacd;font-weight: bold }
.terminal-1943628309-r8 { fill: #8c8e8c }
.terminal-1943628309-r9 { fill: #32cd32 }
.terminal-1943628309-r10 { fill: #87cefa }
.terminal-1943628309-r11 { fill: #e9967a }
.terminal-1943628309-r12 { fill: #ffff00;font-weight: bold }
    </style>

    <defs>
    <clipPath id="terminal-1943628309-clip-terminal">
      <rect x="0" y="0" width="682.1999999999999" height="804.1999999999999" />
    </clipPath>
    <clipPath id="terminal-1943628309-line-0">
    <rect x="0" y="1.5" width="683.2" height="24.65"/>
            </clipPath>
<clipPath id="terminal-1943628309-line-1">
    <rect x="0" y="25.9" width="683.2" height="24.65"/>
            </clipPath>
<clipPath id="terminal-1943628309-line-2">
    <rect x="0" y="50.3" width="683.2" height="24.65"/>
            </clipPath>
<clipPath id="terminal-1943628309-line-3">
    <rect x="0" y="74.7" width="683.2" height="24.65"/>
            </clipPath>
<clipPath id="terminal-1943628309-line-4">
    <rect x="0" y="99.1" width="683.2" height="24.65"/>
            </clipPath>
<clipPath id="terminal-1943628309-line-5">
    <rect x="0" y="123.5" width="683.2" height="24.65"/>
            </clipPath>
<clipPath id="terminal-1943628309-line-6">
    <rect x="0" y="147.9" width="683.2" height="24.65"/>
            </clipPath>
<clipPath id="terminal-1943628309-line-7">
    <rect x="0" y="172.3" width="683.2" height="24.65"/>
            </clipPath>
<clipPath id="terminal-1943628309-line-8">
    <rect x="0" y="196.7" width="683.2" height="24.65"/>
            </clipPath>
<clipPath id="terminal-1943628309-line-9">
    <rect x="0" y="221.1" width="683.2" height="24.65"/>
            </clipPath>
<clipPath id="terminal-1943628309-line-10">
    <rect x="0" y="245.5" width="683.2" height="24.65"/>
            </clipPath>
<clipPath id="terminal-1943628309-line-11">
    <rect x="0" y="269.9" width="683.2" height="24.65"/>
            </clipPath>
<clipPath id="terminal-1943628309-line-12">
    <rect x="0" y="294.3" width="683.2" height="24.65"/>
            </clipPath>
<clipPath id="terminal-1943628309-line-13">
    <rect x="0" y="318.7" width="683.2" height="24.65"/>
            </clipPath>
<clipPath id="terminal-1943628309-line-14">
    <rect x="0" y="343.1" width="683.2" height="24.65"/>
            </clipPath>
<clipPath id="terminal-1943628309-line-15">
    <rect x="0" y="367.5" width="683.2" height="24.65"/>
            </clipPath>
<clipPath id="terminal-1943628309-line-16">
    <rect x="0" y="391.9" width="683.2" height="24.65"/>
            </clipPath>
<clipPath id="terminal-1943628309-line-17">
    <rect x="0" y="416.3" width="683.2" height="24.65"/>
            </clipPath>
<clipPath id="terminal-1943628309-line-18">
    <rect x="0" y="440.7" width="683.2" height="24.65"/>
            </clipPath>
<clipPath id="terminal-1943628309-line-19">
    <rect x="0" y="465.1" width="683.2" height="24.65"/>
            </clipPath>
<clipPath id="terminal-1943628309-line-20">
    <rect x="0" y="489.5" width="683.2" height="24.65"/>
            </clipPath>
<clipPath id="terminal-1943628309-line-21">
    <rect x="0" y="513.9" width="683.2" height="24.65"/>
            </clipPath>
<clipPath id="terminal-1943628309-line-22">
    <rect x="0" y="538.3" width="683.2" height="24.65"/>
            </clipPath>
<clipPath id="terminal-1943628309-line-23">
    <rect x="0" y="562.7" width="683.2" height="24.65"/>
            </clipPath>
<clipPath id="terminal-1943628309-line-24">
    <rect x="0" y="587.1" width="683.2" height="24.65"/>
            </clipPath>
<clipPath id="terminal-1943628309-line-25">
    <rect x="0" y="611.5" width="683.2" height="24.65"/>
            </clipPath>
<clipPath id="terminal-1943628309-line-26">
    <rect x="0" y="635.9" width="683.2" height="24.65"/>
            </clipPath>
<clipPath id="terminal-1943628309-line-27">
    <rect x="0" y="660.3" width="683.2" height="24.65"/>
            </clipPath>
<clipPath id="terminal-1943628309-line-28">
    <rect x="0" y="684.7" width="683.2" height="24.65"/>
            </clipPath>
<clipPath id="terminal-1943628309-line-29">
    <rect x="0" y="709.1" width="683.2" height="24.65"/>
            </clipPath>
<clipPath id="terminal-1943628309-line-30">
    <rect x="0" y="733.5" width="683.2" height="24.65"/>
            </clipPath>
<clipPath id="terminal-1943628309-line-31">
    <rect x="0" y="757.9" width="683.2" height="24.65"/>
            </clipPath>
    </defs>

    <rect fill="#292929" stroke="rgba(255,255,255,0.35)" stroke-width="1" x="1" y="1" width="700" height="853.2" rx="8"/>
            <g transform="translate(26,22)">
            <circle cx="0" cy="0" r="7" fill="#ff5f57"/>
            <circle cx="22" cy="0" r="7" fill="#febc2e"/>
            <circle cx="44" cy="0" r="7" fill="#28c840"/>
            </g>

    <g transform="translate(9, 41)" clip-path="url(#terminal-1943628309-clip-terminal)">
    <rect fill="#373737" x="0" y="1.5" width="683.2" height="24.65" shape-rendering="crispEdges"/><rect fill="#373737" x="0" y="25.9" width="12.2" height="24.65" shape-rendering="crispEdges"/><rect fill="#373737" x="12.2" y="25.9" width="207.4" height="24.65" shape-rendering="crispEdges"/><rect fill="#373737" x="219.6" y="25.9" width="244" height="24.65" shape-rendering="crispEdges"/><rect fill="#373737" x="463.6" y="25.9" width="207.4" height="24.65" shape-rendering="crispEdges"/><rect fill="#373737" x="671" y="25.9" width="12.2" height="24.65" shape-rendering="crispEdges"/><rect fill="#373737" x="0" y="50.3" width="683.2" height="24.65" shape-rendering="crispEdges"/><rect fill="#373737" x="0" y="74.7" width="73.2" height="24.65" shape-rendering="crispEdges"/><rect fill="#373737" x="73.2" y="74.7" width="524.6" height="24.65" shape-rendering="crispEdges"/><rect fill="#373737" x="597.8" y="74.7" width="85.4" height="24.65" shape-rendering="crispEdges"/><rect fill="#373737" x="0" y="99.1" width="73.2" height="24.65" shape-rendering="crispEdges"/><rect fill="#373737" x="73.2" y="99.1" width="36.6" height="24.65" shape-rendering="crispEdges"/><rect fill="#373737" x="109.8" y="99.1" width="12.2" height="24.65" shape-rendering="crispEdges"/><rect fill="#373737" x="122" y="99.1" width="134.2" height="24.65" shape-rendering="crispEdges"/><rect fill="#373737" x="256.2" y="99.1" width="12.2" height="24.65" shape-rendering="crispEdges"/><rect fill="#373737" x="268.4" y="99.1" width="73.2" height="24.65" shape-rendering="crispEdges"/><rect fill="#373737" x="341.6" y="99.1" width="12.2" height="24.65" shape-rendering="crispEdges"/><rect fill="#373737" x="353.8" y="99.1" width="12.2" height="24.65" shape-rendering="crispEdges"/><rect fill="#373737" x="366" y="99.1" width="122" height="24.65" shape-rendering="crispEdges"/><rect fill="#373737" x="488" y="99.1" width="12.2" height="24.65" shape-rendering="crispEdges"/><rect fill="#373737" x="500.2" y="99.1" width="48.8" height="24.65" shape-rendering="crispEdges"/><rect fill="#373737" x="549" y="99.1" width="12.2" height="24.65" shape-rendering="crispEdges"/><rect fill="#373737" x="561.2" y="99.1" width="36.6" height="24.65" shape-rendering="crispEdges"/><rect fill="#373737" x="597.8" y="99.1" width="85.4" height="24.65" shape-rendering="crispEdges"/><rect fill="#373737" x="0" y="123.5" width="683.2" height="24.65" shape-rendering="crispEdges"/><rect fill="#373737" x="0" y="147.9" width="134.2" height="24.65" shape-rendering="crispEdges"/><rect fill="#373737" x="134.2" y="147.9" width="549" height="24.65" shape-rendering="crispEdges"/><rect fill="#373737" x="0" y="172.3" width="12.2" height="24.65" shape-rendering="crispEdges"/><rect fill="#373737" x="12.2" y="172.3" width="12.2" height="24.65" shape-rendering="crispEdges"/><rect fill="#373737" x="24.4" y="172.3" width="24.4" height="24.65" shape-rendering="crispEdges"/><rect fill="#373737" x="48.8" y="172.3" width="24.4" height="24.65" shape-rendering="crispEdges"/><rect fill="#373737" x="73.2" y="172.3" width="85.4" height="24.65" shape-rendering="crispEdges"/><rect fill="#373737" x="158.6" y="172.3" width="292.8" height="24.65" shape-rendering="crispEdges"/><rect fill="#373737" x="451.4" y="172.3" width="231.8" height="24.65" shape-rendering="crispEdges"/><rect fill="#373737" x="0" y="196.7" width="134.2" height="24.65" shape-rendering="crispEdges"/><rect fill="#373737" x="134.2" y="196.7" width="549" height="24.65" shape-rendering="crispEdges"/><rect fill="#373737" x="0" y="221.1" width="12.2" height="24.65" shape-rendering="crispEdges"/><rect fill="#373737" x="12.2" y="221.1" width="12.2" height="24.65" shape-rendering="crispEdges"/><rect fill="#373737" x="24.4" y="221.1" width="24.4" height="24.65" shape-rendering="crispEdges"/><rect fill="#373737" x="48.8" y="221.1" width="24.4" height="24.65" shape-rendering="crispEdges"/><rect fill="#373737" x="73.2" y="221.1" width="61" height="24.65" shape-rendering="crispEdges"/><rect fill="#373737" x="134.2" y="221.1" width="183" height="24.65" shape-rendering="crispEdges"/><rect fill="#373737" x="317.2" y="221.1" width="366" height="24.65" shape-rendering="crispEdges"/><rect fill="#373737" x="0" y="245.5" width="12.2" height="24.65" shape-rendering="crispEdges"/><rect fill="#373737" x="12.2" y="245.5" width="12.2" height="24.65" shape-rendering="crispEdges"/><rect fill="#373737" x="24.4" y="245.5" width="24.4" height="24.65" shape-rendering="crispEdges"/><rect fill="#373737" x="48.8" y="245.5" width="24.4" height="24.65" shape-rendering="crispEdges"/><rect fill="#373737" x="73.2" y="245.5" width="61" height="24.65" shape-rendering="crispEdges"/><rect fill="#373737" x="134.2" y="245.5" width="280.6" height="24.65" shape-rendering="crispEdges"/><rect fill="#373737" x="414.8" y="245.5" width="268.4" height="24.65" shape-rendering="crispEdges"/><rect fill="#373737" x="0" y="269.9" width="134.2" height="24.65" shape-rendering="crispEdges"/><rect fill="#373737" x="134.2" y="269.9" width="549" height="24.65" shape-rendering="crispEdges"/><rect fill="#373737" x="0" y="294.3" width="12.2" height="24.65" shape-rendering="crispEdges"/><rect fill="#373737" x="12.2" y="294.3" width="12.2" height="24.65" shape-rendering="crispEdges"/><rect fill="#373737" x="24.4" y="294.3" width="24.4" height="24.65" shape-rendering="crispEdges"/><rect fill="#373737" x="48.8" y="294.3" width="292.8" height="24.65" shape-rendering="crispEdges"/><rect fill="#373737" x="341.6" y="294.3" width="341.6" height="24.65" shape-rendering="crispEdges"/><rect fill="#373737" x="0" y="318.7" width="12.2" height="24.65" shape-rendering="crispEdges"/><rect fill="#373737" x="12.2" y="318.7" width="12.2" height="24.65" shape-rendering="crispEdges"/><rect fill="#373737" x="24.4" y="318.7" width="24.4" height="24.65" shape-rendering="crispEdges"/><rect fill="#373737" x="48.8" y="318.7" width="24.4" height="24.65" shape-rendering="crispEdges"/><rect fill="#373737" x="73.2" y="318.7" width="109.8" height="24.65" shape-rendering="crispEdges"/><rect fill="#373737" x="183" y="318.7" width="292.8" height="24.65" shape-rendering="crispEdges"/><rect fill="#373737" x="475.8" y="318.7" width="207.4" height="24.65" shape-rendering="crispEdges"/><rect fill="#373737" x="0" y="343.1" width="134.2" height="24.65" shape-rendering="crispEdges"/><rect fill="#373737" x="134.2" y="343.1" width="549" height="24.65" shape-rendering="crispEdges"/><rect fill="#373737" x="0" y="367.5" width="12.2" height="24.65" shape-rendering="crispEdges"/><rect fill="#373737" x="12.2" y="367.5" width="12.2" height="24.65" shape-rendering="crispEdges"/><rect fill="#373737" x="24.4" y="367.5" width="24.4" height="24.65" shape-rendering="crispEdges"/><rect fill="#373737" x="48.8" y="367.5" width="24.4" height="24.65" shape-rendering="crispEdges"/><rect fill="#373737" x="73.2" y="367.5" width="109.8" height="24.65" shape-rendering="crispEdges"/><rect fill="#373737" x="183" y="367.5" width="341.6" height="24.65" shape-rendering="crispEdges"/><rect fill="#373737" x="524.6" y="367.5" width="158.6" height="24.65" shape-rendering="crispEdges"/><rect fill="#373737" x="0" y="391.9" width="12.2" height="24.65" shape-rendering="crispEdges"/><rect fill="#373737" x="12.2" y="391.9" width="12.2" height="24.65" shape-rendering="crispEdges"/><rect fill="#373737" x="24.4" y="391.9" width="24.4" height="24.65" shape-rendering="crispEdges"/><rect fill="#373737" x="48.8" y="391.9" width="24.4" height="24.65" shape-rendering="crispEdges"/><rect fill="#373737" x="73.2" y="391.9" width="109.8" height="24.65" shape-rendering="crispEdges"/><rect fill="#373737" x="183" y="391.9" width="329.4" height="24.65" shape-rendering="crispEdges"/><rect fill="#373737" x="512.4" y="391.9" width="170.8" height="24.65" shape-rendering="crispEdges"/><rect fill="#373737" x="0" y="416.3" width="12.2" height="24.65" shape-rendering="crispEdges"/><rect fill="#373737" x="12.2" y="416.3" width="12.2" height="24.65" shape-rendering="crispEdges"/><rect fill="#373737" x="24.4" y="416.3" width="24.4" height="24.65" shape-rendering="crispEdges"/><rect fill="#373737" x="48.8" y="416.3" width="24.4" height="24.65" shape-rendering="crispEdges"/><rect fill="#373737" x="73.2" y="416.3" width="146.4" height="24.65" shape-rendering="crispEdges"/><rect fill="#373737" x="219.6" y="416.3" width="292.8" height="24.65" shape-rendering="crispEdges"/><rect fill="#373737" x="512.4" y="416.3" width="170.8" height="24.65" shape-rendering="crispEdges"/><rect fill="#373737" x="0" y="440.7" width="134.2" height="24.65" shape-rendering="crispEdges"/><rect fill="#373737" x="134.2" y="440.7" width="549" height="24.65" shape-rendering="crispEdges"/><rect fill="#373737" x="0" y="465.1" width="12.2" height="24.65" shape-rendering="crispEdges"/><rect fill="#373737" x="12.2" y="465.1" width="12.2" height="24.65" shape-rendering="crispEdges"/><rect fill="#373737" x="24.4" y="465.1" width="24.4" height="24.65" shape-rendering="crispEdges"/><rect fill="#373737" x="48.8" y="465.1" width="24.4" height="24.65" shape-rendering="crispEdges"/><rect fill="#373737" x="73.2" y="465.1" width="73.2" height="24.65" shape-rendering="crispEdges"/><rect fill="#373737" x="146.4" y="465.1" width="366" height="24.65" shape-rendering="crispEdges"/><rect fill="#373737" x="512.4" y="465.1" width="170.8" height="24.65" shape-rendering="crispEdges"/><rect fill="#373737" x="0" y="489.5" width="134.2" height="24.65" shape-rendering="crispEdges"/><rect fill="#373737" x="134.2" y="489.5" width="549" height="24.65" shape-rendering="crispEdges"/><rect fill="#373737" x="0" y="513.9" width="12.2" height="24.65" shape-rendering="crispEdges"/><rect fill="#373737" x="12.2" y="513.9" width="12.2" height="24.65" shape-rendering="crispEdges"/><rect fill="#373737" x="24.4" y="513.9" width="24.4" height="24.65" shape-rendering="crispEdges"/><rect fill="#373737" x="48.8" y="513.9" width="24.4" height="24.65" shape-rendering="crispEdges"/><rect fill="#373737" x="73.2" y="513.9" width="73.2" height="24.65" shape-rendering="crispEdges"/><rect fill="#373737" x="146.4" y="513.9" width="366" height="24.65" shape-rendering="crispEdges"/><rect fill="#373737" x="512.4" y="513.9" width="170.8" height="24.65" shape-rendering="crispEdges"/><rect fill="#373737" x="0" y="538.3" width="12.2" height="24.65" shape-rendering="crispEdges"/><rect fill="#373737" x="12.2" y="538.3" width="12.2" height="24.65" shape-rendering="crispEdges"/><rect fill="#373737" x="24.4" y="538.3" width="24.4" height="24.65" shape-rendering="crispEdges"/><rect fill="#373737" x="48.8" y="538.3" width="24.4" height="24.65" shape-rendering="crispEdges"/><rect fill="#373737" x="73.2" y="538.3" width="146.4" height="24.65" shape-rendering="crispEdges"/><rect fill="#373737" x="219.6" y="538.3" width="402.6" height="24.65" shape-rendering="crispEdges"/><rect fill="#373737" x="622.2" y="538.3" width="61" height="24.65" shape-rendering="crispEdges"/><rect fill="#373737" x="0" y="562.7" width="12.2" height="24.65" shape-rendering="crispEdges"/><rect fill="#373737" x="12.2" y="562.7" width="12.2" height="24.65" shape-rendering="crispEdges"/><rect fill="#373737" x="24.4" y="562.7" width="24.4" height="24.65" shape-rendering="crispEdges"/><rect fill="#373737" x="48.8" y="562.7" width="24.4" height="24.65" shape-rendering="crispEdges"/><rect fill="#373737" x="73.2" y="562.7" width="146.4" height="24.65" shape-rendering="crispEdges"/><rect fill="#373737" x="219.6" y="562.7" width="280.6" height="24.65" shape-rendering="crispEdges"/><rect fill="#373737" x="500.2" y="562.7" width="183" height="24.65" shape-rendering="crispEdges"/><rect fill="#373737" x="0" y="587.1" width="231.8" height="24.65" shape-rendering="crispEdges"/><rect fill="#373737" x="231.8" y="587.1" width="451.4" height="24.65" shape-rendering="crispEdges"/><rect fill="#373737" x="0" y="611.5" width="12.2" height="24.65" shape-rendering="crispEdges"/><rect fill="#373737" x="12.2" y="611.5" width="12.2" height="24.65" shape-rendering="crispEdges"/><rect fill="#373737" x="24.4" y="611.5" width="24.4" height="24.65" shape-rendering="crispEdges"/><rect fill="#373737" x="48.8" y="611.5" width="24.4" height="24.65" shape-rendering="crispEdges"/><rect fill="#373737" x="73.2" y="611.5" width="61" height="24.65" shape-rendering="crispEdges"/><rect fill="#373737" x="134.2" y="611.5" width="244" height="24.65" shape-rendering="crispEdges"/><rect fill="#373737" x="378.2" y="611.5" width="305" height="24.65" shape-rendering="crispEdges"/><rect fill="#373737" x="0" y="635.9" width="12.2" height="24.65" shape-rendering="crispEdges"/><rect fill="#373737" x="12.2" y="635.9" width="12.2" height="24.65" shape-rendering="crispEdges"/><rect fill="#373737" x="24.4" y="635.9" width="24.4" height="24.65" shape-rendering="crispEdges"/><rect fill="#373737" x="48.8" y="635.9" width="24.4" height="24.65" shape-rendering="crispEdges"/><rect fill="#373737" x="73.2" y="635.9" width="61" height="24.65" shape-rendering="crispEdges"/><rect fill="#373737" x="134.2" y="635.9" width="439.2" height="24.65" shape-rendering="crispEdges"/><rect fill="#373737" x="573.4" y="635.9" width="109.8" height="24.65" shape-rendering="crispEdges"/><rect fill="#373737" x="0" y="660.3" width="12.2" height="24.65" shape-rendering="crispEdges"/><rect fill="#373737" x="12.2" y="660.3" width="12.2" height="24.65" shape-rendering="crispEdges"/><rect fill="#373737" x="24.4" y="660.3" width="24.4" height="24.65" shape-rendering="crispEdges"/><rect fill="#373737" x="48.8" y="660.3" width="24.4" height="24.65" shape-rendering="crispEdges"/><rect fill="#373737" x="73.2" y="660.3" width="61" height="24.65" shape-rendering="crispEdges"/><rect fill="#373737" x="134.2" y="660.3" width="402.6" height="24.65" shape-rendering="crispEdges"/><rect fill="#373737" x="536.8" y="660.3" width="146.4" height="24.65" shape-rendering="crispEdges"/><rect fill="#373737" x="0" y="684.7" width="12.2" height="24.65" shape-rendering="crispEdges"/><rect fill="#373737" x="12.2" y="684.7" width="12.2" height="24.65" shape-rendering="crispEdges"/><rect fill="#373737" x="24.4" y="684.7" width="24.4" height="24.65" shape-rendering="crispEdges"/><rect fill="#373737" x="48.8" y="684.7" width="24.4" height="24.65" shape-rendering="crispEdges"/><rect fill="#373737" x="73.2" y="684.7" width="109.8" height="24.65" shape-rendering="crispEdges"/><rect fill="#373737" x="183" y="684.7" width="329.4" height="24.65" shape-rendering="crispEdges"/><rect fill="#373737" x="512.4" y="684.7" width="170.8" height="24.65" shape-rendering="crispEdges"/><rect fill="#373737" x="0" y="709.1" width="12.2" height="24.65" shape-rendering="crispEdges"/><rect fill="#373737" x="12.2" y="709.1" width="12.2" height="24.65" shape-rendering="crispEdges"/><rect fill="#373737" x="24.4" y="709.1" width="24.4" height="24.65" shape-rendering="crispEdges"/><rect fill="#373737" x="48.8" y="709.1" width="24.4" height="24.65" shape-rendering="crispEdges"/><rect fill="#373737" x="73.2" y="709.1" width="73.2" height="24.65" shape-rendering="crispEdges"/><rect fill="#373737" x="146.4" y="709.1" width="268.4" height="24.65" shape-rendering="crispEdges"/><rect fill="#373737" x="414.8" y="709.1" width="268.4" height="24.65" shape-rendering="crispEdges"/><rect fill="#373737" x="0" y="733.5" width="683.2" height="24.65" shape-rendering="crispEdges"/><rect fill="#373737" x="0" y="757.9" width="12.2" height="24.65" shape-rendering="crispEdges"/><rect fill="#373737" x="12.2" y="757.9" width="12.2" height="24.65" shape-rendering="crispEdges"/><rect fill="#373737" x="24.4" y="757.9" width="85.4" height="24.65" shape-rendering="crispEdges"/><rect fill="#373737" x="109.8" y="757.9" width="12.2" height="24.65" shape-rendering="crispEdges"/><rect fill="#373737" x="122" y="757.9" width="85.4" height="24.65" shape-rendering="crispEdges"/><rect fill="#373737" x="207.4" y="757.9" width="463.6" height="24.65" shape-rendering="crispEdges"/><rect fill="#373737" x="671" y="757.9" width="12.2" height="24.65" shape-rendering="crispEdges"/><rect fill="#373737" x="0" y="782.3" width="683.2" height="24.65" shape-rendering="crispEdges"/>
    <g class="terminal-1943628309-matrix">
    <text class="terminal-1943628309-r1" x="683.2" y="20" textLength="12.2" clip-path="url(#terminal-1943628309-line-0)">
</text><text class="terminal-1943628309-r2" x="219.6" y="44.4" textLength="244" clip-path="url(#terminal-1943628309-line-1)">Jan&#160;12&#160;-&#160;18,&#160;2026&#160;#3</text><text class="terminal-1943628309-r1" x="683.2" y="44.4" textLength="12.2" clip-path="url(#terminal-1943628309-line-1)">
</text><text class="terminal-1943628309-r3" x="0" y="68.8" textLength="683.2" clip-path="url(#terminal-1943628309-line-2)">â”€â”€â”€â”€â”€â”€â”€â”€â”€â”€â”€â”€â”€â”€â”€â”€â”€â”€â”€â”€â”€â”€â”€â”€â”€â”€â”€â”€â”€â”€â”€â”€â”€â”€â”€â”€â”€â”€â”€â”€â”€â”€â”€â”€â”€â”€â”€â”€â”€â”€â”€â”€â”€â”€â”€â”€</text><text class="terminal-1943628309-r1" x="683.2" y="68.8" textLength="12.2" clip-path="url(#terminal-1943628309-line-2)">
</text><text class="terminal-1943628309-r4" x="73.2" y="93.2" textLength="524.6" clip-path="url(#terminal-1943628309-line-3)">â”‚&#160;Mon&#160;â”‚&#160;Tue&#160;â”‚&#160;Wed&#160;â”‚&#160;Thu&#160;â”‚&#160;Fri&#160;â”‚&#160;Sat&#160;â”‚&#160;Sun&#160;â”‚</text><text class="terminal-1943628309-r1" x="683.2" y="93.2" textLength="12.2" clip-path="url(#terminal-1943628309-line-3)">
</text><text class="terminal-1943628309-r4" x="73.2" y="117.6" textLength="36.6" clip-path="url(#terminal-1943628309-line-4)">â”‚&#160;&#160;</text><text class="terminal-1943628309-r5" x="109.8" y="117.6" textLength="12.2" clip-path="url(#terminal-1943628309-line-4)">â–ˆ</text><text class="terminal-1943628309-r4" x="122" y="117.6" textLength="134.2" clip-path="url(#terminal-1943628309-line-4)">&#160;&#160;â”‚&#160;&#160;&#160;&#160;&#160;â”‚&#160;&#160;</text><text class="terminal-1943628309-r5" x="256.2" y="117.6" textLength="12.2" clip-path="url(#terminal-1943628309-line-4)">â–ˆ</text><text class="terminal-1943628309-r4" x="268.4" y="117.6" textLength="73.2" clip-path="url(#terminal-1943628309-line-4)">&#160;&#160;â”‚&#160;&#160;&#160;</text><text class="terminal-1943628309-r5" x="341.6" y="117.6" textLength="12.2" clip-path="url(#terminal-1943628309-line-4)">â–ˆ</text><text class="terminal-1943628309-r6" x="353.8" y="117.6" textLength="12.2" clip-path="url(#terminal-1943628309-line-4)">â–“</text><text class="terminal-1943628309-r4" x="366" y="117.6" textLength="122" clip-path="url(#terminal-1943628309-line-4)">â”‚&#160;&#160;&#160;&#160;&#160;â”‚&#160;&#160;&#160;</text><text class="terminal-1943628309-r5" x="488" y="117.6" textLength="12.2" clip-path="url(#terminal-1943628309-line-4)">â–ˆ</text><text class="terminal-1943628309-r4" x="500.2" y="117.6" textLength="48.8" clip-path="url(#terminal-1943628309-line-4)">&#160;â”‚&#160;&#160;</text><text class="terminal-1943628309-r5" x="549" y="117.6" textLength="12.2" clip-path="url(#terminal-1943628309-line-4)">â–ˆ</text><text class="terminal-1943628309-r4" x="561.2" y="117.6" textLength="36.6" clip-path="url(#terminal-1943628309-line-4)">&#160;&#160;â”‚</text><text class="terminal-1943628309-r1" x="683.2" y="117.6" textLength="12.2" clip-path="url(#terminal-1943628309-line-4)">
</text><text class="terminal-1943628309-r3" x="0" y="142" textLength="683.2" clip-path="url(#terminal-1943628309-line-5)">â”€â”€â”€â”€â”€â”€â”€â”€â”€â”€â”€â”€â”€â”€â”€â”€â”€â”€â”€â”€â”€â”€â”€â”€â”€â”€â”€â”€â”€â”€â”€â”€â”€â”€â”€â”€â”€â”€â”€â”€â”€â”€â”€â”€â”€â”€â”€â”€â”€â”€â”€â”€â”€â”€â”€â”€</text><text class="terminal-1943628309-r1" x="683.2" y="142" textLength="12.2" clip-path="url(#terminal-1943628309-line-5)">
</text><text class="terminal-1943628309-r7" x="0" y="166.4" textLength="134.2" clip-path="url(#terminal-1943628309-line-6)">Mon,&#160;Jan&#160;12</text><text class="terminal-1943628309-r1" x="683.2" y="166.4" textLength="12.2" clip-path="url(#terminal-1943628309-line-6)">
</text><text class="terminal-1943628309-r8" x="12.2" y="190.8" textLength="12.2" clip-path="url(#terminal-1943628309-line-7)">a</text><text class="terminal-1943628309-r9" x="48.8" y="190.8" textLength="24.4" clip-path="url(#terminal-1943628309-line-7)">*&#160;</text><text class="terminal-1943628309-r9" x="73.2" y="190.8" textLength="85.4" clip-path="url(#terminal-1943628309-line-7)">7-8:00&#160;</text><text class="terminal-1943628309-r9" x="158.6" y="190.8" textLength="292.8" clip-path="url(#terminal-1943628309-line-7)">Magnam&#160;etincidunt&#160;porro&#160;</text><text class="terminal-1943628309-r1" x="683.2" y="190.8" textLength="12.2" clip-path="url(#terminal-1943628309-line-7)">
</text><text class="terminal-1943628309-r7" x="0" y="215.2" textLength="134.2" clip-path="url(#terminal-1943628309-line-8)">Tue,&#160;Jan&#160;13</text><text class="terminal-1943628309-r1" x="683.2" y="215.2" textLength="12.2" clip-path="url(#terminal-1943628309-line-8)">
</text><text class="terminal-1943628309-r8" x="12.2" y="239.6" textLength="12.2" clip-path="url(#terminal-1943628309-line-9)">b</text><text class="terminal-1943628309-r10" x="48.8" y="239.6" textLength="24.4" clip-path="url(#terminal-1943628309-line-9)">~&#160;</text><text class="terminal-1943628309-r10" x="73.2" y="239.6" textLength="61" clip-path="url(#terminal-1943628309-line-9)">6:26&#160;</text><text class="terminal-1943628309-r10" x="134.2" y="239.6" textLength="183" clip-path="url(#terminal-1943628309-line-9)">Non&#160;sit&#160;sit&#160;ut&#160;</text><text class="terminal-1943628309-r1" x="683.2" y="239.6" textLength="12.2" clip-path="url(#terminal-1943628309-line-9)">
</text><text class="terminal-1943628309-r8" x="12.2" y="264" textLength="12.2" clip-path="url(#terminal-1943628309-line-10)">c</text><text class="terminal-1943628309-r10" x="48.8" y="264" textLength="24.4" clip-path="url(#terminal-1943628309-line-10)">~&#160;</text><text class="terminal-1943628309-r10" x="73.2" y="264" textLength="61" clip-path="url(#terminal-1943628309-line-10)">6:26&#160;</text><text class="terminal-1943628309-r10" x="134.2" y="264" textLength="280.6" clip-path="url(#terminal-1943628309-line-10)">Adipisci&#160;neque&#160;non&#160;sed&#160;</text><text class="terminal-1943628309-r1" x="683.2" y="264" textLength="12.2" clip-path="url(#terminal-1943628309-line-10)">
</text><text class="terminal-1943628309-r7" x="0" y="288.4" textLength="134.2" clip-path="url(#terminal-1943628309-line-11)">Wed,&#160;Jan&#160;14</text><text class="terminal-1943628309-r1" x="683.2" y="288.4" textLength="12.2" clip-path="url(#terminal-1943628309-line-11)">
</text><text class="terminal-1943628309-r8" x="12.2" y="312.8" textLength="12.2" clip-path="url(#terminal-1943628309-line-12)">d</text><text class="terminal-1943628309-r9" x="48.8" y="312.8" textLength="292.8" clip-path="url(#terminal-1943628309-line-12)">*&#160;Aliquam&#160;porro&#160;ut&#160;amet&#160;</text><text class="terminal-1943628309-r1" x="683.2" y="312.8" textLength="12.2" clip-path="url(#terminal-1943628309-line-12)">
</text><text class="terminal-1943628309-r8" x="12.2" y="337.2" textLength="12.2" clip-path="url(#terminal-1943628309-line-13)">e</text><text class="terminal-1943628309-r9" x="48.8" y="337.2" textLength="24.4" clip-path="url(#terminal-1943628309-line-13)">*&#160;</text><text class="terminal-1943628309-r9" x="73.2" y="337.2" textLength="109.8" clip-path="url(#terminal-1943628309-line-13)">11-11:15&#160;</text><text class="terminal-1943628309-r9" x="183" y="337.2" textLength="292.8" clip-path="url(#terminal-1943628309-line-13)">Eius&#160;numquam&#160;porro&#160;eius&#160;</text><text class="terminal-1943628309-r1" x="683.2" y="337.2" textLength="12.2" clip-path="url(#terminal-1943628309-line-13)">
</text><text class="terminal-1943628309-r7" x="0" y="361.6" textLength="134.2" clip-path="url(#terminal-1943628309-line-14)">Thu,&#160;Jan&#160;15</text><text class="terminal-1943628309-r1" x="683.2" y="361.6" textLength="12.2" clip-path="url(#terminal-1943628309-line-14)">
</text><text class="terminal-1943628309-r8" x="12.2" y="386" textLength="12.2" clip-path="url(#terminal-1943628309-line-15)">f</text><text class="terminal-1943628309-r9" x="48.8" y="386" textLength="24.4" clip-path="url(#terminal-1943628309-line-15)">*&#160;</text><text class="terminal-1943628309-r9" x="73.2" y="386" textLength="109.8" clip-path="url(#terminal-1943628309-line-15)">15-15:15&#160;</text><text class="terminal-1943628309-r9" x="183" y="386" textLength="341.6" clip-path="url(#terminal-1943628309-line-15)">Amet&#160;quaerat&#160;quisquam&#160;neque&#160;</text><text class="terminal-1943628309-r1" x="683.2" y="386" textLength="12.2" clip-path="url(#terminal-1943628309-line-15)">
</text><text class="terminal-1943628309-r8" x="12.2" y="410.4" textLength="12.2" clip-path="url(#terminal-1943628309-line-16)">g</text><text class="terminal-1943628309-r9" x="48.8" y="410.4" textLength="24.4" clip-path="url(#terminal-1943628309-line-16)">*&#160;</text><text class="terminal-1943628309-r9" x="73.2" y="410.4" textLength="109.8" clip-path="url(#terminal-1943628309-line-16)">19-20:00&#160;</text><text class="terminal-1943628309-r9" x="183" y="410.4" textLength="329.4" clip-path="url(#terminal-1943628309-line-16)">Tempora&#160;numquam&#160;voluptatem&#160;</text><text class="terminal-1943628309-r1" x="683.2" y="410.4" textLength="12.2" clip-path="url(#terminal-1943628309-line-16)">
</text><text class="terminal-1943628309-r8" x="12.2" y="434.8" textLength="12.2" clip-path="url(#terminal-1943628309-line-17)">h</text><text class="terminal-1943628309-r9" x="48.8" y="434.8" textLength="24.4" clip-path="url(#terminal-1943628309-line-17)">*&#160;</text><text class="terminal-1943628309-r9" x="73.2" y="434.8" textLength="146.4" clip-path="url(#terminal-1943628309-line-17)">19:30-20:30&#160;</text><text class="terminal-1943628309-r9" x="219.6" y="434.8" textLength="292.8" clip-path="url(#terminal-1943628309-line-17)">Ut&#160;ipsum&#160;ipsum&#160;modi&#160;est&#160;</text><text class="terminal-1943628309-r1" x="683.2" y="434.8" textLength="12.2" clip-path="url(#terminal-1943628309-line-17)">
</text><text class="terminal-1943628309-r7" x="0" y="459.2" textLength="134.2" clip-path="url(#terminal-1943628309-line-18)">Fri,&#160;Jan&#160;16</text><text class="terminal-1943628309-r1" x="683.2" y="459.2" textLength="12.2" clip-path="url(#terminal-1943628309-line-18)">
</text><text class="terminal-1943628309-r8" x="12.2" y="483.6" textLength="12.2" clip-path="url(#terminal-1943628309-line-19)">i</text><text class="terminal-1943628309-r11" x="48.8" y="483.6" textLength="24.4" clip-path="url(#terminal-1943628309-line-19)">%&#160;</text><text class="terminal-1943628309-r11" x="73.2" y="483.6" textLength="73.2" clip-path="url(#terminal-1943628309-line-19)">13:00&#160;</text><text class="terminal-1943628309-r11" x="146.4" y="483.6" textLength="366" clip-path="url(#terminal-1943628309-line-19)">Eius&#160;amet&#160;adipisci&#160;etincidunt&#160;</text><text class="terminal-1943628309-r1" x="683.2" y="483.6" textLength="12.2" clip-path="url(#terminal-1943628309-line-19)">
</text><text class="terminal-1943628309-r7" x="0" y="508" textLength="134.2" clip-path="url(#terminal-1943628309-line-20)">Sat,&#160;Jan&#160;17</text><text class="terminal-1943628309-r1" x="683.2" y="508" textLength="12.2" clip-path="url(#terminal-1943628309-line-20)">
</text><text class="terminal-1943628309-r8" x="12.2" y="532.4" textLength="12.2" clip-path="url(#terminal-1943628309-line-21)">j</text><text class="terminal-1943628309-r11" x="48.8" y="532.4" textLength="24.4" clip-path="url(#terminal-1943628309-line-21)">%&#160;</text><text class="terminal-1943628309-r11" x="73.2" y="532.4" textLength="73.2" clip-path="url(#terminal-1943628309-line-21)">11:00&#160;</text><text class="terminal-1943628309-r11" x="146.4" y="532.4" textLength="366" clip-path="url(#terminal-1943628309-line-21)">Voluptatem&#160;magnam&#160;numquam&#160;sit&#160;</text><text class="terminal-1943628309-r1" x="683.2" y="532.4" textLength="12.2" clip-path="url(#terminal-1943628309-line-21)">
</text><text class="terminal-1943628309-r8" x="12.2" y="556.8" textLength="12.2" clip-path="url(#terminal-1943628309-line-22)">k</text><text class="terminal-1943628309-r9" x="48.8" y="556.8" textLength="24.4" clip-path="url(#terminal-1943628309-line-22)">*&#160;</text><text class="terminal-1943628309-r9" x="73.2" y="556.8" textLength="146.4" clip-path="url(#terminal-1943628309-line-22)">12:30-14:15&#160;</text><text class="terminal-1943628309-r9" x="219.6" y="556.8" textLength="402.6" clip-path="url(#terminal-1943628309-line-22)">Neque&#160;tempora&#160;aliquam&#160;etincidunt&#160;</text><text class="terminal-1943628309-r1" x="683.2" y="556.8" textLength="12.2" clip-path="url(#terminal-1943628309-line-22)">
</text><text class="terminal-1943628309-r8" x="12.2" y="581.2" textLength="12.2" clip-path="url(#terminal-1943628309-line-23)">l</text><text class="terminal-1943628309-r9" x="48.8" y="581.2" textLength="24.4" clip-path="url(#terminal-1943628309-line-23)">*&#160;</text><text class="terminal-1943628309-r9" x="73.2" y="581.2" textLength="146.4" clip-path="url(#terminal-1943628309-line-23)">14:30-15:15&#160;</text><text class="terminal-1943628309-r9" x="219.6" y="581.2" textLength="280.6" clip-path="url(#terminal-1943628309-line-23)">Quaerat&#160;velit&#160;adipisci&#160;</text><text class="terminal-1943628309-r1" x="683.2" y="581.2" textLength="12.2" clip-path="url(#terminal-1943628309-line-23)">
</text><text class="terminal-1943628309-r7" x="0" y="605.6" textLength="231.8" clip-path="url(#terminal-1943628309-line-24)">Sun,&#160;Jan&#160;18&#160;(today)</text><text class="terminal-1943628309-r1" x="683.2" y="605.6" textLength="12.2" clip-path="url(#terminal-1943628309-line-24)">
</text><text class="terminal-1943628309-r8" x="12.2" y="630" textLength="12.2" clip-path="url(#terminal-1943628309-line-25)">m</text><text class="terminal-1943628309-r9" x="48.8" y="630" textLength="24.4" clip-path="url(#terminal-1943628309-line-25)">*&#160;</text><text class="terminal-1943628309-r9" x="73.2" y="630" textLength="61" clip-path="url(#terminal-1943628309-line-25)">7:40&#160;</text><text class="terminal-1943628309-r9" x="134.2" y="630" textLength="244" clip-path="url(#terminal-1943628309-line-25)">Dolor&#160;tempora&#160;modi&#160;ğ•’</text><text class="terminal-1943628309-r1" x="683.2" y="630" textLength="12.2" clip-path="url(#terminal-1943628309-line-25)">
</text><text class="terminal-1943628309-r8" x="12.2" y="654.4" textLength="12.2" clip-path="url(#terminal-1943628309-line-26)">n</text><text class="terminal-1943628309-r10" x="48.8" y="654.4" textLength="24.4" clip-path="url(#terminal-1943628309-line-26)">~&#160;</text><text class="terminal-1943628309-r10" x="73.2" y="654.4" textLength="61" clip-path="url(#terminal-1943628309-line-26)">8:30&#160;</text><text class="terminal-1943628309-r10" x="134.2" y="654.4" textLength="439.2" clip-path="url(#terminal-1943628309-line-26)">Labore&#160;quaerat&#160;quisquam&#160;non&#160;aliquam&#160;</text><text class="terminal-1943628309-r1" x="683.2" y="654.4" textLength="12.2" clip-path="url(#terminal-1943628309-line-26)">
</text><text class="terminal-1943628309-r8" x="12.2" y="678.8" textLength="12.2" clip-path="url(#terminal-1943628309-line-27)">o</text><text class="terminal-1943628309-r10" x="48.8" y="678.8" textLength="24.4" clip-path="url(#terminal-1943628309-line-27)">~&#160;</text><text class="terminal-1943628309-r10" x="73.2" y="678.8" textLength="61" clip-path="url(#terminal-1943628309-line-27)">8:30&#160;</text><text class="terminal-1943628309-r10" x="134.2" y="678.8" textLength="402.6" clip-path="url(#terminal-1943628309-line-27)">Velit&#160;quisquam&#160;voluptatem&#160;labore&#160;</text><text class="terminal-1943628309-r1" x="683.2" y="678.8" textLength="12.2" clip-path="url(#terminal-1943628309-line-27)">
</text><text class="terminal-1943628309-r8" x="12.2" y="703.2" textLength="12.2" clip-path="url(#terminal-1943628309-line-28)">p</text><text class="terminal-1943628309-r9" x="48.8" y="703.2" textLength="24.4" clip-path="url(#terminal-1943628309-line-28)">*&#160;</text><text class="terminal-1943628309-r9" x="73.2" y="703.2" textLength="109.8" clip-path="url(#terminal-1943628309-line-28)">10-10:45&#160;</text><text class="terminal-1943628309-r9" x="183" y="703.2" textLength="329.4" clip-path="url(#terminal-1943628309-line-28)">Ut&#160;quaerat&#160;modi&#160;voluptatem&#160;</text><text class="terminal-1943628309-r1" x="683.2" y="703.2" textLength="12.2" clip-path="url(#terminal-1943628309-line-28)">
</text><text class="terminal-1943628309-r8" x="12.2" y="727.6" textLength="12.2" clip-path="url(#terminal-1943628309-line-29)">q</text><text class="terminal-1943628309-r11" x="48.8" y="727.6" textLength="24.4" clip-path="url(#terminal-1943628309-line-29)">%&#160;</text><text class="terminal-1943628309-r11" x="73.2" y="727.6" textLength="73.2" clip-path="url(#terminal-1943628309-line-29)">17:30&#160;</text><text class="terminal-1943628309-r11" x="146.4" y="727.6" textLength="268.4" clip-path="url(#terminal-1943628309-line-29)">Sit&#160;sed&#160;tempora&#160;ipsum&#160;</text><text class="terminal-1943628309-r1" x="683.2" y="727.6" textLength="12.2" clip-path="url(#terminal-1943628309-line-29)">
</text><text class="terminal-1943628309-r3" x="0" y="752" textLength="683.2" clip-path="url(#terminal-1943628309-line-30)">â”€â”€â”€â”€â”€â”€â”€â”€â”€â”€â”€â”€â”€â”€â”€â”€â”€â”€â”€â”€â”€â”€â”€â”€â”€â”€â”€â”€â”€â”€â”€â”€â”€â”€â”€â”€â”€â”€â”€â”€â”€â”€â”€â”€â”€â”€â”€â”€â”€â”€â”€â”€â”€â”€â”€â”€</text><text class="terminal-1943628309-r1" x="683.2" y="752" textLength="12.2" clip-path="url(#terminal-1943628309-line-30)">
</text><text class="terminal-1943628309-r12" x="12.2" y="776.4" textLength="12.2" clip-path="url(#terminal-1943628309-line-31)">?</text><text class="terminal-1943628309-r2" x="24.4" y="776.4" textLength="85.4" clip-path="url(#terminal-1943628309-line-31)">&#160;Help&#160;&#160;</text><text class="terminal-1943628309-r12" x="109.8" y="776.4" textLength="12.2" clip-path="url(#terminal-1943628309-line-31)">/</text><text class="terminal-1943628309-r2" x="122" y="776.4" textLength="85.4" clip-path="url(#terminal-1943628309-line-31)">&#160;Search</text><text class="terminal-1943628309-r1" x="683.2" y="776.4" textLength="12.2" clip-path="url(#terminal-1943628309-line-31)">
</text>
    </g>
    </g>
</svg>
