<svg class="rich-terminal" viewBox="0 0 738 904.0" xmlns="http://www.w3.org/2000/svg">
    <!-- Generated with Rich https://www.textualize.io -->
    <style>

    @font-face {
        font-family: "Fira Code";
        src: local("FiraCode-Regular"),
                url("https://cdnjs.cloudflare.com/ajax/libs/firacode/6.2.0/woff2/FiraCode-Regular.woff2") format("woff2"),
                url("https://cdnjs.cloudflare.com/ajax/libs/firacode/6.2.0/woff/FiraCode-Regular.woff") format("woff");
        font-style: normal;
        font-weight: 400;
    }
    @font-face {
        font-family: "Fira Code";
        src: local("FiraCode-Bold"),
                url("https://cdnjs.cloudflare.com/ajax/libs/firacode/6.2.0/woff2/FiraCode-Bold.woff2") format("woff2"),
                url("https://cdnjs.cloudflare.com/ajax/libs/firacode/6.2.0/woff/FiraCode-Bold.woff") format("woff");
        font-style: bold;
        font-weight: 700;
    }

    .terminal-1530489314-matrix {
        font-family: Fira Code, monospace;
        font-size: 20px;
        line-height: 24.4px;
        font-variant-east-asian: full-width;
    }

    .terminal-1530489314-title {
        font-size: 18px;
        font-weight: bold;
        font-family: arial;
    }

    .terminal-1530489314-r1 { fill: #c5c8c6 }
.terminal-1530489314-r2 { fill: #ffffff;font-weight: bold }
.terminal-1530489314-r3 { fill: #7f7f7f }
.terminal-1530489314-r4 { fill: #e0e0e0;font-weight: bold }
.terminal-1530489314-r5 { fill: #ffff00;font-weight: bold }
.terminal-1530489314-r6 { fill: #008000;font-weight: bold }
.terminal-1530489314-r7 { fill: #ff0000;font-weight: bold }
.terminal-1530489314-r8 { fill: #fffacd;font-weight: bold }
.terminal-1530489314-r9 { fill: #373737 }
.terminal-1530489314-r10 { fill: #8c8e8c }
.terminal-1530489314-r11 { fill: #32cd32 }
.terminal-1530489314-r12 { fill: #87cefa }
.terminal-1530489314-r13 { fill: #000000 }
.terminal-1530489314-r14 { fill: #e0e0e0 }
.terminal-1530489314-r15 { fill: #c5c8c6;font-weight: bold }
.terminal-1530489314-r16 { fill: #daa520;font-weight: bold }
.terminal-1530489314-r17 { fill: #daa520 }
    </style>

    <defs>
    <clipPath id="terminal-1530489314-clip-terminal">
      <rect x="0" y="0" width="718.8" height="853.0" />
    </clipPath>
    <clipPath id="terminal-1530489314-line-0">
    <rect x="0" y="1.5" width="719.8" height="24.65"/>
            </clipPath>
<clipPath id="terminal-1530489314-line-1">
    <rect x="0" y="25.9" width="719.8" height="24.65"/>
            </clipPath>
<clipPath id="terminal-1530489314-line-2">
    <rect x="0" y="50.3" width="719.8" height="24.65"/>
            </clipPath>
<clipPath id="terminal-1530489314-line-3">
    <rect x="0" y="74.7" width="719.8" height="24.65"/>
            </clipPath>
<clipPath id="terminal-1530489314-line-4">
    <rect x="0" y="99.1" width="719.8" height="24.65"/>
            </clipPath>
<clipPath id="terminal-1530489314-line-5">
    <rect x="0" y="123.5" width="719.8" height="24.65"/>
            </clipPath>
<clipPath id="terminal-1530489314-line-6">
    <rect x="0" y="147.9" width="719.8" height="24.65"/>
            </clipPath>
<clipPath id="terminal-1530489314-line-7">
    <rect x="0" y="172.3" width="719.8" height="24.65"/>
            </clipPath>
<clipPath id="terminal-1530489314-line-8">
    <rect x="0" y="196.7" width="719.8" height="24.65"/>
            </clipPath>
<clipPath id="terminal-1530489314-line-9">
    <rect x="0" y="221.1" width="719.8" height="24.65"/>
            </clipPath>
<clipPath id="terminal-1530489314-line-10">
    <rect x="0" y="245.5" width="719.8" height="24.65"/>
            </clipPath>
<clipPath id="terminal-1530489314-line-11">
    <rect x="0" y="269.9" width="719.8" height="24.65"/>
            </clipPath>
<clipPath id="terminal-1530489314-line-12">
    <rect x="0" y="294.3" width="719.8" height="24.65"/>
            </clipPath>
<clipPath id="terminal-1530489314-line-13">
    <rect x="0" y="318.7" width="719.8" height="24.65"/>
            </clipPath>
<clipPath id="terminal-1530489314-line-14">
    <rect x="0" y="343.1" width="719.8" height="24.65"/>
            </clipPath>
<clipPath id="terminal-1530489314-line-15">
    <rect x="0" y="367.5" width="719.8" height="24.65"/>
            </clipPath>
<clipPath id="terminal-1530489314-line-16">
    <rect x="0" y="391.9" width="719.8" height="24.65"/>
            </clipPath>
<clipPath id="terminal-1530489314-line-17">
    <rect x="0" y="416.3" width="719.8" height="24.65"/>
            </clipPath>
<clipPath id="terminal-1530489314-line-18">
    <rect x="0" y="440.7" width="719.8" height="24.65"/>
            </clipPath>
<clipPath id="terminal-1530489314-line-19">
    <rect x="0" y="465.1" width="719.8" height="24.65"/>
            </clipPath>
<clipPath id="terminal-1530489314-line-20">
    <rect x="0" y="489.5" width="719.8" height="24.65"/>
            </clipPath>
<clipPath id="terminal-1530489314-line-21">
    <rect x="0" y="513.9" width="719.8" height="24.65"/>
            </clipPath>
<clipPath id="terminal-1530489314-line-22">
    <rect x="0" y="538.3" width="719.8" height="24.65"/>
            </clipPath>
<clipPath id="terminal-1530489314-line-23">
    <rect x="0" y="562.7" width="719.8" height="24.65"/>
            </clipPath>
<clipPath id="terminal-1530489314-line-24">
    <rect x="0" y="587.1" width="719.8" height="24.65"/>
            </clipPath>
<clipPath id="terminal-1530489314-line-25">
    <rect x="0" y="611.5" width="719.8" height="24.65"/>
            </clipPath>
<clipPath id="terminal-1530489314-line-26">
    <rect x="0" y="635.9" width="719.8" height="24.65"/>
            </clipPath>
<clipPath id="terminal-1530489314-line-27">
    <rect x="0" y="660.3" width="719.8" height="24.65"/>
            </clipPath>
<clipPath id="terminal-1530489314-line-28">
    <rect x="0" y="684.7" width="719.8" height="24.65"/>
            </clipPath>
<clipPath id="terminal-1530489314-line-29">
    <rect x="0" y="709.1" width="719.8" height="24.65"/>
            </clipPath>
<clipPath id="terminal-1530489314-line-30">
    <rect x="0" y="733.5" width="719.8" height="24.65"/>
            </clipPath>
<clipPath id="terminal-1530489314-line-31">
    <rect x="0" y="757.9" width="719.8" height="24.65"/>
            </clipPath>
<clipPath id="terminal-1530489314-line-32">
    <rect x="0" y="782.3" width="719.8" height="24.65"/>
            </clipPath>
<clipPath id="terminal-1530489314-line-33">
    <rect x="0" y="806.7" width="719.8" height="24.65"/>
            </clipPath>
    </defs>

    <rect fill="#292929" stroke="rgba(255,255,255,0.35)" stroke-width="1" x="1" y="1" width="736" height="902" rx="8"/>
            <g transform="translate(26,22)">
            <circle cx="0" cy="0" r="7" fill="#ff5f57"/>
            <circle cx="22" cy="0" r="7" fill="#febc2e"/>
            <circle cx="44" cy="0" r="7" fill="#28c840"/>
            </g>
        
    <g transform="translate(9, 41)" clip-path="url(#terminal-1530489314-clip-terminal)">
    <rect fill="#373737" x="0" y="1.5" width="719.8" height="24.65" shape-rendering="crispEdges"/><rect fill="#373737" x="0" y="25.9" width="12.2" height="24.65" shape-rendering="crispEdges"/><rect fill="#373737" x="12.2" y="25.9" width="231.8" height="24.65" shape-rendering="crispEdges"/><rect fill="#373737" x="244" y="25.9" width="231.8" height="24.65" shape-rendering="crispEdges"/><rect fill="#373737" x="475.8" y="25.9" width="231.8" height="24.65" shape-rendering="crispEdges"/><rect fill="#373737" x="707.6" y="25.9" width="12.2" height="24.65" shape-rendering="crispEdges"/><rect fill="#373737" x="0" y="50.3" width="719.8" height="24.65" shape-rendering="crispEdges"/><rect fill="#373737" x="0" y="74.7" width="97.6" height="24.65" shape-rendering="crispEdges"/><rect fill="#373737" x="97.6" y="74.7" width="524.6" height="24.65" shape-rendering="crispEdges"/><rect fill="#373737" x="622.2" y="74.7" width="97.6" height="24.65" shape-rendering="crispEdges"/><rect fill="#373737" x="0" y="99.1" width="97.6" height="24.65" shape-rendering="crispEdges"/><rect fill="#373737" x="97.6" y="99.1" width="12.2" height="24.65" shape-rendering="crispEdges"/><rect fill="#373737" x="109.8" y="99.1" width="12.2" height="24.65" shape-rendering="crispEdges"/><rect fill="#373737" x="122" y="99.1" width="24.4" height="24.65" shape-rendering="crispEdges"/><rect fill="#373737" x="146.4" y="99.1" width="12.2" height="24.65" shape-rendering="crispEdges"/><rect fill="#373737" x="158.6" y="99.1" width="12.2" height="24.65" shape-rendering="crispEdges"/><rect fill="#373737" x="170.8" y="99.1" width="207.4" height="24.65" shape-rendering="crispEdges"/><rect fill="#373737" x="378.2" y="99.1" width="12.2" height="24.65" shape-rendering="crispEdges"/><rect fill="#373737" x="390.4" y="99.1" width="61" height="24.65" shape-rendering="crispEdges"/><rect fill="#373737" x="451.4" y="99.1" width="12.2" height="24.65" shape-rendering="crispEdges"/><rect fill="#373737" x="463.6" y="99.1" width="36.6" height="24.65" shape-rendering="crispEdges"/><rect fill="#373737" x="500.2" y="99.1" width="12.2" height="24.65" shape-rendering="crispEdges"/><rect fill="#373737" x="512.4" y="99.1" width="12.2" height="24.65" shape-rendering="crispEdges"/><rect fill="#373737" x="524.6" y="99.1" width="97.6" height="24.65" shape-rendering="crispEdges"/><rect fill="#373737" x="622.2" y="99.1" width="97.6" height="24.65" shape-rendering="crispEdges"/><rect fill="#373737" x="0" y="123.5" width="719.8" height="24.65" shape-rendering="crispEdges"/><rect fill="#373737" x="0" y="147.9" width="122" height="24.65" shape-rendering="crispEdges"/><rect fill="#373737" x="122" y="147.9" width="573.4" height="24.65" shape-rendering="crispEdges"/><rect fill="#003054" x="695.4" y="147.9" width="24.4" height="24.65" shape-rendering="crispEdges"/><rect fill="#373737" x="0" y="172.3" width="12.2" height="24.65" shape-rendering="crispEdges"/><rect fill="#373737" x="12.2" y="172.3" width="12.2" height="24.65" shape-rendering="crispEdges"/><rect fill="#373737" x="24.4" y="172.3" width="24.4" height="24.65" shape-rendering="crispEdges"/><rect fill="#373737" x="48.8" y="172.3" width="244" height="24.65" shape-rendering="crispEdges"/><rect fill="#373737" x="292.8" y="172.3" width="402.6" height="24.65" shape-rendering="crispEdges"/><rect fill="#003054" x="695.4" y="172.3" width="24.4" height="24.65" shape-rendering="crispEdges"/><rect fill="#373737" x="0" y="196.7" width="12.2" height="24.65" shape-rendering="crispEdges"/><rect fill="#373737" x="12.2" y="196.7" width="12.2" height="24.65" shape-rendering="crispEdges"/><rect fill="#373737" x="24.4" y="196.7" width="24.4" height="24.65" shape-rendering="crispEdges"/><rect fill="#373737" x="48.8" y="196.7" width="24.4" height="24.65" shape-rendering="crispEdges"/><rect fill="#373737" x="73.2" y="196.7" width="146.4" height="24.65" shape-rendering="crispEdges"/><rect fill="#373737" x="219.6" y="196.7" width="292.8" height="24.65" shape-rendering="crispEdges"/><rect fill="#373737" x="512.4" y="196.7" width="183" height="24.65" shape-rendering="crispEdges"/><rect fill="#003054" x="695.4" y="196.7" width="24.4" height="24.65" shape-rendering="crispEdges"/><rect fill="#373737" x="0" y="221.1" width="12.2" height="24.65" shape-rendering="crispEdges"/><rect fill="#373737" x="12.2" y="221.1" width="12.2" height="24.65" shape-rendering="crispEdges"/><rect fill="#373737" x="24.4" y="221.1" width="24.4" height="24.65" shape-rendering="crispEdges"/><rect fill="#373737" x="48.8" y="221.1" width="24.4" height="24.65" shape-rendering="crispEdges"/><rect fill="#373737" x="73.2" y="221.1" width="73.2" height="24.65" shape-rendering="crispEdges"/><rect fill="#373737" x="146.4" y="221.1" width="268.4" height="24.65" shape-rendering="crispEdges"/><rect fill="#373737" x="414.8" y="221.1" width="280.6" height="24.65" shape-rendering="crispEdges"/><rect fill="#003054" x="695.4" y="221.1" width="24.4" height="24.65" shape-rendering="crispEdges"/><rect fill="#373737" x="0" y="245.5" width="12.2" height="24.65" shape-rendering="crispEdges"/><rect fill="#373737" x="12.2" y="245.5" width="12.2" height="24.65" shape-rendering="crispEdges"/><rect fill="#373737" x="24.4" y="245.5" width="24.4" height="24.65" shape-rendering="crispEdges"/><rect fill="#373737" x="48.8" y="245.5" width="24.4" height="24.65" shape-rendering="crispEdges"/><rect fill="#373737" x="73.2" y="245.5" width="146.4" height="24.65" shape-rendering="crispEdges"/><rect fill="#373737" x="219.6" y="245.5" width="195.2" height="24.65" shape-rendering="crispEdges"/><rect fill="#373737" x="414.8" y="245.5" width="280.6" height="24.65" shape-rendering="crispEdges"/><rect fill="#003054" x="695.4" y="245.5" width="24.4" height="24.65" shape-rendering="crispEdges"/><rect fill="#373737" x="0" y="269.9" width="12.2" height="24.65" shape-rendering="crispEdges"/><rect fill="#373737" x="12.2" y="269.9" width="12.2" height="24.65" shape-rendering="crispEdges"/><rect fill="#373737" x="24.4" y="269.9" width="24.4" height="24.65" shape-rendering="crispEdges"/><rect fill="#373737" x="48.8" y="269.9" width="24.4" height="24.65" shape-rendering="crispEdges"/><rect fill="#373737" x="73.2" y="269.9" width="146.4" height="24.65" shape-rendering="crispEdges"/><rect fill="#373737" x="219.6" y="269.9" width="329.4" height="24.65" shape-rendering="crispEdges"/><rect fill="#373737" x="549" y="269.9" width="146.4" height="24.65" shape-rendering="crispEdges"/><rect fill="#003054" x="695.4" y="269.9" width="24.4" height="24.65" shape-rendering="crispEdges"/><rect fill="#373737" x="0" y="294.3" width="122" height="24.65" shape-rendering="crispEdges"/><rect fill="#373737" x="122" y="294.3" width="573.4" height="24.65" shape-rendering="crispEdges"/><rect fill="#000000" x="695.4" y="294.3" width="24.4" height="24.65" shape-rendering="crispEdges"/><rect fill="#373737" x="0" y="318.7" width="12.2" height="24.65" shape-rendering="crispEdges"/><rect fill="#373737" x="12.2" y="318.7" width="12.2" height="24.65" shape-rendering="crispEdges"/><rect fill="#373737" x="24.4" y="318.7" width="24.4" height="24.65" shape-rendering="crispEdges"/><rect fill="#373737" x="48.8" y="318.7" width="24.4" height="24.65" shape-rendering="crispEdges"/><rect fill="#373737" x="73.2" y="318.7" width="73.2" height="24.65" shape-rendering="crispEdges"/><rect fill="#373737" x="146.4" y="318.7" width="280.6" height="24.65" shape-rendering="crispEdges"/><rect fill="#373737" x="427" y="318.7" width="268.4" height="24.65" shape-rendering="crispEdges"/><rect fill="#000000" x="695.4" y="318.7" width="24.4" height="24.65" shape-rendering="crispEdges"/><rect fill="#373737" x="0" y="343.1" width="12.2" height="24.65" shape-rendering="crispEdges"/><rect fill="#373737" x="12.2" y="343.1" width="12.2" height="24.65" shape-rendering="crispEdges"/><rect fill="#373737" x="24.4" y="343.1" width="24.4" height="24.65" shape-rendering="crispEdges"/><rect fill="#373737" x="48.8" y="343.1" width="24.4" height="24.65" shape-rendering="crispEdges"/><rect fill="#373737" x="73.2" y="343.1" width="73.2" height="24.65" shape-rendering="crispEdges"/><rect fill="#373737" x="146.4" y="343.1" width="341.6" height="24.65" shape-rendering="crispEdges"/><rect fill="#373737" x="488" y="343.1" width="207.4" height="24.65" shape-rendering="crispEdges"/><rect fill="#000000" x="695.4" y="343.1" width="24.4" height="24.65" shape-rendering="crispEdges"/><rect fill="#373737" x="0" y="367.5" width="122" height="24.65" shape-rendering="crispEdges"/><rect fill="#373737" x="122" y="367.5" width="573.4" height="24.65" shape-rendering="crispEdges"/><rect fill="#000000" x="695.4" y="367.5" width="24.4" height="24.65" shape-rendering="crispEdges"/><rect fill="#373737" x="0" y="391.9" width="12.2" height="24.65" shape-rendering="crispEdges"/><rect fill="#373737" x="12.2" y="391.9" width="12.2" height="24.65" shape-rendering="crispEdges"/><rect fill="#373737" x="24.4" y="391.9" width="24.4" height="24.65" shape-rendering="crispEdges"/><rect fill="#373737" x="48.8" y="391.9" width="24.4" height="24.65" shape-rendering="crispEdges"/><rect fill="#373737" x="73.2" y="391.9" width="73.2" height="24.65" shape-rendering="crispEdges"/><rect fill="#373737" x="146.4" y="391.9" width="378.2" height="24.65" shape-rendering="crispEdges"/><rect fill="#373737" x="524.6" y="391.9" width="170.8" height="24.65" shape-rendering="crispEdges"/><rect fill="#000000" x="695.4" y="391.9" width="24.4" height="24.65" shape-rendering="crispEdges"/><rect fill="#373737" x="0" y="416.3" width="122" height="24.65" shape-rendering="crispEdges"/><rect fill="#373737" x="122" y="416.3" width="573.4" height="24.65" shape-rendering="crispEdges"/><rect fill="#000000" x="695.4" y="416.3" width="24.4" height="24.65" shape-rendering="crispEdges"/><rect fill="#373737" x="0" y="440.7" width="719.8" height="24.65" shape-rendering="crispEdges"/><rect fill="#373737" x="0" y="465.1" width="695.4" height="24.65" shape-rendering="crispEdges"/><rect fill="#373737" x="695.4" y="465.1" width="24.4" height="24.65" shape-rendering="crispEdges"/><rect fill="#373737" x="0" y="489.5" width="12.2" height="24.65" shape-rendering="crispEdges"/><rect fill="#373737" x="12.2" y="489.5" width="353.8" height="24.65" shape-rendering="crispEdges"/><rect fill="#373737" x="366" y="489.5" width="353.8" height="24.65" shape-rendering="crispEdges"/><rect fill="#373737" x="0" y="513.9" width="36.6" height="24.65" shape-rendering="crispEdges"/><rect fill="#373737" x="36.6" y="513.9" width="597.8" height="24.65" shape-rendering="crispEdges"/><rect fill="#373737" x="634.4" y="513.9" width="85.4" height="24.65" shape-rendering="crispEdges"/><rect fill="#373737" x="0" y="538.3" width="658.8" height="24.65" shape-rendering="crispEdges"/><rect fill="#373737" x="658.8" y="538.3" width="61" height="24.65" shape-rendering="crispEdges"/><rect fill="#373737" x="0" y="562.7" width="671" height="24.65" shape-rendering="crispEdges"/><rect fill="#373737" x="671" y="562.7" width="48.8" height="24.65" shape-rendering="crispEdges"/><rect fill="#373737" x="0" y="587.1" width="658.8" height="24.65" shape-rendering="crispEdges"/><rect fill="#373737" x="658.8" y="587.1" width="61" height="24.65" shape-rendering="crispEdges"/><rect fill="#373737" x="0" y="611.5" width="646.6" height="24.65" shape-rendering="crispEdges"/><rect fill="#373737" x="646.6" y="611.5" width="73.2" height="24.65" shape-rendering="crispEdges"/><rect fill="#373737" x="0" y="635.9" width="695.4" height="24.65" shape-rendering="crispEdges"/><rect fill="#373737" x="695.4" y="635.9" width="24.4" height="24.65" shape-rendering="crispEdges"/><rect fill="#373737" x="0" y="660.3" width="451.4" height="24.65" shape-rendering="crispEdges"/><rect fill="#373737" x="451.4" y="660.3" width="268.4" height="24.65" shape-rendering="crispEdges"/><rect fill="#373737" x="0" y="684.7" width="12.2" height="24.65" shape-rendering="crispEdges"/><rect fill="#373737" x="12.2" y="684.7" width="36.6" height="24.65" shape-rendering="crispEdges"/><rect fill="#373737" x="48.8" y="684.7" width="183" height="24.65" shape-rendering="crispEdges"/><rect fill="#373737" x="231.8" y="684.7" width="36.6" height="24.65" shape-rendering="crispEdges"/><rect fill="#373737" x="268.4" y="684.7" width="24.4" height="24.65" shape-rendering="crispEdges"/><rect fill="#373737" x="292.8" y="684.7" width="427" height="24.65" shape-rendering="crispEdges"/><rect fill="#373737" x="0" y="709.1" width="12.2" height="24.65" shape-rendering="crispEdges"/><rect fill="#373737" x="12.2" y="709.1" width="707.6" height="24.65" shape-rendering="crispEdges"/><rect fill="#373737" x="0" y="733.5" width="109.8" height="24.65" shape-rendering="crispEdges"/><rect fill="#373737" x="109.8" y="733.5" width="256.2" height="24.65" shape-rendering="crispEdges"/><rect fill="#373737" x="366" y="733.5" width="353.8" height="24.65" shape-rendering="crispEdges"/><rect fill="#373737" x="0" y="757.9" width="109.8" height="24.65" shape-rendering="crispEdges"/><rect fill="#373737" x="109.8" y="757.9" width="451.4" height="24.65" shape-rendering="crispEdges"/><rect fill="#373737" x="561.2" y="757.9" width="158.6" height="24.65" shape-rendering="crispEdges"/><rect fill="#373737" x="0" y="782.3" width="719.8" height="24.65" shape-rendering="crispEdges"/><rect fill="#373737" x="0" y="806.7" width="12.2" height="24.65" shape-rendering="crispEdges"/><rect fill="#373737" x="12.2" y="806.7" width="12.2" height="24.65" shape-rendering="crispEdges"/><rect fill="#373737" x="24.4" y="806.7" width="85.4" height="24.65" shape-rendering="crispEdges"/><rect fill="#373737" x="109.8" y="806.7" width="12.2" height="24.65" shape-rendering="crispEdges"/><rect fill="#373737" x="122" y="806.7" width="85.4" height="24.65" shape-rendering="crispEdges"/><rect fill="#373737" x="207.4" y="806.7" width="500.2" height="24.65" shape-rendering="crispEdges"/><rect fill="#373737" x="707.6" y="806.7" width="12.2" height="24.65" shape-rendering="crispEdges"/><rect fill="#373737" x="0" y="831.1" width="719.8" height="24.65" shape-rendering="crispEdges"/>
    <g class="terminal-1530489314-matrix">
    <text class="terminal-1530489314-r1" x="719.8" y="20" textLength="12.2" clip-path="url(#terminal-1530489314-line-0)">
</text><text class="terminal-1530489314-r2" x="244" y="44.4" textLength="231.8" clip-path="url(#terminal-1530489314-line-1)">Nov&#160;3&#160;-&#160;9,&#160;2025&#160;#45</text><text class="terminal-1530489314-r1" x="719.8" y="44.4" textLength="12.2" clip-path="url(#terminal-1530489314-line-1)">
</text><text class="terminal-1530489314-r3" x="0" y="68.8" textLength="719.8" clip-path="url(#terminal-1530489314-line-2)">───────────────────────────────────────────────────────────</text><text class="terminal-1530489314-r1" x="719.8" y="68.8" textLength="12.2" clip-path="url(#terminal-1530489314-line-2)">
</text><text class="terminal-1530489314-r4" x="97.6" y="93.2" textLength="524.6" clip-path="url(#terminal-1530489314-line-3)">│&#160;Mon&#160;│&#160;Tue&#160;│&#160;Wed&#160;│&#160;Thu&#160;│&#160;Fri&#160;│&#160;Sat&#160;│&#160;Sun&#160;│</text><text class="terminal-1530489314-r1" x="719.8" y="93.2" textLength="12.2" clip-path="url(#terminal-1530489314-line-3)">
</text><text class="terminal-1530489314-r4" x="97.6" y="117.6" textLength="12.2" clip-path="url(#terminal-1530489314-line-4)">│</text><text class="terminal-1530489314-r5" x="109.8" y="117.6" textLength="12.2" clip-path="url(#terminal-1530489314-line-4)">■</text><text class="terminal-1530489314-r6" x="146.4" y="117.6" textLength="12.2" clip-path="url(#terminal-1530489314-line-4)">█</text><text class="terminal-1530489314-r7" x="158.6" y="117.6" textLength="12.2" clip-path="url(#terminal-1530489314-line-4)">▓</text><text class="terminal-1530489314-r4" x="170.8" y="117.6" textLength="207.4" clip-path="url(#terminal-1530489314-line-4)">│&#160;&#160;&#160;&#160;&#160;│&#160;&#160;&#160;&#160;&#160;│&#160;&#160;&#160;&#160;</text><text class="terminal-1530489314-r6" x="378.2" y="117.6" textLength="12.2" clip-path="url(#terminal-1530489314-line-4)">█</text><text class="terminal-1530489314-r4" x="390.4" y="117.6" textLength="61" clip-path="url(#terminal-1530489314-line-4)">│&#160;&#160;&#160;&#160;</text><text class="terminal-1530489314-r6" x="451.4" y="117.6" textLength="12.2" clip-path="url(#terminal-1530489314-line-4)">█</text><text class="terminal-1530489314-r4" x="463.6" y="117.6" textLength="36.6" clip-path="url(#terminal-1530489314-line-4)">│&#160;&#160;</text><text class="terminal-1530489314-r6" x="500.2" y="117.6" textLength="12.2" clip-path="url(#terminal-1530489314-line-4)">█</text><text class="terminal-1530489314-r7" x="512.4" y="117.6" textLength="12.2" clip-path="url(#terminal-1530489314-line-4)">▓</text><text class="terminal-1530489314-r4" x="524.6" y="117.6" textLength="97.6" clip-path="url(#terminal-1530489314-line-4)">&#160;│&#160;&#160;&#160;&#160;&#160;│</text><text class="terminal-1530489314-r1" x="719.8" y="117.6" textLength="12.2" clip-path="url(#terminal-1530489314-line-4)">
</text><text class="terminal-1530489314-r3" x="0" y="142" textLength="719.8" clip-path="url(#terminal-1530489314-line-5)">───────────────────────────────────────────────────────────</text><text class="terminal-1530489314-r1" x="719.8" y="142" textLength="12.2" clip-path="url(#terminal-1530489314-line-5)">
</text><text class="terminal-1530489314-r8" x="0" y="166.4" textLength="122" clip-path="url(#terminal-1530489314-line-6)">Mon,&#160;Nov&#160;3</text><text class="terminal-1530489314-r1" x="719.8" y="166.4" textLength="12.2" clip-path="url(#terminal-1530489314-line-6)">
</text><text class="terminal-1530489314-r10" x="12.2" y="190.8" textLength="12.2" clip-path="url(#terminal-1530489314-line-7)">a</text><text class="terminal-1530489314-r11" x="48.8" y="190.8" textLength="244" clip-path="url(#terminal-1530489314-line-7)">*&#160;Modi&#160;magnam&#160;labore</text><text class="terminal-1530489314-r1" x="719.8" y="190.8" textLength="12.2" clip-path="url(#terminal-1530489314-line-7)">
</text><text class="terminal-1530489314-r10" x="12.2" y="215.2" textLength="12.2" clip-path="url(#terminal-1530489314-line-8)">b</text><text class="terminal-1530489314-r11" x="48.8" y="215.2" textLength="24.4" clip-path="url(#terminal-1530489314-line-8)">*&#160;</text><text class="terminal-1530489314-r11" x="73.2" y="215.2" textLength="146.4" clip-path="url(#terminal-1530489314-line-8)">12:30-13:30&#160;</text><text class="terminal-1530489314-r11" x="219.6" y="215.2" textLength="292.8" clip-path="url(#terminal-1530489314-line-8)">Est&#160;neque&#160;dolore&#160;amet&#160;ut</text><text class="terminal-1530489314-r1" x="719.8" y="215.2" textLength="12.2" clip-path="url(#terminal-1530489314-line-8)">
</text><text class="terminal-1530489314-r10" x="12.2" y="239.6" textLength="12.2" clip-path="url(#terminal-1530489314-line-9)">c</text><text class="terminal-1530489314-r12" x="48.8" y="239.6" textLength="24.4" clip-path="url(#terminal-1530489314-line-9)">~&#160;</text><text class="terminal-1530489314-r12" x="73.2" y="239.6" textLength="73.2" clip-path="url(#terminal-1530489314-line-9)">16:00&#160;</text><text class="terminal-1530489314-r12" x="146.4" y="239.6" textLength="268.4" clip-path="url(#terminal-1530489314-line-9)">Amet&#160;velit&#160;dolor&#160;porro</text><text class="terminal-1530489314-r1" x="719.8" y="239.6" textLength="12.2" clip-path="url(#terminal-1530489314-line-9)">
</text><text class="terminal-1530489314-r10" x="12.2" y="264" textLength="12.2" clip-path="url(#terminal-1530489314-line-10)">d</text><text class="terminal-1530489314-r11" x="48.8" y="264" textLength="24.4" clip-path="url(#terminal-1530489314-line-10)">*&#160;</text><text class="terminal-1530489314-r11" x="73.2" y="264" textLength="146.4" clip-path="url(#terminal-1530489314-line-10)">17:30-19:00&#160;</text><text class="terminal-1530489314-r11" x="219.6" y="264" textLength="195.2" clip-path="url(#terminal-1530489314-line-10)">Sed&#160;ut&#160;sed&#160;porro</text><text class="terminal-1530489314-r1" x="719.8" y="264" textLength="12.2" clip-path="url(#terminal-1530489314-line-10)">
</text><text class="terminal-1530489314-r10" x="12.2" y="288.4" textLength="12.2" clip-path="url(#terminal-1530489314-line-11)">e</text><text class="terminal-1530489314-r11" x="48.8" y="288.4" textLength="24.4" clip-path="url(#terminal-1530489314-line-11)">*&#160;</text><text class="terminal-1530489314-r11" x="73.2" y="288.4" textLength="146.4" clip-path="url(#terminal-1530489314-line-11)">18:30-18:45&#160;</text><text class="terminal-1530489314-r11" x="219.6" y="288.4" textLength="329.4" clip-path="url(#terminal-1530489314-line-11)">Voluptatem&#160;sit&#160;eius&#160;dolorem</text><text class="terminal-1530489314-r13" x="695.4" y="288.4" textLength="24.4" clip-path="url(#terminal-1530489314-line-11)">▃▃</text><text class="terminal-1530489314-r1" x="719.8" y="288.4" textLength="12.2" clip-path="url(#terminal-1530489314-line-11)">
</text><text class="terminal-1530489314-r8" x="0" y="312.8" textLength="122" clip-path="url(#terminal-1530489314-line-12)">Tue,&#160;Nov&#160;4</text><text class="terminal-1530489314-r1" x="719.8" y="312.8" textLength="12.2" clip-path="url(#terminal-1530489314-line-12)">
</text><text class="terminal-1530489314-r10" x="12.2" y="337.2" textLength="12.2" clip-path="url(#terminal-1530489314-line-13)">f</text><text class="terminal-1530489314-r12" x="48.8" y="337.2" textLength="24.4" clip-path="url(#terminal-1530489314-line-13)">~&#160;</text><text class="terminal-1530489314-r12" x="73.2" y="337.2" textLength="73.2" clip-path="url(#terminal-1530489314-line-13)">15:30&#160;</text><text class="terminal-1530489314-r12" x="146.4" y="337.2" textLength="280.6" clip-path="url(#terminal-1530489314-line-13)">Dolor&#160;quisquam&#160;adipisci</text><text class="terminal-1530489314-r1" x="719.8" y="337.2" textLength="12.2" clip-path="url(#terminal-1530489314-line-13)">
</text><text class="terminal-1530489314-r10" x="12.2" y="361.6" textLength="12.2" clip-path="url(#terminal-1530489314-line-14)">g</text><text class="terminal-1530489314-r11" x="48.8" y="361.6" textLength="24.4" clip-path="url(#terminal-1530489314-line-14)">*&#160;</text><text class="terminal-1530489314-r11" x="73.2" y="361.6" textLength="73.2" clip-path="url(#terminal-1530489314-line-14)">18:00&#160;</text><text class="terminal-1530489314-r11" x="146.4" y="361.6" textLength="341.6" clip-path="url(#terminal-1530489314-line-14)">Tempora&#160;quiquia&#160;non&#160;adipisci</text><text class="terminal-1530489314-r1" x="719.8" y="361.6" textLength="12.2" clip-path="url(#terminal-1530489314-line-14)">
</text><text class="terminal-1530489314-r8" x="0" y="386" textLength="122" clip-path="url(#terminal-1530489314-line-15)">Wed,&#160;Nov&#160;5</text><text class="terminal-1530489314-r1" x="719.8" y="386" textLength="12.2" clip-path="url(#terminal-1530489314-line-15)">
</text><text class="terminal-1530489314-r10" x="12.2" y="410.4" textLength="12.2" clip-path="url(#terminal-1530489314-line-16)">h</text><text class="terminal-1530489314-r12" x="48.8" y="410.4" textLength="24.4" clip-path="url(#terminal-1530489314-line-16)">~&#160;</text><text class="terminal-1530489314-r12" x="73.2" y="410.4" textLength="73.2" clip-path="url(#terminal-1530489314-line-16)">17:00&#160;</text><text class="terminal-1530489314-r12" x="146.4" y="410.4" textLength="378.2" clip-path="url(#terminal-1530489314-line-16)">Magnam&#160;etincidunt&#160;quisquam&#160;modi</text><text class="terminal-1530489314-r1" x="719.8" y="410.4" textLength="12.2" clip-path="url(#terminal-1530489314-line-16)">
</text><text class="terminal-1530489314-r8" x="0" y="434.8" textLength="122" clip-path="url(#terminal-1530489314-line-17)">Thu,&#160;Nov&#160;6</text><text class="terminal-1530489314-r1" x="719.8" y="434.8" textLength="12.2" clip-path="url(#terminal-1530489314-line-17)">
</text><text class="terminal-1530489314-r3" x="0" y="459.2" textLength="719.8" clip-path="url(#terminal-1530489314-line-18)">───────────────────────────────────────────────────────────</text><text class="terminal-1530489314-r1" x="719.8" y="459.2" textLength="12.2" clip-path="url(#terminal-1530489314-line-18)">
</text><text class="terminal-1530489314-r15" x="0" y="483.6" textLength="695.4" clip-path="url(#terminal-1530489314-line-19)">&#160;&#160;&#160;&#160;&#160;&#160;&#160;&#160;&#160;&#160;&#160;&#160;&#160;&#160;Tempora&#160;quiquia&#160;non&#160;adipisci&#160;&#160;&#160;&#160;&#160;&#160;&#160;&#160;&#160;&#160;&#160;&#160;&#160;&#160;&#160;</text><text class="terminal-1530489314-r1" x="719.8" y="483.6" textLength="12.2" clip-path="url(#terminal-1530489314-line-19)">
</text><text class="terminal-1530489314-r16" x="0" y="508" textLength="12.2" clip-path="url(#terminal-1530489314-line-20)">*</text><text class="terminal-1530489314-r1" x="12.2" y="508" textLength="353.8" clip-path="url(#terminal-1530489314-line-20)">&#160;Tempora&#160;quiquia&#160;non&#160;adipisci</text><text class="terminal-1530489314-r1" x="719.8" y="508" textLength="12.2" clip-path="url(#terminal-1530489314-line-20)">
</text><text class="terminal-1530489314-r17" x="0" y="532.4" textLength="36.6" clip-path="url(#terminal-1530489314-line-21)">@d&#160;</text><text class="terminal-1530489314-r1" x="36.6" y="532.4" textLength="597.8" clip-path="url(#terminal-1530489314-line-21)">Quiquia&#160;dolore&#160;eius&#160;ut.&#160;Quaerat&#160;ipsum&#160;ut&#160;adipisci</text><text class="terminal-1530489314-r1" x="719.8" y="532.4" textLength="12.2" clip-path="url(#terminal-1530489314-line-21)">
</text><text class="terminal-1530489314-r1" x="0" y="556.8" textLength="658.8" clip-path="url(#terminal-1530489314-line-22)">ipsum&#160;dolorem.&#160;Aliquam&#160;tempora&#160;velit&#160;etincidunt&#160;labore</text><text class="terminal-1530489314-r1" x="719.8" y="556.8" textLength="12.2" clip-path="url(#terminal-1530489314-line-22)">
</text><text class="terminal-1530489314-r1" x="0" y="581.2" textLength="671" clip-path="url(#terminal-1530489314-line-23)">neque.&#160;Ut&#160;amet&#160;ipsum&#160;porro&#160;etincidunt.&#160;Porro&#160;voluptatem</text><text class="terminal-1530489314-r1" x="719.8" y="581.2" textLength="12.2" clip-path="url(#terminal-1530489314-line-23)">
</text><text class="terminal-1530489314-r1" x="0" y="605.6" textLength="658.8" clip-path="url(#terminal-1530489314-line-24)">non&#160;consectetur&#160;amet&#160;modi.&#160;Dolorem&#160;modi&#160;dolor&#160;numquam.</text><text class="terminal-1530489314-r1" x="719.8" y="605.6" textLength="12.2" clip-path="url(#terminal-1530489314-line-24)">
</text><text class="terminal-1530489314-r1" x="0" y="630" textLength="646.6" clip-path="url(#terminal-1530489314-line-25)">Quisquam&#160;neque&#160;quaerat&#160;quisquam&#160;consectetur.&#160;Quisquam</text><text class="terminal-1530489314-r1" x="719.8" y="630" textLength="12.2" clip-path="url(#terminal-1530489314-line-25)">
</text><text class="terminal-1530489314-r1" x="0" y="654.4" textLength="695.4" clip-path="url(#terminal-1530489314-line-26)">aliquam&#160;modi&#160;modi&#160;consectetur&#160;quisquam&#160;ipsum&#160;non.&#160;Aliquam</text><text class="terminal-1530489314-r1" x="719.8" y="654.4" textLength="12.2" clip-path="url(#terminal-1530489314-line-26)">
</text><text class="terminal-1530489314-r1" x="0" y="678.8" textLength="451.4" clip-path="url(#terminal-1530489314-line-27)">velit&#160;magnam&#160;ipsum&#160;amet&#160;dolor.&#160;#lorem</text><text class="terminal-1530489314-r1" x="719.8" y="678.8" textLength="12.2" clip-path="url(#terminal-1530489314-line-27)">
</text><text class="terminal-1530489314-r17" x="12.2" y="703.2" textLength="36.6" clip-path="url(#terminal-1530489314-line-28)">@s&#160;</text><text class="terminal-1530489314-r1" x="48.8" y="703.2" textLength="183" clip-path="url(#terminal-1530489314-line-28)">25-11-04&#160;23:00&#160;</text><text class="terminal-1530489314-r17" x="231.8" y="703.2" textLength="36.6" clip-path="url(#terminal-1530489314-line-28)">@e&#160;</text><text class="terminal-1530489314-r1" x="268.4" y="703.2" textLength="24.4" clip-path="url(#terminal-1530489314-line-28)">0s</text><text class="terminal-1530489314-r1" x="719.8" y="703.2" textLength="12.2" clip-path="url(#terminal-1530489314-line-28)">
</text><text class="terminal-1530489314-r1" x="719.8" y="727.6" textLength="12.2" clip-path="url(#terminal-1530489314-line-29)">
</text><text class="terminal-1530489314-r12" x="0" y="752" textLength="109.8" clip-path="url(#terminal-1530489314-line-30)">rruleset:</text><text class="terminal-1530489314-r1" x="109.8" y="752" textLength="256.2" clip-path="url(#terminal-1530489314-line-30)">&#160;RDATE:20251104T2300Z</text><text class="terminal-1530489314-r1" x="719.8" y="752" textLength="12.2" clip-path="url(#terminal-1530489314-line-30)">
</text><text class="terminal-1530489314-r12" x="0" y="776.4" textLength="109.8" clip-path="url(#terminal-1530489314-line-31)">id/cr/md:</text><text class="terminal-1530489314-r1" x="109.8" y="776.4" textLength="451.4" clip-path="url(#terminal-1530489314-line-31)">&#160;31&#160;/&#160;20251107T1408Z&#160;/&#160;20251107T1408Z</text><text class="terminal-1530489314-r1" x="719.8" y="776.4" textLength="12.2" clip-path="url(#terminal-1530489314-line-31)">
</text><text class="terminal-1530489314-r3" x="0" y="800.8" textLength="719.8" clip-path="url(#terminal-1530489314-line-32)">───────────────────────────────────────────────────────────</text><text class="terminal-1530489314-r1" x="719.8" y="800.8" textLength="12.2" clip-path="url(#terminal-1530489314-line-32)">
</text><text class="terminal-1530489314-r5" x="12.2" y="825.2" textLength="12.2" clip-path="url(#terminal-1530489314-line-33)">?</text><text class="terminal-1530489314-r2" x="24.4" y="825.2" textLength="85.4" clip-path="url(#terminal-1530489314-line-33)">&#160;Help&#160;&#160;</text><text class="terminal-1530489314-r5" x="109.8" y="825.2" textLength="12.2" clip-path="url(#terminal-1530489314-line-33)">/</text><text class="terminal-1530489314-r2" x="122" y="825.2" textLength="85.4" clip-path="url(#terminal-1530489314-line-33)">&#160;Search</text><text class="terminal-1530489314-r1" x="719.8" y="825.2" textLength="12.2" clip-path="url(#terminal-1530489314-line-33)">
</text>
    </g>
    </g>
</svg>
