<svg class="rich-terminal" viewBox="0 0 702 757.5999999999999" xmlns="http://www.w3.org/2000/svg">
    <!-- Generated with Rich https://www.textualize.io -->
    <style>

    @font-face {
        font-family: "Fira Code";
        src: local("FiraCode-Regular"),
                url("https://cdnjs.cloudflare.com/ajax/libs/firacode/6.2.0/woff2/FiraCode-Regular.woff2") format("woff2"),
                url("https://cdnjs.cloudflare.com/ajax/libs/firacode/6.2.0/woff/FiraCode-Regular.woff") format("woff");
        font-style: normal;
        font-weight: 400;
    }
    @font-face {
        font-family: "Fira Code";
        src: local("FiraCode-Bold"),
                url("https://cdnjs.cloudflare.com/ajax/libs/firacode/6.2.0/woff2/FiraCode-Bold.woff2") format("woff2"),
                url("https://cdnjs.cloudflare.com/ajax/libs/firacode/6.2.0/woff/FiraCode-Bold.woff") format("woff");
        font-style: bold;
        font-weight: 700;
    }

    .terminal-3666986365-matrix {
        font-family: Fira Code, monospace;
        font-size: 20px;
        line-height: 24.4px;
        font-variant-east-asian: full-width;
    }

    .terminal-3666986365-title {
        font-size: 18px;
        font-weight: bold;
        font-family: arial;
    }

    .terminal-3666986365-r1 { fill: #c5c8c6 }
.terminal-3666986365-r2 { fill: #ffffff;font-weight: bold }
.terminal-3666986365-r3 { fill: #7f7f7f }
.terminal-3666986365-r4 { fill: #e0e0e0;font-weight: bold }
.terminal-3666986365-r5 { fill: #008000;font-weight: bold }
.terminal-3666986365-r6 { fill: #fffacd;font-weight: bold }
.terminal-3666986365-r7 { fill: #373737 }
.terminal-3666986365-r8 { fill: #8c8e8c }
.terminal-3666986365-r9 { fill: #e9967a }
.terminal-3666986365-r10 { fill: #32cd32 }
.terminal-3666986365-r11 { fill: #87cefa }
.terminal-3666986365-r12 { fill: #000000 }
.terminal-3666986365-r13 { fill: #ffff00;font-weight: bold }
    </style>

    <defs>
    <clipPath id="terminal-3666986365-clip-terminal">
      <rect x="0" y="0" width="682.1999999999999" height="706.5999999999999" />
    </clipPath>
    <clipPath id="terminal-3666986365-line-0">
    <rect x="0" y="1.5" width="683.2" height="24.65"/>
            </clipPath>
<clipPath id="terminal-3666986365-line-1">
    <rect x="0" y="25.9" width="683.2" height="24.65"/>
            </clipPath>
<clipPath id="terminal-3666986365-line-2">
    <rect x="0" y="50.3" width="683.2" height="24.65"/>
            </clipPath>
<clipPath id="terminal-3666986365-line-3">
    <rect x="0" y="74.7" width="683.2" height="24.65"/>
            </clipPath>
<clipPath id="terminal-3666986365-line-4">
    <rect x="0" y="99.1" width="683.2" height="24.65"/>
            </clipPath>
<clipPath id="terminal-3666986365-line-5">
    <rect x="0" y="123.5" width="683.2" height="24.65"/>
            </clipPath>
<clipPath id="terminal-3666986365-line-6">
    <rect x="0" y="147.9" width="683.2" height="24.65"/>
            </clipPath>
<clipPath id="terminal-3666986365-line-7">
    <rect x="0" y="172.3" width="683.2" height="24.65"/>
            </clipPath>
<clipPath id="terminal-3666986365-line-8">
    <rect x="0" y="196.7" width="683.2" height="24.65"/>
            </clipPath>
<clipPath id="terminal-3666986365-line-9">
    <rect x="0" y="221.1" width="683.2" height="24.65"/>
            </clipPath>
<clipPath id="terminal-3666986365-line-10">
    <rect x="0" y="245.5" width="683.2" height="24.65"/>
            </clipPath>
<clipPath id="terminal-3666986365-line-11">
    <rect x="0" y="269.9" width="683.2" height="24.65"/>
            </clipPath>
<clipPath id="terminal-3666986365-line-12">
    <rect x="0" y="294.3" width="683.2" height="24.65"/>
            </clipPath>
<clipPath id="terminal-3666986365-line-13">
    <rect x="0" y="318.7" width="683.2" height="24.65"/>
            </clipPath>
<clipPath id="terminal-3666986365-line-14">
    <rect x="0" y="343.1" width="683.2" height="24.65"/>
            </clipPath>
<clipPath id="terminal-3666986365-line-15">
    <rect x="0" y="367.5" width="683.2" height="24.65"/>
            </clipPath>
<clipPath id="terminal-3666986365-line-16">
    <rect x="0" y="391.9" width="683.2" height="24.65"/>
            </clipPath>
<clipPath id="terminal-3666986365-line-17">
    <rect x="0" y="416.3" width="683.2" height="24.65"/>
            </clipPath>
<clipPath id="terminal-3666986365-line-18">
    <rect x="0" y="440.7" width="683.2" height="24.65"/>
            </clipPath>
<clipPath id="terminal-3666986365-line-19">
    <rect x="0" y="465.1" width="683.2" height="24.65"/>
            </clipPath>
<clipPath id="terminal-3666986365-line-20">
    <rect x="0" y="489.5" width="683.2" height="24.65"/>
            </clipPath>
<clipPath id="terminal-3666986365-line-21">
    <rect x="0" y="513.9" width="683.2" height="24.65"/>
            </clipPath>
<clipPath id="terminal-3666986365-line-22">
    <rect x="0" y="538.3" width="683.2" height="24.65"/>
            </clipPath>
<clipPath id="terminal-3666986365-line-23">
    <rect x="0" y="562.7" width="683.2" height="24.65"/>
            </clipPath>
<clipPath id="terminal-3666986365-line-24">
    <rect x="0" y="587.1" width="683.2" height="24.65"/>
            </clipPath>
<clipPath id="terminal-3666986365-line-25">
    <rect x="0" y="611.5" width="683.2" height="24.65"/>
            </clipPath>
<clipPath id="terminal-3666986365-line-26">
    <rect x="0" y="635.9" width="683.2" height="24.65"/>
            </clipPath>
<clipPath id="terminal-3666986365-line-27">
    <rect x="0" y="660.3" width="683.2" height="24.65"/>
            </clipPath>
    </defs>

    <rect fill="#292929" stroke="rgba(255,255,255,0.35)" stroke-width="1" x="1" y="1" width="700" height="755.6" rx="8"/>
            <g transform="translate(26,22)">
            <circle cx="0" cy="0" r="7" fill="#ff5f57"/>
            <circle cx="22" cy="0" r="7" fill="#febc2e"/>
            <circle cx="44" cy="0" r="7" fill="#28c840"/>
            </g>

    <g transform="translate(9, 41)" clip-path="url(#terminal-3666986365-clip-terminal)">
    <rect fill="#373737" x="0" y="1.5" width="683.2" height="24.65" shape-rendering="crispEdges"/><rect fill="#373737" x="0" y="25.9" width="12.2" height="24.65" shape-rendering="crispEdges"/><rect fill="#373737" x="12.2" y="25.9" width="207.4" height="24.65" shape-rendering="crispEdges"/><rect fill="#373737" x="219.6" y="25.9" width="244" height="24.65" shape-rendering="crispEdges"/><rect fill="#373737" x="463.6" y="25.9" width="207.4" height="24.65" shape-rendering="crispEdges"/><rect fill="#373737" x="671" y="25.9" width="12.2" height="24.65" shape-rendering="crispEdges"/><rect fill="#373737" x="0" y="50.3" width="683.2" height="24.65" shape-rendering="crispEdges"/><rect fill="#373737" x="0" y="74.7" width="73.2" height="24.65" shape-rendering="crispEdges"/><rect fill="#373737" x="73.2" y="74.7" width="524.6" height="24.65" shape-rendering="crispEdges"/><rect fill="#373737" x="597.8" y="74.7" width="85.4" height="24.65" shape-rendering="crispEdges"/><rect fill="#373737" x="0" y="99.1" width="73.2" height="24.65" shape-rendering="crispEdges"/><rect fill="#373737" x="73.2" y="99.1" width="109.8" height="24.65" shape-rendering="crispEdges"/><rect fill="#373737" x="183" y="99.1" width="12.2" height="24.65" shape-rendering="crispEdges"/><rect fill="#373737" x="195.2" y="99.1" width="12.2" height="24.65" shape-rendering="crispEdges"/><rect fill="#373737" x="207.4" y="99.1" width="146.4" height="24.65" shape-rendering="crispEdges"/><rect fill="#373737" x="353.8" y="99.1" width="12.2" height="24.65" shape-rendering="crispEdges"/><rect fill="#373737" x="366" y="99.1" width="48.8" height="24.65" shape-rendering="crispEdges"/><rect fill="#373737" x="414.8" y="99.1" width="12.2" height="24.65" shape-rendering="crispEdges"/><rect fill="#373737" x="427" y="99.1" width="134.2" height="24.65" shape-rendering="crispEdges"/><rect fill="#373737" x="561.2" y="99.1" width="12.2" height="24.65" shape-rendering="crispEdges"/><rect fill="#373737" x="573.4" y="99.1" width="24.4" height="24.65" shape-rendering="crispEdges"/><rect fill="#373737" x="597.8" y="99.1" width="85.4" height="24.65" shape-rendering="crispEdges"/><rect fill="#373737" x="0" y="123.5" width="683.2" height="24.65" shape-rendering="crispEdges"/><rect fill="#373737" x="0" y="147.9" width="134.2" height="24.65" shape-rendering="crispEdges"/><rect fill="#373737" x="134.2" y="147.9" width="524.6" height="24.65" shape-rendering="crispEdges"/><rect fill="#003054" x="658.8" y="147.9" width="24.4" height="24.65" shape-rendering="crispEdges"/><rect fill="#373737" x="0" y="172.3" width="12.2" height="24.65" shape-rendering="crispEdges"/><rect fill="#373737" x="12.2" y="172.3" width="12.2" height="24.65" shape-rendering="crispEdges"/><rect fill="#373737" x="24.4" y="172.3" width="24.4" height="24.65" shape-rendering="crispEdges"/><rect fill="#373737" x="48.8" y="172.3" width="24.4" height="24.65" shape-rendering="crispEdges"/><rect fill="#373737" x="73.2" y="172.3" width="61" height="24.65" shape-rendering="crispEdges"/><rect fill="#373737" x="134.2" y="172.3" width="402.6" height="24.65" shape-rendering="crispEdges"/><rect fill="#373737" x="536.8" y="172.3" width="122" height="24.65" shape-rendering="crispEdges"/><rect fill="#003054" x="658.8" y="172.3" width="24.4" height="24.65" shape-rendering="crispEdges"/><rect fill="#373737" x="0" y="196.7" width="12.2" height="24.65" shape-rendering="crispEdges"/><rect fill="#373737" x="12.2" y="196.7" width="12.2" height="24.65" shape-rendering="crispEdges"/><rect fill="#373737" x="24.4" y="196.7" width="24.4" height="24.65" shape-rendering="crispEdges"/><rect fill="#373737" x="48.8" y="196.7" width="24.4" height="24.65" shape-rendering="crispEdges"/><rect fill="#373737" x="73.2" y="196.7" width="73.2" height="24.65" shape-rendering="crispEdges"/><rect fill="#373737" x="146.4" y="196.7" width="280.6" height="24.65" shape-rendering="crispEdges"/><rect fill="#373737" x="427" y="196.7" width="231.8" height="24.65" shape-rendering="crispEdges"/><rect fill="#003054" x="658.8" y="196.7" width="24.4" height="24.65" shape-rendering="crispEdges"/><rect fill="#373737" x="0" y="221.1" width="231.8" height="24.65" shape-rendering="crispEdges"/><rect fill="#373737" x="231.8" y="221.1" width="427" height="24.65" shape-rendering="crispEdges"/><rect fill="#003054" x="658.8" y="221.1" width="24.4" height="24.65" shape-rendering="crispEdges"/><rect fill="#373737" x="0" y="245.5" width="12.2" height="24.65" shape-rendering="crispEdges"/><rect fill="#373737" x="12.2" y="245.5" width="12.2" height="24.65" shape-rendering="crispEdges"/><rect fill="#373737" x="24.4" y="245.5" width="24.4" height="24.65" shape-rendering="crispEdges"/><rect fill="#373737" x="48.8" y="245.5" width="280.6" height="24.65" shape-rendering="crispEdges"/><rect fill="#373737" x="329.4" y="245.5" width="329.4" height="24.65" shape-rendering="crispEdges"/><rect fill="#003054" x="658.8" y="245.5" width="24.4" height="24.65" shape-rendering="crispEdges"/><rect fill="#373737" x="0" y="269.9" width="12.2" height="24.65" shape-rendering="crispEdges"/><rect fill="#373737" x="12.2" y="269.9" width="12.2" height="24.65" shape-rendering="crispEdges"/><rect fill="#373737" x="24.4" y="269.9" width="24.4" height="24.65" shape-rendering="crispEdges"/><rect fill="#373737" x="48.8" y="269.9" width="24.4" height="24.65" shape-rendering="crispEdges"/><rect fill="#373737" x="73.2" y="269.9" width="146.4" height="24.65" shape-rendering="crispEdges"/><rect fill="#373737" x="219.6" y="269.9" width="366" height="24.65" shape-rendering="crispEdges"/><rect fill="#373737" x="585.6" y="269.9" width="73.2" height="24.65" shape-rendering="crispEdges"/><rect fill="#003054" x="658.8" y="269.9" width="24.4" height="24.65" shape-rendering="crispEdges"/><rect fill="#373737" x="0" y="294.3" width="12.2" height="24.65" shape-rendering="crispEdges"/><rect fill="#373737" x="12.2" y="294.3" width="12.2" height="24.65" shape-rendering="crispEdges"/><rect fill="#373737" x="24.4" y="294.3" width="24.4" height="24.65" shape-rendering="crispEdges"/><rect fill="#373737" x="48.8" y="294.3" width="24.4" height="24.65" shape-rendering="crispEdges"/><rect fill="#373737" x="73.2" y="294.3" width="73.2" height="24.65" shape-rendering="crispEdges"/><rect fill="#373737" x="146.4" y="294.3" width="219.6" height="24.65" shape-rendering="crispEdges"/><rect fill="#373737" x="366" y="294.3" width="292.8" height="24.65" shape-rendering="crispEdges"/><rect fill="#003054" x="658.8" y="294.3" width="24.4" height="24.65" shape-rendering="crispEdges"/><rect fill="#373737" x="0" y="318.7" width="12.2" height="24.65" shape-rendering="crispEdges"/><rect fill="#373737" x="12.2" y="318.7" width="12.2" height="24.65" shape-rendering="crispEdges"/><rect fill="#373737" x="24.4" y="318.7" width="24.4" height="24.65" shape-rendering="crispEdges"/><rect fill="#373737" x="48.8" y="318.7" width="24.4" height="24.65" shape-rendering="crispEdges"/><rect fill="#373737" x="73.2" y="318.7" width="73.2" height="24.65" shape-rendering="crispEdges"/><rect fill="#373737" x="146.4" y="318.7" width="353.8" height="24.65" shape-rendering="crispEdges"/><rect fill="#373737" x="500.2" y="318.7" width="158.6" height="24.65" shape-rendering="crispEdges"/><rect fill="#003054" x="658.8" y="318.7" width="24.4" height="24.65" shape-rendering="crispEdges"/><rect fill="#373737" x="0" y="343.1" width="12.2" height="24.65" shape-rendering="crispEdges"/><rect fill="#373737" x="12.2" y="343.1" width="12.2" height="24.65" shape-rendering="crispEdges"/><rect fill="#373737" x="24.4" y="343.1" width="24.4" height="24.65" shape-rendering="crispEdges"/><rect fill="#373737" x="48.8" y="343.1" width="24.4" height="24.65" shape-rendering="crispEdges"/><rect fill="#373737" x="73.2" y="343.1" width="109.8" height="24.65" shape-rendering="crispEdges"/><rect fill="#373737" x="183" y="343.1" width="378.2" height="24.65" shape-rendering="crispEdges"/><rect fill="#373737" x="561.2" y="343.1" width="97.6" height="24.65" shape-rendering="crispEdges"/><rect fill="#003054" x="658.8" y="343.1" width="24.4" height="24.65" shape-rendering="crispEdges"/><rect fill="#373737" x="0" y="367.5" width="134.2" height="24.65" shape-rendering="crispEdges"/><rect fill="#373737" x="134.2" y="367.5" width="524.6" height="24.65" shape-rendering="crispEdges"/><rect fill="#003054" x="658.8" y="367.5" width="24.4" height="24.65" shape-rendering="crispEdges"/><rect fill="#373737" x="0" y="391.9" width="12.2" height="24.65" shape-rendering="crispEdges"/><rect fill="#373737" x="12.2" y="391.9" width="12.2" height="24.65" shape-rendering="crispEdges"/><rect fill="#373737" x="24.4" y="391.9" width="24.4" height="24.65" shape-rendering="crispEdges"/><rect fill="#373737" x="48.8" y="391.9" width="24.4" height="24.65" shape-rendering="crispEdges"/><rect fill="#373737" x="73.2" y="391.9" width="146.4" height="24.65" shape-rendering="crispEdges"/><rect fill="#373737" x="219.6" y="391.9" width="280.6" height="24.65" shape-rendering="crispEdges"/><rect fill="#373737" x="500.2" y="391.9" width="158.6" height="24.65" shape-rendering="crispEdges"/><rect fill="#003054" x="658.8" y="391.9" width="24.4" height="24.65" shape-rendering="crispEdges"/><rect fill="#373737" x="0" y="416.3" width="134.2" height="24.65" shape-rendering="crispEdges"/><rect fill="#373737" x="134.2" y="416.3" width="524.6" height="24.65" shape-rendering="crispEdges"/><rect fill="#003054" x="658.8" y="416.3" width="24.4" height="24.65" shape-rendering="crispEdges"/><rect fill="#373737" x="0" y="440.7" width="12.2" height="24.65" shape-rendering="crispEdges"/><rect fill="#373737" x="12.2" y="440.7" width="12.2" height="24.65" shape-rendering="crispEdges"/><rect fill="#373737" x="24.4" y="440.7" width="24.4" height="24.65" shape-rendering="crispEdges"/><rect fill="#373737" x="48.8" y="440.7" width="24.4" height="24.65" shape-rendering="crispEdges"/><rect fill="#373737" x="73.2" y="440.7" width="61" height="24.65" shape-rendering="crispEdges"/><rect fill="#373737" x="134.2" y="440.7" width="207.4" height="24.65" shape-rendering="crispEdges"/><rect fill="#373737" x="341.6" y="440.7" width="317.2" height="24.65" shape-rendering="crispEdges"/><rect fill="#003054" x="658.8" y="440.7" width="24.4" height="24.65" shape-rendering="crispEdges"/><rect fill="#373737" x="0" y="465.1" width="12.2" height="24.65" shape-rendering="crispEdges"/><rect fill="#373737" x="12.2" y="465.1" width="12.2" height="24.65" shape-rendering="crispEdges"/><rect fill="#373737" x="24.4" y="465.1" width="24.4" height="24.65" shape-rendering="crispEdges"/><rect fill="#373737" x="48.8" y="465.1" width="24.4" height="24.65" shape-rendering="crispEdges"/><rect fill="#373737" x="73.2" y="465.1" width="109.8" height="24.65" shape-rendering="crispEdges"/><rect fill="#373737" x="183" y="465.1" width="463.6" height="24.65" shape-rendering="crispEdges"/><rect fill="#373737" x="646.6" y="465.1" width="12.2" height="24.65" shape-rendering="crispEdges"/><rect fill="#003054" x="658.8" y="465.1" width="24.4" height="24.65" shape-rendering="crispEdges"/><rect fill="#373737" x="0" y="489.5" width="134.2" height="24.65" shape-rendering="crispEdges"/><rect fill="#373737" x="134.2" y="489.5" width="524.6" height="24.65" shape-rendering="crispEdges"/><rect fill="#003054" x="658.8" y="489.5" width="24.4" height="24.65" shape-rendering="crispEdges"/><rect fill="#373737" x="0" y="513.9" width="12.2" height="24.65" shape-rendering="crispEdges"/><rect fill="#373737" x="12.2" y="513.9" width="12.2" height="24.65" shape-rendering="crispEdges"/><rect fill="#373737" x="24.4" y="513.9" width="24.4" height="24.65" shape-rendering="crispEdges"/><rect fill="#373737" x="48.8" y="513.9" width="414.8" height="24.65" shape-rendering="crispEdges"/><rect fill="#373737" x="463.6" y="513.9" width="195.2" height="24.65" shape-rendering="crispEdges"/><rect fill="#003054" x="658.8" y="513.9" width="24.4" height="24.65" shape-rendering="crispEdges"/><rect fill="#373737" x="0" y="538.3" width="134.2" height="24.65" shape-rendering="crispEdges"/><rect fill="#373737" x="134.2" y="538.3" width="524.6" height="24.65" shape-rendering="crispEdges"/><rect fill="#003054" x="658.8" y="538.3" width="24.4" height="24.65" shape-rendering="crispEdges"/><rect fill="#373737" x="0" y="562.7" width="12.2" height="24.65" shape-rendering="crispEdges"/><rect fill="#373737" x="12.2" y="562.7" width="12.2" height="24.65" shape-rendering="crispEdges"/><rect fill="#373737" x="24.4" y="562.7" width="24.4" height="24.65" shape-rendering="crispEdges"/><rect fill="#373737" x="48.8" y="562.7" width="24.4" height="24.65" shape-rendering="crispEdges"/><rect fill="#373737" x="73.2" y="562.7" width="146.4" height="24.65" shape-rendering="crispEdges"/><rect fill="#373737" x="219.6" y="562.7" width="378.2" height="24.65" shape-rendering="crispEdges"/><rect fill="#373737" x="597.8" y="562.7" width="61" height="24.65" shape-rendering="crispEdges"/><rect fill="#003054" x="658.8" y="562.7" width="24.4" height="24.65" shape-rendering="crispEdges"/><rect fill="#373737" x="0" y="587.1" width="12.2" height="24.65" shape-rendering="crispEdges"/><rect fill="#373737" x="12.2" y="587.1" width="12.2" height="24.65" shape-rendering="crispEdges"/><rect fill="#373737" x="24.4" y="587.1" width="24.4" height="24.65" shape-rendering="crispEdges"/><rect fill="#373737" x="48.8" y="587.1" width="24.4" height="24.65" shape-rendering="crispEdges"/><rect fill="#373737" x="73.2" y="587.1" width="73.2" height="24.65" shape-rendering="crispEdges"/><rect fill="#373737" x="146.4" y="587.1" width="231.8" height="24.65" shape-rendering="crispEdges"/><rect fill="#373737" x="378.2" y="587.1" width="280.6" height="24.65" shape-rendering="crispEdges"/><rect fill="#003054" x="658.8" y="587.1" width="24.4" height="24.65" shape-rendering="crispEdges"/><rect fill="#373737" x="0" y="611.5" width="12.2" height="24.65" shape-rendering="crispEdges"/><rect fill="#373737" x="12.2" y="611.5" width="12.2" height="24.65" shape-rendering="crispEdges"/><rect fill="#373737" x="24.4" y="611.5" width="24.4" height="24.65" shape-rendering="crispEdges"/><rect fill="#373737" x="48.8" y="611.5" width="24.4" height="24.65" shape-rendering="crispEdges"/><rect fill="#373737" x="73.2" y="611.5" width="73.2" height="24.65" shape-rendering="crispEdges"/><rect fill="#373737" x="146.4" y="611.5" width="231.8" height="24.65" shape-rendering="crispEdges"/><rect fill="#373737" x="378.2" y="611.5" width="280.6" height="24.65" shape-rendering="crispEdges"/><rect fill="#003054" x="658.8" y="611.5" width="24.4" height="24.65" shape-rendering="crispEdges"/><rect fill="#373737" x="0" y="635.9" width="683.2" height="24.65" shape-rendering="crispEdges"/><rect fill="#373737" x="0" y="660.3" width="12.2" height="24.65" shape-rendering="crispEdges"/><rect fill="#373737" x="12.2" y="660.3" width="12.2" height="24.65" shape-rendering="crispEdges"/><rect fill="#373737" x="24.4" y="660.3" width="85.4" height="24.65" shape-rendering="crispEdges"/><rect fill="#373737" x="109.8" y="660.3" width="12.2" height="24.65" shape-rendering="crispEdges"/><rect fill="#373737" x="122" y="660.3" width="85.4" height="24.65" shape-rendering="crispEdges"/><rect fill="#373737" x="207.4" y="660.3" width="463.6" height="24.65" shape-rendering="crispEdges"/><rect fill="#373737" x="671" y="660.3" width="12.2" height="24.65" shape-rendering="crispEdges"/><rect fill="#373737" x="0" y="684.7" width="683.2" height="24.65" shape-rendering="crispEdges"/>
    <g class="terminal-3666986365-matrix">
    <text class="terminal-3666986365-r1" x="683.2" y="20" textLength="12.2" clip-path="url(#terminal-3666986365-line-0)">
</text><text class="terminal-3666986365-r2" x="219.6" y="44.4" textLength="244" clip-path="url(#terminal-3666986365-line-1)">Jan&#160;12&#160;-&#160;18,&#160;2026&#160;#3</text><text class="terminal-3666986365-r1" x="683.2" y="44.4" textLength="12.2" clip-path="url(#terminal-3666986365-line-1)">
</text><text class="terminal-3666986365-r3" x="0" y="68.8" textLength="683.2" clip-path="url(#terminal-3666986365-line-2)">â”€â”€â”€â”€â”€â”€â”€â”€â”€â”€â”€â”€â”€â”€â”€â”€â”€â”€â”€â”€â”€â”€â”€â”€â”€â”€â”€â”€â”€â”€â”€â”€â”€â”€â”€â”€â”€â”€â”€â”€â”€â”€â”€â”€â”€â”€â”€â”€â”€â”€â”€â”€â”€â”€â”€â”€</text><text class="terminal-3666986365-r1" x="683.2" y="68.8" textLength="12.2" clip-path="url(#terminal-3666986365-line-2)">
</text><text class="terminal-3666986365-r4" x="73.2" y="93.2" textLength="524.6" clip-path="url(#terminal-3666986365-line-3)">â”‚&#160;Mon&#160;â”‚&#160;Tue&#160;â”‚&#160;Wed&#160;â”‚&#160;Thu&#160;â”‚&#160;Fri&#160;â”‚&#160;Sat&#160;â”‚&#160;Sun&#160;â”‚</text><text class="terminal-3666986365-r1" x="683.2" y="93.2" textLength="12.2" clip-path="url(#terminal-3666986365-line-3)">
</text><text class="terminal-3666986365-r4" x="73.2" y="117.6" textLength="109.8" clip-path="url(#terminal-3666986365-line-4)">â”‚&#160;&#160;&#160;&#160;&#160;â”‚&#160;&#160;</text><text class="terminal-3666986365-r5" x="183" y="117.6" textLength="12.2" clip-path="url(#terminal-3666986365-line-4)">â–ˆ</text><text class="terminal-3666986365-r5" x="195.2" y="117.6" textLength="12.2" clip-path="url(#terminal-3666986365-line-4)">â–ˆ</text><text class="terminal-3666986365-r4" x="207.4" y="117.6" textLength="146.4" clip-path="url(#terminal-3666986365-line-4)">&#160;â”‚&#160;&#160;&#160;&#160;&#160;â”‚&#160;&#160;&#160;&#160;</text><text class="terminal-3666986365-r5" x="353.8" y="117.6" textLength="12.2" clip-path="url(#terminal-3666986365-line-4)">â–ˆ</text><text class="terminal-3666986365-r4" x="366" y="117.6" textLength="48.8" clip-path="url(#terminal-3666986365-line-4)">â”‚&#160;&#160;&#160;</text><text class="terminal-3666986365-r5" x="414.8" y="117.6" textLength="12.2" clip-path="url(#terminal-3666986365-line-4)">â–ˆ</text><text class="terminal-3666986365-r4" x="427" y="117.6" textLength="134.2" clip-path="url(#terminal-3666986365-line-4)">&#160;â”‚&#160;&#160;&#160;&#160;&#160;â”‚&#160;&#160;&#160;</text><text class="terminal-3666986365-r5" x="561.2" y="117.6" textLength="12.2" clip-path="url(#terminal-3666986365-line-4)">â–ˆ</text><text class="terminal-3666986365-r4" x="573.4" y="117.6" textLength="24.4" clip-path="url(#terminal-3666986365-line-4)">&#160;â”‚</text><text class="terminal-3666986365-r1" x="683.2" y="117.6" textLength="12.2" clip-path="url(#terminal-3666986365-line-4)">
</text><text class="terminal-3666986365-r3" x="0" y="142" textLength="683.2" clip-path="url(#terminal-3666986365-line-5)">â”€â”€â”€â”€â”€â”€â”€â”€â”€â”€â”€â”€â”€â”€â”€â”€â”€â”€â”€â”€â”€â”€â”€â”€â”€â”€â”€â”€â”€â”€â”€â”€â”€â”€â”€â”€â”€â”€â”€â”€â”€â”€â”€â”€â”€â”€â”€â”€â”€â”€â”€â”€â”€â”€â”€â”€</text><text class="terminal-3666986365-r1" x="683.2" y="142" textLength="12.2" clip-path="url(#terminal-3666986365-line-5)">
</text><text class="terminal-3666986365-r6" x="0" y="166.4" textLength="134.2" clip-path="url(#terminal-3666986365-line-6)">Mon,&#160;Jan&#160;12</text><text class="terminal-3666986365-r1" x="683.2" y="166.4" textLength="12.2" clip-path="url(#terminal-3666986365-line-6)">
</text><text class="terminal-3666986365-r8" x="12.2" y="190.8" textLength="12.2" clip-path="url(#terminal-3666986365-line-7)">a</text><text class="terminal-3666986365-r9" x="48.8" y="190.8" textLength="24.4" clip-path="url(#terminal-3666986365-line-7)">%&#160;</text><text class="terminal-3666986365-r9" x="73.2" y="190.8" textLength="61" clip-path="url(#terminal-3666986365-line-7)">8:00&#160;</text><text class="terminal-3666986365-r9" x="134.2" y="190.8" textLength="402.6" clip-path="url(#terminal-3666986365-line-7)">Aliquam&#160;magnam&#160;labore&#160;etincidunt&#160;</text><text class="terminal-3666986365-r1" x="683.2" y="190.8" textLength="12.2" clip-path="url(#terminal-3666986365-line-7)">
</text><text class="terminal-3666986365-r8" x="12.2" y="215.2" textLength="12.2" clip-path="url(#terminal-3666986365-line-8)">b</text><text class="terminal-3666986365-r9" x="48.8" y="215.2" textLength="24.4" clip-path="url(#terminal-3666986365-line-8)">%&#160;</text><text class="terminal-3666986365-r9" x="73.2" y="215.2" textLength="73.2" clip-path="url(#terminal-3666986365-line-8)">10:00&#160;</text><text class="terminal-3666986365-r9" x="146.4" y="215.2" textLength="280.6" clip-path="url(#terminal-3666986365-line-8)">Quiquia&#160;quaerat&#160;dolore&#160;</text><text class="terminal-3666986365-r1" x="683.2" y="215.2" textLength="12.2" clip-path="url(#terminal-3666986365-line-8)">
</text><text class="terminal-3666986365-r6" x="0" y="239.6" textLength="231.8" clip-path="url(#terminal-3666986365-line-9)">Tue,&#160;Jan&#160;13&#160;(today)</text><text class="terminal-3666986365-r1" x="683.2" y="239.6" textLength="12.2" clip-path="url(#terminal-3666986365-line-9)">
</text><text class="terminal-3666986365-r8" x="12.2" y="264" textLength="12.2" clip-path="url(#terminal-3666986365-line-10)">c</text><text class="terminal-3666986365-r10" x="48.8" y="264" textLength="280.6" clip-path="url(#terminal-3666986365-line-10)">*&#160;Ipsum&#160;quaerat&#160;labore&#160;</text><text class="terminal-3666986365-r1" x="683.2" y="264" textLength="12.2" clip-path="url(#terminal-3666986365-line-10)">
</text><text class="terminal-3666986365-r8" x="12.2" y="288.4" textLength="12.2" clip-path="url(#terminal-3666986365-line-11)">d</text><text class="terminal-3666986365-r10" x="48.8" y="288.4" textLength="24.4" clip-path="url(#terminal-3666986365-line-11)">*&#160;</text><text class="terminal-3666986365-r10" x="73.2" y="288.4" textLength="146.4" clip-path="url(#terminal-3666986365-line-11)">11:30-12:15&#160;</text><text class="terminal-3666986365-r10" x="219.6" y="288.4" textLength="366" clip-path="url(#terminal-3666986365-line-11)">Porro&#160;velit&#160;porro&#160;eius&#160;dolor&#160;ğ•’</text><text class="terminal-3666986365-r1" x="683.2" y="288.4" textLength="12.2" clip-path="url(#terminal-3666986365-line-11)">
</text><text class="terminal-3666986365-r8" x="12.2" y="312.8" textLength="12.2" clip-path="url(#terminal-3666986365-line-12)">e</text><text class="terminal-3666986365-r11" x="48.8" y="312.8" textLength="24.4" clip-path="url(#terminal-3666986365-line-12)">~&#160;</text><text class="terminal-3666986365-r11" x="73.2" y="312.8" textLength="73.2" clip-path="url(#terminal-3666986365-line-12)">12:45&#160;</text><text class="terminal-3666986365-r11" x="146.4" y="312.8" textLength="219.6" clip-path="url(#terminal-3666986365-line-12)">Labore&#160;eius&#160;ipsum&#160;</text><text class="terminal-3666986365-r1" x="683.2" y="312.8" textLength="12.2" clip-path="url(#terminal-3666986365-line-12)">
</text><text class="terminal-3666986365-r8" x="12.2" y="337.2" textLength="12.2" clip-path="url(#terminal-3666986365-line-13)">f</text><text class="terminal-3666986365-r11" x="48.8" y="337.2" textLength="24.4" clip-path="url(#terminal-3666986365-line-13)">~&#160;</text><text class="terminal-3666986365-r11" x="73.2" y="337.2" textLength="73.2" clip-path="url(#terminal-3666986365-line-13)">12:45&#160;</text><text class="terminal-3666986365-r11" x="146.4" y="337.2" textLength="353.8" clip-path="url(#terminal-3666986365-line-13)">Modi&#160;voluptatem&#160;quaerat&#160;amet&#160;</text><text class="terminal-3666986365-r1" x="683.2" y="337.2" textLength="12.2" clip-path="url(#terminal-3666986365-line-13)">
</text><text class="terminal-3666986365-r8" x="12.2" y="361.6" textLength="12.2" clip-path="url(#terminal-3666986365-line-14)">g</text><text class="terminal-3666986365-r10" x="48.8" y="361.6" textLength="24.4" clip-path="url(#terminal-3666986365-line-14)">*&#160;</text><text class="terminal-3666986365-r10" x="73.2" y="361.6" textLength="109.8" clip-path="url(#terminal-3666986365-line-14)">14-15:00&#160;</text><text class="terminal-3666986365-r10" x="183" y="361.6" textLength="378.2" clip-path="url(#terminal-3666986365-line-14)">Quiquia&#160;quisquam&#160;non&#160;ipsum&#160;sed&#160;</text><text class="terminal-3666986365-r1" x="683.2" y="361.6" textLength="12.2" clip-path="url(#terminal-3666986365-line-14)">
</text><text class="terminal-3666986365-r6" x="0" y="386" textLength="134.2" clip-path="url(#terminal-3666986365-line-15)">Thu,&#160;Jan&#160;15</text><text class="terminal-3666986365-r1" x="683.2" y="386" textLength="12.2" clip-path="url(#terminal-3666986365-line-15)">
</text><text class="terminal-3666986365-r8" x="12.2" y="410.4" textLength="12.2" clip-path="url(#terminal-3666986365-line-16)">h</text><text class="terminal-3666986365-r10" x="48.8" y="410.4" textLength="24.4" clip-path="url(#terminal-3666986365-line-16)">*&#160;</text><text class="terminal-3666986365-r10" x="73.2" y="410.4" textLength="146.4" clip-path="url(#terminal-3666986365-line-16)">18:30-19:45&#160;</text><text class="terminal-3666986365-r10" x="219.6" y="410.4" textLength="280.6" clip-path="url(#terminal-3666986365-line-16)">Velit&#160;quiquia&#160;ut&#160;dolor&#160;</text><text class="terminal-3666986365-r1" x="683.2" y="410.4" textLength="12.2" clip-path="url(#terminal-3666986365-line-16)">
</text><text class="terminal-3666986365-r6" x="0" y="434.8" textLength="134.2" clip-path="url(#terminal-3666986365-line-17)">Fri,&#160;Jan&#160;16</text><text class="terminal-3666986365-r1" x="683.2" y="434.8" textLength="12.2" clip-path="url(#terminal-3666986365-line-17)">
</text><text class="terminal-3666986365-r8" x="12.2" y="459.2" textLength="12.2" clip-path="url(#terminal-3666986365-line-18)">i</text><text class="terminal-3666986365-r9" x="48.8" y="459.2" textLength="24.4" clip-path="url(#terminal-3666986365-line-18)">%&#160;</text><text class="terminal-3666986365-r9" x="73.2" y="459.2" textLength="61" clip-path="url(#terminal-3666986365-line-18)">8:30&#160;</text><text class="terminal-3666986365-r9" x="134.2" y="459.2" textLength="207.4" clip-path="url(#terminal-3666986365-line-18)">Ut&#160;quaerat&#160;porro&#160;</text><text class="terminal-3666986365-r1" x="683.2" y="459.2" textLength="12.2" clip-path="url(#terminal-3666986365-line-18)">
</text><text class="terminal-3666986365-r8" x="12.2" y="483.6" textLength="12.2" clip-path="url(#terminal-3666986365-line-19)">j</text><text class="terminal-3666986365-r10" x="48.8" y="483.6" textLength="24.4" clip-path="url(#terminal-3666986365-line-19)">*&#160;</text><text class="terminal-3666986365-r10" x="73.2" y="483.6" textLength="109.8" clip-path="url(#terminal-3666986365-line-19)">17-17:15&#160;</text><text class="terminal-3666986365-r10" x="183" y="483.6" textLength="463.6" clip-path="url(#terminal-3666986365-line-19)">Ipsum&#160;quiquia&#160;dolor&#160;consectetur&#160;dolor&#160;</text><text class="terminal-3666986365-r1" x="683.2" y="483.6" textLength="12.2" clip-path="url(#terminal-3666986365-line-19)">
</text><text class="terminal-3666986365-r6" x="0" y="508" textLength="134.2" clip-path="url(#terminal-3666986365-line-20)">Sat,&#160;Jan&#160;17</text><text class="terminal-3666986365-r1" x="683.2" y="508" textLength="12.2" clip-path="url(#terminal-3666986365-line-20)">
</text><text class="terminal-3666986365-r8" x="12.2" y="532.4" textLength="12.2" clip-path="url(#terminal-3666986365-line-21)">k</text><text class="terminal-3666986365-r10" x="48.8" y="532.4" textLength="414.8" clip-path="url(#terminal-3666986365-line-21)">*&#160;Consectetur&#160;modi&#160;consectetur&#160;ut&#160;</text><text class="terminal-3666986365-r1" x="683.2" y="532.4" textLength="12.2" clip-path="url(#terminal-3666986365-line-21)">
</text><text class="terminal-3666986365-r6" x="0" y="556.8" textLength="134.2" clip-path="url(#terminal-3666986365-line-22)">Sun,&#160;Jan&#160;18</text><text class="terminal-3666986365-r1" x="683.2" y="556.8" textLength="12.2" clip-path="url(#terminal-3666986365-line-22)">
</text><text class="terminal-3666986365-r8" x="12.2" y="581.2" textLength="12.2" clip-path="url(#terminal-3666986365-line-23)">l</text><text class="terminal-3666986365-r10" x="48.8" y="581.2" textLength="24.4" clip-path="url(#terminal-3666986365-line-23)">*&#160;</text><text class="terminal-3666986365-r10" x="73.2" y="581.2" textLength="146.4" clip-path="url(#terminal-3666986365-line-23)">12:30-14:15&#160;</text><text class="terminal-3666986365-r10" x="219.6" y="581.2" textLength="378.2" clip-path="url(#terminal-3666986365-line-23)">Neque&#160;dolorem&#160;eius&#160;consectetur&#160;</text><text class="terminal-3666986365-r1" x="683.2" y="581.2" textLength="12.2" clip-path="url(#terminal-3666986365-line-23)">
</text><text class="terminal-3666986365-r8" x="12.2" y="605.6" textLength="12.2" clip-path="url(#terminal-3666986365-line-24)">m</text><text class="terminal-3666986365-r10" x="48.8" y="605.6" textLength="24.4" clip-path="url(#terminal-3666986365-line-24)">*&#160;</text><text class="terminal-3666986365-r10" x="73.2" y="605.6" textLength="73.2" clip-path="url(#terminal-3666986365-line-24)">12:45&#160;</text><text class="terminal-3666986365-r10" x="146.4" y="605.6" textLength="231.8" clip-path="url(#terminal-3666986365-line-24)">Amet&#160;porro&#160;sit&#160;est&#160;</text><text class="terminal-3666986365-r1" x="683.2" y="605.6" textLength="12.2" clip-path="url(#terminal-3666986365-line-24)">
</text><text class="terminal-3666986365-r8" x="12.2" y="630" textLength="12.2" clip-path="url(#terminal-3666986365-line-25)">n</text><text class="terminal-3666986365-r11" x="48.8" y="630" textLength="24.4" clip-path="url(#terminal-3666986365-line-25)">~&#160;</text><text class="terminal-3666986365-r11" x="73.2" y="630" textLength="73.2" clip-path="url(#terminal-3666986365-line-25)">12:45&#160;</text><text class="terminal-3666986365-r11" x="146.4" y="630" textLength="231.8" clip-path="url(#terminal-3666986365-line-25)">Numquam&#160;eius&#160;ipsum&#160;</text><text class="terminal-3666986365-r12" x="658.8" y="630" textLength="24.4" clip-path="url(#terminal-3666986365-line-25)">â–‡â–‡</text><text class="terminal-3666986365-r1" x="683.2" y="630" textLength="12.2" clip-path="url(#terminal-3666986365-line-25)">
</text><text class="terminal-3666986365-r3" x="0" y="654.4" textLength="683.2" clip-path="url(#terminal-3666986365-line-26)">â”€â”€â”€â”€â”€â”€â”€â”€â”€â”€â”€â”€â”€â”€â”€â”€â”€â”€â”€â”€â”€â”€â”€â”€â”€â”€â”€â”€â”€â”€â”€â”€â”€â”€â”€â”€â”€â”€â”€â”€â”€â”€â”€â”€â”€â”€â”€â”€â”€â”€â”€â”€â”€â”€â”€â”€</text><text class="terminal-3666986365-r1" x="683.2" y="654.4" textLength="12.2" clip-path="url(#terminal-3666986365-line-26)">
</text><text class="terminal-3666986365-r13" x="12.2" y="678.8" textLength="12.2" clip-path="url(#terminal-3666986365-line-27)">?</text><text class="terminal-3666986365-r2" x="24.4" y="678.8" textLength="85.4" clip-path="url(#terminal-3666986365-line-27)">&#160;Help&#160;&#160;</text><text class="terminal-3666986365-r13" x="109.8" y="678.8" textLength="12.2" clip-path="url(#terminal-3666986365-line-27)">/</text><text class="terminal-3666986365-r2" x="122" y="678.8" textLength="85.4" clip-path="url(#terminal-3666986365-line-27)">&#160;Search</text><text class="terminal-3666986365-r1" x="683.2" y="678.8" textLength="12.2" clip-path="url(#terminal-3666986365-line-27)">
</text>
    </g>
    </g>
</svg>
