<svg class="rich-terminal" viewBox="0 0 738 904.0" xmlns="http://www.w3.org/2000/svg">
    <!-- Generated with Rich https://www.textualize.io -->
    <style>

    @font-face {
        font-family: "Fira Code";
        src: local("FiraCode-Regular"),
                url("https://cdnjs.cloudflare.com/ajax/libs/firacode/6.2.0/woff2/FiraCode-Regular.woff2") format("woff2"),
                url("https://cdnjs.cloudflare.com/ajax/libs/firacode/6.2.0/woff/FiraCode-Regular.woff") format("woff");
        font-style: normal;
        font-weight: 400;
    }
    @font-face {
        font-family: "Fira Code";
        src: local("FiraCode-Bold"),
                url("https://cdnjs.cloudflare.com/ajax/libs/firacode/6.2.0/woff2/FiraCode-Bold.woff2") format("woff2"),
                url("https://cdnjs.cloudflare.com/ajax/libs/firacode/6.2.0/woff/FiraCode-Bold.woff") format("woff");
        font-style: bold;
        font-weight: 700;
    }

    .terminal-4196297265-matrix {
        font-family: Fira Code, monospace;
        font-size: 20px;
        line-height: 24.4px;
        font-variant-east-asian: full-width;
    }

    .terminal-4196297265-title {
        font-size: 18px;
        font-weight: bold;
        font-family: arial;
    }

    .terminal-4196297265-r1 { fill: #c5c8c6 }
.terminal-4196297265-r2 { fill: #ffffff;font-weight: bold }
.terminal-4196297265-r3 { fill: #7f7f7f }
.terminal-4196297265-r4 { fill: #e0e0e0;font-weight: bold }
.terminal-4196297265-r5 { fill: #ffff00;font-weight: bold }
.terminal-4196297265-r6 { fill: #008000;font-weight: bold }
.terminal-4196297265-r7 { fill: #ff0000;font-weight: bold }
.terminal-4196297265-r8 { fill: #fffacd;font-weight: bold }
.terminal-4196297265-r9 { fill: #8c8e8c }
.terminal-4196297265-r10 { fill: #32cd32 }
.terminal-4196297265-r11 { fill: #87cefa }
    </style>

    <defs>
    <clipPath id="terminal-4196297265-clip-terminal">
      <rect x="0" y="0" width="718.8" height="853.0" />
    </clipPath>
    <clipPath id="terminal-4196297265-line-0">
    <rect x="0" y="1.5" width="719.8" height="24.65"/>
            </clipPath>
<clipPath id="terminal-4196297265-line-1">
    <rect x="0" y="25.9" width="719.8" height="24.65"/>
            </clipPath>
<clipPath id="terminal-4196297265-line-2">
    <rect x="0" y="50.3" width="719.8" height="24.65"/>
            </clipPath>
<clipPath id="terminal-4196297265-line-3">
    <rect x="0" y="74.7" width="719.8" height="24.65"/>
            </clipPath>
<clipPath id="terminal-4196297265-line-4">
    <rect x="0" y="99.1" width="719.8" height="24.65"/>
            </clipPath>
<clipPath id="terminal-4196297265-line-5">
    <rect x="0" y="123.5" width="719.8" height="24.65"/>
            </clipPath>
<clipPath id="terminal-4196297265-line-6">
    <rect x="0" y="147.9" width="719.8" height="24.65"/>
            </clipPath>
<clipPath id="terminal-4196297265-line-7">
    <rect x="0" y="172.3" width="719.8" height="24.65"/>
            </clipPath>
<clipPath id="terminal-4196297265-line-8">
    <rect x="0" y="196.7" width="719.8" height="24.65"/>
            </clipPath>
<clipPath id="terminal-4196297265-line-9">
    <rect x="0" y="221.1" width="719.8" height="24.65"/>
            </clipPath>
<clipPath id="terminal-4196297265-line-10">
    <rect x="0" y="245.5" width="719.8" height="24.65"/>
            </clipPath>
<clipPath id="terminal-4196297265-line-11">
    <rect x="0" y="269.9" width="719.8" height="24.65"/>
            </clipPath>
<clipPath id="terminal-4196297265-line-12">
    <rect x="0" y="294.3" width="719.8" height="24.65"/>
            </clipPath>
<clipPath id="terminal-4196297265-line-13">
    <rect x="0" y="318.7" width="719.8" height="24.65"/>
            </clipPath>
<clipPath id="terminal-4196297265-line-14">
    <rect x="0" y="343.1" width="719.8" height="24.65"/>
            </clipPath>
<clipPath id="terminal-4196297265-line-15">
    <rect x="0" y="367.5" width="719.8" height="24.65"/>
            </clipPath>
<clipPath id="terminal-4196297265-line-16">
    <rect x="0" y="391.9" width="719.8" height="24.65"/>
            </clipPath>
<clipPath id="terminal-4196297265-line-17">
    <rect x="0" y="416.3" width="719.8" height="24.65"/>
            </clipPath>
<clipPath id="terminal-4196297265-line-18">
    <rect x="0" y="440.7" width="719.8" height="24.65"/>
            </clipPath>
<clipPath id="terminal-4196297265-line-19">
    <rect x="0" y="465.1" width="719.8" height="24.65"/>
            </clipPath>
<clipPath id="terminal-4196297265-line-20">
    <rect x="0" y="489.5" width="719.8" height="24.65"/>
            </clipPath>
<clipPath id="terminal-4196297265-line-21">
    <rect x="0" y="513.9" width="719.8" height="24.65"/>
            </clipPath>
<clipPath id="terminal-4196297265-line-22">
    <rect x="0" y="538.3" width="719.8" height="24.65"/>
            </clipPath>
<clipPath id="terminal-4196297265-line-23">
    <rect x="0" y="562.7" width="719.8" height="24.65"/>
            </clipPath>
<clipPath id="terminal-4196297265-line-24">
    <rect x="0" y="587.1" width="719.8" height="24.65"/>
            </clipPath>
<clipPath id="terminal-4196297265-line-25">
    <rect x="0" y="611.5" width="719.8" height="24.65"/>
            </clipPath>
<clipPath id="terminal-4196297265-line-26">
    <rect x="0" y="635.9" width="719.8" height="24.65"/>
            </clipPath>
<clipPath id="terminal-4196297265-line-27">
    <rect x="0" y="660.3" width="719.8" height="24.65"/>
            </clipPath>
<clipPath id="terminal-4196297265-line-28">
    <rect x="0" y="684.7" width="719.8" height="24.65"/>
            </clipPath>
<clipPath id="terminal-4196297265-line-29">
    <rect x="0" y="709.1" width="719.8" height="24.65"/>
            </clipPath>
<clipPath id="terminal-4196297265-line-30">
    <rect x="0" y="733.5" width="719.8" height="24.65"/>
            </clipPath>
<clipPath id="terminal-4196297265-line-31">
    <rect x="0" y="757.9" width="719.8" height="24.65"/>
            </clipPath>
<clipPath id="terminal-4196297265-line-32">
    <rect x="0" y="782.3" width="719.8" height="24.65"/>
            </clipPath>
<clipPath id="terminal-4196297265-line-33">
    <rect x="0" y="806.7" width="719.8" height="24.65"/>
            </clipPath>
    </defs>

    <rect fill="#292929" stroke="rgba(255,255,255,0.35)" stroke-width="1" x="1" y="1" width="736" height="902" rx="8"/>
            <g transform="translate(26,22)">
            <circle cx="0" cy="0" r="7" fill="#ff5f57"/>
            <circle cx="22" cy="0" r="7" fill="#febc2e"/>
            <circle cx="44" cy="0" r="7" fill="#28c840"/>
            </g>
        
    <g transform="translate(9, 41)" clip-path="url(#terminal-4196297265-clip-terminal)">
    <rect fill="#373737" x="0" y="1.5" width="719.8" height="24.65" shape-rendering="crispEdges"/><rect fill="#373737" x="0" y="25.9" width="12.2" height="24.65" shape-rendering="crispEdges"/><rect fill="#373737" x="12.2" y="25.9" width="231.8" height="24.65" shape-rendering="crispEdges"/><rect fill="#373737" x="244" y="25.9" width="231.8" height="24.65" shape-rendering="crispEdges"/><rect fill="#373737" x="475.8" y="25.9" width="231.8" height="24.65" shape-rendering="crispEdges"/><rect fill="#373737" x="707.6" y="25.9" width="12.2" height="24.65" shape-rendering="crispEdges"/><rect fill="#373737" x="0" y="50.3" width="719.8" height="24.65" shape-rendering="crispEdges"/><rect fill="#373737" x="0" y="74.7" width="97.6" height="24.65" shape-rendering="crispEdges"/><rect fill="#373737" x="97.6" y="74.7" width="524.6" height="24.65" shape-rendering="crispEdges"/><rect fill="#373737" x="622.2" y="74.7" width="97.6" height="24.65" shape-rendering="crispEdges"/><rect fill="#373737" x="0" y="99.1" width="97.6" height="24.65" shape-rendering="crispEdges"/><rect fill="#373737" x="97.6" y="99.1" width="12.2" height="24.65" shape-rendering="crispEdges"/><rect fill="#373737" x="109.8" y="99.1" width="12.2" height="24.65" shape-rendering="crispEdges"/><rect fill="#373737" x="122" y="99.1" width="24.4" height="24.65" shape-rendering="crispEdges"/><rect fill="#373737" x="146.4" y="99.1" width="12.2" height="24.65" shape-rendering="crispEdges"/><rect fill="#373737" x="158.6" y="99.1" width="12.2" height="24.65" shape-rendering="crispEdges"/><rect fill="#373737" x="170.8" y="99.1" width="61" height="24.65" shape-rendering="crispEdges"/><rect fill="#373737" x="231.8" y="99.1" width="12.2" height="24.65" shape-rendering="crispEdges"/><rect fill="#373737" x="244" y="99.1" width="134.2" height="24.65" shape-rendering="crispEdges"/><rect fill="#373737" x="378.2" y="99.1" width="12.2" height="24.65" shape-rendering="crispEdges"/><rect fill="#373737" x="390.4" y="99.1" width="61" height="24.65" shape-rendering="crispEdges"/><rect fill="#373737" x="451.4" y="99.1" width="12.2" height="24.65" shape-rendering="crispEdges"/><rect fill="#373737" x="463.6" y="99.1" width="36.6" height="24.65" shape-rendering="crispEdges"/><rect fill="#373737" x="500.2" y="99.1" width="12.2" height="24.65" shape-rendering="crispEdges"/><rect fill="#373737" x="512.4" y="99.1" width="12.2" height="24.65" shape-rendering="crispEdges"/><rect fill="#373737" x="524.6" y="99.1" width="97.6" height="24.65" shape-rendering="crispEdges"/><rect fill="#373737" x="622.2" y="99.1" width="97.6" height="24.65" shape-rendering="crispEdges"/><rect fill="#373737" x="0" y="123.5" width="719.8" height="24.65" shape-rendering="crispEdges"/><rect fill="#373737" x="0" y="147.9" width="122" height="24.65" shape-rendering="crispEdges"/><rect fill="#373737" x="122" y="147.9" width="597.8" height="24.65" shape-rendering="crispEdges"/><rect fill="#373737" x="0" y="172.3" width="12.2" height="24.65" shape-rendering="crispEdges"/><rect fill="#373737" x="12.2" y="172.3" width="12.2" height="24.65" shape-rendering="crispEdges"/><rect fill="#373737" x="24.4" y="172.3" width="24.4" height="24.65" shape-rendering="crispEdges"/><rect fill="#373737" x="48.8" y="172.3" width="244" height="24.65" shape-rendering="crispEdges"/><rect fill="#373737" x="292.8" y="172.3" width="427" height="24.65" shape-rendering="crispEdges"/><rect fill="#373737" x="0" y="196.7" width="12.2" height="24.65" shape-rendering="crispEdges"/><rect fill="#373737" x="12.2" y="196.7" width="12.2" height="24.65" shape-rendering="crispEdges"/><rect fill="#373737" x="24.4" y="196.7" width="24.4" height="24.65" shape-rendering="crispEdges"/><rect fill="#373737" x="48.8" y="196.7" width="24.4" height="24.65" shape-rendering="crispEdges"/><rect fill="#373737" x="73.2" y="196.7" width="146.4" height="24.65" shape-rendering="crispEdges"/><rect fill="#373737" x="219.6" y="196.7" width="292.8" height="24.65" shape-rendering="crispEdges"/><rect fill="#373737" x="512.4" y="196.7" width="207.4" height="24.65" shape-rendering="crispEdges"/><rect fill="#373737" x="0" y="221.1" width="12.2" height="24.65" shape-rendering="crispEdges"/><rect fill="#373737" x="12.2" y="221.1" width="12.2" height="24.65" shape-rendering="crispEdges"/><rect fill="#373737" x="24.4" y="221.1" width="24.4" height="24.65" shape-rendering="crispEdges"/><rect fill="#373737" x="48.8" y="221.1" width="24.4" height="24.65" shape-rendering="crispEdges"/><rect fill="#373737" x="73.2" y="221.1" width="73.2" height="24.65" shape-rendering="crispEdges"/><rect fill="#373737" x="146.4" y="221.1" width="268.4" height="24.65" shape-rendering="crispEdges"/><rect fill="#373737" x="414.8" y="221.1" width="305" height="24.65" shape-rendering="crispEdges"/><rect fill="#373737" x="0" y="245.5" width="12.2" height="24.65" shape-rendering="crispEdges"/><rect fill="#373737" x="12.2" y="245.5" width="12.2" height="24.65" shape-rendering="crispEdges"/><rect fill="#373737" x="24.4" y="245.5" width="24.4" height="24.65" shape-rendering="crispEdges"/><rect fill="#373737" x="48.8" y="245.5" width="24.4" height="24.65" shape-rendering="crispEdges"/><rect fill="#373737" x="73.2" y="245.5" width="146.4" height="24.65" shape-rendering="crispEdges"/><rect fill="#373737" x="219.6" y="245.5" width="195.2" height="24.65" shape-rendering="crispEdges"/><rect fill="#373737" x="414.8" y="245.5" width="305" height="24.65" shape-rendering="crispEdges"/><rect fill="#373737" x="0" y="269.9" width="12.2" height="24.65" shape-rendering="crispEdges"/><rect fill="#373737" x="12.2" y="269.9" width="12.2" height="24.65" shape-rendering="crispEdges"/><rect fill="#373737" x="24.4" y="269.9" width="24.4" height="24.65" shape-rendering="crispEdges"/><rect fill="#373737" x="48.8" y="269.9" width="24.4" height="24.65" shape-rendering="crispEdges"/><rect fill="#373737" x="73.2" y="269.9" width="146.4" height="24.65" shape-rendering="crispEdges"/><rect fill="#373737" x="219.6" y="269.9" width="329.4" height="24.65" shape-rendering="crispEdges"/><rect fill="#373737" x="549" y="269.9" width="170.8" height="24.65" shape-rendering="crispEdges"/><rect fill="#373737" x="0" y="294.3" width="122" height="24.65" shape-rendering="crispEdges"/><rect fill="#373737" x="122" y="294.3" width="597.8" height="24.65" shape-rendering="crispEdges"/><rect fill="#373737" x="0" y="318.7" width="12.2" height="24.65" shape-rendering="crispEdges"/><rect fill="#373737" x="12.2" y="318.7" width="12.2" height="24.65" shape-rendering="crispEdges"/><rect fill="#373737" x="24.4" y="318.7" width="24.4" height="24.65" shape-rendering="crispEdges"/><rect fill="#373737" x="48.8" y="318.7" width="24.4" height="24.65" shape-rendering="crispEdges"/><rect fill="#373737" x="73.2" y="318.7" width="73.2" height="24.65" shape-rendering="crispEdges"/><rect fill="#373737" x="146.4" y="318.7" width="280.6" height="24.65" shape-rendering="crispEdges"/><rect fill="#373737" x="427" y="318.7" width="292.8" height="24.65" shape-rendering="crispEdges"/><rect fill="#373737" x="0" y="343.1" width="12.2" height="24.65" shape-rendering="crispEdges"/><rect fill="#373737" x="12.2" y="343.1" width="12.2" height="24.65" shape-rendering="crispEdges"/><rect fill="#373737" x="24.4" y="343.1" width="24.4" height="24.65" shape-rendering="crispEdges"/><rect fill="#373737" x="48.8" y="343.1" width="24.4" height="24.65" shape-rendering="crispEdges"/><rect fill="#373737" x="73.2" y="343.1" width="109.8" height="24.65" shape-rendering="crispEdges"/><rect fill="#373737" x="183" y="343.1" width="341.6" height="24.65" shape-rendering="crispEdges"/><rect fill="#373737" x="524.6" y="343.1" width="195.2" height="24.65" shape-rendering="crispEdges"/><rect fill="#373737" x="0" y="367.5" width="122" height="24.65" shape-rendering="crispEdges"/><rect fill="#373737" x="122" y="367.5" width="597.8" height="24.65" shape-rendering="crispEdges"/><rect fill="#373737" x="0" y="391.9" width="12.2" height="24.65" shape-rendering="crispEdges"/><rect fill="#373737" x="12.2" y="391.9" width="12.2" height="24.65" shape-rendering="crispEdges"/><rect fill="#373737" x="24.4" y="391.9" width="24.4" height="24.65" shape-rendering="crispEdges"/><rect fill="#373737" x="48.8" y="391.9" width="24.4" height="24.65" shape-rendering="crispEdges"/><rect fill="#373737" x="73.2" y="391.9" width="73.2" height="24.65" shape-rendering="crispEdges"/><rect fill="#373737" x="146.4" y="391.9" width="378.2" height="24.65" shape-rendering="crispEdges"/><rect fill="#373737" x="524.6" y="391.9" width="195.2" height="24.65" shape-rendering="crispEdges"/><rect fill="#373737" x="0" y="416.3" width="122" height="24.65" shape-rendering="crispEdges"/><rect fill="#373737" x="122" y="416.3" width="597.8" height="24.65" shape-rendering="crispEdges"/><rect fill="#373737" x="0" y="440.7" width="12.2" height="24.65" shape-rendering="crispEdges"/><rect fill="#373737" x="12.2" y="440.7" width="12.2" height="24.65" shape-rendering="crispEdges"/><rect fill="#373737" x="24.4" y="440.7" width="24.4" height="24.65" shape-rendering="crispEdges"/><rect fill="#373737" x="48.8" y="440.7" width="24.4" height="24.65" shape-rendering="crispEdges"/><rect fill="#373737" x="73.2" y="440.7" width="73.2" height="24.65" shape-rendering="crispEdges"/><rect fill="#373737" x="146.4" y="440.7" width="524.6" height="24.65" shape-rendering="crispEdges"/><rect fill="#373737" x="671" y="440.7" width="48.8" height="24.65" shape-rendering="crispEdges"/><rect fill="#373737" x="0" y="465.1" width="12.2" height="24.65" shape-rendering="crispEdges"/><rect fill="#373737" x="12.2" y="465.1" width="12.2" height="24.65" shape-rendering="crispEdges"/><rect fill="#373737" x="24.4" y="465.1" width="24.4" height="24.65" shape-rendering="crispEdges"/><rect fill="#373737" x="48.8" y="465.1" width="24.4" height="24.65" shape-rendering="crispEdges"/><rect fill="#373737" x="73.2" y="465.1" width="146.4" height="24.65" shape-rendering="crispEdges"/><rect fill="#373737" x="219.6" y="465.1" width="305" height="24.65" shape-rendering="crispEdges"/><rect fill="#373737" x="524.6" y="465.1" width="195.2" height="24.65" shape-rendering="crispEdges"/><rect fill="#373737" x="0" y="489.5" width="219.6" height="24.65" shape-rendering="crispEdges"/><rect fill="#373737" x="219.6" y="489.5" width="500.2" height="24.65" shape-rendering="crispEdges"/><rect fill="#373737" x="0" y="513.9" width="12.2" height="24.65" shape-rendering="crispEdges"/><rect fill="#373737" x="12.2" y="513.9" width="12.2" height="24.65" shape-rendering="crispEdges"/><rect fill="#373737" x="24.4" y="513.9" width="24.4" height="24.65" shape-rendering="crispEdges"/><rect fill="#373737" x="48.8" y="513.9" width="24.4" height="24.65" shape-rendering="crispEdges"/><rect fill="#373737" x="73.2" y="513.9" width="61" height="24.65" shape-rendering="crispEdges"/><rect fill="#373737" x="134.2" y="513.9" width="561.2" height="24.65" shape-rendering="crispEdges"/><rect fill="#373737" x="695.4" y="513.9" width="24.4" height="24.65" shape-rendering="crispEdges"/><rect fill="#373737" x="0" y="538.3" width="12.2" height="24.65" shape-rendering="crispEdges"/><rect fill="#373737" x="12.2" y="538.3" width="12.2" height="24.65" shape-rendering="crispEdges"/><rect fill="#373737" x="24.4" y="538.3" width="24.4" height="24.65" shape-rendering="crispEdges"/><rect fill="#373737" x="48.8" y="538.3" width="24.4" height="24.65" shape-rendering="crispEdges"/><rect fill="#373737" x="73.2" y="538.3" width="109.8" height="24.65" shape-rendering="crispEdges"/><rect fill="#373737" x="183" y="538.3" width="183" height="24.65" shape-rendering="crispEdges"/><rect fill="#373737" x="366" y="538.3" width="353.8" height="24.65" shape-rendering="crispEdges"/><rect fill="#373737" x="0" y="562.7" width="256.2" height="24.65" shape-rendering="crispEdges"/><rect fill="#373737" x="256.2" y="562.7" width="463.6" height="24.65" shape-rendering="crispEdges"/><rect fill="#373737" x="0" y="587.1" width="12.2" height="24.65" shape-rendering="crispEdges"/><rect fill="#373737" x="12.2" y="587.1" width="12.2" height="24.65" shape-rendering="crispEdges"/><rect fill="#373737" x="24.4" y="587.1" width="24.4" height="24.65" shape-rendering="crispEdges"/><rect fill="#373737" x="48.8" y="587.1" width="24.4" height="24.65" shape-rendering="crispEdges"/><rect fill="#373737" x="73.2" y="587.1" width="85.4" height="24.65" shape-rendering="crispEdges"/><rect fill="#373737" x="158.6" y="587.1" width="305" height="24.65" shape-rendering="crispEdges"/><rect fill="#373737" x="463.6" y="587.1" width="256.2" height="24.65" shape-rendering="crispEdges"/><rect fill="#373737" x="0" y="611.5" width="12.2" height="24.65" shape-rendering="crispEdges"/><rect fill="#373737" x="12.2" y="611.5" width="12.2" height="24.65" shape-rendering="crispEdges"/><rect fill="#373737" x="24.4" y="611.5" width="24.4" height="24.65" shape-rendering="crispEdges"/><rect fill="#373737" x="48.8" y="611.5" width="24.4" height="24.65" shape-rendering="crispEdges"/><rect fill="#373737" x="73.2" y="611.5" width="61" height="24.65" shape-rendering="crispEdges"/><rect fill="#373737" x="134.2" y="611.5" width="292.8" height="24.65" shape-rendering="crispEdges"/><rect fill="#373737" x="427" y="611.5" width="292.8" height="24.65" shape-rendering="crispEdges"/><rect fill="#373737" x="0" y="635.9" width="12.2" height="24.65" shape-rendering="crispEdges"/><rect fill="#373737" x="12.2" y="635.9" width="12.2" height="24.65" shape-rendering="crispEdges"/><rect fill="#373737" x="24.4" y="635.9" width="24.4" height="24.65" shape-rendering="crispEdges"/><rect fill="#373737" x="48.8" y="635.9" width="24.4" height="24.65" shape-rendering="crispEdges"/><rect fill="#373737" x="73.2" y="635.9" width="73.2" height="24.65" shape-rendering="crispEdges"/><rect fill="#373737" x="146.4" y="635.9" width="244" height="24.65" shape-rendering="crispEdges"/><rect fill="#373737" x="390.4" y="635.9" width="329.4" height="24.65" shape-rendering="crispEdges"/><rect fill="#373737" x="0" y="660.3" width="12.2" height="24.65" shape-rendering="crispEdges"/><rect fill="#373737" x="12.2" y="660.3" width="12.2" height="24.65" shape-rendering="crispEdges"/><rect fill="#373737" x="24.4" y="660.3" width="24.4" height="24.65" shape-rendering="crispEdges"/><rect fill="#373737" x="48.8" y="660.3" width="24.4" height="24.65" shape-rendering="crispEdges"/><rect fill="#373737" x="73.2" y="660.3" width="146.4" height="24.65" shape-rendering="crispEdges"/><rect fill="#373737" x="219.6" y="660.3" width="292.8" height="24.65" shape-rendering="crispEdges"/><rect fill="#373737" x="512.4" y="660.3" width="207.4" height="24.65" shape-rendering="crispEdges"/><rect fill="#373737" x="0" y="684.7" width="12.2" height="24.65" shape-rendering="crispEdges"/><rect fill="#373737" x="12.2" y="684.7" width="12.2" height="24.65" shape-rendering="crispEdges"/><rect fill="#373737" x="24.4" y="684.7" width="24.4" height="24.65" shape-rendering="crispEdges"/><rect fill="#373737" x="48.8" y="684.7" width="24.4" height="24.65" shape-rendering="crispEdges"/><rect fill="#373737" x="73.2" y="684.7" width="146.4" height="24.65" shape-rendering="crispEdges"/><rect fill="#373737" x="219.6" y="684.7" width="366" height="24.65" shape-rendering="crispEdges"/><rect fill="#373737" x="585.6" y="684.7" width="134.2" height="24.65" shape-rendering="crispEdges"/><rect fill="#373737" x="0" y="709.1" width="12.2" height="24.65" shape-rendering="crispEdges"/><rect fill="#373737" x="12.2" y="709.1" width="12.2" height="24.65" shape-rendering="crispEdges"/><rect fill="#373737" x="24.4" y="709.1" width="24.4" height="24.65" shape-rendering="crispEdges"/><rect fill="#373737" x="48.8" y="709.1" width="24.4" height="24.65" shape-rendering="crispEdges"/><rect fill="#373737" x="73.2" y="709.1" width="73.2" height="24.65" shape-rendering="crispEdges"/><rect fill="#373737" x="146.4" y="709.1" width="280.6" height="24.65" shape-rendering="crispEdges"/><rect fill="#373737" x="427" y="709.1" width="292.8" height="24.65" shape-rendering="crispEdges"/><rect fill="#373737" x="0" y="733.5" width="122" height="24.65" shape-rendering="crispEdges"/><rect fill="#373737" x="122" y="733.5" width="597.8" height="24.65" shape-rendering="crispEdges"/><rect fill="#373737" x="0" y="757.9" width="12.2" height="24.65" shape-rendering="crispEdges"/><rect fill="#373737" x="12.2" y="757.9" width="12.2" height="24.65" shape-rendering="crispEdges"/><rect fill="#373737" x="24.4" y="757.9" width="24.4" height="24.65" shape-rendering="crispEdges"/><rect fill="#373737" x="48.8" y="757.9" width="24.4" height="24.65" shape-rendering="crispEdges"/><rect fill="#373737" x="73.2" y="757.9" width="73.2" height="24.65" shape-rendering="crispEdges"/><rect fill="#373737" x="146.4" y="757.9" width="402.6" height="24.65" shape-rendering="crispEdges"/><rect fill="#373737" x="549" y="757.9" width="170.8" height="24.65" shape-rendering="crispEdges"/><rect fill="#373737" x="0" y="782.3" width="719.8" height="24.65" shape-rendering="crispEdges"/><rect fill="#373737" x="0" y="806.7" width="12.2" height="24.65" shape-rendering="crispEdges"/><rect fill="#373737" x="12.2" y="806.7" width="12.2" height="24.65" shape-rendering="crispEdges"/><rect fill="#373737" x="24.4" y="806.7" width="85.4" height="24.65" shape-rendering="crispEdges"/><rect fill="#373737" x="109.8" y="806.7" width="12.2" height="24.65" shape-rendering="crispEdges"/><rect fill="#373737" x="122" y="806.7" width="85.4" height="24.65" shape-rendering="crispEdges"/><rect fill="#373737" x="207.4" y="806.7" width="500.2" height="24.65" shape-rendering="crispEdges"/><rect fill="#373737" x="707.6" y="806.7" width="12.2" height="24.65" shape-rendering="crispEdges"/><rect fill="#373737" x="0" y="831.1" width="719.8" height="24.65" shape-rendering="crispEdges"/>
    <g class="terminal-4196297265-matrix">
    <text class="terminal-4196297265-r1" x="719.8" y="20" textLength="12.2" clip-path="url(#terminal-4196297265-line-0)">
</text><text class="terminal-4196297265-r2" x="244" y="44.4" textLength="231.8" clip-path="url(#terminal-4196297265-line-1)">Nov&#160;3&#160;-&#160;9,&#160;2025&#160;#45</text><text class="terminal-4196297265-r1" x="719.8" y="44.4" textLength="12.2" clip-path="url(#terminal-4196297265-line-1)">
</text><text class="terminal-4196297265-r3" x="0" y="68.8" textLength="719.8" clip-path="url(#terminal-4196297265-line-2)">───────────────────────────────────────────────────────────</text><text class="terminal-4196297265-r1" x="719.8" y="68.8" textLength="12.2" clip-path="url(#terminal-4196297265-line-2)">
</text><text class="terminal-4196297265-r4" x="97.6" y="93.2" textLength="524.6" clip-path="url(#terminal-4196297265-line-3)">│&#160;Mon&#160;│&#160;Tue&#160;│&#160;Wed&#160;│&#160;Thu&#160;│&#160;Fri&#160;│&#160;Sat&#160;│&#160;Sun&#160;│</text><text class="terminal-4196297265-r1" x="719.8" y="93.2" textLength="12.2" clip-path="url(#terminal-4196297265-line-3)">
</text><text class="terminal-4196297265-r4" x="97.6" y="117.6" textLength="12.2" clip-path="url(#terminal-4196297265-line-4)">│</text><text class="terminal-4196297265-r5" x="109.8" y="117.6" textLength="12.2" clip-path="url(#terminal-4196297265-line-4)">■</text><text class="terminal-4196297265-r6" x="146.4" y="117.6" textLength="12.2" clip-path="url(#terminal-4196297265-line-4)">█</text><text class="terminal-4196297265-r7" x="158.6" y="117.6" textLength="12.2" clip-path="url(#terminal-4196297265-line-4)">▓</text><text class="terminal-4196297265-r4" x="170.8" y="117.6" textLength="61" clip-path="url(#terminal-4196297265-line-4)">│&#160;&#160;&#160;&#160;</text><text class="terminal-4196297265-r6" x="231.8" y="117.6" textLength="12.2" clip-path="url(#terminal-4196297265-line-4)">█</text><text class="terminal-4196297265-r4" x="244" y="117.6" textLength="134.2" clip-path="url(#terminal-4196297265-line-4)">│&#160;&#160;&#160;&#160;&#160;│&#160;&#160;&#160;&#160;</text><text class="terminal-4196297265-r6" x="378.2" y="117.6" textLength="12.2" clip-path="url(#terminal-4196297265-line-4)">█</text><text class="terminal-4196297265-r4" x="390.4" y="117.6" textLength="61" clip-path="url(#terminal-4196297265-line-4)">│&#160;&#160;&#160;&#160;</text><text class="terminal-4196297265-r6" x="451.4" y="117.6" textLength="12.2" clip-path="url(#terminal-4196297265-line-4)">█</text><text class="terminal-4196297265-r4" x="463.6" y="117.6" textLength="36.6" clip-path="url(#terminal-4196297265-line-4)">│&#160;&#160;</text><text class="terminal-4196297265-r6" x="500.2" y="117.6" textLength="12.2" clip-path="url(#terminal-4196297265-line-4)">█</text><text class="terminal-4196297265-r7" x="512.4" y="117.6" textLength="12.2" clip-path="url(#terminal-4196297265-line-4)">▓</text><text class="terminal-4196297265-r4" x="524.6" y="117.6" textLength="97.6" clip-path="url(#terminal-4196297265-line-4)">&#160;│&#160;&#160;&#160;&#160;&#160;│</text><text class="terminal-4196297265-r1" x="719.8" y="117.6" textLength="12.2" clip-path="url(#terminal-4196297265-line-4)">
</text><text class="terminal-4196297265-r3" x="0" y="142" textLength="719.8" clip-path="url(#terminal-4196297265-line-5)">───────────────────────────────────────────────────────────</text><text class="terminal-4196297265-r1" x="719.8" y="142" textLength="12.2" clip-path="url(#terminal-4196297265-line-5)">
</text><text class="terminal-4196297265-r8" x="0" y="166.4" textLength="122" clip-path="url(#terminal-4196297265-line-6)">Mon,&#160;Nov&#160;3</text><text class="terminal-4196297265-r1" x="719.8" y="166.4" textLength="12.2" clip-path="url(#terminal-4196297265-line-6)">
</text><text class="terminal-4196297265-r9" x="12.2" y="190.8" textLength="12.2" clip-path="url(#terminal-4196297265-line-7)">a</text><text class="terminal-4196297265-r10" x="48.8" y="190.8" textLength="244" clip-path="url(#terminal-4196297265-line-7)">*&#160;Modi&#160;magnam&#160;labore</text><text class="terminal-4196297265-r1" x="719.8" y="190.8" textLength="12.2" clip-path="url(#terminal-4196297265-line-7)">
</text><text class="terminal-4196297265-r9" x="12.2" y="215.2" textLength="12.2" clip-path="url(#terminal-4196297265-line-8)">b</text><text class="terminal-4196297265-r10" x="48.8" y="215.2" textLength="24.4" clip-path="url(#terminal-4196297265-line-8)">*&#160;</text><text class="terminal-4196297265-r10" x="73.2" y="215.2" textLength="146.4" clip-path="url(#terminal-4196297265-line-8)">12:30-13:30&#160;</text><text class="terminal-4196297265-r10" x="219.6" y="215.2" textLength="292.8" clip-path="url(#terminal-4196297265-line-8)">Est&#160;neque&#160;dolore&#160;amet&#160;ut</text><text class="terminal-4196297265-r1" x="719.8" y="215.2" textLength="12.2" clip-path="url(#terminal-4196297265-line-8)">
</text><text class="terminal-4196297265-r9" x="12.2" y="239.6" textLength="12.2" clip-path="url(#terminal-4196297265-line-9)">c</text><text class="terminal-4196297265-r11" x="48.8" y="239.6" textLength="24.4" clip-path="url(#terminal-4196297265-line-9)">~&#160;</text><text class="terminal-4196297265-r11" x="73.2" y="239.6" textLength="73.2" clip-path="url(#terminal-4196297265-line-9)">16:00&#160;</text><text class="terminal-4196297265-r11" x="146.4" y="239.6" textLength="268.4" clip-path="url(#terminal-4196297265-line-9)">Amet&#160;velit&#160;dolor&#160;porro</text><text class="terminal-4196297265-r1" x="719.8" y="239.6" textLength="12.2" clip-path="url(#terminal-4196297265-line-9)">
</text><text class="terminal-4196297265-r9" x="12.2" y="264" textLength="12.2" clip-path="url(#terminal-4196297265-line-10)">d</text><text class="terminal-4196297265-r10" x="48.8" y="264" textLength="24.4" clip-path="url(#terminal-4196297265-line-10)">*&#160;</text><text class="terminal-4196297265-r10" x="73.2" y="264" textLength="146.4" clip-path="url(#terminal-4196297265-line-10)">17:30-19:00&#160;</text><text class="terminal-4196297265-r10" x="219.6" y="264" textLength="195.2" clip-path="url(#terminal-4196297265-line-10)">Sed&#160;ut&#160;sed&#160;porro</text><text class="terminal-4196297265-r1" x="719.8" y="264" textLength="12.2" clip-path="url(#terminal-4196297265-line-10)">
</text><text class="terminal-4196297265-r9" x="12.2" y="288.4" textLength="12.2" clip-path="url(#terminal-4196297265-line-11)">e</text><text class="terminal-4196297265-r10" x="48.8" y="288.4" textLength="24.4" clip-path="url(#terminal-4196297265-line-11)">*&#160;</text><text class="terminal-4196297265-r10" x="73.2" y="288.4" textLength="146.4" clip-path="url(#terminal-4196297265-line-11)">18:30-18:45&#160;</text><text class="terminal-4196297265-r10" x="219.6" y="288.4" textLength="329.4" clip-path="url(#terminal-4196297265-line-11)">Voluptatem&#160;sit&#160;eius&#160;dolorem</text><text class="terminal-4196297265-r1" x="719.8" y="288.4" textLength="12.2" clip-path="url(#terminal-4196297265-line-11)">
</text><text class="terminal-4196297265-r8" x="0" y="312.8" textLength="122" clip-path="url(#terminal-4196297265-line-12)">Tue,&#160;Nov&#160;4</text><text class="terminal-4196297265-r1" x="719.8" y="312.8" textLength="12.2" clip-path="url(#terminal-4196297265-line-12)">
</text><text class="terminal-4196297265-r9" x="12.2" y="337.2" textLength="12.2" clip-path="url(#terminal-4196297265-line-13)">f</text><text class="terminal-4196297265-r11" x="48.8" y="337.2" textLength="24.4" clip-path="url(#terminal-4196297265-line-13)">~&#160;</text><text class="terminal-4196297265-r11" x="73.2" y="337.2" textLength="73.2" clip-path="url(#terminal-4196297265-line-13)">15:30&#160;</text><text class="terminal-4196297265-r11" x="146.4" y="337.2" textLength="280.6" clip-path="url(#terminal-4196297265-line-13)">Dolor&#160;quisquam&#160;adipisci</text><text class="terminal-4196297265-r1" x="719.8" y="337.2" textLength="12.2" clip-path="url(#terminal-4196297265-line-13)">
</text><text class="terminal-4196297265-r9" x="12.2" y="361.6" textLength="12.2" clip-path="url(#terminal-4196297265-line-14)">g</text><text class="terminal-4196297265-r10" x="48.8" y="361.6" textLength="24.4" clip-path="url(#terminal-4196297265-line-14)">*&#160;</text><text class="terminal-4196297265-r10" x="73.2" y="361.6" textLength="109.8" clip-path="url(#terminal-4196297265-line-14)">23-23:45&#160;</text><text class="terminal-4196297265-r10" x="183" y="361.6" textLength="341.6" clip-path="url(#terminal-4196297265-line-14)">Tempora&#160;quiquia&#160;non&#160;adipisci</text><text class="terminal-4196297265-r1" x="719.8" y="361.6" textLength="12.2" clip-path="url(#terminal-4196297265-line-14)">
</text><text class="terminal-4196297265-r8" x="0" y="386" textLength="122" clip-path="url(#terminal-4196297265-line-15)">Wed,&#160;Nov&#160;5</text><text class="terminal-4196297265-r1" x="719.8" y="386" textLength="12.2" clip-path="url(#terminal-4196297265-line-15)">
</text><text class="terminal-4196297265-r9" x="12.2" y="410.4" textLength="12.2" clip-path="url(#terminal-4196297265-line-16)">h</text><text class="terminal-4196297265-r11" x="48.8" y="410.4" textLength="24.4" clip-path="url(#terminal-4196297265-line-16)">~&#160;</text><text class="terminal-4196297265-r11" x="73.2" y="410.4" textLength="73.2" clip-path="url(#terminal-4196297265-line-16)">17:00&#160;</text><text class="terminal-4196297265-r11" x="146.4" y="410.4" textLength="378.2" clip-path="url(#terminal-4196297265-line-16)">Magnam&#160;etincidunt&#160;quisquam&#160;modi</text><text class="terminal-4196297265-r1" x="719.8" y="410.4" textLength="12.2" clip-path="url(#terminal-4196297265-line-16)">
</text><text class="terminal-4196297265-r8" x="0" y="434.8" textLength="122" clip-path="url(#terminal-4196297265-line-17)">Thu,&#160;Nov&#160;6</text><text class="terminal-4196297265-r1" x="719.8" y="434.8" textLength="12.2" clip-path="url(#terminal-4196297265-line-17)">
</text><text class="terminal-4196297265-r9" x="12.2" y="459.2" textLength="12.2" clip-path="url(#terminal-4196297265-line-18)">i</text><text class="terminal-4196297265-r11" x="48.8" y="459.2" textLength="24.4" clip-path="url(#terminal-4196297265-line-18)">~&#160;</text><text class="terminal-4196297265-r11" x="73.2" y="459.2" textLength="73.2" clip-path="url(#terminal-4196297265-line-18)">13:30&#160;</text><text class="terminal-4196297265-r11" x="146.4" y="459.2" textLength="524.6" clip-path="url(#terminal-4196297265-line-18)">Etincidunt&#160;quisquam&#160;magnam&#160;quaerat&#160;quisquam</text><text class="terminal-4196297265-r1" x="719.8" y="459.2" textLength="12.2" clip-path="url(#terminal-4196297265-line-18)">
</text><text class="terminal-4196297265-r9" x="12.2" y="483.6" textLength="12.2" clip-path="url(#terminal-4196297265-line-19)">j</text><text class="terminal-4196297265-r10" x="48.8" y="483.6" textLength="24.4" clip-path="url(#terminal-4196297265-line-19)">*&#160;</text><text class="terminal-4196297265-r10" x="73.2" y="483.6" textLength="146.4" clip-path="url(#terminal-4196297265-line-19)">19:30-20:15&#160;</text><text class="terminal-4196297265-r10" x="219.6" y="483.6" textLength="305" clip-path="url(#terminal-4196297265-line-19)">Est&#160;labore&#160;sed&#160;magnam&#160;non</text><text class="terminal-4196297265-r1" x="719.8" y="483.6" textLength="12.2" clip-path="url(#terminal-4196297265-line-19)">
</text><text class="terminal-4196297265-r8" x="0" y="508" textLength="219.6" clip-path="url(#terminal-4196297265-line-20)">Fri,&#160;Nov&#160;7&#160;(today)</text><text class="terminal-4196297265-r1" x="719.8" y="508" textLength="12.2" clip-path="url(#terminal-4196297265-line-20)">
</text><text class="terminal-4196297265-r9" x="12.2" y="532.4" textLength="12.2" clip-path="url(#terminal-4196297265-line-21)">k</text><text class="terminal-4196297265-r11" x="48.8" y="532.4" textLength="24.4" clip-path="url(#terminal-4196297265-line-21)">~&#160;</text><text class="terminal-4196297265-r11" x="73.2" y="532.4" textLength="61" clip-path="url(#terminal-4196297265-line-21)">8:30&#160;</text><text class="terminal-4196297265-r11" x="134.2" y="532.4" textLength="561.2" clip-path="url(#terminal-4196297265-line-21)">Voluptatem&#160;quisquam&#160;consectetur&#160;dolore&#160;tempora</text><text class="terminal-4196297265-r1" x="719.8" y="532.4" textLength="12.2" clip-path="url(#terminal-4196297265-line-21)">
</text><text class="terminal-4196297265-r9" x="12.2" y="556.8" textLength="12.2" clip-path="url(#terminal-4196297265-line-22)">l</text><text class="terminal-4196297265-r10" x="48.8" y="556.8" textLength="24.4" clip-path="url(#terminal-4196297265-line-22)">*&#160;</text><text class="terminal-4196297265-r10" x="73.2" y="556.8" textLength="109.8" clip-path="url(#terminal-4196297265-line-22)">19-20:45&#160;</text><text class="terminal-4196297265-r10" x="183" y="556.8" textLength="183" clip-path="url(#terminal-4196297265-line-22)">Sed&#160;est&#160;dolorem</text><text class="terminal-4196297265-r1" x="719.8" y="556.8" textLength="12.2" clip-path="url(#terminal-4196297265-line-22)">
</text><text class="terminal-4196297265-r8" x="0" y="581.2" textLength="256.2" clip-path="url(#terminal-4196297265-line-23)">Sat,&#160;Nov&#160;8&#160;(tomorrow)</text><text class="terminal-4196297265-r1" x="719.8" y="581.2" textLength="12.2" clip-path="url(#terminal-4196297265-line-23)">
</text><text class="terminal-4196297265-r9" x="12.2" y="605.6" textLength="12.2" clip-path="url(#terminal-4196297265-line-24)">m</text><text class="terminal-4196297265-r10" x="48.8" y="605.6" textLength="24.4" clip-path="url(#terminal-4196297265-line-24)">*&#160;</text><text class="terminal-4196297265-r10" x="73.2" y="605.6" textLength="85.4" clip-path="url(#terminal-4196297265-line-24)">8-8:45&#160;</text><text class="terminal-4196297265-r10" x="158.6" y="605.6" textLength="305" clip-path="url(#terminal-4196297265-line-24)">Non&#160;dolor&#160;non&#160;numquam&#160;sed</text><text class="terminal-4196297265-r1" x="719.8" y="605.6" textLength="12.2" clip-path="url(#terminal-4196297265-line-24)">
</text><text class="terminal-4196297265-r9" x="12.2" y="630" textLength="12.2" clip-path="url(#terminal-4196297265-line-25)">n</text><text class="terminal-4196297265-r11" x="48.8" y="630" textLength="24.4" clip-path="url(#terminal-4196297265-line-25)">~&#160;</text><text class="terminal-4196297265-r11" x="73.2" y="630" textLength="61" clip-path="url(#terminal-4196297265-line-25)">8:30&#160;</text><text class="terminal-4196297265-r11" x="134.2" y="630" textLength="292.8" clip-path="url(#terminal-4196297265-line-25)">Porro&#160;modi&#160;ipsum&#160;dolorem</text><text class="terminal-4196297265-r1" x="719.8" y="630" textLength="12.2" clip-path="url(#terminal-4196297265-line-25)">
</text><text class="terminal-4196297265-r9" x="12.2" y="654.4" textLength="12.2" clip-path="url(#terminal-4196297265-line-26)">o</text><text class="terminal-4196297265-r11" x="48.8" y="654.4" textLength="24.4" clip-path="url(#terminal-4196297265-line-26)">~&#160;</text><text class="terminal-4196297265-r11" x="73.2" y="654.4" textLength="73.2" clip-path="url(#terminal-4196297265-line-26)">11:00&#160;</text><text class="terminal-4196297265-r11" x="146.4" y="654.4" textLength="244" clip-path="url(#terminal-4196297265-line-26)">Modi&#160;porro&#160;ut&#160;labore</text><text class="terminal-4196297265-r1" x="719.8" y="654.4" textLength="12.2" clip-path="url(#terminal-4196297265-line-26)">
</text><text class="terminal-4196297265-r9" x="12.2" y="678.8" textLength="12.2" clip-path="url(#terminal-4196297265-line-27)">p</text><text class="terminal-4196297265-r10" x="48.8" y="678.8" textLength="24.4" clip-path="url(#terminal-4196297265-line-27)">*&#160;</text><text class="terminal-4196297265-r10" x="73.2" y="678.8" textLength="146.4" clip-path="url(#terminal-4196297265-line-27)">13:30-15:00&#160;</text><text class="terminal-4196297265-r10" x="219.6" y="678.8" textLength="292.8" clip-path="url(#terminal-4196297265-line-27)">Numquam&#160;velit&#160;labore&#160;sit</text><text class="terminal-4196297265-r1" x="719.8" y="678.8" textLength="12.2" clip-path="url(#terminal-4196297265-line-27)">
</text><text class="terminal-4196297265-r9" x="12.2" y="703.2" textLength="12.2" clip-path="url(#terminal-4196297265-line-28)">q</text><text class="terminal-4196297265-r10" x="48.8" y="703.2" textLength="24.4" clip-path="url(#terminal-4196297265-line-28)">*&#160;</text><text class="terminal-4196297265-r10" x="73.2" y="703.2" textLength="146.4" clip-path="url(#terminal-4196297265-line-28)">13:30-13:45&#160;</text><text class="terminal-4196297265-r10" x="219.6" y="703.2" textLength="366" clip-path="url(#terminal-4196297265-line-28)">Consectetur&#160;non&#160;dolore&#160;numquam</text><text class="terminal-4196297265-r1" x="719.8" y="703.2" textLength="12.2" clip-path="url(#terminal-4196297265-line-28)">
</text><text class="terminal-4196297265-r9" x="12.2" y="727.6" textLength="12.2" clip-path="url(#terminal-4196297265-line-29)">r</text><text class="terminal-4196297265-r10" x="48.8" y="727.6" textLength="24.4" clip-path="url(#terminal-4196297265-line-29)">*&#160;</text><text class="terminal-4196297265-r10" x="73.2" y="727.6" textLength="73.2" clip-path="url(#terminal-4196297265-line-29)">19:00&#160;</text><text class="terminal-4196297265-r10" x="146.4" y="727.6" textLength="280.6" clip-path="url(#terminal-4196297265-line-29)">Est&#160;porro&#160;quiquia&#160;ut&#160;ut</text><text class="terminal-4196297265-r1" x="719.8" y="727.6" textLength="12.2" clip-path="url(#terminal-4196297265-line-29)">
</text><text class="terminal-4196297265-r8" x="0" y="752" textLength="122" clip-path="url(#terminal-4196297265-line-30)">Sun,&#160;Nov&#160;9</text><text class="terminal-4196297265-r1" x="719.8" y="752" textLength="12.2" clip-path="url(#terminal-4196297265-line-30)">
</text><text class="terminal-4196297265-r9" x="12.2" y="776.4" textLength="12.2" clip-path="url(#terminal-4196297265-line-31)">s</text><text class="terminal-4196297265-r11" x="48.8" y="776.4" textLength="24.4" clip-path="url(#terminal-4196297265-line-31)">~&#160;</text><text class="terminal-4196297265-r11" x="73.2" y="776.4" textLength="73.2" clip-path="url(#terminal-4196297265-line-31)">12:00&#160;</text><text class="terminal-4196297265-r11" x="146.4" y="776.4" textLength="402.6" clip-path="url(#terminal-4196297265-line-31)">Aliquam&#160;adipisci&#160;quaerat&#160;quisquam</text><text class="terminal-4196297265-r1" x="719.8" y="776.4" textLength="12.2" clip-path="url(#terminal-4196297265-line-31)">
</text><text class="terminal-4196297265-r3" x="0" y="800.8" textLength="719.8" clip-path="url(#terminal-4196297265-line-32)">───────────────────────────────────────────────────────────</text><text class="terminal-4196297265-r1" x="719.8" y="800.8" textLength="12.2" clip-path="url(#terminal-4196297265-line-32)">
</text><text class="terminal-4196297265-r5" x="12.2" y="825.2" textLength="12.2" clip-path="url(#terminal-4196297265-line-33)">?</text><text class="terminal-4196297265-r2" x="24.4" y="825.2" textLength="85.4" clip-path="url(#terminal-4196297265-line-33)">&#160;Help&#160;&#160;</text><text class="terminal-4196297265-r5" x="109.8" y="825.2" textLength="12.2" clip-path="url(#terminal-4196297265-line-33)">/</text><text class="terminal-4196297265-r2" x="122" y="825.2" textLength="85.4" clip-path="url(#terminal-4196297265-line-33)">&#160;Search</text><text class="terminal-4196297265-r1" x="719.8" y="825.2" textLength="12.2" clip-path="url(#terminal-4196297265-line-33)">
</text>
    </g>
    </g>
</svg>
