<svg class="rich-terminal" viewBox="0 0 775 977.1999999999999" xmlns="http://www.w3.org/2000/svg">
    <!-- Generated with Rich https://www.textualize.io -->
    <style>

    @font-face {
        font-family: "Fira Code";
        src: local("FiraCode-Regular"),
                url("https://cdnjs.cloudflare.com/ajax/libs/firacode/6.2.0/woff2/FiraCode-Regular.woff2") format("woff2"),
                url("https://cdnjs.cloudflare.com/ajax/libs/firacode/6.2.0/woff/FiraCode-Regular.woff") format("woff");
        font-style: normal;
        font-weight: 400;
    }
    @font-face {
        font-family: "Fira Code";
        src: local("FiraCode-Bold"),
                url("https://cdnjs.cloudflare.com/ajax/libs/firacode/6.2.0/woff2/FiraCode-Bold.woff2") format("woff2"),
                url("https://cdnjs.cloudflare.com/ajax/libs/firacode/6.2.0/woff/FiraCode-Bold.woff") format("woff");
        font-style: bold;
        font-weight: 700;
    }

    .terminal-2138422846-matrix {
        font-family: Fira Code, monospace;
        font-size: 20px;
        line-height: 24.4px;
        font-variant-east-asian: full-width;
    }

    .terminal-2138422846-title {
        font-size: 18px;
        font-weight: bold;
        font-family: arial;
    }

    .terminal-2138422846-r1 { fill: #c5c8c6 }
.terminal-2138422846-r2 { fill: #ffffff;font-weight: bold }
.terminal-2138422846-r3 { fill: #7f7f7f }
.terminal-2138422846-r4 { fill: #e0e0e0;font-weight: bold }
.terminal-2138422846-r5 { fill: #ffff00;font-weight: bold }
.terminal-2138422846-r6 { fill: #008000;font-weight: bold }
.terminal-2138422846-r7 { fill: #ff0000;font-weight: bold }
.terminal-2138422846-r8 { fill: #fffacd;font-weight: bold }
.terminal-2138422846-r9 { fill: #8c8e8c }
.terminal-2138422846-r10 { fill: #32cd32 }
.terminal-2138422846-r11 { fill: #87cefa }
.terminal-2138422846-r12 { fill: #e9967a }
    </style>

    <defs>
    <clipPath id="terminal-2138422846-clip-terminal">
      <rect x="0" y="0" width="755.4" height="926.1999999999999" />
    </clipPath>
    <clipPath id="terminal-2138422846-line-0">
    <rect x="0" y="1.5" width="756.4" height="24.65"/>
            </clipPath>
<clipPath id="terminal-2138422846-line-1">
    <rect x="0" y="25.9" width="756.4" height="24.65"/>
            </clipPath>
<clipPath id="terminal-2138422846-line-2">
    <rect x="0" y="50.3" width="756.4" height="24.65"/>
            </clipPath>
<clipPath id="terminal-2138422846-line-3">
    <rect x="0" y="74.7" width="756.4" height="24.65"/>
            </clipPath>
<clipPath id="terminal-2138422846-line-4">
    <rect x="0" y="99.1" width="756.4" height="24.65"/>
            </clipPath>
<clipPath id="terminal-2138422846-line-5">
    <rect x="0" y="123.5" width="756.4" height="24.65"/>
            </clipPath>
<clipPath id="terminal-2138422846-line-6">
    <rect x="0" y="147.9" width="756.4" height="24.65"/>
            </clipPath>
<clipPath id="terminal-2138422846-line-7">
    <rect x="0" y="172.3" width="756.4" height="24.65"/>
            </clipPath>
<clipPath id="terminal-2138422846-line-8">
    <rect x="0" y="196.7" width="756.4" height="24.65"/>
            </clipPath>
<clipPath id="terminal-2138422846-line-9">
    <rect x="0" y="221.1" width="756.4" height="24.65"/>
            </clipPath>
<clipPath id="terminal-2138422846-line-10">
    <rect x="0" y="245.5" width="756.4" height="24.65"/>
            </clipPath>
<clipPath id="terminal-2138422846-line-11">
    <rect x="0" y="269.9" width="756.4" height="24.65"/>
            </clipPath>
<clipPath id="terminal-2138422846-line-12">
    <rect x="0" y="294.3" width="756.4" height="24.65"/>
            </clipPath>
<clipPath id="terminal-2138422846-line-13">
    <rect x="0" y="318.7" width="756.4" height="24.65"/>
            </clipPath>
<clipPath id="terminal-2138422846-line-14">
    <rect x="0" y="343.1" width="756.4" height="24.65"/>
            </clipPath>
<clipPath id="terminal-2138422846-line-15">
    <rect x="0" y="367.5" width="756.4" height="24.65"/>
            </clipPath>
<clipPath id="terminal-2138422846-line-16">
    <rect x="0" y="391.9" width="756.4" height="24.65"/>
            </clipPath>
<clipPath id="terminal-2138422846-line-17">
    <rect x="0" y="416.3" width="756.4" height="24.65"/>
            </clipPath>
<clipPath id="terminal-2138422846-line-18">
    <rect x="0" y="440.7" width="756.4" height="24.65"/>
            </clipPath>
<clipPath id="terminal-2138422846-line-19">
    <rect x="0" y="465.1" width="756.4" height="24.65"/>
            </clipPath>
<clipPath id="terminal-2138422846-line-20">
    <rect x="0" y="489.5" width="756.4" height="24.65"/>
            </clipPath>
<clipPath id="terminal-2138422846-line-21">
    <rect x="0" y="513.9" width="756.4" height="24.65"/>
            </clipPath>
<clipPath id="terminal-2138422846-line-22">
    <rect x="0" y="538.3" width="756.4" height="24.65"/>
            </clipPath>
<clipPath id="terminal-2138422846-line-23">
    <rect x="0" y="562.7" width="756.4" height="24.65"/>
            </clipPath>
<clipPath id="terminal-2138422846-line-24">
    <rect x="0" y="587.1" width="756.4" height="24.65"/>
            </clipPath>
<clipPath id="terminal-2138422846-line-25">
    <rect x="0" y="611.5" width="756.4" height="24.65"/>
            </clipPath>
<clipPath id="terminal-2138422846-line-26">
    <rect x="0" y="635.9" width="756.4" height="24.65"/>
            </clipPath>
<clipPath id="terminal-2138422846-line-27">
    <rect x="0" y="660.3" width="756.4" height="24.65"/>
            </clipPath>
<clipPath id="terminal-2138422846-line-28">
    <rect x="0" y="684.7" width="756.4" height="24.65"/>
            </clipPath>
<clipPath id="terminal-2138422846-line-29">
    <rect x="0" y="709.1" width="756.4" height="24.65"/>
            </clipPath>
<clipPath id="terminal-2138422846-line-30">
    <rect x="0" y="733.5" width="756.4" height="24.65"/>
            </clipPath>
<clipPath id="terminal-2138422846-line-31">
    <rect x="0" y="757.9" width="756.4" height="24.65"/>
            </clipPath>
<clipPath id="terminal-2138422846-line-32">
    <rect x="0" y="782.3" width="756.4" height="24.65"/>
            </clipPath>
<clipPath id="terminal-2138422846-line-33">
    <rect x="0" y="806.7" width="756.4" height="24.65"/>
            </clipPath>
<clipPath id="terminal-2138422846-line-34">
    <rect x="0" y="831.1" width="756.4" height="24.65"/>
            </clipPath>
<clipPath id="terminal-2138422846-line-35">
    <rect x="0" y="855.5" width="756.4" height="24.65"/>
            </clipPath>
<clipPath id="terminal-2138422846-line-36">
    <rect x="0" y="879.9" width="756.4" height="24.65"/>
            </clipPath>
    </defs>

    <rect fill="#292929" stroke="rgba(255,255,255,0.35)" stroke-width="1" x="1" y="1" width="773" height="975.2" rx="8"/>
            <g transform="translate(26,22)">
            <circle cx="0" cy="0" r="7" fill="#ff5f57"/>
            <circle cx="22" cy="0" r="7" fill="#febc2e"/>
            <circle cx="44" cy="0" r="7" fill="#28c840"/>
            </g>
        
    <g transform="translate(9, 41)" clip-path="url(#terminal-2138422846-clip-terminal)">
    <rect fill="#373737" x="0" y="1.5" width="756.4" height="24.65" shape-rendering="crispEdges"/><rect fill="#373737" x="0" y="25.9" width="12.2" height="24.65" shape-rendering="crispEdges"/><rect fill="#373737" x="12.2" y="25.9" width="231.8" height="24.65" shape-rendering="crispEdges"/><rect fill="#373737" x="244" y="25.9" width="256.2" height="24.65" shape-rendering="crispEdges"/><rect fill="#373737" x="500.2" y="25.9" width="244" height="24.65" shape-rendering="crispEdges"/><rect fill="#373737" x="744.2" y="25.9" width="12.2" height="24.65" shape-rendering="crispEdges"/><rect fill="#373737" x="0" y="50.3" width="756.4" height="24.65" shape-rendering="crispEdges"/><rect fill="#373737" x="0" y="74.7" width="109.8" height="24.65" shape-rendering="crispEdges"/><rect fill="#373737" x="109.8" y="74.7" width="524.6" height="24.65" shape-rendering="crispEdges"/><rect fill="#373737" x="634.4" y="74.7" width="122" height="24.65" shape-rendering="crispEdges"/><rect fill="#373737" x="0" y="99.1" width="109.8" height="24.65" shape-rendering="crispEdges"/><rect fill="#373737" x="109.8" y="99.1" width="12.2" height="24.65" shape-rendering="crispEdges"/><rect fill="#373737" x="122" y="99.1" width="12.2" height="24.65" shape-rendering="crispEdges"/><rect fill="#373737" x="134.2" y="99.1" width="109.8" height="24.65" shape-rendering="crispEdges"/><rect fill="#373737" x="244" y="99.1" width="12.2" height="24.65" shape-rendering="crispEdges"/><rect fill="#373737" x="256.2" y="99.1" width="36.6" height="24.65" shape-rendering="crispEdges"/><rect fill="#373737" x="292.8" y="99.1" width="12.2" height="24.65" shape-rendering="crispEdges"/><rect fill="#373737" x="305" y="99.1" width="12.2" height="24.65" shape-rendering="crispEdges"/><rect fill="#373737" x="317.2" y="99.1" width="48.8" height="24.65" shape-rendering="crispEdges"/><rect fill="#373737" x="366" y="99.1" width="12.2" height="24.65" shape-rendering="crispEdges"/><rect fill="#373737" x="378.2" y="99.1" width="73.2" height="24.65" shape-rendering="crispEdges"/><rect fill="#373737" x="451.4" y="99.1" width="12.2" height="24.65" shape-rendering="crispEdges"/><rect fill="#373737" x="463.6" y="99.1" width="12.2" height="24.65" shape-rendering="crispEdges"/><rect fill="#373737" x="475.8" y="99.1" width="48.8" height="24.65" shape-rendering="crispEdges"/><rect fill="#373737" x="524.6" y="99.1" width="12.2" height="24.65" shape-rendering="crispEdges"/><rect fill="#373737" x="536.8" y="99.1" width="12.2" height="24.65" shape-rendering="crispEdges"/><rect fill="#373737" x="549" y="99.1" width="12.2" height="24.65" shape-rendering="crispEdges"/><rect fill="#373737" x="561.2" y="99.1" width="12.2" height="24.65" shape-rendering="crispEdges"/><rect fill="#373737" x="573.4" y="99.1" width="24.4" height="24.65" shape-rendering="crispEdges"/><rect fill="#373737" x="597.8" y="99.1" width="12.2" height="24.65" shape-rendering="crispEdges"/><rect fill="#373737" x="610" y="99.1" width="24.4" height="24.65" shape-rendering="crispEdges"/><rect fill="#373737" x="634.4" y="99.1" width="122" height="24.65" shape-rendering="crispEdges"/><rect fill="#373737" x="0" y="123.5" width="756.4" height="24.65" shape-rendering="crispEdges"/><rect fill="#373737" x="0" y="147.9" width="134.2" height="24.65" shape-rendering="crispEdges"/><rect fill="#373737" x="134.2" y="147.9" width="622.2" height="24.65" shape-rendering="crispEdges"/><rect fill="#373737" x="0" y="172.3" width="12.2" height="24.65" shape-rendering="crispEdges"/><rect fill="#373737" x="12.2" y="172.3" width="12.2" height="24.65" shape-rendering="crispEdges"/><rect fill="#373737" x="24.4" y="172.3" width="24.4" height="24.65" shape-rendering="crispEdges"/><rect fill="#373737" x="48.8" y="172.3" width="317.2" height="24.65" shape-rendering="crispEdges"/><rect fill="#373737" x="366" y="172.3" width="390.4" height="24.65" shape-rendering="crispEdges"/><rect fill="#373737" x="0" y="196.7" width="12.2" height="24.65" shape-rendering="crispEdges"/><rect fill="#373737" x="12.2" y="196.7" width="12.2" height="24.65" shape-rendering="crispEdges"/><rect fill="#373737" x="24.4" y="196.7" width="24.4" height="24.65" shape-rendering="crispEdges"/><rect fill="#373737" x="48.8" y="196.7" width="24.4" height="24.65" shape-rendering="crispEdges"/><rect fill="#373737" x="73.2" y="196.7" width="73.2" height="24.65" shape-rendering="crispEdges"/><rect fill="#373737" x="146.4" y="196.7" width="475.8" height="24.65" shape-rendering="crispEdges"/><rect fill="#373737" x="622.2" y="196.7" width="134.2" height="24.65" shape-rendering="crispEdges"/><rect fill="#373737" x="0" y="221.1" width="12.2" height="24.65" shape-rendering="crispEdges"/><rect fill="#373737" x="12.2" y="221.1" width="12.2" height="24.65" shape-rendering="crispEdges"/><rect fill="#373737" x="24.4" y="221.1" width="24.4" height="24.65" shape-rendering="crispEdges"/><rect fill="#373737" x="48.8" y="221.1" width="24.4" height="24.65" shape-rendering="crispEdges"/><rect fill="#373737" x="73.2" y="221.1" width="73.2" height="24.65" shape-rendering="crispEdges"/><rect fill="#373737" x="146.4" y="221.1" width="500.2" height="24.65" shape-rendering="crispEdges"/><rect fill="#373737" x="646.6" y="221.1" width="109.8" height="24.65" shape-rendering="crispEdges"/><rect fill="#373737" x="0" y="245.5" width="231.8" height="24.65" shape-rendering="crispEdges"/><rect fill="#373737" x="231.8" y="245.5" width="524.6" height="24.65" shape-rendering="crispEdges"/><rect fill="#373737" x="0" y="269.9" width="12.2" height="24.65" shape-rendering="crispEdges"/><rect fill="#373737" x="12.2" y="269.9" width="12.2" height="24.65" shape-rendering="crispEdges"/><rect fill="#373737" x="24.4" y="269.9" width="24.4" height="24.65" shape-rendering="crispEdges"/><rect fill="#373737" x="48.8" y="269.9" width="24.4" height="24.65" shape-rendering="crispEdges"/><rect fill="#373737" x="73.2" y="269.9" width="73.2" height="24.65" shape-rendering="crispEdges"/><rect fill="#373737" x="146.4" y="269.9" width="207.4" height="24.65" shape-rendering="crispEdges"/><rect fill="#373737" x="353.8" y="269.9" width="402.6" height="24.65" shape-rendering="crispEdges"/><rect fill="#373737" x="0" y="294.3" width="12.2" height="24.65" shape-rendering="crispEdges"/><rect fill="#373737" x="12.2" y="294.3" width="12.2" height="24.65" shape-rendering="crispEdges"/><rect fill="#373737" x="24.4" y="294.3" width="24.4" height="24.65" shape-rendering="crispEdges"/><rect fill="#373737" x="48.8" y="294.3" width="24.4" height="24.65" shape-rendering="crispEdges"/><rect fill="#373737" x="73.2" y="294.3" width="109.8" height="24.65" shape-rendering="crispEdges"/><rect fill="#373737" x="183" y="294.3" width="268.4" height="24.65" shape-rendering="crispEdges"/><rect fill="#373737" x="451.4" y="294.3" width="305" height="24.65" shape-rendering="crispEdges"/><rect fill="#373737" x="0" y="318.7" width="12.2" height="24.65" shape-rendering="crispEdges"/><rect fill="#373737" x="12.2" y="318.7" width="12.2" height="24.65" shape-rendering="crispEdges"/><rect fill="#373737" x="24.4" y="318.7" width="24.4" height="24.65" shape-rendering="crispEdges"/><rect fill="#373737" x="48.8" y="318.7" width="24.4" height="24.65" shape-rendering="crispEdges"/><rect fill="#373737" x="73.2" y="318.7" width="73.2" height="24.65" shape-rendering="crispEdges"/><rect fill="#373737" x="146.4" y="318.7" width="378.2" height="24.65" shape-rendering="crispEdges"/><rect fill="#373737" x="524.6" y="318.7" width="231.8" height="24.65" shape-rendering="crispEdges"/><rect fill="#373737" x="0" y="343.1" width="268.4" height="24.65" shape-rendering="crispEdges"/><rect fill="#373737" x="268.4" y="343.1" width="488" height="24.65" shape-rendering="crispEdges"/><rect fill="#373737" x="0" y="367.5" width="12.2" height="24.65" shape-rendering="crispEdges"/><rect fill="#373737" x="12.2" y="367.5" width="12.2" height="24.65" shape-rendering="crispEdges"/><rect fill="#373737" x="24.4" y="367.5" width="24.4" height="24.65" shape-rendering="crispEdges"/><rect fill="#373737" x="48.8" y="367.5" width="24.4" height="24.65" shape-rendering="crispEdges"/><rect fill="#373737" x="73.2" y="367.5" width="146.4" height="24.65" shape-rendering="crispEdges"/><rect fill="#373737" x="219.6" y="367.5" width="427" height="24.65" shape-rendering="crispEdges"/><rect fill="#373737" x="646.6" y="367.5" width="109.8" height="24.65" shape-rendering="crispEdges"/><rect fill="#373737" x="0" y="391.9" width="12.2" height="24.65" shape-rendering="crispEdges"/><rect fill="#373737" x="12.2" y="391.9" width="12.2" height="24.65" shape-rendering="crispEdges"/><rect fill="#373737" x="24.4" y="391.9" width="24.4" height="24.65" shape-rendering="crispEdges"/><rect fill="#373737" x="48.8" y="391.9" width="24.4" height="24.65" shape-rendering="crispEdges"/><rect fill="#373737" x="73.2" y="391.9" width="109.8" height="24.65" shape-rendering="crispEdges"/><rect fill="#373737" x="183" y="391.9" width="451.4" height="24.65" shape-rendering="crispEdges"/><rect fill="#373737" x="634.4" y="391.9" width="122" height="24.65" shape-rendering="crispEdges"/><rect fill="#373737" x="0" y="416.3" width="12.2" height="24.65" shape-rendering="crispEdges"/><rect fill="#373737" x="12.2" y="416.3" width="12.2" height="24.65" shape-rendering="crispEdges"/><rect fill="#373737" x="24.4" y="416.3" width="24.4" height="24.65" shape-rendering="crispEdges"/><rect fill="#373737" x="48.8" y="416.3" width="24.4" height="24.65" shape-rendering="crispEdges"/><rect fill="#373737" x="73.2" y="416.3" width="73.2" height="24.65" shape-rendering="crispEdges"/><rect fill="#373737" x="146.4" y="416.3" width="256.2" height="24.65" shape-rendering="crispEdges"/><rect fill="#373737" x="402.6" y="416.3" width="353.8" height="24.65" shape-rendering="crispEdges"/><rect fill="#373737" x="0" y="440.7" width="12.2" height="24.65" shape-rendering="crispEdges"/><rect fill="#373737" x="12.2" y="440.7" width="12.2" height="24.65" shape-rendering="crispEdges"/><rect fill="#373737" x="24.4" y="440.7" width="24.4" height="24.65" shape-rendering="crispEdges"/><rect fill="#373737" x="48.8" y="440.7" width="24.4" height="24.65" shape-rendering="crispEdges"/><rect fill="#373737" x="73.2" y="440.7" width="73.2" height="24.65" shape-rendering="crispEdges"/><rect fill="#373737" x="146.4" y="440.7" width="366" height="24.65" shape-rendering="crispEdges"/><rect fill="#373737" x="512.4" y="440.7" width="244" height="24.65" shape-rendering="crispEdges"/><rect fill="#373737" x="0" y="465.1" width="134.2" height="24.65" shape-rendering="crispEdges"/><rect fill="#373737" x="134.2" y="465.1" width="622.2" height="24.65" shape-rendering="crispEdges"/><rect fill="#373737" x="0" y="489.5" width="12.2" height="24.65" shape-rendering="crispEdges"/><rect fill="#373737" x="12.2" y="489.5" width="12.2" height="24.65" shape-rendering="crispEdges"/><rect fill="#373737" x="24.4" y="489.5" width="24.4" height="24.65" shape-rendering="crispEdges"/><rect fill="#373737" x="48.8" y="489.5" width="24.4" height="24.65" shape-rendering="crispEdges"/><rect fill="#373737" x="73.2" y="489.5" width="122" height="24.65" shape-rendering="crispEdges"/><rect fill="#373737" x="195.2" y="489.5" width="329.4" height="24.65" shape-rendering="crispEdges"/><rect fill="#373737" x="524.6" y="489.5" width="231.8" height="24.65" shape-rendering="crispEdges"/><rect fill="#373737" x="0" y="513.9" width="134.2" height="24.65" shape-rendering="crispEdges"/><rect fill="#373737" x="134.2" y="513.9" width="622.2" height="24.65" shape-rendering="crispEdges"/><rect fill="#373737" x="0" y="538.3" width="12.2" height="24.65" shape-rendering="crispEdges"/><rect fill="#373737" x="12.2" y="538.3" width="12.2" height="24.65" shape-rendering="crispEdges"/><rect fill="#373737" x="24.4" y="538.3" width="24.4" height="24.65" shape-rendering="crispEdges"/><rect fill="#373737" x="48.8" y="538.3" width="317.2" height="24.65" shape-rendering="crispEdges"/><rect fill="#373737" x="366" y="538.3" width="390.4" height="24.65" shape-rendering="crispEdges"/><rect fill="#373737" x="0" y="562.7" width="12.2" height="24.65" shape-rendering="crispEdges"/><rect fill="#373737" x="12.2" y="562.7" width="12.2" height="24.65" shape-rendering="crispEdges"/><rect fill="#373737" x="24.4" y="562.7" width="24.4" height="24.65" shape-rendering="crispEdges"/><rect fill="#373737" x="48.8" y="562.7" width="24.4" height="24.65" shape-rendering="crispEdges"/><rect fill="#373737" x="73.2" y="562.7" width="73.2" height="24.65" shape-rendering="crispEdges"/><rect fill="#373737" x="146.4" y="562.7" width="341.6" height="24.65" shape-rendering="crispEdges"/><rect fill="#373737" x="488" y="562.7" width="268.4" height="24.65" shape-rendering="crispEdges"/><rect fill="#373737" x="0" y="587.1" width="12.2" height="24.65" shape-rendering="crispEdges"/><rect fill="#373737" x="12.2" y="587.1" width="12.2" height="24.65" shape-rendering="crispEdges"/><rect fill="#373737" x="24.4" y="587.1" width="24.4" height="24.65" shape-rendering="crispEdges"/><rect fill="#373737" x="48.8" y="587.1" width="24.4" height="24.65" shape-rendering="crispEdges"/><rect fill="#373737" x="73.2" y="587.1" width="146.4" height="24.65" shape-rendering="crispEdges"/><rect fill="#373737" x="219.6" y="587.1" width="536.8" height="24.65" shape-rendering="crispEdges"/><rect fill="#373737" x="0" y="611.5" width="134.2" height="24.65" shape-rendering="crispEdges"/><rect fill="#373737" x="134.2" y="611.5" width="622.2" height="24.65" shape-rendering="crispEdges"/><rect fill="#373737" x="0" y="635.9" width="12.2" height="24.65" shape-rendering="crispEdges"/><rect fill="#373737" x="12.2" y="635.9" width="12.2" height="24.65" shape-rendering="crispEdges"/><rect fill="#373737" x="24.4" y="635.9" width="24.4" height="24.65" shape-rendering="crispEdges"/><rect fill="#373737" x="48.8" y="635.9" width="24.4" height="24.65" shape-rendering="crispEdges"/><rect fill="#373737" x="73.2" y="635.9" width="146.4" height="24.65" shape-rendering="crispEdges"/><rect fill="#373737" x="219.6" y="635.9" width="353.8" height="24.65" shape-rendering="crispEdges"/><rect fill="#373737" x="573.4" y="635.9" width="183" height="24.65" shape-rendering="crispEdges"/><rect fill="#373737" x="0" y="660.3" width="12.2" height="24.65" shape-rendering="crispEdges"/><rect fill="#373737" x="12.2" y="660.3" width="12.2" height="24.65" shape-rendering="crispEdges"/><rect fill="#373737" x="24.4" y="660.3" width="24.4" height="24.65" shape-rendering="crispEdges"/><rect fill="#373737" x="48.8" y="660.3" width="24.4" height="24.65" shape-rendering="crispEdges"/><rect fill="#373737" x="73.2" y="660.3" width="73.2" height="24.65" shape-rendering="crispEdges"/><rect fill="#373737" x="146.4" y="660.3" width="317.2" height="24.65" shape-rendering="crispEdges"/><rect fill="#373737" x="463.6" y="660.3" width="292.8" height="24.65" shape-rendering="crispEdges"/><rect fill="#373737" x="0" y="684.7" width="12.2" height="24.65" shape-rendering="crispEdges"/><rect fill="#373737" x="12.2" y="684.7" width="12.2" height="24.65" shape-rendering="crispEdges"/><rect fill="#373737" x="24.4" y="684.7" width="24.4" height="24.65" shape-rendering="crispEdges"/><rect fill="#373737" x="48.8" y="684.7" width="24.4" height="24.65" shape-rendering="crispEdges"/><rect fill="#373737" x="73.2" y="684.7" width="109.8" height="24.65" shape-rendering="crispEdges"/><rect fill="#373737" x="183" y="684.7" width="524.6" height="24.65" shape-rendering="crispEdges"/><rect fill="#373737" x="707.6" y="684.7" width="48.8" height="24.65" shape-rendering="crispEdges"/><rect fill="#373737" x="0" y="709.1" width="134.2" height="24.65" shape-rendering="crispEdges"/><rect fill="#373737" x="134.2" y="709.1" width="622.2" height="24.65" shape-rendering="crispEdges"/><rect fill="#373737" x="0" y="733.5" width="12.2" height="24.65" shape-rendering="crispEdges"/><rect fill="#373737" x="12.2" y="733.5" width="12.2" height="24.65" shape-rendering="crispEdges"/><rect fill="#373737" x="24.4" y="733.5" width="24.4" height="24.65" shape-rendering="crispEdges"/><rect fill="#373737" x="48.8" y="733.5" width="280.6" height="24.65" shape-rendering="crispEdges"/><rect fill="#373737" x="329.4" y="733.5" width="427" height="24.65" shape-rendering="crispEdges"/><rect fill="#373737" x="0" y="757.9" width="12.2" height="24.65" shape-rendering="crispEdges"/><rect fill="#373737" x="12.2" y="757.9" width="12.2" height="24.65" shape-rendering="crispEdges"/><rect fill="#373737" x="24.4" y="757.9" width="24.4" height="24.65" shape-rendering="crispEdges"/><rect fill="#373737" x="48.8" y="757.9" width="24.4" height="24.65" shape-rendering="crispEdges"/><rect fill="#373737" x="73.2" y="757.9" width="146.4" height="24.65" shape-rendering="crispEdges"/><rect fill="#373737" x="219.6" y="757.9" width="329.4" height="24.65" shape-rendering="crispEdges"/><rect fill="#373737" x="549" y="757.9" width="207.4" height="24.65" shape-rendering="crispEdges"/><rect fill="#373737" x="0" y="782.3" width="12.2" height="24.65" shape-rendering="crispEdges"/><rect fill="#373737" x="12.2" y="782.3" width="12.2" height="24.65" shape-rendering="crispEdges"/><rect fill="#373737" x="24.4" y="782.3" width="24.4" height="24.65" shape-rendering="crispEdges"/><rect fill="#373737" x="48.8" y="782.3" width="24.4" height="24.65" shape-rendering="crispEdges"/><rect fill="#373737" x="73.2" y="782.3" width="73.2" height="24.65" shape-rendering="crispEdges"/><rect fill="#373737" x="146.4" y="782.3" width="390.4" height="24.65" shape-rendering="crispEdges"/><rect fill="#373737" x="536.8" y="782.3" width="219.6" height="24.65" shape-rendering="crispEdges"/><rect fill="#373737" x="0" y="806.7" width="756.4" height="24.65" shape-rendering="crispEdges"/><rect fill="#373737" x="0" y="831.1" width="756.4" height="24.65" shape-rendering="crispEdges"/><rect fill="#373737" x="0" y="855.5" width="756.4" height="24.65" shape-rendering="crispEdges"/><rect fill="#373737" x="0" y="879.9" width="12.2" height="24.65" shape-rendering="crispEdges"/><rect fill="#373737" x="12.2" y="879.9" width="12.2" height="24.65" shape-rendering="crispEdges"/><rect fill="#373737" x="24.4" y="879.9" width="85.4" height="24.65" shape-rendering="crispEdges"/><rect fill="#373737" x="109.8" y="879.9" width="12.2" height="24.65" shape-rendering="crispEdges"/><rect fill="#373737" x="122" y="879.9" width="85.4" height="24.65" shape-rendering="crispEdges"/><rect fill="#373737" x="207.4" y="879.9" width="536.8" height="24.65" shape-rendering="crispEdges"/><rect fill="#373737" x="744.2" y="879.9" width="12.2" height="24.65" shape-rendering="crispEdges"/><rect fill="#373737" x="0" y="904.3" width="756.4" height="24.65" shape-rendering="crispEdges"/>
    <g class="terminal-2138422846-matrix">
    <text class="terminal-2138422846-r1" x="756.4" y="20" textLength="12.2" clip-path="url(#terminal-2138422846-line-0)">
</text><text class="terminal-2138422846-r2" x="244" y="44.4" textLength="256.2" clip-path="url(#terminal-2138422846-line-1)">Nov&#160;10&#160;-&#160;16,&#160;2025&#160;#46</text><text class="terminal-2138422846-r1" x="756.4" y="44.4" textLength="12.2" clip-path="url(#terminal-2138422846-line-1)">
</text><text class="terminal-2138422846-r3" x="0" y="68.8" textLength="756.4" clip-path="url(#terminal-2138422846-line-2)">──────────────────────────────────────────────────────────────</text><text class="terminal-2138422846-r1" x="756.4" y="68.8" textLength="12.2" clip-path="url(#terminal-2138422846-line-2)">
</text><text class="terminal-2138422846-r4" x="109.8" y="93.2" textLength="524.6" clip-path="url(#terminal-2138422846-line-3)">│&#160;Mon&#160;│&#160;Tue&#160;│&#160;Wed&#160;│&#160;Thu&#160;│&#160;Fri&#160;│&#160;Sat&#160;│&#160;Sun&#160;│</text><text class="terminal-2138422846-r1" x="756.4" y="93.2" textLength="12.2" clip-path="url(#terminal-2138422846-line-3)">
</text><text class="terminal-2138422846-r4" x="109.8" y="117.6" textLength="12.2" clip-path="url(#terminal-2138422846-line-4)">│</text><text class="terminal-2138422846-r5" x="122" y="117.6" textLength="12.2" clip-path="url(#terminal-2138422846-line-4)">■</text><text class="terminal-2138422846-r4" x="134.2" y="117.6" textLength="109.8" clip-path="url(#terminal-2138422846-line-4)">&#160;&#160;&#160;&#160;│&#160;&#160;&#160;&#160;</text><text class="terminal-2138422846-r6" x="244" y="117.6" textLength="12.2" clip-path="url(#terminal-2138422846-line-4)">█</text><text class="terminal-2138422846-r4" x="256.2" y="117.6" textLength="36.6" clip-path="url(#terminal-2138422846-line-4)">│&#160;&#160;</text><text class="terminal-2138422846-r6" x="292.8" y="117.6" textLength="12.2" clip-path="url(#terminal-2138422846-line-4)">█</text><text class="terminal-2138422846-r7" x="305" y="117.6" textLength="12.2" clip-path="url(#terminal-2138422846-line-4)">▓</text><text class="terminal-2138422846-r4" x="317.2" y="117.6" textLength="48.8" clip-path="url(#terminal-2138422846-line-4)">&#160;│&#160;&#160;</text><text class="terminal-2138422846-r6" x="366" y="117.6" textLength="12.2" clip-path="url(#terminal-2138422846-line-4)">█</text><text class="terminal-2138422846-r4" x="378.2" y="117.6" textLength="73.2" clip-path="url(#terminal-2138422846-line-4)">&#160;&#160;│&#160;&#160;&#160;</text><text class="terminal-2138422846-r6" x="451.4" y="117.6" textLength="12.2" clip-path="url(#terminal-2138422846-line-4)">█</text><text class="terminal-2138422846-r6" x="463.6" y="117.6" textLength="12.2" clip-path="url(#terminal-2138422846-line-4)">█</text><text class="terminal-2138422846-r4" x="475.8" y="117.6" textLength="48.8" clip-path="url(#terminal-2138422846-line-4)">│&#160;&#160;&#160;</text><text class="terminal-2138422846-r6" x="524.6" y="117.6" textLength="12.2" clip-path="url(#terminal-2138422846-line-4)">█</text><text class="terminal-2138422846-r6" x="536.8" y="117.6" textLength="12.2" clip-path="url(#terminal-2138422846-line-4)">█</text><text class="terminal-2138422846-r4" x="549" y="117.6" textLength="12.2" clip-path="url(#terminal-2138422846-line-4)">│</text><text class="terminal-2138422846-r5" x="561.2" y="117.6" textLength="12.2" clip-path="url(#terminal-2138422846-line-4)">■</text><text class="terminal-2138422846-r6" x="597.8" y="117.6" textLength="12.2" clip-path="url(#terminal-2138422846-line-4)">█</text><text class="terminal-2138422846-r4" x="610" y="117.6" textLength="24.4" clip-path="url(#terminal-2138422846-line-4)">&#160;│</text><text class="terminal-2138422846-r1" x="756.4" y="117.6" textLength="12.2" clip-path="url(#terminal-2138422846-line-4)">
</text><text class="terminal-2138422846-r3" x="0" y="142" textLength="756.4" clip-path="url(#terminal-2138422846-line-5)">──────────────────────────────────────────────────────────────</text><text class="terminal-2138422846-r1" x="756.4" y="142" textLength="12.2" clip-path="url(#terminal-2138422846-line-5)">
</text><text class="terminal-2138422846-r8" x="0" y="166.4" textLength="134.2" clip-path="url(#terminal-2138422846-line-6)">Mon,&#160;Nov&#160;10</text><text class="terminal-2138422846-r1" x="756.4" y="166.4" textLength="12.2" clip-path="url(#terminal-2138422846-line-6)">
</text><text class="terminal-2138422846-r9" x="12.2" y="190.8" textLength="12.2" clip-path="url(#terminal-2138422846-line-7)">a</text><text class="terminal-2138422846-r10" x="48.8" y="190.8" textLength="317.2" clip-path="url(#terminal-2138422846-line-7)">*&#160;Quaerat&#160;adipisci&#160;quiquia</text><text class="terminal-2138422846-r1" x="756.4" y="190.8" textLength="12.2" clip-path="url(#terminal-2138422846-line-7)">
</text><text class="terminal-2138422846-r9" x="12.2" y="215.2" textLength="12.2" clip-path="url(#terminal-2138422846-line-8)">b</text><text class="terminal-2138422846-r10" x="48.8" y="215.2" textLength="24.4" clip-path="url(#terminal-2138422846-line-8)">*&#160;</text><text class="terminal-2138422846-r10" x="73.2" y="215.2" textLength="73.2" clip-path="url(#terminal-2138422846-line-8)">15:40&#160;</text><text class="terminal-2138422846-r10" x="146.4" y="215.2" textLength="475.8" clip-path="url(#terminal-2138422846-line-8)">Consectetur&#160;adipisci&#160;quaerat&#160;voluptatem</text><text class="terminal-2138422846-r1" x="756.4" y="215.2" textLength="12.2" clip-path="url(#terminal-2138422846-line-8)">
</text><text class="terminal-2138422846-r9" x="12.2" y="239.6" textLength="12.2" clip-path="url(#terminal-2138422846-line-9)">c</text><text class="terminal-2138422846-r10" x="48.8" y="239.6" textLength="24.4" clip-path="url(#terminal-2138422846-line-9)">*&#160;</text><text class="terminal-2138422846-r10" x="73.2" y="239.6" textLength="73.2" clip-path="url(#terminal-2138422846-line-9)">15:40&#160;</text><text class="terminal-2138422846-r10" x="146.4" y="239.6" textLength="500.2" clip-path="url(#terminal-2138422846-line-9)">Dolor&#160;magnam&#160;aliquam&#160;consectetur&#160;quisquam</text><text class="terminal-2138422846-r1" x="756.4" y="239.6" textLength="12.2" clip-path="url(#terminal-2138422846-line-9)">
</text><text class="terminal-2138422846-r8" x="0" y="264" textLength="231.8" clip-path="url(#terminal-2138422846-line-10)">Tue,&#160;Nov&#160;11&#160;(today)</text><text class="terminal-2138422846-r1" x="756.4" y="264" textLength="12.2" clip-path="url(#terminal-2138422846-line-10)">
</text><text class="terminal-2138422846-r9" x="12.2" y="288.4" textLength="12.2" clip-path="url(#terminal-2138422846-line-11)">d</text><text class="terminal-2138422846-r11" x="48.8" y="288.4" textLength="24.4" clip-path="url(#terminal-2138422846-line-11)">~&#160;</text><text class="terminal-2138422846-r11" x="73.2" y="288.4" textLength="73.2" clip-path="url(#terminal-2138422846-line-11)">17:30&#160;</text><text class="terminal-2138422846-r11" x="146.4" y="288.4" textLength="207.4" clip-path="url(#terminal-2138422846-line-11)">Dolor&#160;velit&#160;dolor</text><text class="terminal-2138422846-r1" x="756.4" y="288.4" textLength="12.2" clip-path="url(#terminal-2138422846-line-11)">
</text><text class="terminal-2138422846-r9" x="12.2" y="312.8" textLength="12.2" clip-path="url(#terminal-2138422846-line-12)">e</text><text class="terminal-2138422846-r10" x="48.8" y="312.8" textLength="24.4" clip-path="url(#terminal-2138422846-line-12)">*&#160;</text><text class="terminal-2138422846-r10" x="73.2" y="312.8" textLength="109.8" clip-path="url(#terminal-2138422846-line-12)">18-19:30&#160;</text><text class="terminal-2138422846-r10" x="183" y="312.8" textLength="268.4" clip-path="url(#terminal-2138422846-line-12)">Velit&#160;quiquia&#160;quisquam</text><text class="terminal-2138422846-r1" x="756.4" y="312.8" textLength="12.2" clip-path="url(#terminal-2138422846-line-12)">
</text><text class="terminal-2138422846-r9" x="12.2" y="337.2" textLength="12.2" clip-path="url(#terminal-2138422846-line-13)">f</text><text class="terminal-2138422846-r11" x="48.8" y="337.2" textLength="24.4" clip-path="url(#terminal-2138422846-line-13)">~&#160;</text><text class="terminal-2138422846-r11" x="73.2" y="337.2" textLength="73.2" clip-path="url(#terminal-2138422846-line-13)">19:00&#160;</text><text class="terminal-2138422846-r11" x="146.4" y="337.2" textLength="378.2" clip-path="url(#terminal-2138422846-line-13)">Labore&#160;quaerat&#160;dolorem&#160;adipisci</text><text class="terminal-2138422846-r1" x="756.4" y="337.2" textLength="12.2" clip-path="url(#terminal-2138422846-line-13)">
</text><text class="terminal-2138422846-r8" x="0" y="361.6" textLength="268.4" clip-path="url(#terminal-2138422846-line-14)">Wed,&#160;Nov&#160;12&#160;(tomorrow)</text><text class="terminal-2138422846-r1" x="756.4" y="361.6" textLength="12.2" clip-path="url(#terminal-2138422846-line-14)">
</text><text class="terminal-2138422846-r9" x="12.2" y="386" textLength="12.2" clip-path="url(#terminal-2138422846-line-15)">g</text><text class="terminal-2138422846-r10" x="48.8" y="386" textLength="24.4" clip-path="url(#terminal-2138422846-line-15)">*&#160;</text><text class="terminal-2138422846-r10" x="73.2" y="386" textLength="146.4" clip-path="url(#terminal-2138422846-line-15)">10:30-12:15&#160;</text><text class="terminal-2138422846-r10" x="219.6" y="386" textLength="427" clip-path="url(#terminal-2138422846-line-15)">Etincidunt&#160;dolore&#160;labore&#160;etincidunt</text><text class="terminal-2138422846-r1" x="756.4" y="386" textLength="12.2" clip-path="url(#terminal-2138422846-line-15)">
</text><text class="terminal-2138422846-r9" x="12.2" y="410.4" textLength="12.2" clip-path="url(#terminal-2138422846-line-16)">h</text><text class="terminal-2138422846-r10" x="48.8" y="410.4" textLength="24.4" clip-path="url(#terminal-2138422846-line-16)">*&#160;</text><text class="terminal-2138422846-r10" x="73.2" y="410.4" textLength="109.8" clip-path="url(#terminal-2138422846-line-16)">12-12:30&#160;</text><text class="terminal-2138422846-r10" x="183" y="410.4" textLength="451.4" clip-path="url(#terminal-2138422846-line-16)">Dolore&#160;dolorem&#160;quisquam&#160;quaerat&#160;dolor</text><text class="terminal-2138422846-r1" x="756.4" y="410.4" textLength="12.2" clip-path="url(#terminal-2138422846-line-16)">
</text><text class="terminal-2138422846-r9" x="12.2" y="434.8" textLength="12.2" clip-path="url(#terminal-2138422846-line-17)">i</text><text class="terminal-2138422846-r11" x="48.8" y="434.8" textLength="24.4" clip-path="url(#terminal-2138422846-line-17)">~&#160;</text><text class="terminal-2138422846-r11" x="73.2" y="434.8" textLength="73.2" clip-path="url(#terminal-2138422846-line-17)">12:30&#160;</text><text class="terminal-2138422846-r11" x="146.4" y="434.8" textLength="256.2" clip-path="url(#terminal-2138422846-line-17)">Eius&#160;porro&#160;etincidunt</text><text class="terminal-2138422846-r1" x="756.4" y="434.8" textLength="12.2" clip-path="url(#terminal-2138422846-line-17)">
</text><text class="terminal-2138422846-r9" x="12.2" y="459.2" textLength="12.2" clip-path="url(#terminal-2138422846-line-18)">j</text><text class="terminal-2138422846-r12" x="48.8" y="459.2" textLength="24.4" clip-path="url(#terminal-2138422846-line-18)">%&#160;</text><text class="terminal-2138422846-r12" x="73.2" y="459.2" textLength="73.2" clip-path="url(#terminal-2138422846-line-18)">16:30&#160;</text><text class="terminal-2138422846-r12" x="146.4" y="459.2" textLength="366" clip-path="url(#terminal-2138422846-line-18)">Numquam&#160;ut&#160;tempora&#160;dolorem&#160;sed</text><text class="terminal-2138422846-r1" x="756.4" y="459.2" textLength="12.2" clip-path="url(#terminal-2138422846-line-18)">
</text><text class="terminal-2138422846-r8" x="0" y="483.6" textLength="134.2" clip-path="url(#terminal-2138422846-line-19)">Thu,&#160;Nov&#160;13</text><text class="terminal-2138422846-r1" x="756.4" y="483.6" textLength="12.2" clip-path="url(#terminal-2138422846-line-19)">
</text><text class="terminal-2138422846-r9" x="12.2" y="508" textLength="12.2" clip-path="url(#terminal-2138422846-line-20)">k</text><text class="terminal-2138422846-r10" x="48.8" y="508" textLength="24.4" clip-path="url(#terminal-2138422846-line-20)">*&#160;</text><text class="terminal-2138422846-r10" x="73.2" y="508" textLength="122" clip-path="url(#terminal-2138422846-line-20)">7:30-9:15&#160;</text><text class="terminal-2138422846-r10" x="195.2" y="508" textLength="329.4" clip-path="url(#terminal-2138422846-line-20)">Ipsum&#160;dolore&#160;ipsum&#160;quisquam</text><text class="terminal-2138422846-r1" x="756.4" y="508" textLength="12.2" clip-path="url(#terminal-2138422846-line-20)">
</text><text class="terminal-2138422846-r8" x="0" y="532.4" textLength="134.2" clip-path="url(#terminal-2138422846-line-21)">Fri,&#160;Nov&#160;14</text><text class="terminal-2138422846-r1" x="756.4" y="532.4" textLength="12.2" clip-path="url(#terminal-2138422846-line-21)">
</text><text class="terminal-2138422846-r9" x="12.2" y="556.8" textLength="12.2" clip-path="url(#terminal-2138422846-line-22)">l</text><text class="terminal-2138422846-r12" x="48.8" y="556.8" textLength="317.2" clip-path="url(#terminal-2138422846-line-22)">%&#160;Amet&#160;numquam&#160;amet&#160;dolore</text><text class="terminal-2138422846-r1" x="756.4" y="556.8" textLength="12.2" clip-path="url(#terminal-2138422846-line-22)">
</text><text class="terminal-2138422846-r9" x="12.2" y="581.2" textLength="12.2" clip-path="url(#terminal-2138422846-line-23)">m</text><text class="terminal-2138422846-r10" x="48.8" y="581.2" textLength="24.4" clip-path="url(#terminal-2138422846-line-23)">*&#160;</text><text class="terminal-2138422846-r10" x="73.2" y="581.2" textLength="73.2" clip-path="url(#terminal-2138422846-line-23)">16:00&#160;</text><text class="terminal-2138422846-r10" x="146.4" y="581.2" textLength="341.6" clip-path="url(#terminal-2138422846-line-23)">Dolor&#160;sed&#160;est&#160;numquam&#160;magnam</text><text class="terminal-2138422846-r1" x="756.4" y="581.2" textLength="12.2" clip-path="url(#terminal-2138422846-line-23)">
</text><text class="terminal-2138422846-r9" x="12.2" y="605.6" textLength="12.2" clip-path="url(#terminal-2138422846-line-24)">n</text><text class="terminal-2138422846-r10" x="48.8" y="605.6" textLength="24.4" clip-path="url(#terminal-2138422846-line-24)">*&#160;</text><text class="terminal-2138422846-r10" x="73.2" y="605.6" textLength="146.4" clip-path="url(#terminal-2138422846-line-24)">16:30-18:15&#160;</text><text class="terminal-2138422846-r10" x="219.6" y="605.6" textLength="536.8" clip-path="url(#terminal-2138422846-line-24)">Quisquam&#160;adipisci&#160;quiquia&#160;consectetur&#160;quisqu</text><text class="terminal-2138422846-r1" x="756.4" y="605.6" textLength="12.2" clip-path="url(#terminal-2138422846-line-24)">
</text><text class="terminal-2138422846-r8" x="0" y="630" textLength="134.2" clip-path="url(#terminal-2138422846-line-25)">Sat,&#160;Nov&#160;15</text><text class="terminal-2138422846-r1" x="756.4" y="630" textLength="12.2" clip-path="url(#terminal-2138422846-line-25)">
</text><text class="terminal-2138422846-r9" x="12.2" y="654.4" textLength="12.2" clip-path="url(#terminal-2138422846-line-26)">o</text><text class="terminal-2138422846-r10" x="48.8" y="654.4" textLength="24.4" clip-path="url(#terminal-2138422846-line-26)">*&#160;</text><text class="terminal-2138422846-r10" x="73.2" y="654.4" textLength="146.4" clip-path="url(#terminal-2138422846-line-26)">13:30-14:00&#160;</text><text class="terminal-2138422846-r10" x="219.6" y="654.4" textLength="353.8" clip-path="url(#terminal-2138422846-line-26)">Ut&#160;neque&#160;velit&#160;dolore&#160;numquam</text><text class="terminal-2138422846-r1" x="756.4" y="654.4" textLength="12.2" clip-path="url(#terminal-2138422846-line-26)">
</text><text class="terminal-2138422846-r9" x="12.2" y="678.8" textLength="12.2" clip-path="url(#terminal-2138422846-line-27)">p</text><text class="terminal-2138422846-r10" x="48.8" y="678.8" textLength="24.4" clip-path="url(#terminal-2138422846-line-27)">*&#160;</text><text class="terminal-2138422846-r10" x="73.2" y="678.8" textLength="73.2" clip-path="url(#terminal-2138422846-line-27)">16:30&#160;</text><text class="terminal-2138422846-r10" x="146.4" y="678.8" textLength="317.2" clip-path="url(#terminal-2138422846-line-27)">Quaerat&#160;magnam&#160;numquam&#160;sit</text><text class="terminal-2138422846-r1" x="756.4" y="678.8" textLength="12.2" clip-path="url(#terminal-2138422846-line-27)">
</text><text class="terminal-2138422846-r9" x="12.2" y="703.2" textLength="12.2" clip-path="url(#terminal-2138422846-line-28)">q</text><text class="terminal-2138422846-r10" x="48.8" y="703.2" textLength="24.4" clip-path="url(#terminal-2138422846-line-28)">*&#160;</text><text class="terminal-2138422846-r10" x="73.2" y="703.2" textLength="109.8" clip-path="url(#terminal-2138422846-line-28)">18-19:30&#160;</text><text class="terminal-2138422846-r10" x="183" y="703.2" textLength="524.6" clip-path="url(#terminal-2138422846-line-28)">Dolore&#160;magnam&#160;voluptatem&#160;voluptatem&#160;aliquam</text><text class="terminal-2138422846-r1" x="756.4" y="703.2" textLength="12.2" clip-path="url(#terminal-2138422846-line-28)">
</text><text class="terminal-2138422846-r8" x="0" y="727.6" textLength="134.2" clip-path="url(#terminal-2138422846-line-29)">Sun,&#160;Nov&#160;16</text><text class="terminal-2138422846-r1" x="756.4" y="727.6" textLength="12.2" clip-path="url(#terminal-2138422846-line-29)">
</text><text class="terminal-2138422846-r9" x="12.2" y="752" textLength="12.2" clip-path="url(#terminal-2138422846-line-30)">r</text><text class="terminal-2138422846-r10" x="48.8" y="752" textLength="280.6" clip-path="url(#terminal-2138422846-line-30)">*&#160;Porro&#160;consectetur&#160;sit</text><text class="terminal-2138422846-r1" x="756.4" y="752" textLength="12.2" clip-path="url(#terminal-2138422846-line-30)">
</text><text class="terminal-2138422846-r9" x="12.2" y="776.4" textLength="12.2" clip-path="url(#terminal-2138422846-line-31)">s</text><text class="terminal-2138422846-r10" x="48.8" y="776.4" textLength="24.4" clip-path="url(#terminal-2138422846-line-31)">*&#160;</text><text class="terminal-2138422846-r10" x="73.2" y="776.4" textLength="146.4" clip-path="url(#terminal-2138422846-line-31)">15:30-16:15&#160;</text><text class="terminal-2138422846-r10" x="219.6" y="776.4" textLength="329.4" clip-path="url(#terminal-2138422846-line-31)">Etincidunt&#160;consectetur&#160;amet</text><text class="terminal-2138422846-r1" x="756.4" y="776.4" textLength="12.2" clip-path="url(#terminal-2138422846-line-31)">
</text><text class="terminal-2138422846-r9" x="12.2" y="800.8" textLength="12.2" clip-path="url(#terminal-2138422846-line-32)">t</text><text class="terminal-2138422846-r11" x="48.8" y="800.8" textLength="24.4" clip-path="url(#terminal-2138422846-line-32)">~&#160;</text><text class="terminal-2138422846-r11" x="73.2" y="800.8" textLength="73.2" clip-path="url(#terminal-2138422846-line-32)">19:00&#160;</text><text class="terminal-2138422846-r11" x="146.4" y="800.8" textLength="390.4" clip-path="url(#terminal-2138422846-line-32)">Ipsum&#160;non&#160;ipsum&#160;porro&#160;etincidunt</text><text class="terminal-2138422846-r1" x="756.4" y="800.8" textLength="12.2" clip-path="url(#terminal-2138422846-line-32)">
</text><text class="terminal-2138422846-r1" x="756.4" y="825.2" textLength="12.2" clip-path="url(#terminal-2138422846-line-33)">
</text><text class="terminal-2138422846-r1" x="756.4" y="849.6" textLength="12.2" clip-path="url(#terminal-2138422846-line-34)">
</text><text class="terminal-2138422846-r3" x="0" y="874" textLength="756.4" clip-path="url(#terminal-2138422846-line-35)">──────────────────────────────────────────────────────────────</text><text class="terminal-2138422846-r1" x="756.4" y="874" textLength="12.2" clip-path="url(#terminal-2138422846-line-35)">
</text><text class="terminal-2138422846-r5" x="12.2" y="898.4" textLength="12.2" clip-path="url(#terminal-2138422846-line-36)">?</text><text class="terminal-2138422846-r2" x="24.4" y="898.4" textLength="85.4" clip-path="url(#terminal-2138422846-line-36)">&#160;Help&#160;&#160;</text><text class="terminal-2138422846-r5" x="109.8" y="898.4" textLength="12.2" clip-path="url(#terminal-2138422846-line-36)">/</text><text class="terminal-2138422846-r2" x="122" y="898.4" textLength="85.4" clip-path="url(#terminal-2138422846-line-36)">&#160;Search</text><text class="terminal-2138422846-r1" x="756.4" y="898.4" textLength="12.2" clip-path="url(#terminal-2138422846-line-36)">
</text>
    </g>
    </g>
</svg>
