<svg class="rich-terminal" viewBox="0 0 702 977.1999999999999" xmlns="http://www.w3.org/2000/svg">
    <!-- Generated with Rich https://www.textualize.io -->
    <style>

    @font-face {
        font-family: "Fira Code";
        src: local("FiraCode-Regular"),
                url("https://cdnjs.cloudflare.com/ajax/libs/firacode/6.2.0/woff2/FiraCode-Regular.woff2") format("woff2"),
                url("https://cdnjs.cloudflare.com/ajax/libs/firacode/6.2.0/woff/FiraCode-Regular.woff") format("woff");
        font-style: normal;
        font-weight: 400;
    }
    @font-face {
        font-family: "Fira Code";
        src: local("FiraCode-Bold"),
                url("https://cdnjs.cloudflare.com/ajax/libs/firacode/6.2.0/woff2/FiraCode-Bold.woff2") format("woff2"),
                url("https://cdnjs.cloudflare.com/ajax/libs/firacode/6.2.0/woff/FiraCode-Bold.woff") format("woff");
        font-style: bold;
        font-weight: 700;
    }

    .terminal-451296264-matrix {
        font-family: Fira Code, monospace;
        font-size: 20px;
        line-height: 24.4px;
        font-variant-east-asian: full-width;
    }

    .terminal-451296264-title {
        font-size: 18px;
        font-weight: bold;
        font-family: arial;
    }

    .terminal-451296264-r1 { fill: #c5c8c6 }
.terminal-451296264-r2 { fill: #ffffff;font-weight: bold }
.terminal-451296264-r3 { fill: #7f7f7f }
.terminal-451296264-r4 { fill: #e0e0e0;font-weight: bold }
.terminal-451296264-r5 { fill: #008000;font-weight: bold }
.terminal-451296264-r6 { fill: #ffff00;font-weight: bold }
.terminal-451296264-r7 { fill: #fffacd;font-weight: bold }
.terminal-451296264-r8 { fill: #8c8e8c }
.terminal-451296264-r9 { fill: #87cefa }
.terminal-451296264-r10 { fill: #708090 }
.terminal-451296264-r11 { fill: #e9967a }
.terminal-451296264-r12 { fill: #32cd32 }
.terminal-451296264-r13 { fill: #a9a9a9 }
.terminal-451296264-r14 { fill: #ff8c00;font-weight: bold }
    </style>

    <defs>
    <clipPath id="terminal-451296264-clip-terminal">
      <rect x="0" y="0" width="682.1999999999999" height="926.1999999999999" />
    </clipPath>
    <clipPath id="terminal-451296264-line-0">
    <rect x="0" y="1.5" width="683.2" height="24.65"/>
            </clipPath>
<clipPath id="terminal-451296264-line-1">
    <rect x="0" y="25.9" width="683.2" height="24.65"/>
            </clipPath>
<clipPath id="terminal-451296264-line-2">
    <rect x="0" y="50.3" width="683.2" height="24.65"/>
            </clipPath>
<clipPath id="terminal-451296264-line-3">
    <rect x="0" y="74.7" width="683.2" height="24.65"/>
            </clipPath>
<clipPath id="terminal-451296264-line-4">
    <rect x="0" y="99.1" width="683.2" height="24.65"/>
            </clipPath>
<clipPath id="terminal-451296264-line-5">
    <rect x="0" y="123.5" width="683.2" height="24.65"/>
            </clipPath>
<clipPath id="terminal-451296264-line-6">
    <rect x="0" y="147.9" width="683.2" height="24.65"/>
            </clipPath>
<clipPath id="terminal-451296264-line-7">
    <rect x="0" y="172.3" width="683.2" height="24.65"/>
            </clipPath>
<clipPath id="terminal-451296264-line-8">
    <rect x="0" y="196.7" width="683.2" height="24.65"/>
            </clipPath>
<clipPath id="terminal-451296264-line-9">
    <rect x="0" y="221.1" width="683.2" height="24.65"/>
            </clipPath>
<clipPath id="terminal-451296264-line-10">
    <rect x="0" y="245.5" width="683.2" height="24.65"/>
            </clipPath>
<clipPath id="terminal-451296264-line-11">
    <rect x="0" y="269.9" width="683.2" height="24.65"/>
            </clipPath>
<clipPath id="terminal-451296264-line-12">
    <rect x="0" y="294.3" width="683.2" height="24.65"/>
            </clipPath>
<clipPath id="terminal-451296264-line-13">
    <rect x="0" y="318.7" width="683.2" height="24.65"/>
            </clipPath>
<clipPath id="terminal-451296264-line-14">
    <rect x="0" y="343.1" width="683.2" height="24.65"/>
            </clipPath>
<clipPath id="terminal-451296264-line-15">
    <rect x="0" y="367.5" width="683.2" height="24.65"/>
            </clipPath>
<clipPath id="terminal-451296264-line-16">
    <rect x="0" y="391.9" width="683.2" height="24.65"/>
            </clipPath>
<clipPath id="terminal-451296264-line-17">
    <rect x="0" y="416.3" width="683.2" height="24.65"/>
            </clipPath>
<clipPath id="terminal-451296264-line-18">
    <rect x="0" y="440.7" width="683.2" height="24.65"/>
            </clipPath>
<clipPath id="terminal-451296264-line-19">
    <rect x="0" y="465.1" width="683.2" height="24.65"/>
            </clipPath>
<clipPath id="terminal-451296264-line-20">
    <rect x="0" y="489.5" width="683.2" height="24.65"/>
            </clipPath>
<clipPath id="terminal-451296264-line-21">
    <rect x="0" y="513.9" width="683.2" height="24.65"/>
            </clipPath>
<clipPath id="terminal-451296264-line-22">
    <rect x="0" y="538.3" width="683.2" height="24.65"/>
            </clipPath>
<clipPath id="terminal-451296264-line-23">
    <rect x="0" y="562.7" width="683.2" height="24.65"/>
            </clipPath>
<clipPath id="terminal-451296264-line-24">
    <rect x="0" y="587.1" width="683.2" height="24.65"/>
            </clipPath>
<clipPath id="terminal-451296264-line-25">
    <rect x="0" y="611.5" width="683.2" height="24.65"/>
            </clipPath>
<clipPath id="terminal-451296264-line-26">
    <rect x="0" y="635.9" width="683.2" height="24.65"/>
            </clipPath>
<clipPath id="terminal-451296264-line-27">
    <rect x="0" y="660.3" width="683.2" height="24.65"/>
            </clipPath>
<clipPath id="terminal-451296264-line-28">
    <rect x="0" y="684.7" width="683.2" height="24.65"/>
            </clipPath>
<clipPath id="terminal-451296264-line-29">
    <rect x="0" y="709.1" width="683.2" height="24.65"/>
            </clipPath>
<clipPath id="terminal-451296264-line-30">
    <rect x="0" y="733.5" width="683.2" height="24.65"/>
            </clipPath>
<clipPath id="terminal-451296264-line-31">
    <rect x="0" y="757.9" width="683.2" height="24.65"/>
            </clipPath>
<clipPath id="terminal-451296264-line-32">
    <rect x="0" y="782.3" width="683.2" height="24.65"/>
            </clipPath>
<clipPath id="terminal-451296264-line-33">
    <rect x="0" y="806.7" width="683.2" height="24.65"/>
            </clipPath>
<clipPath id="terminal-451296264-line-34">
    <rect x="0" y="831.1" width="683.2" height="24.65"/>
            </clipPath>
<clipPath id="terminal-451296264-line-35">
    <rect x="0" y="855.5" width="683.2" height="24.65"/>
            </clipPath>
<clipPath id="terminal-451296264-line-36">
    <rect x="0" y="879.9" width="683.2" height="24.65"/>
            </clipPath>
    </defs>

    <rect fill="#292929" stroke="rgba(255,255,255,0.35)" stroke-width="1" x="1" y="1" width="700" height="975.2" rx="8"/>
            <g transform="translate(26,22)">
            <circle cx="0" cy="0" r="7" fill="#ff5f57"/>
            <circle cx="22" cy="0" r="7" fill="#febc2e"/>
            <circle cx="44" cy="0" r="7" fill="#28c840"/>
            </g>
        
    <g transform="translate(9, 41)" clip-path="url(#terminal-451296264-clip-terminal)">
    <rect fill="#373737" x="0" y="1.5" width="683.2" height="24.65" shape-rendering="crispEdges"/><rect fill="#373737" x="0" y="25.9" width="12.2" height="24.65" shape-rendering="crispEdges"/><rect fill="#373737" x="12.2" y="25.9" width="158.6" height="24.65" shape-rendering="crispEdges"/><rect fill="#373737" x="170.8" y="25.9" width="329.4" height="24.65" shape-rendering="crispEdges"/><rect fill="#373737" x="500.2" y="25.9" width="170.8" height="24.65" shape-rendering="crispEdges"/><rect fill="#373737" x="671" y="25.9" width="12.2" height="24.65" shape-rendering="crispEdges"/><rect fill="#373737" x="0" y="50.3" width="683.2" height="24.65" shape-rendering="crispEdges"/><rect fill="#373737" x="0" y="74.7" width="73.2" height="24.65" shape-rendering="crispEdges"/><rect fill="#373737" x="73.2" y="74.7" width="524.6" height="24.65" shape-rendering="crispEdges"/><rect fill="#373737" x="597.8" y="74.7" width="85.4" height="24.65" shape-rendering="crispEdges"/><rect fill="#373737" x="0" y="99.1" width="73.2" height="24.65" shape-rendering="crispEdges"/><rect fill="#373737" x="73.2" y="99.1" width="353.8" height="24.65" shape-rendering="crispEdges"/><rect fill="#373737" x="427" y="99.1" width="12.2" height="24.65" shape-rendering="crispEdges"/><rect fill="#373737" x="439.2" y="99.1" width="12.2" height="24.65" shape-rendering="crispEdges"/><rect fill="#373737" x="451.4" y="99.1" width="12.2" height="24.65" shape-rendering="crispEdges"/><rect fill="#373737" x="463.6" y="99.1" width="36.6" height="24.65" shape-rendering="crispEdges"/><rect fill="#373737" x="500.2" y="99.1" width="12.2" height="24.65" shape-rendering="crispEdges"/><rect fill="#373737" x="512.4" y="99.1" width="12.2" height="24.65" shape-rendering="crispEdges"/><rect fill="#373737" x="524.6" y="99.1" width="12.2" height="24.65" shape-rendering="crispEdges"/><rect fill="#373737" x="536.8" y="99.1" width="12.2" height="24.65" shape-rendering="crispEdges"/><rect fill="#373737" x="549" y="99.1" width="12.2" height="24.65" shape-rendering="crispEdges"/><rect fill="#373737" x="561.2" y="99.1" width="12.2" height="24.65" shape-rendering="crispEdges"/><rect fill="#373737" x="573.4" y="99.1" width="12.2" height="24.65" shape-rendering="crispEdges"/><rect fill="#373737" x="585.6" y="99.1" width="12.2" height="24.65" shape-rendering="crispEdges"/><rect fill="#373737" x="597.8" y="99.1" width="85.4" height="24.65" shape-rendering="crispEdges"/><rect fill="#373737" x="0" y="123.5" width="683.2" height="24.65" shape-rendering="crispEdges"/><rect fill="#373737" x="0" y="147.9" width="134.2" height="24.65" shape-rendering="crispEdges"/><rect fill="#373737" x="134.2" y="147.9" width="549" height="24.65" shape-rendering="crispEdges"/><rect fill="#373737" x="0" y="172.3" width="12.2" height="24.65" shape-rendering="crispEdges"/><rect fill="#373737" x="12.2" y="172.3" width="12.2" height="24.65" shape-rendering="crispEdges"/><rect fill="#373737" x="24.4" y="172.3" width="24.4" height="24.65" shape-rendering="crispEdges"/><rect fill="#373737" x="48.8" y="172.3" width="24.4" height="24.65" shape-rendering="crispEdges"/><rect fill="#373737" x="73.2" y="172.3" width="109.8" height="24.65" shape-rendering="crispEdges"/><rect fill="#373737" x="183" y="172.3" width="353.8" height="24.65" shape-rendering="crispEdges"/><rect fill="#373737" x="536.8" y="172.3" width="146.4" height="24.65" shape-rendering="crispEdges"/><rect fill="#373737" x="0" y="196.7" width="12.2" height="24.65" shape-rendering="crispEdges"/><rect fill="#373737" x="12.2" y="196.7" width="12.2" height="24.65" shape-rendering="crispEdges"/><rect fill="#373737" x="24.4" y="196.7" width="24.4" height="24.65" shape-rendering="crispEdges"/><rect fill="#373737" x="48.8" y="196.7" width="24.4" height="24.65" shape-rendering="crispEdges"/><rect fill="#373737" x="73.2" y="196.7" width="109.8" height="24.65" shape-rendering="crispEdges"/><rect fill="#373737" x="183" y="196.7" width="341.6" height="24.65" shape-rendering="crispEdges"/><rect fill="#373737" x="524.6" y="196.7" width="158.6" height="24.65" shape-rendering="crispEdges"/><rect fill="#373737" x="0" y="221.1" width="12.2" height="24.65" shape-rendering="crispEdges"/><rect fill="#373737" x="12.2" y="221.1" width="12.2" height="24.65" shape-rendering="crispEdges"/><rect fill="#373737" x="24.4" y="221.1" width="24.4" height="24.65" shape-rendering="crispEdges"/><rect fill="#373737" x="48.8" y="221.1" width="24.4" height="24.65" shape-rendering="crispEdges"/><rect fill="#373737" x="73.2" y="221.1" width="109.8" height="24.65" shape-rendering="crispEdges"/><rect fill="#373737" x="183" y="221.1" width="366" height="24.65" shape-rendering="crispEdges"/><rect fill="#373737" x="549" y="221.1" width="134.2" height="24.65" shape-rendering="crispEdges"/><rect fill="#373737" x="0" y="245.5" width="12.2" height="24.65" shape-rendering="crispEdges"/><rect fill="#373737" x="12.2" y="245.5" width="12.2" height="24.65" shape-rendering="crispEdges"/><rect fill="#373737" x="24.4" y="245.5" width="24.4" height="24.65" shape-rendering="crispEdges"/><rect fill="#373737" x="48.8" y="245.5" width="24.4" height="24.65" shape-rendering="crispEdges"/><rect fill="#373737" x="73.2" y="245.5" width="109.8" height="24.65" shape-rendering="crispEdges"/><rect fill="#373737" x="183" y="245.5" width="329.4" height="24.65" shape-rendering="crispEdges"/><rect fill="#373737" x="512.4" y="245.5" width="170.8" height="24.65" shape-rendering="crispEdges"/><rect fill="#373737" x="0" y="269.9" width="134.2" height="24.65" shape-rendering="crispEdges"/><rect fill="#373737" x="134.2" y="269.9" width="549" height="24.65" shape-rendering="crispEdges"/><rect fill="#373737" x="0" y="294.3" width="12.2" height="24.65" shape-rendering="crispEdges"/><rect fill="#373737" x="12.2" y="294.3" width="12.2" height="24.65" shape-rendering="crispEdges"/><rect fill="#373737" x="24.4" y="294.3" width="24.4" height="24.65" shape-rendering="crispEdges"/><rect fill="#373737" x="48.8" y="294.3" width="231.8" height="24.65" shape-rendering="crispEdges"/><rect fill="#373737" x="280.6" y="294.3" width="402.6" height="24.65" shape-rendering="crispEdges"/><rect fill="#373737" x="0" y="318.7" width="12.2" height="24.65" shape-rendering="crispEdges"/><rect fill="#373737" x="12.2" y="318.7" width="12.2" height="24.65" shape-rendering="crispEdges"/><rect fill="#373737" x="24.4" y="318.7" width="24.4" height="24.65" shape-rendering="crispEdges"/><rect fill="#373737" x="48.8" y="318.7" width="341.6" height="24.65" shape-rendering="crispEdges"/><rect fill="#373737" x="390.4" y="318.7" width="292.8" height="24.65" shape-rendering="crispEdges"/><rect fill="#373737" x="0" y="343.1" width="12.2" height="24.65" shape-rendering="crispEdges"/><rect fill="#373737" x="12.2" y="343.1" width="12.2" height="24.65" shape-rendering="crispEdges"/><rect fill="#373737" x="24.4" y="343.1" width="24.4" height="24.65" shape-rendering="crispEdges"/><rect fill="#373737" x="48.8" y="343.1" width="366" height="24.65" shape-rendering="crispEdges"/><rect fill="#373737" x="414.8" y="343.1" width="268.4" height="24.65" shape-rendering="crispEdges"/><rect fill="#373737" x="0" y="367.5" width="12.2" height="24.65" shape-rendering="crispEdges"/><rect fill="#373737" x="12.2" y="367.5" width="12.2" height="24.65" shape-rendering="crispEdges"/><rect fill="#373737" x="24.4" y="367.5" width="24.4" height="24.65" shape-rendering="crispEdges"/><rect fill="#373737" x="48.8" y="367.5" width="24.4" height="24.65" shape-rendering="crispEdges"/><rect fill="#373737" x="73.2" y="367.5" width="109.8" height="24.65" shape-rendering="crispEdges"/><rect fill="#373737" x="183" y="367.5" width="341.6" height="24.65" shape-rendering="crispEdges"/><rect fill="#373737" x="524.6" y="367.5" width="158.6" height="24.65" shape-rendering="crispEdges"/><rect fill="#373737" x="0" y="391.9" width="231.8" height="24.65" shape-rendering="crispEdges"/><rect fill="#373737" x="231.8" y="391.9" width="451.4" height="24.65" shape-rendering="crispEdges"/><rect fill="#373737" x="0" y="416.3" width="12.2" height="24.65" shape-rendering="crispEdges"/><rect fill="#373737" x="12.2" y="416.3" width="12.2" height="24.65" shape-rendering="crispEdges"/><rect fill="#373737" x="24.4" y="416.3" width="24.4" height="24.65" shape-rendering="crispEdges"/><rect fill="#373737" x="48.8" y="416.3" width="183" height="24.65" shape-rendering="crispEdges"/><rect fill="#373737" x="231.8" y="416.3" width="451.4" height="24.65" shape-rendering="crispEdges"/><rect fill="#373737" x="0" y="440.7" width="12.2" height="24.65" shape-rendering="crispEdges"/><rect fill="#373737" x="12.2" y="440.7" width="12.2" height="24.65" shape-rendering="crispEdges"/><rect fill="#373737" x="24.4" y="440.7" width="24.4" height="24.65" shape-rendering="crispEdges"/><rect fill="#373737" x="48.8" y="440.7" width="378.2" height="24.65" shape-rendering="crispEdges"/><rect fill="#373737" x="427" y="440.7" width="256.2" height="24.65" shape-rendering="crispEdges"/><rect fill="#373737" x="0" y="465.1" width="12.2" height="24.65" shape-rendering="crispEdges"/><rect fill="#373737" x="12.2" y="465.1" width="12.2" height="24.65" shape-rendering="crispEdges"/><rect fill="#373737" x="24.4" y="465.1" width="24.4" height="24.65" shape-rendering="crispEdges"/><rect fill="#373737" x="48.8" y="465.1" width="329.4" height="24.65" shape-rendering="crispEdges"/><rect fill="#373737" x="378.2" y="465.1" width="305" height="24.65" shape-rendering="crispEdges"/><rect fill="#373737" x="0" y="489.5" width="12.2" height="24.65" shape-rendering="crispEdges"/><rect fill="#373737" x="12.2" y="489.5" width="12.2" height="24.65" shape-rendering="crispEdges"/><rect fill="#373737" x="24.4" y="489.5" width="24.4" height="24.65" shape-rendering="crispEdges"/><rect fill="#373737" x="48.8" y="489.5" width="24.4" height="24.65" shape-rendering="crispEdges"/><rect fill="#373737" x="73.2" y="489.5" width="85.4" height="24.65" shape-rendering="crispEdges"/><rect fill="#373737" x="158.6" y="489.5" width="317.2" height="24.65" shape-rendering="crispEdges"/><rect fill="#373737" x="475.8" y="489.5" width="207.4" height="24.65" shape-rendering="crispEdges"/><rect fill="#373737" x="0" y="513.9" width="12.2" height="24.65" shape-rendering="crispEdges"/><rect fill="#373737" x="12.2" y="513.9" width="12.2" height="24.65" shape-rendering="crispEdges"/><rect fill="#373737" x="24.4" y="513.9" width="24.4" height="24.65" shape-rendering="crispEdges"/><rect fill="#373737" x="48.8" y="513.9" width="24.4" height="24.65" shape-rendering="crispEdges"/><rect fill="#373737" x="73.2" y="513.9" width="61" height="24.65" shape-rendering="crispEdges"/><rect fill="#373737" x="134.2" y="513.9" width="183" height="24.65" shape-rendering="crispEdges"/><rect fill="#373737" x="317.2" y="513.9" width="366" height="24.65" shape-rendering="crispEdges"/><rect fill="#373737" x="0" y="538.3" width="12.2" height="24.65" shape-rendering="crispEdges"/><rect fill="#373737" x="12.2" y="538.3" width="12.2" height="24.65" shape-rendering="crispEdges"/><rect fill="#373737" x="24.4" y="538.3" width="24.4" height="24.65" shape-rendering="crispEdges"/><rect fill="#373737" x="48.8" y="538.3" width="24.4" height="24.65" shape-rendering="crispEdges"/><rect fill="#373737" x="73.2" y="538.3" width="73.2" height="24.65" shape-rendering="crispEdges"/><rect fill="#373737" x="146.4" y="538.3" width="183" height="24.65" shape-rendering="crispEdges"/><rect fill="#373737" x="329.4" y="538.3" width="353.8" height="24.65" shape-rendering="crispEdges"/><rect fill="#373737" x="0" y="562.7" width="12.2" height="24.65" shape-rendering="crispEdges"/><rect fill="#373737" x="12.2" y="562.7" width="12.2" height="24.65" shape-rendering="crispEdges"/><rect fill="#373737" x="24.4" y="562.7" width="24.4" height="24.65" shape-rendering="crispEdges"/><rect fill="#373737" x="48.8" y="562.7" width="24.4" height="24.65" shape-rendering="crispEdges"/><rect fill="#373737" x="73.2" y="562.7" width="73.2" height="24.65" shape-rendering="crispEdges"/><rect fill="#373737" x="146.4" y="562.7" width="341.6" height="24.65" shape-rendering="crispEdges"/><rect fill="#373737" x="488" y="562.7" width="195.2" height="24.65" shape-rendering="crispEdges"/><rect fill="#373737" x="0" y="587.1" width="12.2" height="24.65" shape-rendering="crispEdges"/><rect fill="#373737" x="12.2" y="587.1" width="12.2" height="24.65" shape-rendering="crispEdges"/><rect fill="#373737" x="24.4" y="587.1" width="24.4" height="24.65" shape-rendering="crispEdges"/><rect fill="#373737" x="48.8" y="587.1" width="24.4" height="24.65" shape-rendering="crispEdges"/><rect fill="#373737" x="73.2" y="587.1" width="73.2" height="24.65" shape-rendering="crispEdges"/><rect fill="#373737" x="146.4" y="587.1" width="183" height="24.65" shape-rendering="crispEdges"/><rect fill="#373737" x="329.4" y="587.1" width="353.8" height="24.65" shape-rendering="crispEdges"/><rect fill="#373737" x="0" y="611.5" width="12.2" height="24.65" shape-rendering="crispEdges"/><rect fill="#373737" x="12.2" y="611.5" width="12.2" height="24.65" shape-rendering="crispEdges"/><rect fill="#373737" x="24.4" y="611.5" width="24.4" height="24.65" shape-rendering="crispEdges"/><rect fill="#373737" x="48.8" y="611.5" width="24.4" height="24.65" shape-rendering="crispEdges"/><rect fill="#373737" x="73.2" y="611.5" width="109.8" height="24.65" shape-rendering="crispEdges"/><rect fill="#373737" x="183" y="611.5" width="341.6" height="24.65" shape-rendering="crispEdges"/><rect fill="#373737" x="524.6" y="611.5" width="158.6" height="24.65" shape-rendering="crispEdges"/><rect fill="#373737" x="0" y="635.9" width="12.2" height="24.65" shape-rendering="crispEdges"/><rect fill="#373737" x="12.2" y="635.9" width="12.2" height="24.65" shape-rendering="crispEdges"/><rect fill="#373737" x="24.4" y="635.9" width="24.4" height="24.65" shape-rendering="crispEdges"/><rect fill="#373737" x="48.8" y="635.9" width="24.4" height="24.65" shape-rendering="crispEdges"/><rect fill="#373737" x="73.2" y="635.9" width="73.2" height="24.65" shape-rendering="crispEdges"/><rect fill="#373737" x="146.4" y="635.9" width="305" height="24.65" shape-rendering="crispEdges"/><rect fill="#373737" x="451.4" y="635.9" width="231.8" height="24.65" shape-rendering="crispEdges"/><rect fill="#373737" x="0" y="660.3" width="12.2" height="24.65" shape-rendering="crispEdges"/><rect fill="#373737" x="12.2" y="660.3" width="12.2" height="24.65" shape-rendering="crispEdges"/><rect fill="#373737" x="24.4" y="660.3" width="24.4" height="24.65" shape-rendering="crispEdges"/><rect fill="#373737" x="48.8" y="660.3" width="24.4" height="24.65" shape-rendering="crispEdges"/><rect fill="#373737" x="73.2" y="660.3" width="73.2" height="24.65" shape-rendering="crispEdges"/><rect fill="#373737" x="146.4" y="660.3" width="244" height="24.65" shape-rendering="crispEdges"/><rect fill="#373737" x="390.4" y="660.3" width="292.8" height="24.65" shape-rendering="crispEdges"/><rect fill="#373737" x="0" y="684.7" width="12.2" height="24.65" shape-rendering="crispEdges"/><rect fill="#373737" x="12.2" y="684.7" width="12.2" height="24.65" shape-rendering="crispEdges"/><rect fill="#373737" x="24.4" y="684.7" width="24.4" height="24.65" shape-rendering="crispEdges"/><rect fill="#373737" x="48.8" y="684.7" width="24.4" height="24.65" shape-rendering="crispEdges"/><rect fill="#373737" x="73.2" y="684.7" width="73.2" height="24.65" shape-rendering="crispEdges"/><rect fill="#373737" x="146.4" y="684.7" width="305" height="24.65" shape-rendering="crispEdges"/><rect fill="#373737" x="451.4" y="684.7" width="231.8" height="24.65" shape-rendering="crispEdges"/><rect fill="#373737" x="0" y="709.1" width="12.2" height="24.65" shape-rendering="crispEdges"/><rect fill="#373737" x="12.2" y="709.1" width="12.2" height="24.65" shape-rendering="crispEdges"/><rect fill="#373737" x="24.4" y="709.1" width="24.4" height="24.65" shape-rendering="crispEdges"/><rect fill="#373737" x="48.8" y="709.1" width="24.4" height="24.65" shape-rendering="crispEdges"/><rect fill="#373737" x="73.2" y="709.1" width="73.2" height="24.65" shape-rendering="crispEdges"/><rect fill="#373737" x="146.4" y="709.1" width="244" height="24.65" shape-rendering="crispEdges"/><rect fill="#373737" x="390.4" y="709.1" width="292.8" height="24.65" shape-rendering="crispEdges"/><rect fill="#373737" x="0" y="733.5" width="12.2" height="24.65" shape-rendering="crispEdges"/><rect fill="#373737" x="12.2" y="733.5" width="12.2" height="24.65" shape-rendering="crispEdges"/><rect fill="#373737" x="24.4" y="733.5" width="24.4" height="24.65" shape-rendering="crispEdges"/><rect fill="#373737" x="48.8" y="733.5" width="24.4" height="24.65" shape-rendering="crispEdges"/><rect fill="#373737" x="73.2" y="733.5" width="109.8" height="24.65" shape-rendering="crispEdges"/><rect fill="#373737" x="183" y="733.5" width="170.8" height="24.65" shape-rendering="crispEdges"/><rect fill="#373737" x="353.8" y="733.5" width="329.4" height="24.65" shape-rendering="crispEdges"/><rect fill="#373737" x="0" y="757.9" width="12.2" height="24.65" shape-rendering="crispEdges"/><rect fill="#373737" x="12.2" y="757.9" width="12.2" height="24.65" shape-rendering="crispEdges"/><rect fill="#373737" x="24.4" y="757.9" width="24.4" height="24.65" shape-rendering="crispEdges"/><rect fill="#373737" x="48.8" y="757.9" width="24.4" height="24.65" shape-rendering="crispEdges"/><rect fill="#373737" x="73.2" y="757.9" width="73.2" height="24.65" shape-rendering="crispEdges"/><rect fill="#373737" x="146.4" y="757.9" width="244" height="24.65" shape-rendering="crispEdges"/><rect fill="#373737" x="390.4" y="757.9" width="292.8" height="24.65" shape-rendering="crispEdges"/><rect fill="#373737" x="0" y="782.3" width="12.2" height="24.65" shape-rendering="crispEdges"/><rect fill="#373737" x="12.2" y="782.3" width="12.2" height="24.65" shape-rendering="crispEdges"/><rect fill="#373737" x="24.4" y="782.3" width="24.4" height="24.65" shape-rendering="crispEdges"/><rect fill="#373737" x="48.8" y="782.3" width="24.4" height="24.65" shape-rendering="crispEdges"/><rect fill="#373737" x="73.2" y="782.3" width="73.2" height="24.65" shape-rendering="crispEdges"/><rect fill="#373737" x="146.4" y="782.3" width="341.6" height="24.65" shape-rendering="crispEdges"/><rect fill="#373737" x="488" y="782.3" width="195.2" height="24.65" shape-rendering="crispEdges"/><rect fill="#373737" x="0" y="806.7" width="12.2" height="24.65" shape-rendering="crispEdges"/><rect fill="#373737" x="12.2" y="806.7" width="12.2" height="24.65" shape-rendering="crispEdges"/><rect fill="#373737" x="24.4" y="806.7" width="24.4" height="24.65" shape-rendering="crispEdges"/><rect fill="#373737" x="48.8" y="806.7" width="24.4" height="24.65" shape-rendering="crispEdges"/><rect fill="#373737" x="73.2" y="806.7" width="146.4" height="24.65" shape-rendering="crispEdges"/><rect fill="#373737" x="219.6" y="806.7" width="183" height="24.65" shape-rendering="crispEdges"/><rect fill="#373737" x="402.6" y="806.7" width="280.6" height="24.65" shape-rendering="crispEdges"/><rect fill="#373737" x="0" y="831.1" width="12.2" height="24.65" shape-rendering="crispEdges"/><rect fill="#373737" x="12.2" y="831.1" width="12.2" height="24.65" shape-rendering="crispEdges"/><rect fill="#373737" x="24.4" y="831.1" width="24.4" height="24.65" shape-rendering="crispEdges"/><rect fill="#373737" x="48.8" y="831.1" width="24.4" height="24.65" shape-rendering="crispEdges"/><rect fill="#373737" x="73.2" y="831.1" width="73.2" height="24.65" shape-rendering="crispEdges"/><rect fill="#373737" x="146.4" y="831.1" width="341.6" height="24.65" shape-rendering="crispEdges"/><rect fill="#373737" x="488" y="831.1" width="195.2" height="24.65" shape-rendering="crispEdges"/><rect fill="#373737" x="0" y="855.5" width="683.2" height="24.65" shape-rendering="crispEdges"/><rect fill="#373737" x="0" y="879.9" width="12.2" height="24.65" shape-rendering="crispEdges"/><rect fill="#373737" x="12.2" y="879.9" width="12.2" height="24.65" shape-rendering="crispEdges"/><rect fill="#373737" x="24.4" y="879.9" width="85.4" height="24.65" shape-rendering="crispEdges"/><rect fill="#373737" x="109.8" y="879.9" width="12.2" height="24.65" shape-rendering="crispEdges"/><rect fill="#373737" x="122" y="879.9" width="85.4" height="24.65" shape-rendering="crispEdges"/><rect fill="#373737" x="207.4" y="879.9" width="463.6" height="24.65" shape-rendering="crispEdges"/><rect fill="#373737" x="671" y="879.9" width="12.2" height="24.65" shape-rendering="crispEdges"/><rect fill="#373737" x="0" y="904.3" width="683.2" height="24.65" shape-rendering="crispEdges"/>
    <g class="terminal-451296264-matrix">
    <text class="terminal-451296264-r1" x="683.2" y="20" textLength="12.2" clip-path="url(#terminal-451296264-line-0)">
</text><text class="terminal-451296264-r2" x="170.8" y="44.4" textLength="329.4" clip-path="url(#terminal-451296264-line-1)">Oct&#160;20&#160;-&#160;26,&#160;2025&#160;#43&#160;(1/2)</text><text class="terminal-451296264-r1" x="683.2" y="44.4" textLength="12.2" clip-path="url(#terminal-451296264-line-1)">
</text><text class="terminal-451296264-r3" x="0" y="68.8" textLength="683.2" clip-path="url(#terminal-451296264-line-2)">────────────────────────────────────────────────────────</text><text class="terminal-451296264-r1" x="683.2" y="68.8" textLength="12.2" clip-path="url(#terminal-451296264-line-2)">
</text><text class="terminal-451296264-r4" x="73.2" y="93.2" textLength="524.6" clip-path="url(#terminal-451296264-line-3)">│&#160;Mon&#160;│&#160;Tue&#160;│&#160;Wed&#160;│&#160;Thu&#160;│&#160;Fri&#160;│&#160;Sat&#160;│&#160;Sun&#160;│</text><text class="terminal-451296264-r1" x="683.2" y="93.2" textLength="12.2" clip-path="url(#terminal-451296264-line-3)">
</text><text class="terminal-451296264-r4" x="73.2" y="117.6" textLength="353.8" clip-path="url(#terminal-451296264-line-4)">│&#160;&#160;&#160;&#160;&#160;│&#160;&#160;&#160;&#160;&#160;│&#160;&#160;&#160;&#160;&#160;│&#160;&#160;&#160;&#160;&#160;│&#160;&#160;&#160;&#160;</text><text class="terminal-451296264-r5" x="427" y="117.6" textLength="12.2" clip-path="url(#terminal-451296264-line-4)">█</text><text class="terminal-451296264-r4" x="439.2" y="117.6" textLength="12.2" clip-path="url(#terminal-451296264-line-4)">│</text><text class="terminal-451296264-r6" x="451.4" y="117.6" textLength="12.2" clip-path="url(#terminal-451296264-line-4)">■</text><text class="terminal-451296264-r5" x="500.2" y="117.6" textLength="12.2" clip-path="url(#terminal-451296264-line-4)">█</text><text class="terminal-451296264-r4" x="512.4" y="117.6" textLength="12.2" clip-path="url(#terminal-451296264-line-4)">│</text><text class="terminal-451296264-r6" x="524.6" y="117.6" textLength="12.2" clip-path="url(#terminal-451296264-line-4)">■</text><text class="terminal-451296264-r5" x="549" y="117.6" textLength="12.2" clip-path="url(#terminal-451296264-line-4)">█</text><text class="terminal-451296264-r5" x="561.2" y="117.6" textLength="12.2" clip-path="url(#terminal-451296264-line-4)">█</text><text class="terminal-451296264-r5" x="573.4" y="117.6" textLength="12.2" clip-path="url(#terminal-451296264-line-4)">█</text><text class="terminal-451296264-r4" x="585.6" y="117.6" textLength="12.2" clip-path="url(#terminal-451296264-line-4)">│</text><text class="terminal-451296264-r1" x="683.2" y="117.6" textLength="12.2" clip-path="url(#terminal-451296264-line-4)">
</text><text class="terminal-451296264-r3" x="0" y="142" textLength="683.2" clip-path="url(#terminal-451296264-line-5)">────────────────────────────────────────────────────────</text><text class="terminal-451296264-r1" x="683.2" y="142" textLength="12.2" clip-path="url(#terminal-451296264-line-5)">
</text><text class="terminal-451296264-r7" x="0" y="166.4" textLength="134.2" clip-path="url(#terminal-451296264-line-6)">Fri,&#160;Oct&#160;24</text><text class="terminal-451296264-r1" x="683.2" y="166.4" textLength="12.2" clip-path="url(#terminal-451296264-line-6)">
</text><text class="terminal-451296264-r8" x="12.2" y="190.8" textLength="12.2" clip-path="url(#terminal-451296264-line-7)">a</text><text class="terminal-451296264-r9" x="48.8" y="190.8" textLength="24.4" clip-path="url(#terminal-451296264-line-7)">~&#160;</text><text class="terminal-451296264-r9" x="73.2" y="190.8" textLength="109.8" clip-path="url(#terminal-451296264-line-7)">18-20:00&#160;</text><text class="terminal-451296264-r9" x="183" y="190.8" textLength="353.8" clip-path="url(#terminal-451296264-line-7)">go&#160;to&#160;Lowes&#160;∊&#160;dog&#160;house&#160;1/7/1</text><text class="terminal-451296264-r1" x="683.2" y="190.8" textLength="12.2" clip-path="url(#terminal-451296264-line-7)">
</text><text class="terminal-451296264-r8" x="12.2" y="215.2" textLength="12.2" clip-path="url(#terminal-451296264-line-8)">b</text><text class="terminal-451296264-r10" x="48.8" y="215.2" textLength="24.4" clip-path="url(#terminal-451296264-line-8)">~&#160;</text><text class="terminal-451296264-r10" x="73.2" y="215.2" textLength="109.8" clip-path="url(#terminal-451296264-line-8)">18-21:00&#160;</text><text class="terminal-451296264-r10" x="183" y="215.2" textLength="341.6" clip-path="url(#terminal-451296264-line-8)">buy&#160;lumber&#160;∊&#160;dog&#160;house&#160;1/7/1</text><text class="terminal-451296264-r1" x="683.2" y="215.2" textLength="12.2" clip-path="url(#terminal-451296264-line-8)">
</text><text class="terminal-451296264-r8" x="12.2" y="239.6" textLength="12.2" clip-path="url(#terminal-451296264-line-9)">c</text><text class="terminal-451296264-r10" x="48.8" y="239.6" textLength="24.4" clip-path="url(#terminal-451296264-line-9)">~&#160;</text><text class="terminal-451296264-r10" x="73.2" y="239.6" textLength="109.8" clip-path="url(#terminal-451296264-line-9)">18-21:00&#160;</text><text class="terminal-451296264-r10" x="183" y="239.6" textLength="366" clip-path="url(#terminal-451296264-line-9)">buy&#160;hardware&#160;∊&#160;dog&#160;house&#160;1/7/1</text><text class="terminal-451296264-r1" x="683.2" y="239.6" textLength="12.2" clip-path="url(#terminal-451296264-line-9)">
</text><text class="terminal-451296264-r8" x="12.2" y="264" textLength="12.2" clip-path="url(#terminal-451296264-line-10)">d</text><text class="terminal-451296264-r10" x="48.8" y="264" textLength="24.4" clip-path="url(#terminal-451296264-line-10)">~&#160;</text><text class="terminal-451296264-r10" x="73.2" y="264" textLength="109.8" clip-path="url(#terminal-451296264-line-10)">18-21:00&#160;</text><text class="terminal-451296264-r10" x="183" y="264" textLength="329.4" clip-path="url(#terminal-451296264-line-10)">buy&#160;paint&#160;∊&#160;dog&#160;house&#160;1/7/1</text><text class="terminal-451296264-r1" x="683.2" y="264" textLength="12.2" clip-path="url(#terminal-451296264-line-10)">
</text><text class="terminal-451296264-r7" x="0" y="288.4" textLength="134.2" clip-path="url(#terminal-451296264-line-11)">Sat,&#160;Oct&#160;25</text><text class="terminal-451296264-r1" x="683.2" y="288.4" textLength="12.2" clip-path="url(#terminal-451296264-line-11)">
</text><text class="terminal-451296264-r8" x="12.2" y="312.8" textLength="12.2" clip-path="url(#terminal-451296264-line-12)">e</text><text class="terminal-451296264-r9" x="48.8" y="312.8" textLength="231.8" clip-path="url(#terminal-451296264-line-12)">~&#160;all&#160;day&#160;yesterday</text><text class="terminal-451296264-r1" x="683.2" y="312.8" textLength="12.2" clip-path="url(#terminal-451296264-line-12)">
</text><text class="terminal-451296264-r8" x="12.2" y="337.2" textLength="12.2" clip-path="url(#terminal-451296264-line-13)">f</text><text class="terminal-451296264-r11" x="48.8" y="337.2" textLength="341.6" clip-path="url(#terminal-451296264-line-13)">%&#160;long&#160;formatted&#160;description</text><text class="terminal-451296264-r1" x="683.2" y="337.2" textLength="12.2" clip-path="url(#terminal-451296264-line-13)">
</text><text class="terminal-451296264-r8" x="12.2" y="361.6" textLength="12.2" clip-path="url(#terminal-451296264-line-14)">g</text><text class="terminal-451296264-r9" x="48.8" y="361.6" textLength="366" clip-path="url(#terminal-451296264-line-14)">~&#160;one&#160;date&#160;with&#160;priority&#160;three</text><text class="terminal-451296264-r1" x="683.2" y="361.6" textLength="12.2" clip-path="url(#terminal-451296264-line-14)">
</text><text class="terminal-451296264-r8" x="12.2" y="386" textLength="12.2" clip-path="url(#terminal-451296264-line-15)">h</text><text class="terminal-451296264-r10" x="48.8" y="386" textLength="24.4" clip-path="url(#terminal-451296264-line-15)">~&#160;</text><text class="terminal-451296264-r10" x="73.2" y="386" textLength="109.8" clip-path="url(#terminal-451296264-line-15)">18-21:00&#160;</text><text class="terminal-451296264-r10" x="183" y="386" textLength="341.6" clip-path="url(#terminal-451296264-line-15)">cut&#160;pieces&#160;∊&#160;dog&#160;house&#160;1/7/1</text><text class="terminal-451296264-r1" x="683.2" y="386" textLength="12.2" clip-path="url(#terminal-451296264-line-15)">
</text><text class="terminal-451296264-r7" x="0" y="410.4" textLength="231.8" clip-path="url(#terminal-451296264-line-16)">Sun,&#160;Oct&#160;26&#160;(today)</text><text class="terminal-451296264-r1" x="683.2" y="410.4" textLength="12.2" clip-path="url(#terminal-451296264-line-16)">
</text><text class="terminal-451296264-r8" x="12.2" y="434.8" textLength="12.2" clip-path="url(#terminal-451296264-line-17)">i</text><text class="terminal-451296264-r9" x="48.8" y="434.8" textLength="183" clip-path="url(#terminal-451296264-line-17)">~&#160;all&#160;day&#160;today</text><text class="terminal-451296264-r1" x="683.2" y="434.8" textLength="12.2" clip-path="url(#terminal-451296264-line-17)">
</text><text class="terminal-451296264-r8" x="12.2" y="459.2" textLength="12.2" clip-path="url(#terminal-451296264-line-18)">j</text><text class="terminal-451296264-r9" x="48.8" y="459.2" textLength="378.2" clip-path="url(#terminal-451296264-line-18)">~&#160;one&#160;due&#160;date&#160;and&#160;priority&#160;one</text><text class="terminal-451296264-r1" x="683.2" y="459.2" textLength="12.2" clip-path="url(#terminal-451296264-line-18)">
</text><text class="terminal-451296264-r8" x="12.2" y="483.6" textLength="12.2" clip-path="url(#terminal-451296264-line-19)">k</text><text class="terminal-451296264-r9" x="48.8" y="483.6" textLength="329.4" clip-path="url(#terminal-451296264-line-19)">~&#160;that&#160;∊&#160;no&#160;prerequ&#160;…&#160;1/0/1</text><text class="terminal-451296264-r1" x="683.2" y="483.6" textLength="12.2" clip-path="url(#terminal-451296264-line-19)">
</text><text class="terminal-451296264-r8" x="12.2" y="508" textLength="12.2" clip-path="url(#terminal-451296264-line-20)">l</text><text class="terminal-451296264-r12" x="48.8" y="508" textLength="24.4" clip-path="url(#terminal-451296264-line-20)">*&#160;</text><text class="terminal-451296264-r12" x="73.2" y="508" textLength="85.4" clip-path="url(#terminal-451296264-line-20)">7-8:00&#160;</text><text class="terminal-451296264-r12" x="158.6" y="508" textLength="317.2" clip-path="url(#terminal-451296264-line-20)">timezone&#160;test&#160;for&#160;noon&#160;CET</text><text class="terminal-451296264-r1" x="683.2" y="508" textLength="12.2" clip-path="url(#terminal-451296264-line-20)">
</text><text class="terminal-451296264-r8" x="12.2" y="532.4" textLength="12.2" clip-path="url(#terminal-451296264-line-21)">m</text><text class="terminal-451296264-r9" x="48.8" y="532.4" textLength="24.4" clip-path="url(#terminal-451296264-line-21)">~&#160;</text><text class="terminal-451296264-r9" x="73.2" y="532.4" textLength="61" clip-path="url(#terminal-451296264-line-21)">9:00&#160;</text><text class="terminal-451296264-r9" x="134.2" y="532.4" textLength="183" clip-path="url(#terminal-451296264-line-21)">three&#160;datetimes</text><text class="terminal-451296264-r1" x="683.2" y="532.4" textLength="12.2" clip-path="url(#terminal-451296264-line-21)">
</text><text class="terminal-451296264-r8" x="12.2" y="556.8" textLength="12.2" clip-path="url(#terminal-451296264-line-22)">n</text><text class="terminal-451296264-r9" x="48.8" y="556.8" textLength="24.4" clip-path="url(#terminal-451296264-line-22)">~&#160;</text><text class="terminal-451296264-r9" x="73.2" y="556.8" textLength="73.2" clip-path="url(#terminal-451296264-line-22)">10:00&#160;</text><text class="terminal-451296264-r9" x="146.4" y="556.8" textLength="183" clip-path="url(#terminal-451296264-line-22)">three&#160;datetimes</text><text class="terminal-451296264-r1" x="683.2" y="556.8" textLength="12.2" clip-path="url(#terminal-451296264-line-22)">
</text><text class="terminal-451296264-r8" x="12.2" y="581.2" textLength="12.2" clip-path="url(#terminal-451296264-line-23)">o</text><text class="terminal-451296264-r13" x="48.8" y="581.2" textLength="24.4" clip-path="url(#terminal-451296264-line-23)">x&#160;</text><text class="terminal-451296264-r13" x="73.2" y="581.2" textLength="73.2" clip-path="url(#terminal-451296264-line-23)">10:30&#160;</text><text class="terminal-451296264-r13" x="146.4" y="581.2" textLength="341.6" clip-path="url(#terminal-451296264-line-23)">repeating,&#160;rdates&#160;and&#160;finish</text><text class="terminal-451296264-r1" x="683.2" y="581.2" textLength="12.2" clip-path="url(#terminal-451296264-line-23)">
</text><text class="terminal-451296264-r8" x="12.2" y="605.6" textLength="12.2" clip-path="url(#terminal-451296264-line-24)">p</text><text class="terminal-451296264-r9" x="48.8" y="605.6" textLength="24.4" clip-path="url(#terminal-451296264-line-24)">~&#160;</text><text class="terminal-451296264-r9" x="73.2" y="605.6" textLength="73.2" clip-path="url(#terminal-451296264-line-24)">11:00&#160;</text><text class="terminal-451296264-r9" x="146.4" y="605.6" textLength="183" clip-path="url(#terminal-451296264-line-24)">three&#160;datetimes</text><text class="terminal-451296264-r1" x="683.2" y="605.6" textLength="12.2" clip-path="url(#terminal-451296264-line-24)">
</text><text class="terminal-451296264-r8" x="12.2" y="630" textLength="12.2" clip-path="url(#terminal-451296264-line-25)">q</text><text class="terminal-451296264-r12" x="48.8" y="630" textLength="24.4" clip-path="url(#terminal-451296264-line-25)">*&#160;</text><text class="terminal-451296264-r12" x="73.2" y="630" textLength="109.8" clip-path="url(#terminal-451296264-line-25)">12-13:00&#160;</text><text class="terminal-451296264-r12" x="183" y="630" textLength="341.6" clip-path="url(#terminal-451296264-line-25)">timezone&#160;test&#160;for&#160;noon&#160;naive</text><text class="terminal-451296264-r1" x="683.2" y="630" textLength="12.2" clip-path="url(#terminal-451296264-line-25)">
</text><text class="terminal-451296264-r8" x="12.2" y="654.4" textLength="12.2" clip-path="url(#terminal-451296264-line-26)">r</text><text class="terminal-451296264-r12" x="48.8" y="654.4" textLength="24.4" clip-path="url(#terminal-451296264-line-26)">*&#160;</text><text class="terminal-451296264-r12" x="73.2" y="654.4" textLength="73.2" clip-path="url(#terminal-451296264-line-26)">13:00&#160;</text><text class="terminal-451296264-r12" x="146.4" y="654.4" textLength="305" clip-path="url(#terminal-451296264-line-26)">daily&#160;datetime&#160;US/Pacific</text><text class="terminal-451296264-r1" x="683.2" y="654.4" textLength="12.2" clip-path="url(#terminal-451296264-line-26)">
</text><text class="terminal-451296264-r8" x="12.2" y="678.8" textLength="12.2" clip-path="url(#terminal-451296264-line-27)">s</text><text class="terminal-451296264-r9" x="48.8" y="678.8" textLength="24.4" clip-path="url(#terminal-451296264-line-27)">~&#160;</text><text class="terminal-451296264-r9" x="73.2" y="678.8" textLength="73.2" clip-path="url(#terminal-451296264-line-27)">13:30&#160;</text><text class="terminal-451296264-r9" x="146.4" y="678.8" textLength="244" clip-path="url(#terminal-451296264-line-27)">repeating&#160;and&#160;rdates</text><text class="terminal-451296264-r1" x="683.2" y="678.8" textLength="12.2" clip-path="url(#terminal-451296264-line-27)">
</text><text class="terminal-451296264-r8" x="12.2" y="703.2" textLength="12.2" clip-path="url(#terminal-451296264-line-28)">t</text><text class="terminal-451296264-r11" x="48.8" y="703.2" textLength="24.4" clip-path="url(#terminal-451296264-line-28)">%&#160;</text><text class="terminal-451296264-r11" x="73.2" y="703.2" textLength="73.2" clip-path="url(#terminal-451296264-line-28)">14:00&#160;</text><text class="terminal-451296264-r11" x="146.4" y="703.2" textLength="305" clip-path="url(#terminal-451296264-line-28)">Journal&#160;entry&#160;for&#160;October</text><text class="terminal-451296264-r1" x="683.2" y="703.2" textLength="12.2" clip-path="url(#terminal-451296264-line-28)">
</text><text class="terminal-451296264-r8" x="12.2" y="727.6" textLength="12.2" clip-path="url(#terminal-451296264-line-29)">u</text><text class="terminal-451296264-r9" x="48.8" y="727.6" textLength="24.4" clip-path="url(#terminal-451296264-line-29)">~&#160;</text><text class="terminal-451296264-r9" x="73.2" y="727.6" textLength="73.2" clip-path="url(#terminal-451296264-line-29)">14:30&#160;</text><text class="terminal-451296264-r9" x="146.4" y="727.6" textLength="244" clip-path="url(#terminal-451296264-line-29)">repeating&#160;and&#160;rdates</text><text class="terminal-451296264-r1" x="683.2" y="727.6" textLength="12.2" clip-path="url(#terminal-451296264-line-29)">
</text><text class="terminal-451296264-r8" x="12.2" y="752" textLength="12.2" clip-path="url(#terminal-451296264-line-30)">v</text><text class="terminal-451296264-r12" x="48.8" y="752" textLength="24.4" clip-path="url(#terminal-451296264-line-30)">*&#160;</text><text class="terminal-451296264-r12" x="73.2" y="752" textLength="109.8" clip-path="url(#terminal-451296264-line-30)">15-15:30&#160;</text><text class="terminal-451296264-r12" x="183" y="752" textLength="170.8" clip-path="url(#terminal-451296264-line-30)">daily&#160;datetime</text><text class="terminal-451296264-r1" x="683.2" y="752" textLength="12.2" clip-path="url(#terminal-451296264-line-30)">
</text><text class="terminal-451296264-r8" x="12.2" y="776.4" textLength="12.2" clip-path="url(#terminal-451296264-line-31)">w</text><text class="terminal-451296264-r9" x="48.8" y="776.4" textLength="24.4" clip-path="url(#terminal-451296264-line-31)">~&#160;</text><text class="terminal-451296264-r9" x="73.2" y="776.4" textLength="73.2" clip-path="url(#terminal-451296264-line-31)">15:30&#160;</text><text class="terminal-451296264-r9" x="146.4" y="776.4" textLength="244" clip-path="url(#terminal-451296264-line-31)">repeating&#160;and&#160;rdates</text><text class="terminal-451296264-r1" x="683.2" y="776.4" textLength="12.2" clip-path="url(#terminal-451296264-line-31)">
</text><text class="terminal-451296264-r8" x="12.2" y="800.8" textLength="12.2" clip-path="url(#terminal-451296264-line-32)">x</text><text class="terminal-451296264-r13" x="48.8" y="800.8" textLength="24.4" clip-path="url(#terminal-451296264-line-32)">x&#160;</text><text class="terminal-451296264-r13" x="73.2" y="800.8" textLength="73.2" clip-path="url(#terminal-451296264-line-32)">15:30&#160;</text><text class="terminal-451296264-r13" x="146.4" y="800.8" textLength="341.6" clip-path="url(#terminal-451296264-line-32)">repeating,&#160;rdates&#160;and&#160;finish</text><text class="terminal-451296264-r1" x="683.2" y="800.8" textLength="12.2" clip-path="url(#terminal-451296264-line-32)">
</text><text class="terminal-451296264-r8" x="12.2" y="825.2" textLength="12.2" clip-path="url(#terminal-451296264-line-33)">y</text><text class="terminal-451296264-r12" x="48.8" y="825.2" textLength="24.4" clip-path="url(#terminal-451296264-line-33)">*&#160;</text><text class="terminal-451296264-r12" x="73.2" y="825.2" textLength="146.4" clip-path="url(#terminal-451296264-line-33)">17:10-17:55&#160;</text><text class="terminal-451296264-r12" x="219.6" y="825.2" textLength="183" clip-path="url(#terminal-451296264-line-33)">three&#160;datetimes</text><text class="terminal-451296264-r1" x="683.2" y="825.2" textLength="12.2" clip-path="url(#terminal-451296264-line-33)">
</text><text class="terminal-451296264-r8" x="12.2" y="849.6" textLength="12.2" clip-path="url(#terminal-451296264-line-34)">z</text><text class="terminal-451296264-r13" x="48.8" y="849.6" textLength="24.4" clip-path="url(#terminal-451296264-line-34)">x&#160;</text><text class="terminal-451296264-r13" x="73.2" y="849.6" textLength="73.2" clip-path="url(#terminal-451296264-line-34)">17:30&#160;</text><text class="terminal-451296264-r13" x="146.4" y="849.6" textLength="341.6" clip-path="url(#terminal-451296264-line-34)">repeating,&#160;rdates&#160;and&#160;finish</text><text class="terminal-451296264-r1" x="683.2" y="849.6" textLength="12.2" clip-path="url(#terminal-451296264-line-34)">
</text><text class="terminal-451296264-r3" x="0" y="874" textLength="683.2" clip-path="url(#terminal-451296264-line-35)">────────────────────────────────────────────────────────</text><text class="terminal-451296264-r1" x="683.2" y="874" textLength="12.2" clip-path="url(#terminal-451296264-line-35)">
</text><text class="terminal-451296264-r14" x="12.2" y="898.4" textLength="12.2" clip-path="url(#terminal-451296264-line-36)">?</text><text class="terminal-451296264-r2" x="24.4" y="898.4" textLength="85.4" clip-path="url(#terminal-451296264-line-36)">&#160;Help&#160;&#160;</text><text class="terminal-451296264-r14" x="109.8" y="898.4" textLength="12.2" clip-path="url(#terminal-451296264-line-36)">/</text><text class="terminal-451296264-r2" x="122" y="898.4" textLength="85.4" clip-path="url(#terminal-451296264-line-36)">&#160;Search</text><text class="terminal-451296264-r1" x="683.2" y="898.4" textLength="12.2" clip-path="url(#terminal-451296264-line-36)">
</text>
    </g>
    </g>
</svg>
