<svg class="rich-terminal" viewBox="0 0 702 684.4" xmlns="http://www.w3.org/2000/svg">
    <!-- Generated with Rich https://www.textualize.io -->
    <style>

    @font-face {
        font-family: "Fira Code";
        src: local("FiraCode-Regular"),
                url("https://cdnjs.cloudflare.com/ajax/libs/firacode/6.2.0/woff2/FiraCode-Regular.woff2") format("woff2"),
                url("https://cdnjs.cloudflare.com/ajax/libs/firacode/6.2.0/woff/FiraCode-Regular.woff") format("woff");
        font-style: normal;
        font-weight: 400;
    }
    @font-face {
        font-family: "Fira Code";
        src: local("FiraCode-Bold"),
                url("https://cdnjs.cloudflare.com/ajax/libs/firacode/6.2.0/woff2/FiraCode-Bold.woff2") format("woff2"),
                url("https://cdnjs.cloudflare.com/ajax/libs/firacode/6.2.0/woff/FiraCode-Bold.woff") format("woff");
        font-style: bold;
        font-weight: 700;
    }

    .terminal-3063903634-matrix {
        font-family: Fira Code, monospace;
        font-size: 20px;
        line-height: 24.4px;
        font-variant-east-asian: full-width;
    }

    .terminal-3063903634-title {
        font-size: 18px;
        font-weight: bold;
        font-family: arial;
    }

    .terminal-3063903634-r1 { fill: #c5c8c6 }
.terminal-3063903634-r2 { fill: #ffffff;font-weight: bold }
.terminal-3063903634-r3 { fill: #7f7f7f }
.terminal-3063903634-r4 { fill: #cccccc }
.terminal-3063903634-r5 { fill: #ff8c00;font-weight: bold }
.terminal-3063903634-r6 { fill: #ffffff }
.terminal-3063903634-r7 { fill: #121212 }
.terminal-3063903634-r8 { fill: #32cd32 }
    </style>

    <defs>
    <clipPath id="terminal-3063903634-clip-terminal">
      <rect x="0" y="0" width="682.1999999999999" height="633.4" />
    </clipPath>
    <clipPath id="terminal-3063903634-line-0">
    <rect x="0" y="1.5" width="683.2" height="24.65"/>
            </clipPath>
<clipPath id="terminal-3063903634-line-1">
    <rect x="0" y="25.9" width="683.2" height="24.65"/>
            </clipPath>
<clipPath id="terminal-3063903634-line-2">
    <rect x="0" y="50.3" width="683.2" height="24.65"/>
            </clipPath>
<clipPath id="terminal-3063903634-line-3">
    <rect x="0" y="74.7" width="683.2" height="24.65"/>
            </clipPath>
<clipPath id="terminal-3063903634-line-4">
    <rect x="0" y="99.1" width="683.2" height="24.65"/>
            </clipPath>
<clipPath id="terminal-3063903634-line-5">
    <rect x="0" y="123.5" width="683.2" height="24.65"/>
            </clipPath>
<clipPath id="terminal-3063903634-line-6">
    <rect x="0" y="147.9" width="683.2" height="24.65"/>
            </clipPath>
<clipPath id="terminal-3063903634-line-7">
    <rect x="0" y="172.3" width="683.2" height="24.65"/>
            </clipPath>
<clipPath id="terminal-3063903634-line-8">
    <rect x="0" y="196.7" width="683.2" height="24.65"/>
            </clipPath>
<clipPath id="terminal-3063903634-line-9">
    <rect x="0" y="221.1" width="683.2" height="24.65"/>
            </clipPath>
<clipPath id="terminal-3063903634-line-10">
    <rect x="0" y="245.5" width="683.2" height="24.65"/>
            </clipPath>
<clipPath id="terminal-3063903634-line-11">
    <rect x="0" y="269.9" width="683.2" height="24.65"/>
            </clipPath>
<clipPath id="terminal-3063903634-line-12">
    <rect x="0" y="294.3" width="683.2" height="24.65"/>
            </clipPath>
<clipPath id="terminal-3063903634-line-13">
    <rect x="0" y="318.7" width="683.2" height="24.65"/>
            </clipPath>
<clipPath id="terminal-3063903634-line-14">
    <rect x="0" y="343.1" width="683.2" height="24.65"/>
            </clipPath>
<clipPath id="terminal-3063903634-line-15">
    <rect x="0" y="367.5" width="683.2" height="24.65"/>
            </clipPath>
<clipPath id="terminal-3063903634-line-16">
    <rect x="0" y="391.9" width="683.2" height="24.65"/>
            </clipPath>
<clipPath id="terminal-3063903634-line-17">
    <rect x="0" y="416.3" width="683.2" height="24.65"/>
            </clipPath>
<clipPath id="terminal-3063903634-line-18">
    <rect x="0" y="440.7" width="683.2" height="24.65"/>
            </clipPath>
<clipPath id="terminal-3063903634-line-19">
    <rect x="0" y="465.1" width="683.2" height="24.65"/>
            </clipPath>
<clipPath id="terminal-3063903634-line-20">
    <rect x="0" y="489.5" width="683.2" height="24.65"/>
            </clipPath>
<clipPath id="terminal-3063903634-line-21">
    <rect x="0" y="513.9" width="683.2" height="24.65"/>
            </clipPath>
<clipPath id="terminal-3063903634-line-22">
    <rect x="0" y="538.3" width="683.2" height="24.65"/>
            </clipPath>
<clipPath id="terminal-3063903634-line-23">
    <rect x="0" y="562.7" width="683.2" height="24.65"/>
            </clipPath>
<clipPath id="terminal-3063903634-line-24">
    <rect x="0" y="587.1" width="683.2" height="24.65"/>
            </clipPath>
    </defs>

    <rect fill="#292929" stroke="rgba(255,255,255,0.35)" stroke-width="1" x="1" y="1" width="700" height="682.4" rx="8"/>
            <g transform="translate(26,22)">
            <circle cx="0" cy="0" r="7" fill="#ff5f57"/>
            <circle cx="22" cy="0" r="7" fill="#febc2e"/>
            <circle cx="44" cy="0" r="7" fill="#28c840"/>
            </g>
        
    <g transform="translate(9, 41)" clip-path="url(#terminal-3063903634-clip-terminal)">
    <rect fill="#373737" x="0" y="1.5" width="12.2" height="24.65" shape-rendering="crispEdges"/><rect fill="#373737" x="12.2" y="1.5" width="658.8" height="24.65" shape-rendering="crispEdges"/><rect fill="#373737" x="671" y="1.5" width="12.2" height="24.65" shape-rendering="crispEdges"/><rect fill="#373737" x="0" y="25.9" width="12.2" height="24.65" shape-rendering="crispEdges"/><rect fill="#373737" x="12.2" y="25.9" width="12.2" height="24.65" shape-rendering="crispEdges"/><rect fill="#373737" x="24.4" y="25.9" width="207.4" height="24.65" shape-rendering="crispEdges"/><rect fill="#373737" x="231.8" y="25.9" width="207.4" height="24.65" shape-rendering="crispEdges"/><rect fill="#373737" x="439.2" y="25.9" width="219.6" height="24.65" shape-rendering="crispEdges"/><rect fill="#373737" x="658.8" y="25.9" width="12.2" height="24.65" shape-rendering="crispEdges"/><rect fill="#373737" x="671" y="25.9" width="12.2" height="24.65" shape-rendering="crispEdges"/><rect fill="#373737" x="0" y="50.3" width="12.2" height="24.65" shape-rendering="crispEdges"/><rect fill="#373737" x="12.2" y="50.3" width="658.8" height="24.65" shape-rendering="crispEdges"/><rect fill="#373737" x="671" y="50.3" width="12.2" height="24.65" shape-rendering="crispEdges"/><rect fill="#373737" x="0" y="74.7" width="12.2" height="24.65" shape-rendering="crispEdges"/><rect fill="#373737" x="12.2" y="74.7" width="12.2" height="24.65" shape-rendering="crispEdges"/><rect fill="#373737" x="24.4" y="74.7" width="48.8" height="24.65" shape-rendering="crispEdges"/><rect fill="#373737" x="73.2" y="74.7" width="524.6" height="24.65" shape-rendering="crispEdges"/><rect fill="#373737" x="597.8" y="74.7" width="61" height="24.65" shape-rendering="crispEdges"/><rect fill="#373737" x="658.8" y="74.7" width="12.2" height="24.65" shape-rendering="crispEdges"/><rect fill="#373737" x="671" y="74.7" width="12.2" height="24.65" shape-rendering="crispEdges"/><rect fill="#373737" x="0" y="99.1" width="12.2" height="24.65" shape-rendering="crispEdges"/><rect fill="#373737" x="12.2" y="99.1" width="12.2" height="24.65" shape-rendering="crispEdges"/><rect fill="#373737" x="24.4" y="99.1" width="146.4" height="24.65" shape-rendering="crispEdges"/><rect fill="#373737" x="170.8" y="99.1" width="24.4" height="24.65" shape-rendering="crispEdges"/><rect fill="#373737" x="195.2" y="99.1" width="146.4" height="24.65" shape-rendering="crispEdges"/><rect fill="#373737" x="341.6" y="99.1" width="48.8" height="24.65" shape-rendering="crispEdges"/><rect fill="#373737" x="390.4" y="99.1" width="122" height="24.65" shape-rendering="crispEdges"/><rect fill="#373737" x="512.4" y="99.1" width="146.4" height="24.65" shape-rendering="crispEdges"/><rect fill="#373737" x="658.8" y="99.1" width="12.2" height="24.65" shape-rendering="crispEdges"/><rect fill="#373737" x="671" y="99.1" width="12.2" height="24.65" shape-rendering="crispEdges"/><rect fill="#373737" x="0" y="123.5" width="12.2" height="24.65" shape-rendering="crispEdges"/><rect fill="#3a3a3a" x="12.2" y="123.5" width="12.2" height="24.65" shape-rendering="crispEdges"/><rect fill="#3a3a3a" x="24.4" y="123.5" width="634.4" height="24.65" shape-rendering="crispEdges"/><rect fill="#3a3a3a" x="658.8" y="123.5" width="12.2" height="24.65" shape-rendering="crispEdges"/><rect fill="#373737" x="671" y="123.5" width="12.2" height="24.65" shape-rendering="crispEdges"/><rect fill="#373737" x="0" y="147.9" width="12.2" height="24.65" shape-rendering="crispEdges"/><rect fill="#3a3a3a" x="12.2" y="147.9" width="12.2" height="24.65" shape-rendering="crispEdges"/><rect fill="#414141" x="24.4" y="147.9" width="414.8" height="24.65" shape-rendering="crispEdges"/><rect fill="#e0e0e0" x="439.2" y="147.9" width="12.2" height="24.65" shape-rendering="crispEdges"/><rect fill="#414141" x="451.4" y="147.9" width="207.4" height="24.65" shape-rendering="crispEdges"/><rect fill="#3a3a3a" x="658.8" y="147.9" width="12.2" height="24.65" shape-rendering="crispEdges"/><rect fill="#373737" x="671" y="147.9" width="12.2" height="24.65" shape-rendering="crispEdges"/><rect fill="#373737" x="0" y="172.3" width="12.2" height="24.65" shape-rendering="crispEdges"/><rect fill="#3a3a3a" x="12.2" y="172.3" width="12.2" height="24.65" shape-rendering="crispEdges"/><rect fill="#3a3a3a" x="24.4" y="172.3" width="634.4" height="24.65" shape-rendering="crispEdges"/><rect fill="#3a3a3a" x="658.8" y="172.3" width="12.2" height="24.65" shape-rendering="crispEdges"/><rect fill="#373737" x="671" y="172.3" width="12.2" height="24.65" shape-rendering="crispEdges"/><rect fill="#373737" x="0" y="196.7" width="12.2" height="24.65" shape-rendering="crispEdges"/><rect fill="#3a3a3a" x="12.2" y="196.7" width="12.2" height="24.65" shape-rendering="crispEdges"/><rect fill="#3a3a3a" x="24.4" y="196.7" width="634.4" height="24.65" shape-rendering="crispEdges"/><rect fill="#3a3a3a" x="658.8" y="196.7" width="12.2" height="24.65" shape-rendering="crispEdges"/><rect fill="#373737" x="671" y="196.7" width="12.2" height="24.65" shape-rendering="crispEdges"/><rect fill="#373737" x="0" y="221.1" width="12.2" height="24.65" shape-rendering="crispEdges"/><rect fill="#373737" x="12.2" y="221.1" width="12.2" height="24.65" shape-rendering="crispEdges"/><rect fill="#373737" x="24.4" y="221.1" width="536.8" height="24.65" shape-rendering="crispEdges"/><rect fill="#373737" x="561.2" y="221.1" width="97.6" height="24.65" shape-rendering="crispEdges"/><rect fill="#373737" x="658.8" y="221.1" width="12.2" height="24.65" shape-rendering="crispEdges"/><rect fill="#373737" x="671" y="221.1" width="12.2" height="24.65" shape-rendering="crispEdges"/><rect fill="#373737" x="0" y="245.5" width="12.2" height="24.65" shape-rendering="crispEdges"/><rect fill="#373737" x="12.2" y="245.5" width="658.8" height="24.65" shape-rendering="crispEdges"/><rect fill="#373737" x="671" y="245.5" width="12.2" height="24.65" shape-rendering="crispEdges"/><rect fill="#373737" x="0" y="269.9" width="12.2" height="24.65" shape-rendering="crispEdges"/><rect fill="#373737" x="12.2" y="269.9" width="658.8" height="24.65" shape-rendering="crispEdges"/><rect fill="#373737" x="671" y="269.9" width="12.2" height="24.65" shape-rendering="crispEdges"/><rect fill="#373737" x="0" y="294.3" width="12.2" height="24.65" shape-rendering="crispEdges"/><rect fill="#373737" x="12.2" y="294.3" width="658.8" height="24.65" shape-rendering="crispEdges"/><rect fill="#373737" x="671" y="294.3" width="12.2" height="24.65" shape-rendering="crispEdges"/><rect fill="#373737" x="0" y="318.7" width="12.2" height="24.65" shape-rendering="crispEdges"/><rect fill="#373737" x="12.2" y="318.7" width="658.8" height="24.65" shape-rendering="crispEdges"/><rect fill="#373737" x="671" y="318.7" width="12.2" height="24.65" shape-rendering="crispEdges"/><rect fill="#373737" x="0" y="343.1" width="12.2" height="24.65" shape-rendering="crispEdges"/><rect fill="#373737" x="12.2" y="343.1" width="658.8" height="24.65" shape-rendering="crispEdges"/><rect fill="#373737" x="671" y="343.1" width="12.2" height="24.65" shape-rendering="crispEdges"/><rect fill="#373737" x="0" y="367.5" width="12.2" height="24.65" shape-rendering="crispEdges"/><rect fill="#373737" x="12.2" y="367.5" width="658.8" height="24.65" shape-rendering="crispEdges"/><rect fill="#373737" x="671" y="367.5" width="12.2" height="24.65" shape-rendering="crispEdges"/><rect fill="#373737" x="0" y="391.9" width="12.2" height="24.65" shape-rendering="crispEdges"/><rect fill="#373737" x="12.2" y="391.9" width="658.8" height="24.65" shape-rendering="crispEdges"/><rect fill="#373737" x="671" y="391.9" width="12.2" height="24.65" shape-rendering="crispEdges"/><rect fill="#373737" x="0" y="416.3" width="12.2" height="24.65" shape-rendering="crispEdges"/><rect fill="#373737" x="12.2" y="416.3" width="658.8" height="24.65" shape-rendering="crispEdges"/><rect fill="#373737" x="671" y="416.3" width="12.2" height="24.65" shape-rendering="crispEdges"/><rect fill="#373737" x="0" y="440.7" width="12.2" height="24.65" shape-rendering="crispEdges"/><rect fill="#373737" x="12.2" y="440.7" width="658.8" height="24.65" shape-rendering="crispEdges"/><rect fill="#373737" x="671" y="440.7" width="12.2" height="24.65" shape-rendering="crispEdges"/><rect fill="#373737" x="0" y="465.1" width="12.2" height="24.65" shape-rendering="crispEdges"/><rect fill="#373737" x="12.2" y="465.1" width="658.8" height="24.65" shape-rendering="crispEdges"/><rect fill="#373737" x="671" y="465.1" width="12.2" height="24.65" shape-rendering="crispEdges"/><rect fill="#373737" x="0" y="489.5" width="12.2" height="24.65" shape-rendering="crispEdges"/><rect fill="#373737" x="12.2" y="489.5" width="658.8" height="24.65" shape-rendering="crispEdges"/><rect fill="#373737" x="671" y="489.5" width="12.2" height="24.65" shape-rendering="crispEdges"/><rect fill="#373737" x="0" y="513.9" width="12.2" height="24.65" shape-rendering="crispEdges"/><rect fill="#373737" x="12.2" y="513.9" width="658.8" height="24.65" shape-rendering="crispEdges"/><rect fill="#373737" x="671" y="513.9" width="12.2" height="24.65" shape-rendering="crispEdges"/><rect fill="#373737" x="0" y="538.3" width="12.2" height="24.65" shape-rendering="crispEdges"/><rect fill="#373737" x="12.2" y="538.3" width="658.8" height="24.65" shape-rendering="crispEdges"/><rect fill="#373737" x="671" y="538.3" width="12.2" height="24.65" shape-rendering="crispEdges"/><rect fill="#373737" x="0" y="562.7" width="12.2" height="24.65" shape-rendering="crispEdges"/><rect fill="#373737" x="12.2" y="562.7" width="658.8" height="24.65" shape-rendering="crispEdges"/><rect fill="#373737" x="671" y="562.7" width="12.2" height="24.65" shape-rendering="crispEdges"/><rect fill="#373737" x="0" y="587.1" width="12.2" height="24.65" shape-rendering="crispEdges"/><rect fill="#373737" x="12.2" y="587.1" width="658.8" height="24.65" shape-rendering="crispEdges"/><rect fill="#373737" x="671" y="587.1" width="12.2" height="24.65" shape-rendering="crispEdges"/><rect fill="#373737" x="0" y="611.5" width="12.2" height="24.65" shape-rendering="crispEdges"/><rect fill="#373737" x="12.2" y="611.5" width="658.8" height="24.65" shape-rendering="crispEdges"/><rect fill="#373737" x="671" y="611.5" width="12.2" height="24.65" shape-rendering="crispEdges"/>
    <g class="terminal-3063903634-matrix">
    <text class="terminal-3063903634-r1" x="683.2" y="20" textLength="12.2" clip-path="url(#terminal-3063903634-line-0)">
</text><text class="terminal-3063903634-r2" x="231.8" y="44.4" textLength="207.4" clip-path="url(#terminal-3063903634-line-1)">Editing&#160;Record&#160;26</text><text class="terminal-3063903634-r1" x="683.2" y="44.4" textLength="12.2" clip-path="url(#terminal-3063903634-line-1)">
</text><text class="terminal-3063903634-r3" x="12.2" y="68.8" textLength="658.8" clip-path="url(#terminal-3063903634-line-2)">──────────────────────────────────────────────────────</text><text class="terminal-3063903634-r1" x="683.2" y="68.8" textLength="12.2" clip-path="url(#terminal-3063903634-line-2)">
</text><text class="terminal-3063903634-r4" x="73.2" y="93.2" textLength="524.6" clip-path="url(#terminal-3063903634-line-3)">Edit&#160;the&#160;entry&#160;below&#160;as&#160;desired,&#160;then&#160;press</text><text class="terminal-3063903634-r1" x="683.2" y="93.2" textLength="12.2" clip-path="url(#terminal-3063903634-line-3)">
</text><text class="terminal-3063903634-r5" x="170.8" y="117.6" textLength="24.4" clip-path="url(#terminal-3063903634-line-4)">^s</text><text class="terminal-3063903634-r4" x="195.2" y="117.6" textLength="146.4" clip-path="url(#terminal-3063903634-line-4)">&#160;to&#160;save&#160;or&#160;</text><text class="terminal-3063903634-r5" x="341.6" y="117.6" textLength="48.8" clip-path="url(#terminal-3063903634-line-4)">^esc</text><text class="terminal-3063903634-r4" x="390.4" y="117.6" textLength="122" clip-path="url(#terminal-3063903634-line-4)">&#160;to&#160;cancel</text><text class="terminal-3063903634-r1" x="683.2" y="117.6" textLength="12.2" clip-path="url(#terminal-3063903634-line-4)">
</text><text class="terminal-3063903634-r3" x="12.2" y="142" textLength="12.2" clip-path="url(#terminal-3063903634-line-5)">┌</text><text class="terminal-3063903634-r3" x="24.4" y="142" textLength="634.4" clip-path="url(#terminal-3063903634-line-5)">────────────────────────────────────────────────────</text><text class="terminal-3063903634-r3" x="658.8" y="142" textLength="12.2" clip-path="url(#terminal-3063903634-line-5)">┐</text><text class="terminal-3063903634-r1" x="683.2" y="142" textLength="12.2" clip-path="url(#terminal-3063903634-line-5)">
</text><text class="terminal-3063903634-r3" x="12.2" y="166.4" textLength="12.2" clip-path="url(#terminal-3063903634-line-6)">│</text><text class="terminal-3063903634-r6" x="24.4" y="166.4" textLength="414.8" clip-path="url(#terminal-3063903634-line-6)">*&#160;Lunch&#160;with&#160;Ed&#160;@s&#160;12p&#160;@e&#160;1h30m&#160;@w</text><text class="terminal-3063903634-r3" x="658.8" y="166.4" textLength="12.2" clip-path="url(#terminal-3063903634-line-6)">│</text><text class="terminal-3063903634-r1" x="683.2" y="166.4" textLength="12.2" clip-path="url(#terminal-3063903634-line-6)">
</text><text class="terminal-3063903634-r3" x="12.2" y="190.8" textLength="12.2" clip-path="url(#terminal-3063903634-line-7)">│</text><text class="terminal-3063903634-r3" x="658.8" y="190.8" textLength="12.2" clip-path="url(#terminal-3063903634-line-7)">│</text><text class="terminal-3063903634-r1" x="683.2" y="190.8" textLength="12.2" clip-path="url(#terminal-3063903634-line-7)">
</text><text class="terminal-3063903634-r3" x="12.2" y="215.2" textLength="12.2" clip-path="url(#terminal-3063903634-line-8)">└</text><text class="terminal-3063903634-r3" x="24.4" y="215.2" textLength="634.4" clip-path="url(#terminal-3063903634-line-8)">────────────────────────────────────────────────────</text><text class="terminal-3063903634-r3" x="658.8" y="215.2" textLength="12.2" clip-path="url(#terminal-3063903634-line-8)">┘</text><text class="terminal-3063903634-r1" x="683.2" y="215.2" textLength="12.2" clip-path="url(#terminal-3063903634-line-8)">
</text><text class="terminal-3063903634-r8" x="24.4" y="239.6" textLength="536.8" clip-path="url(#terminal-3063903634-line-9)">wrap:&#160;wrap&#160;timedelta&#160;before,&#160;timedelta&#160;after</text><text class="terminal-3063903634-r1" x="683.2" y="239.6" textLength="12.2" clip-path="url(#terminal-3063903634-line-9)">
</text><text class="terminal-3063903634-r1" x="683.2" y="264" textLength="12.2" clip-path="url(#terminal-3063903634-line-10)">
</text><text class="terminal-3063903634-r1" x="683.2" y="288.4" textLength="12.2" clip-path="url(#terminal-3063903634-line-11)">
</text><text class="terminal-3063903634-r1" x="683.2" y="312.8" textLength="12.2" clip-path="url(#terminal-3063903634-line-12)">
</text><text class="terminal-3063903634-r1" x="683.2" y="337.2" textLength="12.2" clip-path="url(#terminal-3063903634-line-13)">
</text><text class="terminal-3063903634-r1" x="683.2" y="361.6" textLength="12.2" clip-path="url(#terminal-3063903634-line-14)">
</text><text class="terminal-3063903634-r1" x="683.2" y="386" textLength="12.2" clip-path="url(#terminal-3063903634-line-15)">
</text><text class="terminal-3063903634-r1" x="683.2" y="410.4" textLength="12.2" clip-path="url(#terminal-3063903634-line-16)">
</text><text class="terminal-3063903634-r1" x="683.2" y="434.8" textLength="12.2" clip-path="url(#terminal-3063903634-line-17)">
</text><text class="terminal-3063903634-r1" x="683.2" y="459.2" textLength="12.2" clip-path="url(#terminal-3063903634-line-18)">
</text><text class="terminal-3063903634-r1" x="683.2" y="483.6" textLength="12.2" clip-path="url(#terminal-3063903634-line-19)">
</text><text class="terminal-3063903634-r1" x="683.2" y="508" textLength="12.2" clip-path="url(#terminal-3063903634-line-20)">
</text><text class="terminal-3063903634-r1" x="683.2" y="532.4" textLength="12.2" clip-path="url(#terminal-3063903634-line-21)">
</text><text class="terminal-3063903634-r1" x="683.2" y="556.8" textLength="12.2" clip-path="url(#terminal-3063903634-line-22)">
</text><text class="terminal-3063903634-r1" x="683.2" y="581.2" textLength="12.2" clip-path="url(#terminal-3063903634-line-23)">
</text><text class="terminal-3063903634-r1" x="683.2" y="605.6" textLength="12.2" clip-path="url(#terminal-3063903634-line-24)">
</text>
    </g>
    </g>
</svg>
